M48
METRIC,TZ
T1C0.300
T2C0.400
T3C0.500
T4C0.711
T5C0.800
T6C1.000
%
G90
G05
T1
X85663Y-76000
X85713Y-77400
X86863Y-76000
X86913Y-77400
T2
X66900Y-67100
X79513Y-79400
X81400Y-63150
X81613Y-79400
X81650Y-54900
X83713Y-79400
X97325Y-73300
X98225Y-68000
X104800Y-73300
X105950Y-52700
X106175Y-71150
X107000Y-78375
X111825Y-73975
X114900Y-78675
X117425Y-73975
X119250Y-79450
X119400Y-71500
X121400Y-79425
X127200Y-69675
T3
X55900Y-75700
X55900Y-78700
X125000Y-73600
T4
X112620Y-49350
X115160Y-51890
X117700Y-49350
T5
X87425Y-56175
X87425Y-61055
X92105Y-55475
X92105Y-63095
X94645Y-55475
X94645Y-63095
X97185Y-55475
X97185Y-63095
X99725Y-55475
X99725Y-63095
X102265Y-55475
X102265Y-63095
X104805Y-55475
X104805Y-63095
X107345Y-55475
X107345Y-63095
X109885Y-55475
X109885Y-63095
X112425Y-55475
X112425Y-63095
X114965Y-55475
X114965Y-63095
X117505Y-55475
X117505Y-63095
X120045Y-55475
X120045Y-63095
X122585Y-55475
X122585Y-63095
X125125Y-55475
X125125Y-63095
T6
X52750Y-60650
X55250Y-60650
X66920Y-70300
X72000Y-70300
X77080Y-70300
X77500Y-51150
X77500Y-53650
X79620Y-70300
X82200Y-46475
X84740Y-46475
X87280Y-46475
X88255Y-67850
X89820Y-46475
X90795Y-67850
X92360Y-46475
X93335Y-67850
X94900Y-46475
X95875Y-67850
X97440Y-46475
X99980Y-46475
X102520Y-46475
X105060Y-46475
X107600Y-46475
X110140Y-46475
X112680Y-46475
X115220Y-46475
X117760Y-46475
X120300Y-46475
T0
M30
