G04 #@! TF.GenerationSoftware,KiCad,Pcbnew,(6.0.0-0)*
G04 #@! TF.CreationDate,2022-02-24T15:34:45+01:00*
G04 #@! TF.ProjectId,AC Power Supply,41432050-6f77-4657-9220-537570706c79,rev?*
G04 #@! TF.SameCoordinates,Original*
G04 #@! TF.FileFunction,Legend,Top*
G04 #@! TF.FilePolarity,Positive*
%FSLAX46Y46*%
G04 Gerber Fmt 4.6, Leading zero omitted, Abs format (unit mm)*
G04 Created by KiCad (PCBNEW (6.0.0-0)) date 2022-02-24 15:34:45*
%MOMM*%
%LPD*%
G01*
G04 APERTURE LIST*
G04 Aperture macros list*
%AMRoundRect*
0 Rectangle with rounded corners*
0 $1 Rounding radius*
0 $2 $3 $4 $5 $6 $7 $8 $9 X,Y pos of 4 corners*
0 Add a 4 corners polygon primitive as box body*
4,1,4,$2,$3,$4,$5,$6,$7,$8,$9,$2,$3,0*
0 Add four circle primitives for the rounded corners*
1,1,$1+$1,$2,$3*
1,1,$1+$1,$4,$5*
1,1,$1+$1,$6,$7*
1,1,$1+$1,$8,$9*
0 Add four rect primitives between the rounded corners*
20,1,$1+$1,$2,$3,$4,$5,0*
20,1,$1+$1,$4,$5,$6,$7,0*
20,1,$1+$1,$6,$7,$8,$9,0*
20,1,$1+$1,$8,$9,$2,$3,0*%
G04 Aperture macros list end*
%ADD10C,0.150000*%
%ADD11C,0.100000*%
%ADD12C,0.300000*%
%ADD13C,0.125000*%
%ADD14C,0.120000*%
%ADD15C,0.127000*%
%ADD16C,0.200000*%
%ADD17R,1.560000X0.650000*%
%ADD18RoundRect,0.150000X-0.825000X-0.150000X0.825000X-0.150000X0.825000X0.150000X-0.825000X0.150000X0*%
%ADD19C,1.000000*%
%ADD20C,2.700000*%
%ADD21RoundRect,0.250000X0.450000X-0.350000X0.450000X0.350000X-0.450000X0.350000X-0.450000X-0.350000X0*%
%ADD22RoundRect,0.250000X-0.450000X0.350000X-0.450000X-0.350000X0.450000X-0.350000X0.450000X0.350000X0*%
%ADD23RoundRect,0.250000X-0.400000X-0.625000X0.400000X-0.625000X0.400000X0.625000X-0.400000X0.625000X0*%
%ADD24RoundRect,0.250000X-0.475000X0.337500X-0.475000X-0.337500X0.475000X-0.337500X0.475000X0.337500X0*%
%ADD25RoundRect,0.250000X0.475000X-0.337500X0.475000X0.337500X-0.475000X0.337500X-0.475000X-0.337500X0*%
%ADD26RoundRect,0.250000X-0.350000X-0.450000X0.350000X-0.450000X0.350000X0.450000X-0.350000X0.450000X0*%
%ADD27RoundRect,0.250000X0.350000X0.450000X-0.350000X0.450000X-0.350000X-0.450000X0.350000X-0.450000X0*%
%ADD28RoundRect,0.250000X1.450000X-0.400000X1.450000X0.400000X-1.450000X0.400000X-1.450000X-0.400000X0*%
%ADD29RoundRect,0.250000X0.337500X0.475000X-0.337500X0.475000X-0.337500X-0.475000X0.337500X-0.475000X0*%
%ADD30RoundRect,0.250000X0.400000X0.625000X-0.400000X0.625000X-0.400000X-0.625000X0.400000X-0.625000X0*%
%ADD31RoundRect,0.250000X0.450000X-0.325000X0.450000X0.325000X-0.450000X0.325000X-0.450000X-0.325000X0*%
%ADD32R,1.508000X1.508000*%
%ADD33C,1.508000*%
%ADD34R,1.700000X1.700000*%
%ADD35O,1.700000X1.700000*%
%ADD36RoundRect,0.250000X-0.337500X-0.475000X0.337500X-0.475000X0.337500X0.475000X-0.337500X0.475000X0*%
%ADD37R,1.799999X0.599999*%
%ADD38C,1.219200*%
%ADD39C,1.500000*%
%ADD40R,1.600000X2.400000*%
%ADD41O,1.600000X2.400000*%
G04 APERTURE END LIST*
D10*
X56885714Y-51757142D02*
X56585714Y-51328571D01*
X56371428Y-51757142D02*
X56371428Y-50857142D01*
X56714285Y-50857142D01*
X56800000Y-50900000D01*
X56842857Y-50942857D01*
X56885714Y-51028571D01*
X56885714Y-51157142D01*
X56842857Y-51242857D01*
X56800000Y-51285714D01*
X56714285Y-51328571D01*
X56371428Y-51328571D01*
X57614285Y-51714285D02*
X57528571Y-51757142D01*
X57357142Y-51757142D01*
X57271428Y-51714285D01*
X57228571Y-51628571D01*
X57228571Y-51285714D01*
X57271428Y-51200000D01*
X57357142Y-51157142D01*
X57528571Y-51157142D01*
X57614285Y-51200000D01*
X57657142Y-51285714D01*
X57657142Y-51371428D01*
X57228571Y-51457142D01*
X57957142Y-51157142D02*
X58171428Y-51757142D01*
X58385714Y-51157142D01*
X58728571Y-51757142D02*
X58728571Y-51157142D01*
X58728571Y-50857142D02*
X58685714Y-50900000D01*
X58728571Y-50942857D01*
X58771428Y-50900000D01*
X58728571Y-50857142D01*
X58728571Y-50942857D01*
X59114285Y-51714285D02*
X59200000Y-51757142D01*
X59371428Y-51757142D01*
X59457142Y-51714285D01*
X59500000Y-51628571D01*
X59500000Y-51585714D01*
X59457142Y-51500000D01*
X59371428Y-51457142D01*
X59242857Y-51457142D01*
X59157142Y-51414285D01*
X59114285Y-51328571D01*
X59114285Y-51285714D01*
X59157142Y-51200000D01*
X59242857Y-51157142D01*
X59371428Y-51157142D01*
X59457142Y-51200000D01*
X59885714Y-51757142D02*
X59885714Y-51157142D01*
X59885714Y-50857142D02*
X59842857Y-50900000D01*
X59885714Y-50942857D01*
X59928571Y-50900000D01*
X59885714Y-50857142D01*
X59885714Y-50942857D01*
X60442857Y-51757142D02*
X60357142Y-51714285D01*
X60314285Y-51671428D01*
X60271428Y-51585714D01*
X60271428Y-51328571D01*
X60314285Y-51242857D01*
X60357142Y-51200000D01*
X60442857Y-51157142D01*
X60571428Y-51157142D01*
X60657142Y-51200000D01*
X60700000Y-51242857D01*
X60742857Y-51328571D01*
X60742857Y-51585714D01*
X60700000Y-51671428D01*
X60657142Y-51714285D01*
X60571428Y-51757142D01*
X60442857Y-51757142D01*
X61128571Y-51157142D02*
X61128571Y-51757142D01*
X61128571Y-51242857D02*
X61171428Y-51200000D01*
X61257142Y-51157142D01*
X61385714Y-51157142D01*
X61471428Y-51200000D01*
X61514285Y-51285714D01*
X61514285Y-51757142D01*
X63100000Y-51757142D02*
X62585714Y-51757142D01*
X62842857Y-51757142D02*
X62842857Y-50857142D01*
X62757142Y-50985714D01*
X62671428Y-51071428D01*
X62585714Y-51114285D01*
X63485714Y-51671428D02*
X63528571Y-51714285D01*
X63485714Y-51757142D01*
X63442857Y-51714285D01*
X63485714Y-51671428D01*
X63485714Y-51757142D01*
X63871428Y-50942857D02*
X63914285Y-50900000D01*
X64000000Y-50857142D01*
X64214285Y-50857142D01*
X64300000Y-50900000D01*
X64342857Y-50942857D01*
X64385714Y-51028571D01*
X64385714Y-51114285D01*
X64342857Y-51242857D01*
X63828571Y-51757142D01*
X64385714Y-51757142D01*
X64771428Y-51671428D02*
X64814285Y-51714285D01*
X64771428Y-51757142D01*
X64728571Y-51714285D01*
X64771428Y-51671428D01*
X64771428Y-51757142D01*
X65371428Y-50857142D02*
X65457142Y-50857142D01*
X65542857Y-50900000D01*
X65585714Y-50942857D01*
X65628571Y-51028571D01*
X65671428Y-51200000D01*
X65671428Y-51414285D01*
X65628571Y-51585714D01*
X65585714Y-51671428D01*
X65542857Y-51714285D01*
X65457142Y-51757142D01*
X65371428Y-51757142D01*
X65285714Y-51714285D01*
X65242857Y-51671428D01*
X65200000Y-51585714D01*
X65157142Y-51414285D01*
X65157142Y-51200000D01*
X65200000Y-51028571D01*
X65242857Y-50942857D01*
X65285714Y-50900000D01*
X65371428Y-50857142D01*
X55242857Y-56561904D02*
X55509523Y-57361904D01*
X55776190Y-56561904D01*
X56042857Y-57361904D02*
X56042857Y-56561904D01*
X56423809Y-57361904D02*
X56423809Y-56561904D01*
X56880952Y-57361904D01*
X56880952Y-56561904D01*
X57223809Y-56638095D02*
X57261904Y-56600000D01*
X57338095Y-56561904D01*
X57528571Y-56561904D01*
X57604761Y-56600000D01*
X57642857Y-56638095D01*
X57680952Y-56714285D01*
X57680952Y-56790476D01*
X57642857Y-56904761D01*
X57185714Y-57361904D01*
X57680952Y-57361904D01*
X93216666Y-70104761D02*
X93216666Y-70485713D01*
X92988095Y-70028570D02*
X93788095Y-70295237D01*
X92988095Y-70561904D01*
X93788095Y-70980951D02*
X93788095Y-71057142D01*
X93750000Y-71133332D01*
X93711904Y-71171428D01*
X93635714Y-71209523D01*
X93483333Y-71247618D01*
X93292857Y-71247618D01*
X93140476Y-71209523D01*
X93064285Y-71171428D01*
X93026190Y-71133332D01*
X92988095Y-71057142D01*
X92988095Y-70980951D01*
X93026190Y-70904761D01*
X93064285Y-70866666D01*
X93140476Y-70828570D01*
X93292857Y-70790475D01*
X93483333Y-70790475D01*
X93635714Y-70828570D01*
X93711904Y-70866666D01*
X93750000Y-70904761D01*
X93788095Y-70980951D01*
X71371428Y-50457142D02*
X71980952Y-50457142D01*
X71676190Y-50761904D02*
X71676190Y-50152380D01*
X72742857Y-49961904D02*
X72361904Y-49961904D01*
X72323809Y-50342857D01*
X72361904Y-50304761D01*
X72438095Y-50266666D01*
X72628571Y-50266666D01*
X72704761Y-50304761D01*
X72742857Y-50342857D01*
X72780952Y-50419047D01*
X72780952Y-50609523D01*
X72742857Y-50685714D01*
X72704761Y-50723809D01*
X72628571Y-50761904D01*
X72438095Y-50761904D01*
X72361904Y-50723809D01*
X72323809Y-50685714D01*
X73009523Y-49961904D02*
X73276190Y-50761904D01*
X73542857Y-49961904D01*
X95716666Y-70104761D02*
X95716666Y-70485714D01*
X95488095Y-70028571D02*
X96288095Y-70295238D01*
X95488095Y-70561904D01*
X95488095Y-71285714D02*
X95869047Y-71019047D01*
X95488095Y-70828571D02*
X96288095Y-70828571D01*
X96288095Y-71133333D01*
X96250000Y-71209523D01*
X96211904Y-71247619D01*
X96135714Y-71285714D01*
X96021428Y-71285714D01*
X95945238Y-71247619D01*
X95907142Y-71209523D01*
X95869047Y-71133333D01*
X95869047Y-70828571D01*
X95907142Y-71628571D02*
X95907142Y-71895238D01*
X95488095Y-72009523D02*
X95488095Y-71628571D01*
X96288095Y-71628571D01*
X96288095Y-72009523D01*
X95907142Y-72619047D02*
X95907142Y-72352380D01*
X95488095Y-72352380D02*
X96288095Y-72352380D01*
X96288095Y-72733333D01*
X90742857Y-70142856D02*
X90742857Y-70752380D01*
X90438095Y-70447618D02*
X91047619Y-70447618D01*
X91238095Y-71514285D02*
X91238095Y-71133332D01*
X90857142Y-71095237D01*
X90895238Y-71133332D01*
X90933333Y-71209523D01*
X90933333Y-71399999D01*
X90895238Y-71476189D01*
X90857142Y-71514285D01*
X90780952Y-71552380D01*
X90590476Y-71552380D01*
X90514285Y-71514285D01*
X90476190Y-71476189D01*
X90438095Y-71399999D01*
X90438095Y-71209523D01*
X90476190Y-71133332D01*
X90514285Y-71095237D01*
X91238095Y-71780951D02*
X90438095Y-72047618D01*
X91238095Y-72314285D01*
D11*
X52633333Y-52883333D02*
X52566666Y-52850000D01*
X52433333Y-52850000D01*
X52366666Y-52883333D01*
X52300000Y-52950000D01*
X52266666Y-53016666D01*
X52266666Y-53150000D01*
X52300000Y-53216666D01*
X52366666Y-53283333D01*
X52433333Y-53316666D01*
X52566666Y-53316666D01*
X52633333Y-53283333D01*
X52500000Y-52616666D02*
X52333333Y-52650000D01*
X52166666Y-52750000D01*
X52066666Y-52916666D01*
X52033333Y-53083333D01*
X52066666Y-53250000D01*
X52166666Y-53416666D01*
X52333333Y-53516666D01*
X52500000Y-53550000D01*
X52666666Y-53516666D01*
X52833333Y-53416666D01*
X52933333Y-53250000D01*
X52966666Y-53083333D01*
X52933333Y-52916666D01*
X52833333Y-52750000D01*
X52666666Y-52650000D01*
X52500000Y-52616666D01*
X53766666Y-52783333D02*
X53800000Y-52750000D01*
X53866666Y-52716666D01*
X54033333Y-52716666D01*
X54100000Y-52750000D01*
X54133333Y-52783333D01*
X54166666Y-52850000D01*
X54166666Y-52916666D01*
X54133333Y-53016666D01*
X53733333Y-53416666D01*
X54166666Y-53416666D01*
X54600000Y-52716666D02*
X54666666Y-52716666D01*
X54733333Y-52750000D01*
X54766666Y-52783333D01*
X54800000Y-52850000D01*
X54833333Y-52983333D01*
X54833333Y-53150000D01*
X54800000Y-53283333D01*
X54766666Y-53350000D01*
X54733333Y-53383333D01*
X54666666Y-53416666D01*
X54600000Y-53416666D01*
X54533333Y-53383333D01*
X54500000Y-53350000D01*
X54466666Y-53283333D01*
X54433333Y-53150000D01*
X54433333Y-52983333D01*
X54466666Y-52850000D01*
X54500000Y-52783333D01*
X54533333Y-52750000D01*
X54600000Y-52716666D01*
X55100000Y-52783333D02*
X55133333Y-52750000D01*
X55200000Y-52716666D01*
X55366666Y-52716666D01*
X55433333Y-52750000D01*
X55466666Y-52783333D01*
X55500000Y-52850000D01*
X55500000Y-52916666D01*
X55466666Y-53016666D01*
X55066666Y-53416666D01*
X55500000Y-53416666D01*
X55766666Y-52783333D02*
X55800000Y-52750000D01*
X55866666Y-52716666D01*
X56033333Y-52716666D01*
X56100000Y-52750000D01*
X56133333Y-52783333D01*
X56166666Y-52850000D01*
X56166666Y-52916666D01*
X56133333Y-53016666D01*
X55733333Y-53416666D01*
X56166666Y-53416666D01*
X57000000Y-53416666D02*
X57000000Y-52716666D01*
X57400000Y-53416666D01*
X57400000Y-52716666D01*
X57733333Y-53416666D02*
X57733333Y-52950000D01*
X57733333Y-52716666D02*
X57700000Y-52750000D01*
X57733333Y-52783333D01*
X57766666Y-52750000D01*
X57733333Y-52716666D01*
X57733333Y-52783333D01*
X58066666Y-53416666D02*
X58066666Y-52716666D01*
X58133333Y-53150000D02*
X58333333Y-53416666D01*
X58333333Y-52950000D02*
X58066666Y-53216666D01*
X58733333Y-53416666D02*
X58666666Y-53383333D01*
X58633333Y-53350000D01*
X58600000Y-53283333D01*
X58600000Y-53083333D01*
X58633333Y-53016666D01*
X58666666Y-52983333D01*
X58733333Y-52950000D01*
X58833333Y-52950000D01*
X58900000Y-52983333D01*
X58933333Y-53016666D01*
X58966666Y-53083333D01*
X58966666Y-53283333D01*
X58933333Y-53350000D01*
X58900000Y-53383333D01*
X58833333Y-53416666D01*
X58733333Y-53416666D01*
X59366666Y-53416666D02*
X59300000Y-53383333D01*
X59266666Y-53316666D01*
X59266666Y-52716666D01*
X59933333Y-53416666D02*
X59933333Y-53050000D01*
X59900000Y-52983333D01*
X59833333Y-52950000D01*
X59700000Y-52950000D01*
X59633333Y-52983333D01*
X59933333Y-53383333D02*
X59866666Y-53416666D01*
X59700000Y-53416666D01*
X59633333Y-53383333D01*
X59600000Y-53316666D01*
X59600000Y-53250000D01*
X59633333Y-53183333D01*
X59700000Y-53150000D01*
X59866666Y-53150000D01*
X59933333Y-53116666D01*
X60266666Y-52950000D02*
X60266666Y-53550000D01*
X60233333Y-53616666D01*
X60166666Y-53650000D01*
X60133333Y-53650000D01*
X60266666Y-52716666D02*
X60233333Y-52750000D01*
X60266666Y-52783333D01*
X60300000Y-52750000D01*
X60266666Y-52716666D01*
X60266666Y-52783333D01*
X61366666Y-53050000D02*
X61466666Y-53083333D01*
X61500000Y-53116666D01*
X61533333Y-53183333D01*
X61533333Y-53283333D01*
X61500000Y-53350000D01*
X61466666Y-53383333D01*
X61400000Y-53416666D01*
X61133333Y-53416666D01*
X61133333Y-52716666D01*
X61366666Y-52716666D01*
X61433333Y-52750000D01*
X61466666Y-52783333D01*
X61500000Y-52850000D01*
X61500000Y-52916666D01*
X61466666Y-52983333D01*
X61433333Y-53016666D01*
X61366666Y-53050000D01*
X61133333Y-53050000D01*
X61833333Y-53416666D02*
X61833333Y-52950000D01*
X61833333Y-53083333D02*
X61866666Y-53016666D01*
X61900000Y-52983333D01*
X61966666Y-52950000D01*
X62033333Y-52950000D01*
X62266666Y-53416666D02*
X62266666Y-52950000D01*
X62266666Y-52716666D02*
X62233333Y-52750000D01*
X62266666Y-52783333D01*
X62300000Y-52750000D01*
X62266666Y-52716666D01*
X62266666Y-52783333D01*
X62600000Y-52950000D02*
X62600000Y-53416666D01*
X62600000Y-53016666D02*
X62633333Y-52983333D01*
X62700000Y-52950000D01*
X62800000Y-52950000D01*
X62866666Y-52983333D01*
X62900000Y-53050000D01*
X62900000Y-53416666D01*
X63533333Y-53383333D02*
X63466666Y-53416666D01*
X63333333Y-53416666D01*
X63266666Y-53383333D01*
X63233333Y-53350000D01*
X63200000Y-53283333D01*
X63200000Y-53083333D01*
X63233333Y-53016666D01*
X63266666Y-52983333D01*
X63333333Y-52950000D01*
X63466666Y-52950000D01*
X63533333Y-52983333D01*
X63833333Y-53416666D02*
X63833333Y-52716666D01*
X64133333Y-53416666D02*
X64133333Y-53050000D01*
X64100000Y-52983333D01*
X64033333Y-52950000D01*
X63933333Y-52950000D01*
X63866666Y-52983333D01*
X63833333Y-53016666D01*
X65200000Y-52716666D02*
X65200000Y-53216666D01*
X65166666Y-53316666D01*
X65100000Y-53383333D01*
X65000000Y-53416666D01*
X64933333Y-53416666D01*
X65900000Y-52950000D02*
X65466666Y-53416666D01*
X65633333Y-53416666D02*
X65566666Y-53383333D01*
X65533333Y-53350000D01*
X65500000Y-53283333D01*
X65500000Y-53083333D01*
X65533333Y-53016666D01*
X65566666Y-52983333D01*
X65633333Y-52950000D01*
X65733333Y-52950000D01*
X65800000Y-52983333D01*
X65833333Y-53016666D01*
X65866666Y-53083333D01*
X65866666Y-53283333D01*
X65833333Y-53350000D01*
X65800000Y-53383333D01*
X65733333Y-53416666D01*
X65633333Y-53416666D01*
X66166666Y-53416666D02*
X66166666Y-52950000D01*
X66166666Y-53083333D02*
X66200000Y-53016666D01*
X66233333Y-52983333D01*
X66300000Y-52950000D01*
X66366666Y-52950000D01*
X66900000Y-52950000D02*
X66900000Y-53516666D01*
X66866666Y-53583333D01*
X66833333Y-53616666D01*
X66766666Y-53650000D01*
X66666666Y-53650000D01*
X66600000Y-53616666D01*
X66900000Y-53383333D02*
X66833333Y-53416666D01*
X66700000Y-53416666D01*
X66633333Y-53383333D01*
X66600000Y-53350000D01*
X66566666Y-53283333D01*
X66566666Y-53083333D01*
X66600000Y-53016666D01*
X66633333Y-52983333D01*
X66700000Y-52950000D01*
X66833333Y-52950000D01*
X66900000Y-52983333D01*
X67500000Y-53383333D02*
X67433333Y-53416666D01*
X67300000Y-53416666D01*
X67233333Y-53383333D01*
X67200000Y-53316666D01*
X67200000Y-53050000D01*
X67233333Y-52983333D01*
X67300000Y-52950000D01*
X67433333Y-52950000D01*
X67500000Y-52983333D01*
X67533333Y-53050000D01*
X67533333Y-53116666D01*
X67200000Y-53183333D01*
X67833333Y-52950000D02*
X67833333Y-53416666D01*
X67833333Y-53016666D02*
X67866666Y-52983333D01*
X67933333Y-52950000D01*
X68033333Y-52950000D01*
X68100000Y-52983333D01*
X68133333Y-53050000D01*
X68133333Y-53416666D01*
X68433333Y-53383333D02*
X68500000Y-53416666D01*
X68633333Y-53416666D01*
X68700000Y-53383333D01*
X68733333Y-53316666D01*
X68733333Y-53283333D01*
X68700000Y-53216666D01*
X68633333Y-53183333D01*
X68533333Y-53183333D01*
X68466666Y-53150000D01*
X68433333Y-53083333D01*
X68433333Y-53050000D01*
X68466666Y-52983333D01*
X68533333Y-52950000D01*
X68633333Y-52950000D01*
X68700000Y-52983333D01*
X69300000Y-53383333D02*
X69233333Y-53416666D01*
X69100000Y-53416666D01*
X69033333Y-53383333D01*
X69000000Y-53316666D01*
X69000000Y-53050000D01*
X69033333Y-52983333D01*
X69100000Y-52950000D01*
X69233333Y-52950000D01*
X69300000Y-52983333D01*
X69333333Y-53050000D01*
X69333333Y-53116666D01*
X69000000Y-53183333D01*
X69633333Y-52950000D02*
X69633333Y-53416666D01*
X69633333Y-53016666D02*
X69666666Y-52983333D01*
X69733333Y-52950000D01*
X69833333Y-52950000D01*
X69900000Y-52983333D01*
X69933333Y-53050000D01*
X69933333Y-53416666D01*
D10*
X88650000Y-70561904D02*
X88688095Y-70485713D01*
X88688095Y-70371428D01*
X88650000Y-70257142D01*
X88573809Y-70180951D01*
X88497619Y-70142856D01*
X88345238Y-70104761D01*
X88230952Y-70104761D01*
X88078571Y-70142856D01*
X88002380Y-70180951D01*
X87926190Y-70257142D01*
X87888095Y-70371428D01*
X87888095Y-70447618D01*
X87926190Y-70561904D01*
X87964285Y-70599999D01*
X88230952Y-70599999D01*
X88230952Y-70447618D01*
X87888095Y-70942856D02*
X88688095Y-70942856D01*
X87888095Y-71399999D01*
X88688095Y-71399999D01*
X87888095Y-71780951D02*
X88688095Y-71780951D01*
X88688095Y-71971428D01*
X88650000Y-72085713D01*
X88573809Y-72161904D01*
X88497619Y-72199999D01*
X88345238Y-72238094D01*
X88230952Y-72238094D01*
X88078571Y-72199999D01*
X88002380Y-72161904D01*
X87926190Y-72085713D01*
X87888095Y-71971428D01*
X87888095Y-71780951D01*
D12*
X54000000Y-49650000D02*
X54714285Y-49650000D01*
X53857142Y-50078571D02*
X54357142Y-48578571D01*
X54857142Y-50078571D01*
X56214285Y-49935714D02*
X56142857Y-50007142D01*
X55928571Y-50078571D01*
X55785714Y-50078571D01*
X55571428Y-50007142D01*
X55428571Y-49864285D01*
X55357142Y-49721428D01*
X55285714Y-49435714D01*
X55285714Y-49221428D01*
X55357142Y-48935714D01*
X55428571Y-48792857D01*
X55571428Y-48650000D01*
X55785714Y-48578571D01*
X55928571Y-48578571D01*
X56142857Y-48650000D01*
X56214285Y-48721428D01*
X57785714Y-48578571D02*
X58285714Y-50078571D01*
X58785714Y-48578571D01*
X59500000Y-50078571D02*
X59357142Y-50007142D01*
X59285714Y-49935714D01*
X59214285Y-49792857D01*
X59214285Y-49364285D01*
X59285714Y-49221428D01*
X59357142Y-49150000D01*
X59500000Y-49078571D01*
X59714285Y-49078571D01*
X59857142Y-49150000D01*
X59928571Y-49221428D01*
X60000000Y-49364285D01*
X60000000Y-49792857D01*
X59928571Y-49935714D01*
X59857142Y-50007142D01*
X59714285Y-50078571D01*
X59500000Y-50078571D01*
X60857142Y-50078571D02*
X60714285Y-50007142D01*
X60642857Y-49864285D01*
X60642857Y-48578571D01*
X61214285Y-49078571D02*
X61785714Y-49078571D01*
X61428571Y-48578571D02*
X61428571Y-49864285D01*
X61500000Y-50007142D01*
X61642857Y-50078571D01*
X61785714Y-50078571D01*
X62285714Y-50078571D02*
X62285714Y-49078571D01*
X62285714Y-49221428D02*
X62357142Y-49150000D01*
X62500000Y-49078571D01*
X62714285Y-49078571D01*
X62857142Y-49150000D01*
X62928571Y-49292857D01*
X62928571Y-50078571D01*
X62928571Y-49292857D02*
X63000000Y-49150000D01*
X63142857Y-49078571D01*
X63357142Y-49078571D01*
X63500000Y-49150000D01*
X63571428Y-49292857D01*
X63571428Y-50078571D01*
X64857142Y-50007142D02*
X64714285Y-50078571D01*
X64428571Y-50078571D01*
X64285714Y-50007142D01*
X64214285Y-49864285D01*
X64214285Y-49292857D01*
X64285714Y-49150000D01*
X64428571Y-49078571D01*
X64714285Y-49078571D01*
X64857142Y-49150000D01*
X64928571Y-49292857D01*
X64928571Y-49435714D01*
X64214285Y-49578571D01*
X65357142Y-49078571D02*
X65928571Y-49078571D01*
X65571428Y-48578571D02*
X65571428Y-49864285D01*
X65642857Y-50007142D01*
X65785714Y-50078571D01*
X65928571Y-50078571D01*
X67000000Y-50007142D02*
X66857142Y-50078571D01*
X66571428Y-50078571D01*
X66428571Y-50007142D01*
X66357142Y-49864285D01*
X66357142Y-49292857D01*
X66428571Y-49150000D01*
X66571428Y-49078571D01*
X66857142Y-49078571D01*
X67000000Y-49150000D01*
X67071428Y-49292857D01*
X67071428Y-49435714D01*
X66357142Y-49578571D01*
X67714285Y-50078571D02*
X67714285Y-49078571D01*
X67714285Y-49364285D02*
X67785714Y-49221428D01*
X67857142Y-49150000D01*
X68000000Y-49078571D01*
X68142857Y-49078571D01*
D10*
X71890476Y-53300000D02*
X71814285Y-53261904D01*
X71700000Y-53261904D01*
X71585714Y-53300000D01*
X71509523Y-53376190D01*
X71471428Y-53452380D01*
X71433333Y-53604761D01*
X71433333Y-53719047D01*
X71471428Y-53871428D01*
X71509523Y-53947619D01*
X71585714Y-54023809D01*
X71700000Y-54061904D01*
X71776190Y-54061904D01*
X71890476Y-54023809D01*
X71928571Y-53985714D01*
X71928571Y-53719047D01*
X71776190Y-53719047D01*
X72271428Y-54061904D02*
X72271428Y-53261904D01*
X72728571Y-54061904D01*
X72728571Y-53261904D01*
X73109523Y-54061904D02*
X73109523Y-53261904D01*
X73300000Y-53261904D01*
X73414285Y-53300000D01*
X73490476Y-53376190D01*
X73528571Y-53452380D01*
X73566666Y-53604761D01*
X73566666Y-53719047D01*
X73528571Y-53871428D01*
X73490476Y-53947619D01*
X73414285Y-54023809D01*
X73300000Y-54061904D01*
X73109523Y-54061904D01*
X50342857Y-56561904D02*
X50609523Y-57361904D01*
X50876190Y-56561904D01*
X51142857Y-57361904D02*
X51142857Y-56561904D01*
X51523809Y-57361904D02*
X51523809Y-56561904D01*
X51980952Y-57361904D01*
X51980952Y-56561904D01*
X52780952Y-57361904D02*
X52323809Y-57361904D01*
X52552380Y-57361904D02*
X52552380Y-56561904D01*
X52476190Y-56676190D01*
X52400000Y-56752380D01*
X52323809Y-56790476D01*
D13*
X100840476Y-71161904D02*
X100840476Y-71809523D01*
X100878571Y-71885714D01*
X100916666Y-71923809D01*
X100992857Y-71961904D01*
X101145238Y-71961904D01*
X101221428Y-71923809D01*
X101259523Y-71885714D01*
X101297619Y-71809523D01*
X101297619Y-71161904D01*
X101640476Y-71238095D02*
X101678571Y-71200000D01*
X101754761Y-71161904D01*
X101945238Y-71161904D01*
X102021428Y-71200000D01*
X102059523Y-71238095D01*
X102097619Y-71314285D01*
X102097619Y-71390476D01*
X102059523Y-71504761D01*
X101602380Y-71961904D01*
X102097619Y-71961904D01*
X119790476Y-65761904D02*
X119790476Y-66409523D01*
X119828571Y-66485714D01*
X119866666Y-66523809D01*
X119942857Y-66561904D01*
X120095238Y-66561904D01*
X120171428Y-66523809D01*
X120209523Y-66485714D01*
X120247619Y-66409523D01*
X120247619Y-65761904D01*
X121047619Y-66561904D02*
X120590476Y-66561904D01*
X120819047Y-66561904D02*
X120819047Y-65761904D01*
X120742857Y-65876190D01*
X120666666Y-65952380D01*
X120590476Y-65990476D01*
X122961904Y-74859523D02*
X122961904Y-74402380D01*
X123761904Y-74630952D02*
X122961904Y-74630952D01*
X123761904Y-74135714D02*
X122961904Y-74135714D01*
X122961904Y-73830952D01*
X123000000Y-73754761D01*
X123038095Y-73716666D01*
X123114285Y-73678571D01*
X123228571Y-73678571D01*
X123304761Y-73716666D01*
X123342857Y-73754761D01*
X123380952Y-73830952D01*
X123380952Y-74135714D01*
X122961904Y-73411904D02*
X122961904Y-72916666D01*
X123266666Y-73183333D01*
X123266666Y-73069047D01*
X123304761Y-72992857D01*
X123342857Y-72954761D01*
X123419047Y-72916666D01*
X123609523Y-72916666D01*
X123685714Y-72954761D01*
X123723809Y-72992857D01*
X123761904Y-73069047D01*
X123761904Y-73297619D01*
X123723809Y-73373809D01*
X123685714Y-73411904D01*
X56990476Y-78961904D02*
X57447619Y-78961904D01*
X57219047Y-79761904D02*
X57219047Y-78961904D01*
X57714285Y-79761904D02*
X57714285Y-78961904D01*
X58019047Y-78961904D01*
X58095238Y-79000000D01*
X58133333Y-79038095D01*
X58171428Y-79114285D01*
X58171428Y-79228571D01*
X58133333Y-79304761D01*
X58095238Y-79342857D01*
X58019047Y-79380952D01*
X57714285Y-79380952D01*
X58476190Y-79038095D02*
X58514285Y-79000000D01*
X58590476Y-78961904D01*
X58780952Y-78961904D01*
X58857142Y-79000000D01*
X58895238Y-79038095D01*
X58933333Y-79114285D01*
X58933333Y-79190476D01*
X58895238Y-79304761D01*
X58438095Y-79761904D01*
X58933333Y-79761904D01*
X52790476Y-75361904D02*
X53247619Y-75361904D01*
X53019047Y-76161904D02*
X53019047Y-75361904D01*
X53514285Y-76161904D02*
X53514285Y-75361904D01*
X53819047Y-75361904D01*
X53895238Y-75400000D01*
X53933333Y-75438095D01*
X53971428Y-75514285D01*
X53971428Y-75628571D01*
X53933333Y-75704761D01*
X53895238Y-75742857D01*
X53819047Y-75780952D01*
X53514285Y-75780952D01*
X54733333Y-76161904D02*
X54276190Y-76161904D01*
X54504761Y-76161904D02*
X54504761Y-75361904D01*
X54428571Y-75476190D01*
X54352380Y-75552380D01*
X54276190Y-75590476D01*
X114335714Y-66586904D02*
X114069047Y-66205952D01*
X113878571Y-66586904D02*
X113878571Y-65786904D01*
X114183333Y-65786904D01*
X114259523Y-65825000D01*
X114297619Y-65863095D01*
X114335714Y-65939285D01*
X114335714Y-66053571D01*
X114297619Y-66129761D01*
X114259523Y-66167857D01*
X114183333Y-66205952D01*
X113878571Y-66205952D01*
X115097619Y-66586904D02*
X114640476Y-66586904D01*
X114869047Y-66586904D02*
X114869047Y-65786904D01*
X114792857Y-65901190D01*
X114716666Y-65977380D01*
X114640476Y-66015476D01*
X115821428Y-65786904D02*
X115440476Y-65786904D01*
X115402380Y-66167857D01*
X115440476Y-66129761D01*
X115516666Y-66091666D01*
X115707142Y-66091666D01*
X115783333Y-66129761D01*
X115821428Y-66167857D01*
X115859523Y-66244047D01*
X115859523Y-66434523D01*
X115821428Y-66510714D01*
X115783333Y-66548809D01*
X115707142Y-66586904D01*
X115516666Y-66586904D01*
X115440476Y-66548809D01*
X115402380Y-66510714D01*
X121085714Y-79811904D02*
X120819047Y-79430952D01*
X120628571Y-79811904D02*
X120628571Y-79011904D01*
X120933333Y-79011904D01*
X121009523Y-79050000D01*
X121047619Y-79088095D01*
X121085714Y-79164285D01*
X121085714Y-79278571D01*
X121047619Y-79354761D01*
X121009523Y-79392857D01*
X120933333Y-79430952D01*
X120628571Y-79430952D01*
X121847619Y-79811904D02*
X121390476Y-79811904D01*
X121619047Y-79811904D02*
X121619047Y-79011904D01*
X121542857Y-79126190D01*
X121466666Y-79202380D01*
X121390476Y-79240476D01*
X122304761Y-79354761D02*
X122228571Y-79316666D01*
X122190476Y-79278571D01*
X122152380Y-79202380D01*
X122152380Y-79164285D01*
X122190476Y-79088095D01*
X122228571Y-79050000D01*
X122304761Y-79011904D01*
X122457142Y-79011904D01*
X122533333Y-79050000D01*
X122571428Y-79088095D01*
X122609523Y-79164285D01*
X122609523Y-79202380D01*
X122571428Y-79278571D01*
X122533333Y-79316666D01*
X122457142Y-79354761D01*
X122304761Y-79354761D01*
X122228571Y-79392857D01*
X122190476Y-79430952D01*
X122152380Y-79507142D01*
X122152380Y-79659523D01*
X122190476Y-79735714D01*
X122228571Y-79773809D01*
X122304761Y-79811904D01*
X122457142Y-79811904D01*
X122533333Y-79773809D01*
X122571428Y-79735714D01*
X122609523Y-79659523D01*
X122609523Y-79507142D01*
X122571428Y-79430952D01*
X122533333Y-79392857D01*
X122457142Y-79354761D01*
X59966666Y-68861904D02*
X59700000Y-68480952D01*
X59509523Y-68861904D02*
X59509523Y-68061904D01*
X59814285Y-68061904D01*
X59890476Y-68100000D01*
X59928571Y-68138095D01*
X59966666Y-68214285D01*
X59966666Y-68328571D01*
X59928571Y-68404761D01*
X59890476Y-68442857D01*
X59814285Y-68480952D01*
X59509523Y-68480952D01*
X60233333Y-68061904D02*
X60728571Y-68061904D01*
X60461904Y-68366666D01*
X60576190Y-68366666D01*
X60652380Y-68404761D01*
X60690476Y-68442857D01*
X60728571Y-68519047D01*
X60728571Y-68709523D01*
X60690476Y-68785714D01*
X60652380Y-68823809D01*
X60576190Y-68861904D01*
X60347619Y-68861904D01*
X60271428Y-68823809D01*
X60233333Y-68785714D01*
X82735714Y-65360714D02*
X82697619Y-65398809D01*
X82583333Y-65436904D01*
X82507142Y-65436904D01*
X82392857Y-65398809D01*
X82316666Y-65322619D01*
X82278571Y-65246428D01*
X82240476Y-65094047D01*
X82240476Y-64979761D01*
X82278571Y-64827380D01*
X82316666Y-64751190D01*
X82392857Y-64675000D01*
X82507142Y-64636904D01*
X82583333Y-64636904D01*
X82697619Y-64675000D01*
X82735714Y-64713095D01*
X83497619Y-65436904D02*
X83040476Y-65436904D01*
X83269047Y-65436904D02*
X83269047Y-64636904D01*
X83192857Y-64751190D01*
X83116666Y-64827380D01*
X83040476Y-64865476D01*
X83954761Y-64979761D02*
X83878571Y-64941666D01*
X83840476Y-64903571D01*
X83802380Y-64827380D01*
X83802380Y-64789285D01*
X83840476Y-64713095D01*
X83878571Y-64675000D01*
X83954761Y-64636904D01*
X84107142Y-64636904D01*
X84183333Y-64675000D01*
X84221428Y-64713095D01*
X84259523Y-64789285D01*
X84259523Y-64827380D01*
X84221428Y-64903571D01*
X84183333Y-64941666D01*
X84107142Y-64979761D01*
X83954761Y-64979761D01*
X83878571Y-65017857D01*
X83840476Y-65055952D01*
X83802380Y-65132142D01*
X83802380Y-65284523D01*
X83840476Y-65360714D01*
X83878571Y-65398809D01*
X83954761Y-65436904D01*
X84107142Y-65436904D01*
X84183333Y-65398809D01*
X84221428Y-65360714D01*
X84259523Y-65284523D01*
X84259523Y-65132142D01*
X84221428Y-65055952D01*
X84183333Y-65017857D01*
X84107142Y-64979761D01*
X111585714Y-66560714D02*
X111547619Y-66598809D01*
X111433333Y-66636904D01*
X111357142Y-66636904D01*
X111242857Y-66598809D01*
X111166666Y-66522619D01*
X111128571Y-66446428D01*
X111090476Y-66294047D01*
X111090476Y-66179761D01*
X111128571Y-66027380D01*
X111166666Y-65951190D01*
X111242857Y-65875000D01*
X111357142Y-65836904D01*
X111433333Y-65836904D01*
X111547619Y-65875000D01*
X111585714Y-65913095D01*
X112347619Y-66636904D02*
X111890476Y-66636904D01*
X112119047Y-66636904D02*
X112119047Y-65836904D01*
X112042857Y-65951190D01*
X111966666Y-66027380D01*
X111890476Y-66065476D01*
X113109523Y-66636904D02*
X112652380Y-66636904D01*
X112880952Y-66636904D02*
X112880952Y-65836904D01*
X112804761Y-65951190D01*
X112728571Y-66027380D01*
X112652380Y-66065476D01*
X107086904Y-79089285D02*
X106705952Y-79355952D01*
X107086904Y-79546428D02*
X106286904Y-79546428D01*
X106286904Y-79241666D01*
X106325000Y-79165476D01*
X106363095Y-79127380D01*
X106439285Y-79089285D01*
X106553571Y-79089285D01*
X106629761Y-79127380D01*
X106667857Y-79165476D01*
X106705952Y-79241666D01*
X106705952Y-79546428D01*
X107086904Y-78327380D02*
X107086904Y-78784523D01*
X107086904Y-78555952D02*
X106286904Y-78555952D01*
X106401190Y-78632142D01*
X106477380Y-78708333D01*
X106515476Y-78784523D01*
X107086904Y-77565476D02*
X107086904Y-78022619D01*
X107086904Y-77794047D02*
X106286904Y-77794047D01*
X106401190Y-77870238D01*
X106477380Y-77946428D01*
X106515476Y-78022619D01*
X112685714Y-78811904D02*
X112419047Y-78430952D01*
X112228571Y-78811904D02*
X112228571Y-78011904D01*
X112533333Y-78011904D01*
X112609523Y-78050000D01*
X112647619Y-78088095D01*
X112685714Y-78164285D01*
X112685714Y-78278571D01*
X112647619Y-78354761D01*
X112609523Y-78392857D01*
X112533333Y-78430952D01*
X112228571Y-78430952D01*
X113447619Y-78811904D02*
X112990476Y-78811904D01*
X113219047Y-78811904D02*
X113219047Y-78011904D01*
X113142857Y-78126190D01*
X113066666Y-78202380D01*
X112990476Y-78240476D01*
X114133333Y-78278571D02*
X114133333Y-78811904D01*
X113942857Y-77973809D02*
X113752380Y-78545238D01*
X114247619Y-78545238D01*
X61066666Y-72761904D02*
X60800000Y-72380952D01*
X60609523Y-72761904D02*
X60609523Y-71961904D01*
X60914285Y-71961904D01*
X60990476Y-72000000D01*
X61028571Y-72038095D01*
X61066666Y-72114285D01*
X61066666Y-72228571D01*
X61028571Y-72304761D01*
X60990476Y-72342857D01*
X60914285Y-72380952D01*
X60609523Y-72380952D01*
X61523809Y-72304761D02*
X61447619Y-72266666D01*
X61409523Y-72228571D01*
X61371428Y-72152380D01*
X61371428Y-72114285D01*
X61409523Y-72038095D01*
X61447619Y-72000000D01*
X61523809Y-71961904D01*
X61676190Y-71961904D01*
X61752380Y-72000000D01*
X61790476Y-72038095D01*
X61828571Y-72114285D01*
X61828571Y-72152380D01*
X61790476Y-72228571D01*
X61752380Y-72266666D01*
X61676190Y-72304761D01*
X61523809Y-72304761D01*
X61447619Y-72342857D01*
X61409523Y-72380952D01*
X61371428Y-72457142D01*
X61371428Y-72609523D01*
X61409523Y-72685714D01*
X61447619Y-72723809D01*
X61523809Y-72761904D01*
X61676190Y-72761904D01*
X61752380Y-72723809D01*
X61790476Y-72685714D01*
X61828571Y-72609523D01*
X61828571Y-72457142D01*
X61790476Y-72380952D01*
X61752380Y-72342857D01*
X61676190Y-72304761D01*
X108135714Y-74186904D02*
X107869047Y-73805952D01*
X107678571Y-74186904D02*
X107678571Y-73386904D01*
X107983333Y-73386904D01*
X108059523Y-73425000D01*
X108097619Y-73463095D01*
X108135714Y-73539285D01*
X108135714Y-73653571D01*
X108097619Y-73729761D01*
X108059523Y-73767857D01*
X107983333Y-73805952D01*
X107678571Y-73805952D01*
X108897619Y-74186904D02*
X108440476Y-74186904D01*
X108669047Y-74186904D02*
X108669047Y-73386904D01*
X108592857Y-73501190D01*
X108516666Y-73577380D01*
X108440476Y-73615476D01*
X109278571Y-74186904D02*
X109430952Y-74186904D01*
X109507142Y-74148809D01*
X109545238Y-74110714D01*
X109621428Y-73996428D01*
X109659523Y-73844047D01*
X109659523Y-73539285D01*
X109621428Y-73463095D01*
X109583333Y-73425000D01*
X109507142Y-73386904D01*
X109354761Y-73386904D01*
X109278571Y-73425000D01*
X109240476Y-73463095D01*
X109202380Y-73539285D01*
X109202380Y-73729761D01*
X109240476Y-73805952D01*
X109278571Y-73844047D01*
X109354761Y-73882142D01*
X109507142Y-73882142D01*
X109583333Y-73844047D01*
X109621428Y-73805952D01*
X109659523Y-73729761D01*
X111936904Y-72064285D02*
X111555952Y-72330952D01*
X111936904Y-72521428D02*
X111136904Y-72521428D01*
X111136904Y-72216666D01*
X111175000Y-72140476D01*
X111213095Y-72102380D01*
X111289285Y-72064285D01*
X111403571Y-72064285D01*
X111479761Y-72102380D01*
X111517857Y-72140476D01*
X111555952Y-72216666D01*
X111555952Y-72521428D01*
X111213095Y-71759523D02*
X111175000Y-71721428D01*
X111136904Y-71645238D01*
X111136904Y-71454761D01*
X111175000Y-71378571D01*
X111213095Y-71340476D01*
X111289285Y-71302380D01*
X111365476Y-71302380D01*
X111479761Y-71340476D01*
X111936904Y-71797619D01*
X111936904Y-71302380D01*
X111136904Y-70807142D02*
X111136904Y-70730952D01*
X111175000Y-70654761D01*
X111213095Y-70616666D01*
X111289285Y-70578571D01*
X111441666Y-70540476D01*
X111632142Y-70540476D01*
X111784523Y-70578571D01*
X111860714Y-70616666D01*
X111898809Y-70654761D01*
X111936904Y-70730952D01*
X111936904Y-70807142D01*
X111898809Y-70883333D01*
X111860714Y-70921428D01*
X111784523Y-70959523D01*
X111632142Y-70997619D01*
X111441666Y-70997619D01*
X111289285Y-70959523D01*
X111213095Y-70921428D01*
X111175000Y-70883333D01*
X111136904Y-70807142D01*
X64066666Y-73785714D02*
X64028571Y-73823809D01*
X63914285Y-73861904D01*
X63838095Y-73861904D01*
X63723809Y-73823809D01*
X63647619Y-73747619D01*
X63609523Y-73671428D01*
X63571428Y-73519047D01*
X63571428Y-73404761D01*
X63609523Y-73252380D01*
X63647619Y-73176190D01*
X63723809Y-73100000D01*
X63838095Y-73061904D01*
X63914285Y-73061904D01*
X64028571Y-73100000D01*
X64066666Y-73138095D01*
X64371428Y-73138095D02*
X64409523Y-73100000D01*
X64485714Y-73061904D01*
X64676190Y-73061904D01*
X64752380Y-73100000D01*
X64790476Y-73138095D01*
X64828571Y-73214285D01*
X64828571Y-73290476D01*
X64790476Y-73404761D01*
X64333333Y-73861904D01*
X64828571Y-73861904D01*
X48966666Y-64461904D02*
X48700000Y-64080952D01*
X48509523Y-64461904D02*
X48509523Y-63661904D01*
X48814285Y-63661904D01*
X48890476Y-63700000D01*
X48928571Y-63738095D01*
X48966666Y-63814285D01*
X48966666Y-63928571D01*
X48928571Y-64004761D01*
X48890476Y-64042857D01*
X48814285Y-64080952D01*
X48509523Y-64080952D01*
X49271428Y-63738095D02*
X49309523Y-63700000D01*
X49385714Y-63661904D01*
X49576190Y-63661904D01*
X49652380Y-63700000D01*
X49690476Y-63738095D01*
X49728571Y-63814285D01*
X49728571Y-63890476D01*
X49690476Y-64004761D01*
X49233333Y-64461904D01*
X49728571Y-64461904D01*
X100541666Y-75185714D02*
X100503571Y-75223809D01*
X100389285Y-75261904D01*
X100313095Y-75261904D01*
X100198809Y-75223809D01*
X100122619Y-75147619D01*
X100084523Y-75071428D01*
X100046428Y-74919047D01*
X100046428Y-74804761D01*
X100084523Y-74652380D01*
X100122619Y-74576190D01*
X100198809Y-74500000D01*
X100313095Y-74461904D01*
X100389285Y-74461904D01*
X100503571Y-74500000D01*
X100541666Y-74538095D01*
X101227380Y-74461904D02*
X101075000Y-74461904D01*
X100998809Y-74500000D01*
X100960714Y-74538095D01*
X100884523Y-74652380D01*
X100846428Y-74804761D01*
X100846428Y-75109523D01*
X100884523Y-75185714D01*
X100922619Y-75223809D01*
X100998809Y-75261904D01*
X101151190Y-75261904D01*
X101227380Y-75223809D01*
X101265476Y-75185714D01*
X101303571Y-75109523D01*
X101303571Y-74919047D01*
X101265476Y-74842857D01*
X101227380Y-74804761D01*
X101151190Y-74766666D01*
X100998809Y-74766666D01*
X100922619Y-74804761D01*
X100884523Y-74842857D01*
X100846428Y-74919047D01*
X106635714Y-76336904D02*
X106369047Y-75955952D01*
X106178571Y-76336904D02*
X106178571Y-75536904D01*
X106483333Y-75536904D01*
X106559523Y-75575000D01*
X106597619Y-75613095D01*
X106635714Y-75689285D01*
X106635714Y-75803571D01*
X106597619Y-75879761D01*
X106559523Y-75917857D01*
X106483333Y-75955952D01*
X106178571Y-75955952D01*
X107397619Y-76336904D02*
X106940476Y-76336904D01*
X107169047Y-76336904D02*
X107169047Y-75536904D01*
X107092857Y-75651190D01*
X107016666Y-75727380D01*
X106940476Y-75765476D01*
X107702380Y-75613095D02*
X107740476Y-75575000D01*
X107816666Y-75536904D01*
X108007142Y-75536904D01*
X108083333Y-75575000D01*
X108121428Y-75613095D01*
X108159523Y-75689285D01*
X108159523Y-75765476D01*
X108121428Y-75879761D01*
X107664285Y-76336904D01*
X108159523Y-76336904D01*
X124985714Y-66485714D02*
X124947619Y-66523809D01*
X124833333Y-66561904D01*
X124757142Y-66561904D01*
X124642857Y-66523809D01*
X124566666Y-66447619D01*
X124528571Y-66371428D01*
X124490476Y-66219047D01*
X124490476Y-66104761D01*
X124528571Y-65952380D01*
X124566666Y-65876190D01*
X124642857Y-65800000D01*
X124757142Y-65761904D01*
X124833333Y-65761904D01*
X124947619Y-65800000D01*
X124985714Y-65838095D01*
X125747619Y-66561904D02*
X125290476Y-66561904D01*
X125519047Y-66561904D02*
X125519047Y-65761904D01*
X125442857Y-65876190D01*
X125366666Y-65952380D01*
X125290476Y-65990476D01*
X126242857Y-65761904D02*
X126319047Y-65761904D01*
X126395238Y-65800000D01*
X126433333Y-65838095D01*
X126471428Y-65914285D01*
X126509523Y-66066666D01*
X126509523Y-66257142D01*
X126471428Y-66409523D01*
X126433333Y-66485714D01*
X126395238Y-66523809D01*
X126319047Y-66561904D01*
X126242857Y-66561904D01*
X126166666Y-66523809D01*
X126128571Y-66485714D01*
X126090476Y-66409523D01*
X126052380Y-66257142D01*
X126052380Y-66066666D01*
X126090476Y-65914285D01*
X126128571Y-65838095D01*
X126166666Y-65800000D01*
X126242857Y-65761904D01*
X105685714Y-66510714D02*
X105647619Y-66548809D01*
X105533333Y-66586904D01*
X105457142Y-66586904D01*
X105342857Y-66548809D01*
X105266666Y-66472619D01*
X105228571Y-66396428D01*
X105190476Y-66244047D01*
X105190476Y-66129761D01*
X105228571Y-65977380D01*
X105266666Y-65901190D01*
X105342857Y-65825000D01*
X105457142Y-65786904D01*
X105533333Y-65786904D01*
X105647619Y-65825000D01*
X105685714Y-65863095D01*
X106447619Y-66586904D02*
X105990476Y-66586904D01*
X106219047Y-66586904D02*
X106219047Y-65786904D01*
X106142857Y-65901190D01*
X106066666Y-65977380D01*
X105990476Y-66015476D01*
X107171428Y-65786904D02*
X106790476Y-65786904D01*
X106752380Y-66167857D01*
X106790476Y-66129761D01*
X106866666Y-66091666D01*
X107057142Y-66091666D01*
X107133333Y-66129761D01*
X107171428Y-66167857D01*
X107209523Y-66244047D01*
X107209523Y-66434523D01*
X107171428Y-66510714D01*
X107133333Y-66548809D01*
X107057142Y-66586904D01*
X106866666Y-66586904D01*
X106790476Y-66548809D01*
X106752380Y-66510714D01*
X49666666Y-73061904D02*
X49400000Y-72680952D01*
X49209523Y-73061904D02*
X49209523Y-72261904D01*
X49514285Y-72261904D01*
X49590476Y-72300000D01*
X49628571Y-72338095D01*
X49666666Y-72414285D01*
X49666666Y-72528571D01*
X49628571Y-72604761D01*
X49590476Y-72642857D01*
X49514285Y-72680952D01*
X49209523Y-72680952D01*
X50352380Y-72261904D02*
X50200000Y-72261904D01*
X50123809Y-72300000D01*
X50085714Y-72338095D01*
X50009523Y-72452380D01*
X49971428Y-72604761D01*
X49971428Y-72909523D01*
X50009523Y-72985714D01*
X50047619Y-73023809D01*
X50123809Y-73061904D01*
X50276190Y-73061904D01*
X50352380Y-73023809D01*
X50390476Y-72985714D01*
X50428571Y-72909523D01*
X50428571Y-72719047D01*
X50390476Y-72642857D01*
X50352380Y-72604761D01*
X50276190Y-72566666D01*
X50123809Y-72566666D01*
X50047619Y-72604761D01*
X50009523Y-72642857D01*
X49971428Y-72719047D01*
X59966666Y-66361904D02*
X59700000Y-65980952D01*
X59509523Y-66361904D02*
X59509523Y-65561904D01*
X59814285Y-65561904D01*
X59890476Y-65600000D01*
X59928571Y-65638095D01*
X59966666Y-65714285D01*
X59966666Y-65828571D01*
X59928571Y-65904761D01*
X59890476Y-65942857D01*
X59814285Y-65980952D01*
X59509523Y-65980952D01*
X60728571Y-66361904D02*
X60271428Y-66361904D01*
X60500000Y-66361904D02*
X60500000Y-65561904D01*
X60423809Y-65676190D01*
X60347619Y-65752380D01*
X60271428Y-65790476D01*
X83479686Y-79685714D02*
X83441591Y-79723809D01*
X83327305Y-79761904D01*
X83251115Y-79761904D01*
X83136829Y-79723809D01*
X83060639Y-79647619D01*
X83022543Y-79571428D01*
X82984448Y-79419047D01*
X82984448Y-79304761D01*
X83022543Y-79152380D01*
X83060639Y-79076190D01*
X83136829Y-79000000D01*
X83251115Y-78961904D01*
X83327305Y-78961904D01*
X83441591Y-79000000D01*
X83479686Y-79038095D01*
X83746353Y-78961904D02*
X84241591Y-78961904D01*
X83974924Y-79266666D01*
X84089210Y-79266666D01*
X84165400Y-79304761D01*
X84203496Y-79342857D01*
X84241591Y-79419047D01*
X84241591Y-79609523D01*
X84203496Y-79685714D01*
X84165400Y-79723809D01*
X84089210Y-79761904D01*
X83860639Y-79761904D01*
X83784448Y-79723809D01*
X83746353Y-79685714D01*
X127661904Y-74114285D02*
X127280952Y-74380952D01*
X127661904Y-74571428D02*
X126861904Y-74571428D01*
X126861904Y-74266666D01*
X126900000Y-74190476D01*
X126938095Y-74152380D01*
X127014285Y-74114285D01*
X127128571Y-74114285D01*
X127204761Y-74152380D01*
X127242857Y-74190476D01*
X127280952Y-74266666D01*
X127280952Y-74571428D01*
X127661904Y-73352380D02*
X127661904Y-73809523D01*
X127661904Y-73580952D02*
X126861904Y-73580952D01*
X126976190Y-73657142D01*
X127052380Y-73733333D01*
X127090476Y-73809523D01*
X126861904Y-72666666D02*
X126861904Y-72819047D01*
X126900000Y-72895238D01*
X126938095Y-72933333D01*
X127052380Y-73009523D01*
X127204761Y-73047619D01*
X127509523Y-73047619D01*
X127585714Y-73009523D01*
X127623809Y-72971428D01*
X127661904Y-72895238D01*
X127661904Y-72742857D01*
X127623809Y-72666666D01*
X127585714Y-72628571D01*
X127509523Y-72590476D01*
X127319047Y-72590476D01*
X127242857Y-72628571D01*
X127204761Y-72666666D01*
X127166666Y-72742857D01*
X127166666Y-72895238D01*
X127204761Y-72971428D01*
X127242857Y-73009523D01*
X127319047Y-73047619D01*
X102316666Y-70386904D02*
X101935714Y-70386904D01*
X101935714Y-69586904D01*
X103002380Y-70386904D02*
X102545238Y-70386904D01*
X102773809Y-70386904D02*
X102773809Y-69586904D01*
X102697619Y-69701190D01*
X102621428Y-69777380D01*
X102545238Y-69815476D01*
X82085714Y-49611904D02*
X81819047Y-49230952D01*
X81628571Y-49611904D02*
X81628571Y-48811904D01*
X81933333Y-48811904D01*
X82009523Y-48850000D01*
X82047619Y-48888095D01*
X82085714Y-48964285D01*
X82085714Y-49078571D01*
X82047619Y-49154761D01*
X82009523Y-49192857D01*
X81933333Y-49230952D01*
X81628571Y-49230952D01*
X82390476Y-48888095D02*
X82428571Y-48850000D01*
X82504761Y-48811904D01*
X82695238Y-48811904D01*
X82771428Y-48850000D01*
X82809523Y-48888095D01*
X82847619Y-48964285D01*
X82847619Y-49040476D01*
X82809523Y-49154761D01*
X82352380Y-49611904D01*
X82847619Y-49611904D01*
X83609523Y-49611904D02*
X83152380Y-49611904D01*
X83380952Y-49611904D02*
X83380952Y-48811904D01*
X83304761Y-48926190D01*
X83228571Y-49002380D01*
X83152380Y-49040476D01*
X64728571Y-64611904D02*
X64728571Y-63811904D01*
X65033333Y-63811904D01*
X65109523Y-63850000D01*
X65147619Y-63888095D01*
X65185714Y-63964285D01*
X65185714Y-64078571D01*
X65147619Y-64154761D01*
X65109523Y-64192857D01*
X65033333Y-64230952D01*
X64728571Y-64230952D01*
X65490476Y-64573809D02*
X65604761Y-64611904D01*
X65795238Y-64611904D01*
X65871428Y-64573809D01*
X65909523Y-64535714D01*
X65947619Y-64459523D01*
X65947619Y-64383333D01*
X65909523Y-64307142D01*
X65871428Y-64269047D01*
X65795238Y-64230952D01*
X65642857Y-64192857D01*
X65566666Y-64154761D01*
X65528571Y-64116666D01*
X65490476Y-64040476D01*
X65490476Y-63964285D01*
X65528571Y-63888095D01*
X65566666Y-63850000D01*
X65642857Y-63811904D01*
X65833333Y-63811904D01*
X65947619Y-63850000D01*
X66709523Y-64611904D02*
X66252380Y-64611904D01*
X66480952Y-64611904D02*
X66480952Y-63811904D01*
X66404761Y-63926190D01*
X66328571Y-64002380D01*
X66252380Y-64040476D01*
X48761904Y-68633333D02*
X48380952Y-68900000D01*
X48761904Y-69090476D02*
X47961904Y-69090476D01*
X47961904Y-68785714D01*
X48000000Y-68709523D01*
X48038095Y-68671428D01*
X48114285Y-68633333D01*
X48228571Y-68633333D01*
X48304761Y-68671428D01*
X48342857Y-68709523D01*
X48380952Y-68785714D01*
X48380952Y-69090476D01*
X48228571Y-67947619D02*
X48761904Y-67947619D01*
X47923809Y-68138095D02*
X48495238Y-68328571D01*
X48495238Y-67833333D01*
X85498734Y-79161904D02*
X85498734Y-78361904D01*
X85955877Y-79161904D01*
X85955877Y-78361904D01*
X86222543Y-78361904D02*
X86679686Y-78361904D01*
X86451115Y-79161904D02*
X86451115Y-78361904D01*
X87365400Y-79161904D02*
X86908258Y-79161904D01*
X87136829Y-79161904D02*
X87136829Y-78361904D01*
X87060639Y-78476190D01*
X86984448Y-78552380D01*
X86908258Y-78590476D01*
X97766904Y-68116666D02*
X98338333Y-68116666D01*
X98452619Y-68154761D01*
X98528809Y-68230952D01*
X98566904Y-68345238D01*
X98566904Y-68421428D01*
X98033571Y-67392857D02*
X98566904Y-67392857D01*
X97728809Y-67583333D02*
X98300238Y-67773809D01*
X98300238Y-67278571D01*
X109516666Y-76985714D02*
X109478571Y-77023809D01*
X109364285Y-77061904D01*
X109288095Y-77061904D01*
X109173809Y-77023809D01*
X109097619Y-76947619D01*
X109059523Y-76871428D01*
X109021428Y-76719047D01*
X109021428Y-76604761D01*
X109059523Y-76452380D01*
X109097619Y-76376190D01*
X109173809Y-76300000D01*
X109288095Y-76261904D01*
X109364285Y-76261904D01*
X109478571Y-76300000D01*
X109516666Y-76338095D01*
X109897619Y-77061904D02*
X110050000Y-77061904D01*
X110126190Y-77023809D01*
X110164285Y-76985714D01*
X110240476Y-76871428D01*
X110278571Y-76719047D01*
X110278571Y-76414285D01*
X110240476Y-76338095D01*
X110202380Y-76300000D01*
X110126190Y-76261904D01*
X109973809Y-76261904D01*
X109897619Y-76300000D01*
X109859523Y-76338095D01*
X109821428Y-76414285D01*
X109821428Y-76604761D01*
X109859523Y-76680952D01*
X109897619Y-76719047D01*
X109973809Y-76757142D01*
X110126190Y-76757142D01*
X110202380Y-76719047D01*
X110240476Y-76680952D01*
X110278571Y-76604761D01*
X48783333Y-60861904D02*
X48783333Y-61433333D01*
X48745238Y-61547619D01*
X48669047Y-61623809D01*
X48554761Y-61661904D01*
X48478571Y-61661904D01*
X49126190Y-60938095D02*
X49164285Y-60900000D01*
X49240476Y-60861904D01*
X49430952Y-60861904D01*
X49507142Y-60900000D01*
X49545238Y-60938095D01*
X49583333Y-61014285D01*
X49583333Y-61090476D01*
X49545238Y-61204761D01*
X49088095Y-61661904D01*
X49583333Y-61661904D01*
X94166666Y-76961904D02*
X93900000Y-76580952D01*
X93709523Y-76961904D02*
X93709523Y-76161904D01*
X94014285Y-76161904D01*
X94090476Y-76200000D01*
X94128571Y-76238095D01*
X94166666Y-76314285D01*
X94166666Y-76428571D01*
X94128571Y-76504761D01*
X94090476Y-76542857D01*
X94014285Y-76580952D01*
X93709523Y-76580952D01*
X94547619Y-76961904D02*
X94700000Y-76961904D01*
X94776190Y-76923809D01*
X94814285Y-76885714D01*
X94890476Y-76771428D01*
X94928571Y-76619047D01*
X94928571Y-76314285D01*
X94890476Y-76238095D01*
X94852380Y-76200000D01*
X94776190Y-76161904D01*
X94623809Y-76161904D01*
X94547619Y-76200000D01*
X94509523Y-76238095D01*
X94471428Y-76314285D01*
X94471428Y-76504761D01*
X94509523Y-76580952D01*
X94547619Y-76619047D01*
X94623809Y-76657142D01*
X94776190Y-76657142D01*
X94852380Y-76619047D01*
X94890476Y-76580952D01*
X94928571Y-76504761D01*
X100010714Y-69935714D02*
X99972619Y-69973809D01*
X99858333Y-70011904D01*
X99782142Y-70011904D01*
X99667857Y-69973809D01*
X99591666Y-69897619D01*
X99553571Y-69821428D01*
X99515476Y-69669047D01*
X99515476Y-69554761D01*
X99553571Y-69402380D01*
X99591666Y-69326190D01*
X99667857Y-69250000D01*
X99782142Y-69211904D01*
X99858333Y-69211904D01*
X99972619Y-69250000D01*
X100010714Y-69288095D01*
X100772619Y-70011904D02*
X100315476Y-70011904D01*
X100544047Y-70011904D02*
X100544047Y-69211904D01*
X100467857Y-69326190D01*
X100391666Y-69402380D01*
X100315476Y-69440476D01*
X101039285Y-69211904D02*
X101572619Y-69211904D01*
X101229761Y-70011904D01*
X57866666Y-73785714D02*
X57828571Y-73823809D01*
X57714285Y-73861904D01*
X57638095Y-73861904D01*
X57523809Y-73823809D01*
X57447619Y-73747619D01*
X57409523Y-73671428D01*
X57371428Y-73519047D01*
X57371428Y-73404761D01*
X57409523Y-73252380D01*
X57447619Y-73176190D01*
X57523809Y-73100000D01*
X57638095Y-73061904D01*
X57714285Y-73061904D01*
X57828571Y-73100000D01*
X57866666Y-73138095D01*
X58628571Y-73861904D02*
X58171428Y-73861904D01*
X58400000Y-73861904D02*
X58400000Y-73061904D01*
X58323809Y-73176190D01*
X58247619Y-73252380D01*
X58171428Y-73290476D01*
X71290476Y-72561904D02*
X71290476Y-73209523D01*
X71328571Y-73285714D01*
X71366666Y-73323809D01*
X71442857Y-73361904D01*
X71595238Y-73361904D01*
X71671428Y-73323809D01*
X71709523Y-73285714D01*
X71747619Y-73209523D01*
X71747619Y-72561904D01*
X72052380Y-72561904D02*
X72547619Y-72561904D01*
X72280952Y-72866666D01*
X72395238Y-72866666D01*
X72471428Y-72904761D01*
X72509523Y-72942857D01*
X72547619Y-73019047D01*
X72547619Y-73209523D01*
X72509523Y-73285714D01*
X72471428Y-73323809D01*
X72395238Y-73361904D01*
X72166666Y-73361904D01*
X72090476Y-73323809D01*
X72052380Y-73285714D01*
X119423809Y-51561904D02*
X119157142Y-51180952D01*
X118966666Y-51561904D02*
X118966666Y-50761904D01*
X119271428Y-50761904D01*
X119347619Y-50800000D01*
X119385714Y-50838095D01*
X119423809Y-50914285D01*
X119423809Y-51028571D01*
X119385714Y-51104761D01*
X119347619Y-51142857D01*
X119271428Y-51180952D01*
X118966666Y-51180952D01*
X119652380Y-50761904D02*
X119919047Y-51561904D01*
X120185714Y-50761904D01*
X120871428Y-51561904D02*
X120414285Y-51561904D01*
X120642857Y-51561904D02*
X120642857Y-50761904D01*
X120566666Y-50876190D01*
X120490476Y-50952380D01*
X120414285Y-50990476D01*
X118710714Y-79710714D02*
X118672619Y-79748809D01*
X118558333Y-79786904D01*
X118482142Y-79786904D01*
X118367857Y-79748809D01*
X118291666Y-79672619D01*
X118253571Y-79596428D01*
X118215476Y-79444047D01*
X118215476Y-79329761D01*
X118253571Y-79177380D01*
X118291666Y-79101190D01*
X118367857Y-79025000D01*
X118482142Y-78986904D01*
X118558333Y-78986904D01*
X118672619Y-79025000D01*
X118710714Y-79063095D01*
X119472619Y-79786904D02*
X119015476Y-79786904D01*
X119244047Y-79786904D02*
X119244047Y-78986904D01*
X119167857Y-79101190D01*
X119091666Y-79177380D01*
X119015476Y-79215476D01*
X119777380Y-79063095D02*
X119815476Y-79025000D01*
X119891666Y-78986904D01*
X120082142Y-78986904D01*
X120158333Y-79025000D01*
X120196428Y-79063095D01*
X120234523Y-79139285D01*
X120234523Y-79215476D01*
X120196428Y-79329761D01*
X119739285Y-79786904D01*
X120234523Y-79786904D01*
X98685714Y-71685714D02*
X98647619Y-71723809D01*
X98533333Y-71761904D01*
X98457142Y-71761904D01*
X98342857Y-71723809D01*
X98266666Y-71647619D01*
X98228571Y-71571428D01*
X98190476Y-71419047D01*
X98190476Y-71304761D01*
X98228571Y-71152380D01*
X98266666Y-71076190D01*
X98342857Y-71000000D01*
X98457142Y-70961904D01*
X98533333Y-70961904D01*
X98647619Y-71000000D01*
X98685714Y-71038095D01*
X99447619Y-71761904D02*
X98990476Y-71761904D01*
X99219047Y-71761904D02*
X99219047Y-70961904D01*
X99142857Y-71076190D01*
X99066666Y-71152380D01*
X98990476Y-71190476D01*
X100133333Y-71228571D02*
X100133333Y-71761904D01*
X99942857Y-70923809D02*
X99752380Y-71495238D01*
X100247619Y-71495238D01*
X85398734Y-75161904D02*
X85398734Y-74361904D01*
X85855877Y-75161904D01*
X85855877Y-74361904D01*
X86122543Y-74361904D02*
X86579686Y-74361904D01*
X86351115Y-75161904D02*
X86351115Y-74361904D01*
X86808258Y-74438095D02*
X86846353Y-74400000D01*
X86922543Y-74361904D01*
X87113020Y-74361904D01*
X87189210Y-74400000D01*
X87227305Y-74438095D01*
X87265400Y-74514285D01*
X87265400Y-74590476D01*
X87227305Y-74704761D01*
X86770162Y-75161904D01*
X87265400Y-75161904D01*
X111741666Y-73485714D02*
X111703571Y-73523809D01*
X111589285Y-73561904D01*
X111513095Y-73561904D01*
X111398809Y-73523809D01*
X111322619Y-73447619D01*
X111284523Y-73371428D01*
X111246428Y-73219047D01*
X111246428Y-73104761D01*
X111284523Y-72952380D01*
X111322619Y-72876190D01*
X111398809Y-72800000D01*
X111513095Y-72761904D01*
X111589285Y-72761904D01*
X111703571Y-72800000D01*
X111741666Y-72838095D01*
X112198809Y-73104761D02*
X112122619Y-73066666D01*
X112084523Y-73028571D01*
X112046428Y-72952380D01*
X112046428Y-72914285D01*
X112084523Y-72838095D01*
X112122619Y-72800000D01*
X112198809Y-72761904D01*
X112351190Y-72761904D01*
X112427380Y-72800000D01*
X112465476Y-72838095D01*
X112503571Y-72914285D01*
X112503571Y-72952380D01*
X112465476Y-73028571D01*
X112427380Y-73066666D01*
X112351190Y-73104761D01*
X112198809Y-73104761D01*
X112122619Y-73142857D01*
X112084523Y-73180952D01*
X112046428Y-73257142D01*
X112046428Y-73409523D01*
X112084523Y-73485714D01*
X112122619Y-73523809D01*
X112198809Y-73561904D01*
X112351190Y-73561904D01*
X112427380Y-73523809D01*
X112465476Y-73485714D01*
X112503571Y-73409523D01*
X112503571Y-73257142D01*
X112465476Y-73180952D01*
X112427380Y-73142857D01*
X112351190Y-73104761D01*
X110885714Y-74761904D02*
X110619047Y-74380952D01*
X110428571Y-74761904D02*
X110428571Y-73961904D01*
X110733333Y-73961904D01*
X110809523Y-74000000D01*
X110847619Y-74038095D01*
X110885714Y-74114285D01*
X110885714Y-74228571D01*
X110847619Y-74304761D01*
X110809523Y-74342857D01*
X110733333Y-74380952D01*
X110428571Y-74380952D01*
X111647619Y-74761904D02*
X111190476Y-74761904D01*
X111419047Y-74761904D02*
X111419047Y-73961904D01*
X111342857Y-74076190D01*
X111266666Y-74152380D01*
X111190476Y-74190476D01*
X111914285Y-73961904D02*
X112409523Y-73961904D01*
X112142857Y-74266666D01*
X112257142Y-74266666D01*
X112333333Y-74304761D01*
X112371428Y-74342857D01*
X112409523Y-74419047D01*
X112409523Y-74609523D01*
X112371428Y-74685714D01*
X112333333Y-74723809D01*
X112257142Y-74761904D01*
X112028571Y-74761904D01*
X111952380Y-74723809D01*
X111914285Y-74685714D01*
X108235714Y-51210714D02*
X108197619Y-51248809D01*
X108083333Y-51286904D01*
X108007142Y-51286904D01*
X107892857Y-51248809D01*
X107816666Y-51172619D01*
X107778571Y-51096428D01*
X107740476Y-50944047D01*
X107740476Y-50829761D01*
X107778571Y-50677380D01*
X107816666Y-50601190D01*
X107892857Y-50525000D01*
X108007142Y-50486904D01*
X108083333Y-50486904D01*
X108197619Y-50525000D01*
X108235714Y-50563095D01*
X108997619Y-51286904D02*
X108540476Y-51286904D01*
X108769047Y-51286904D02*
X108769047Y-50486904D01*
X108692857Y-50601190D01*
X108616666Y-50677380D01*
X108540476Y-50715476D01*
X109683333Y-50486904D02*
X109530952Y-50486904D01*
X109454761Y-50525000D01*
X109416666Y-50563095D01*
X109340476Y-50677380D01*
X109302380Y-50829761D01*
X109302380Y-51134523D01*
X109340476Y-51210714D01*
X109378571Y-51248809D01*
X109454761Y-51286904D01*
X109607142Y-51286904D01*
X109683333Y-51248809D01*
X109721428Y-51210714D01*
X109759523Y-51134523D01*
X109759523Y-50944047D01*
X109721428Y-50867857D01*
X109683333Y-50829761D01*
X109607142Y-50791666D01*
X109454761Y-50791666D01*
X109378571Y-50829761D01*
X109340476Y-50867857D01*
X109302380Y-50944047D01*
X108660714Y-66460714D02*
X108622619Y-66498809D01*
X108508333Y-66536904D01*
X108432142Y-66536904D01*
X108317857Y-66498809D01*
X108241666Y-66422619D01*
X108203571Y-66346428D01*
X108165476Y-66194047D01*
X108165476Y-66079761D01*
X108203571Y-65927380D01*
X108241666Y-65851190D01*
X108317857Y-65775000D01*
X108432142Y-65736904D01*
X108508333Y-65736904D01*
X108622619Y-65775000D01*
X108660714Y-65813095D01*
X109422619Y-66536904D02*
X108965476Y-66536904D01*
X109194047Y-66536904D02*
X109194047Y-65736904D01*
X109117857Y-65851190D01*
X109041666Y-65927380D01*
X108965476Y-65965476D01*
X109689285Y-65736904D02*
X110184523Y-65736904D01*
X109917857Y-66041666D01*
X110032142Y-66041666D01*
X110108333Y-66079761D01*
X110146428Y-66117857D01*
X110184523Y-66194047D01*
X110184523Y-66384523D01*
X110146428Y-66460714D01*
X110108333Y-66498809D01*
X110032142Y-66536904D01*
X109803571Y-66536904D01*
X109727380Y-66498809D01*
X109689285Y-66460714D01*
X86994047Y-51780952D02*
X86994047Y-52161904D01*
X86727380Y-51361904D02*
X86994047Y-51780952D01*
X87260714Y-51361904D01*
X87946428Y-52161904D02*
X87489285Y-52161904D01*
X87717857Y-52161904D02*
X87717857Y-51361904D01*
X87641666Y-51476190D01*
X87565476Y-51552380D01*
X87489285Y-51590476D01*
X79479686Y-79685714D02*
X79441591Y-79723809D01*
X79327305Y-79761904D01*
X79251115Y-79761904D01*
X79136829Y-79723809D01*
X79060639Y-79647619D01*
X79022543Y-79571428D01*
X78984448Y-79419047D01*
X78984448Y-79304761D01*
X79022543Y-79152380D01*
X79060639Y-79076190D01*
X79136829Y-79000000D01*
X79251115Y-78961904D01*
X79327305Y-78961904D01*
X79441591Y-79000000D01*
X79479686Y-79038095D01*
X80203496Y-78961904D02*
X79822543Y-78961904D01*
X79784448Y-79342857D01*
X79822543Y-79304761D01*
X79898734Y-79266666D01*
X80089210Y-79266666D01*
X80165400Y-79304761D01*
X80203496Y-79342857D01*
X80241591Y-79419047D01*
X80241591Y-79609523D01*
X80203496Y-79685714D01*
X80165400Y-79723809D01*
X80089210Y-79761904D01*
X79898734Y-79761904D01*
X79822543Y-79723809D01*
X79784448Y-79685714D01*
X59966666Y-71361904D02*
X59700000Y-70980952D01*
X59509523Y-71361904D02*
X59509523Y-70561904D01*
X59814285Y-70561904D01*
X59890476Y-70600000D01*
X59928571Y-70638095D01*
X59966666Y-70714285D01*
X59966666Y-70828571D01*
X59928571Y-70904761D01*
X59890476Y-70942857D01*
X59814285Y-70980952D01*
X59509523Y-70980952D01*
X60690476Y-70561904D02*
X60309523Y-70561904D01*
X60271428Y-70942857D01*
X60309523Y-70904761D01*
X60385714Y-70866666D01*
X60576190Y-70866666D01*
X60652380Y-70904761D01*
X60690476Y-70942857D01*
X60728571Y-71019047D01*
X60728571Y-71209523D01*
X60690476Y-71285714D01*
X60652380Y-71323809D01*
X60576190Y-71361904D01*
X60385714Y-71361904D01*
X60309523Y-71323809D01*
X60271428Y-71285714D01*
X116935714Y-73561904D02*
X116669047Y-73180952D01*
X116478571Y-73561904D02*
X116478571Y-72761904D01*
X116783333Y-72761904D01*
X116859523Y-72800000D01*
X116897619Y-72838095D01*
X116935714Y-72914285D01*
X116935714Y-73028571D01*
X116897619Y-73104761D01*
X116859523Y-73142857D01*
X116783333Y-73180952D01*
X116478571Y-73180952D01*
X117697619Y-73561904D02*
X117240476Y-73561904D01*
X117469047Y-73561904D02*
X117469047Y-72761904D01*
X117392857Y-72876190D01*
X117316666Y-72952380D01*
X117240476Y-72990476D01*
X117964285Y-72761904D02*
X118497619Y-72761904D01*
X118154761Y-73561904D01*
X81579686Y-79585714D02*
X81541591Y-79623809D01*
X81427305Y-79661904D01*
X81351115Y-79661904D01*
X81236829Y-79623809D01*
X81160639Y-79547619D01*
X81122543Y-79471428D01*
X81084448Y-79319047D01*
X81084448Y-79204761D01*
X81122543Y-79052380D01*
X81160639Y-78976190D01*
X81236829Y-78900000D01*
X81351115Y-78861904D01*
X81427305Y-78861904D01*
X81541591Y-78900000D01*
X81579686Y-78938095D01*
X82265400Y-79128571D02*
X82265400Y-79661904D01*
X82074924Y-78823809D02*
X81884448Y-79395238D01*
X82379686Y-79395238D01*
X82910714Y-52810714D02*
X82872619Y-52848809D01*
X82758333Y-52886904D01*
X82682142Y-52886904D01*
X82567857Y-52848809D01*
X82491666Y-52772619D01*
X82453571Y-52696428D01*
X82415476Y-52544047D01*
X82415476Y-52429761D01*
X82453571Y-52277380D01*
X82491666Y-52201190D01*
X82567857Y-52125000D01*
X82682142Y-52086904D01*
X82758333Y-52086904D01*
X82872619Y-52125000D01*
X82910714Y-52163095D01*
X83672619Y-52886904D02*
X83215476Y-52886904D01*
X83444047Y-52886904D02*
X83444047Y-52086904D01*
X83367857Y-52201190D01*
X83291666Y-52277380D01*
X83215476Y-52315476D01*
X84053571Y-52886904D02*
X84205952Y-52886904D01*
X84282142Y-52848809D01*
X84320238Y-52810714D01*
X84396428Y-52696428D01*
X84434523Y-52544047D01*
X84434523Y-52239285D01*
X84396428Y-52163095D01*
X84358333Y-52125000D01*
X84282142Y-52086904D01*
X84129761Y-52086904D01*
X84053571Y-52125000D01*
X84015476Y-52163095D01*
X83977380Y-52239285D01*
X83977380Y-52429761D01*
X84015476Y-52505952D01*
X84053571Y-52544047D01*
X84129761Y-52582142D01*
X84282142Y-52582142D01*
X84358333Y-52544047D01*
X84396428Y-52505952D01*
X84434523Y-52429761D01*
X91294047Y-53411904D02*
X91294047Y-52611904D01*
X92132142Y-53335714D02*
X92094047Y-53373809D01*
X91979761Y-53411904D01*
X91903571Y-53411904D01*
X91789285Y-53373809D01*
X91713095Y-53297619D01*
X91675000Y-53221428D01*
X91636904Y-53069047D01*
X91636904Y-52954761D01*
X91675000Y-52802380D01*
X91713095Y-52726190D01*
X91789285Y-52650000D01*
X91903571Y-52611904D01*
X91979761Y-52611904D01*
X92094047Y-52650000D01*
X92132142Y-52688095D01*
X92817857Y-52878571D02*
X92817857Y-53411904D01*
X92627380Y-52573809D02*
X92436904Y-53145238D01*
X92932142Y-53145238D01*
X93785714Y-79761904D02*
X93519047Y-79380952D01*
X93328571Y-79761904D02*
X93328571Y-78961904D01*
X93633333Y-78961904D01*
X93709523Y-79000000D01*
X93747619Y-79038095D01*
X93785714Y-79114285D01*
X93785714Y-79228571D01*
X93747619Y-79304761D01*
X93709523Y-79342857D01*
X93633333Y-79380952D01*
X93328571Y-79380952D01*
X94547619Y-79761904D02*
X94090476Y-79761904D01*
X94319047Y-79761904D02*
X94319047Y-78961904D01*
X94242857Y-79076190D01*
X94166666Y-79152380D01*
X94090476Y-79190476D01*
X95042857Y-78961904D02*
X95119047Y-78961904D01*
X95195238Y-79000000D01*
X95233333Y-79038095D01*
X95271428Y-79114285D01*
X95309523Y-79266666D01*
X95309523Y-79457142D01*
X95271428Y-79609523D01*
X95233333Y-79685714D01*
X95195238Y-79723809D01*
X95119047Y-79761904D01*
X95042857Y-79761904D01*
X94966666Y-79723809D01*
X94928571Y-79685714D01*
X94890476Y-79609523D01*
X94852380Y-79457142D01*
X94852380Y-79266666D01*
X94890476Y-79114285D01*
X94928571Y-79038095D01*
X94966666Y-79000000D01*
X95042857Y-78961904D01*
X76533333Y-47261904D02*
X76533333Y-47833333D01*
X76495238Y-47947619D01*
X76419047Y-48023809D01*
X76304761Y-48061904D01*
X76228571Y-48061904D01*
X76838095Y-47261904D02*
X77333333Y-47261904D01*
X77066666Y-47566666D01*
X77180952Y-47566666D01*
X77257142Y-47604761D01*
X77295238Y-47642857D01*
X77333333Y-47719047D01*
X77333333Y-47909523D01*
X77295238Y-47985714D01*
X77257142Y-48023809D01*
X77180952Y-48061904D01*
X76952380Y-48061904D01*
X76876190Y-48023809D01*
X76838095Y-47985714D01*
X50766666Y-74661904D02*
X50500000Y-74280952D01*
X50309523Y-74661904D02*
X50309523Y-73861904D01*
X50614285Y-73861904D01*
X50690476Y-73900000D01*
X50728571Y-73938095D01*
X50766666Y-74014285D01*
X50766666Y-74128571D01*
X50728571Y-74204761D01*
X50690476Y-74242857D01*
X50614285Y-74280952D01*
X50309523Y-74280952D01*
X51033333Y-73861904D02*
X51566666Y-73861904D01*
X51223809Y-74661904D01*
X117166666Y-75460714D02*
X117128571Y-75498809D01*
X117014285Y-75536904D01*
X116938095Y-75536904D01*
X116823809Y-75498809D01*
X116747619Y-75422619D01*
X116709523Y-75346428D01*
X116671428Y-75194047D01*
X116671428Y-75079761D01*
X116709523Y-74927380D01*
X116747619Y-74851190D01*
X116823809Y-74775000D01*
X116938095Y-74736904D01*
X117014285Y-74736904D01*
X117128571Y-74775000D01*
X117166666Y-74813095D01*
X117433333Y-74736904D02*
X117966666Y-74736904D01*
X117623809Y-75536904D01*
D14*
X105700000Y-71690000D02*
X103900000Y-71690000D01*
X103900000Y-74910000D02*
X106850000Y-74910000D01*
X120400000Y-72160000D02*
X122350000Y-72160000D01*
X120400000Y-72160000D02*
X118450000Y-72160000D01*
X120400000Y-67040000D02*
X122350000Y-67040000D01*
X120400000Y-67040000D02*
X116950000Y-67040000D01*
X125700000Y-73600000D02*
G75*
G03*
X125700000Y-73600000I-700000J0D01*
G01*
X56600000Y-78700000D02*
G75*
G03*
X56600000Y-78700000I-700000J0D01*
G01*
X56600000Y-75700000D02*
G75*
G03*
X56600000Y-75700000I-700000J0D01*
G01*
X113815000Y-69027064D02*
X113815000Y-68572936D01*
X115285000Y-69027064D02*
X115285000Y-68572936D01*
X122135000Y-76572936D02*
X122135000Y-77027064D01*
X120665000Y-76572936D02*
X120665000Y-77027064D01*
X56022936Y-69310000D02*
X57477064Y-69310000D01*
X56022936Y-67490000D02*
X57477064Y-67490000D01*
X82640000Y-61838748D02*
X82640000Y-62361252D01*
X84110000Y-61838748D02*
X84110000Y-62361252D01*
X113135000Y-69111252D02*
X113135000Y-68588748D01*
X111665000Y-69111252D02*
X111665000Y-68588748D01*
X103847936Y-77110000D02*
X104302064Y-77110000D01*
X103847936Y-75640000D02*
X104302064Y-75640000D01*
X113852064Y-76015000D02*
X113397936Y-76015000D01*
X113852064Y-77485000D02*
X113397936Y-77485000D01*
X59390000Y-77486252D02*
X59390000Y-74713748D01*
X62810000Y-77486252D02*
X62810000Y-74713748D01*
X109527064Y-71465000D02*
X109072936Y-71465000D01*
X109527064Y-72935000D02*
X109072936Y-72935000D01*
X109527064Y-70835000D02*
X109072936Y-70835000D01*
X109527064Y-69365000D02*
X109072936Y-69365000D01*
X63465000Y-76361252D02*
X63465000Y-75838748D01*
X64935000Y-76361252D02*
X64935000Y-75838748D01*
X50622936Y-64990000D02*
X52077064Y-64990000D01*
X50622936Y-66810000D02*
X52077064Y-66810000D01*
X101510000Y-77213748D02*
X101510000Y-77736252D01*
X100040000Y-77213748D02*
X100040000Y-77736252D01*
X103847936Y-77840000D02*
X104302064Y-77840000D01*
X103847936Y-79310000D02*
X104302064Y-79310000D01*
X126361252Y-67165000D02*
X125838748Y-67165000D01*
X126361252Y-68635000D02*
X125838748Y-68635000D01*
X106935000Y-69061252D02*
X106935000Y-68538748D01*
X105465000Y-69061252D02*
X105465000Y-68538748D01*
X50622936Y-69990000D02*
X52077064Y-69990000D01*
X50622936Y-71810000D02*
X52077064Y-71810000D01*
X57477064Y-64990000D02*
X56022936Y-64990000D01*
X57477064Y-66810000D02*
X56022936Y-66810000D01*
X82978020Y-76961252D02*
X82978020Y-76438748D01*
X84448020Y-76961252D02*
X84448020Y-76438748D01*
X126302064Y-70665000D02*
X125847936Y-70665000D01*
X126302064Y-72135000D02*
X125847936Y-72135000D01*
X103290000Y-69061252D02*
X103290000Y-68538748D01*
X104710000Y-69061252D02*
X104710000Y-68538748D01*
X85522936Y-49985000D02*
X85977064Y-49985000D01*
X85522936Y-48515000D02*
X85977064Y-48515000D01*
D15*
X62175000Y-71200000D02*
X62175000Y-65200000D01*
X81825000Y-71200000D02*
X80700000Y-71200000D01*
X62175000Y-65200000D02*
X81825000Y-65200000D01*
X81825000Y-65200000D02*
X81825000Y-71200000D01*
X65800000Y-71200000D02*
X62175000Y-71200000D01*
D16*
X82600000Y-70300000D02*
G75*
G03*
X82600000Y-70300000I-100000J0D01*
G01*
D14*
X52077064Y-67490000D02*
X50622936Y-67490000D01*
X52077064Y-69310000D02*
X50622936Y-69310000D01*
X95875000Y-66520000D02*
X97205000Y-66520000D01*
X97205000Y-66520000D02*
X97205000Y-67850000D01*
X94605000Y-69180000D02*
X86925000Y-69180000D01*
X94605000Y-66520000D02*
X94605000Y-69180000D01*
X86925000Y-66520000D02*
X86925000Y-69180000D01*
X94605000Y-66520000D02*
X86925000Y-66520000D01*
X109413748Y-79110000D02*
X109936252Y-79110000D01*
X109413748Y-77640000D02*
X109936252Y-77640000D01*
D15*
X57700000Y-58300000D02*
X57700000Y-64050000D01*
X50300000Y-64050000D02*
X50300000Y-58300000D01*
X50300000Y-58300000D02*
X57700000Y-58300000D01*
X57700000Y-64050000D02*
X50300000Y-64050000D01*
D16*
X52850000Y-57675000D02*
G75*
G03*
X52850000Y-57675000I-100000J0D01*
G01*
D14*
X97097936Y-75640000D02*
X97552064Y-75640000D01*
X97097936Y-77110000D02*
X97552064Y-77110000D01*
X101161252Y-67265000D02*
X100638748Y-67265000D01*
X101161252Y-68735000D02*
X100638748Y-68735000D01*
X58735000Y-76361252D02*
X58735000Y-75838748D01*
X57265000Y-76361252D02*
X57265000Y-75838748D01*
X68100000Y-74200000D02*
X68100000Y-73750001D01*
X68100000Y-73750001D02*
X74875000Y-73750001D01*
X68925000Y-79649999D02*
X74875000Y-79649999D01*
X65650000Y-74200000D02*
X68100000Y-74200000D01*
X111858000Y-49904401D02*
X111858000Y-53160000D01*
X111858000Y-53160000D02*
X118462000Y-53160000D01*
X118462000Y-53160000D02*
X118462000Y-49904401D01*
X117003739Y-48715000D02*
X113316261Y-48715000D01*
X115922000Y-47572000D02*
G75*
G03*
X115922000Y-47572000I-127000J0D01*
G01*
X119985000Y-76538748D02*
X119985000Y-77061252D01*
X118515000Y-76538748D02*
X118515000Y-77061252D01*
X99738748Y-72565000D02*
X100261252Y-72565000D01*
X99738748Y-74035000D02*
X100261252Y-74035000D01*
X114711252Y-72735000D02*
X114188748Y-72735000D01*
X114711252Y-71265000D02*
X114188748Y-71265000D01*
X114677064Y-73515000D02*
X114222936Y-73515000D01*
X114677064Y-74985000D02*
X114222936Y-74985000D01*
X108638748Y-53435000D02*
X109161252Y-53435000D01*
X108638748Y-51965000D02*
X109161252Y-51965000D01*
X109038748Y-68635000D02*
X109561252Y-68635000D01*
X109038748Y-67165000D02*
X109561252Y-67165000D01*
X89950000Y-55415000D02*
X89950000Y-61815000D01*
X84900000Y-55415000D02*
X84900000Y-61815000D01*
X84900000Y-61815000D02*
G75*
G03*
X89950000Y-61815000I2525000J0D01*
G01*
X89950000Y-55415000D02*
G75*
G03*
X84900000Y-55415000I-2525000J0D01*
G01*
X78778020Y-76961252D02*
X78778020Y-76438748D01*
X80248020Y-76961252D02*
X80248020Y-76438748D01*
X57477064Y-71810000D02*
X56022936Y-71810000D01*
X57477064Y-69990000D02*
X56022936Y-69990000D01*
X120272936Y-72965000D02*
X120727064Y-72965000D01*
X120272936Y-74435000D02*
X120727064Y-74435000D01*
X82348020Y-76961252D02*
X82348020Y-76438748D01*
X80878020Y-76961252D02*
X80878020Y-76438748D01*
X82640000Y-55411252D02*
X82640000Y-54888748D01*
X84110000Y-55411252D02*
X84110000Y-54888748D01*
X90775000Y-57035000D02*
X90775000Y-61535000D01*
X90715000Y-64535000D02*
X126515000Y-64535000D01*
X126455000Y-57035000D02*
X90775000Y-57035000D01*
X126455000Y-61535000D02*
X126455000Y-60285000D01*
X90775000Y-61535000D02*
X126455000Y-61535000D01*
X126515000Y-64535000D02*
X126515000Y-54035000D01*
X90715000Y-54035000D02*
X90715000Y-64535000D01*
X126515000Y-54035000D02*
X90715000Y-54035000D01*
X126455000Y-58285000D02*
X126455000Y-57035000D01*
X126455000Y-58285000D02*
G75*
G03*
X126455000Y-60285000I0J-1000000D01*
G01*
X97097936Y-79310000D02*
X97552064Y-79310000D01*
X97097936Y-77840000D02*
X97552064Y-77840000D01*
D16*
X80575000Y-51150000D02*
G75*
G03*
X80575000Y-51150000I-100000J0D01*
G01*
D15*
X79850000Y-56100000D02*
X74100000Y-56100000D01*
X74100000Y-48700000D02*
X79850000Y-48700000D01*
X79850000Y-48700000D02*
X79850000Y-56100000D01*
X74100000Y-56100000D02*
X74100000Y-48700000D01*
D14*
X53522936Y-72490000D02*
X54977064Y-72490000D01*
X53522936Y-74310000D02*
X54977064Y-74310000D01*
X117385000Y-77388748D02*
X117385000Y-77911252D01*
X115915000Y-77388748D02*
X115915000Y-77911252D01*
%LPC*%
D17*
X106150000Y-74250000D03*
X106150000Y-73300000D03*
X106150000Y-72350000D03*
X103450000Y-72350000D03*
X103450000Y-74250000D03*
X103450000Y-73300000D03*
D18*
X117925000Y-67695000D03*
X117925000Y-68965000D03*
X117925000Y-70235000D03*
X117925000Y-71505000D03*
X122875000Y-71505000D03*
X122875000Y-70235000D03*
X122875000Y-68965000D03*
X122875000Y-67695000D03*
D19*
X125000000Y-73600000D03*
X55900000Y-78700000D03*
X55900000Y-75700000D03*
D20*
X125900000Y-77400000D03*
X125900000Y-46400000D03*
X50900000Y-46400000D03*
D21*
X114550000Y-69800000D03*
X114550000Y-67800000D03*
D22*
X121400000Y-75800000D03*
X121400000Y-77800000D03*
D23*
X55200000Y-68400000D03*
X58300000Y-68400000D03*
D24*
X83375000Y-61062500D03*
X83375000Y-63137500D03*
D25*
X112400000Y-69887500D03*
X112400000Y-67812500D03*
D26*
X103075000Y-76375000D03*
X105075000Y-76375000D03*
D27*
X114625000Y-76750000D03*
X112625000Y-76750000D03*
D28*
X61100000Y-78325000D03*
X61100000Y-73875000D03*
D27*
X110300000Y-72200000D03*
X108300000Y-72200000D03*
X110300000Y-70100000D03*
X108300000Y-70100000D03*
D25*
X64200000Y-77137500D03*
X64200000Y-75062500D03*
D23*
X49800000Y-65900000D03*
X52900000Y-65900000D03*
D24*
X100775000Y-76437500D03*
X100775000Y-78512500D03*
D26*
X103075000Y-78575000D03*
X105075000Y-78575000D03*
D29*
X127137500Y-67900000D03*
X125062500Y-67900000D03*
D25*
X106200000Y-69837500D03*
X106200000Y-67762500D03*
D23*
X49800000Y-70900000D03*
X52900000Y-70900000D03*
D30*
X58300000Y-65900000D03*
X55200000Y-65900000D03*
D25*
X83713020Y-77737500D03*
X83713020Y-75662500D03*
D20*
X50900000Y-77400000D03*
D27*
X127075000Y-71400000D03*
X125075000Y-71400000D03*
D31*
X104000000Y-69825000D03*
X104000000Y-67775000D03*
D26*
X84750000Y-49250000D03*
X86750000Y-49250000D03*
D32*
X79620000Y-70300000D03*
D33*
X77080000Y-70300000D03*
X72000000Y-70300000D03*
X66920000Y-70300000D03*
D30*
X52900000Y-68400000D03*
X49800000Y-68400000D03*
D34*
X95875000Y-67850000D03*
D35*
X93335000Y-67850000D03*
X90795000Y-67850000D03*
X88255000Y-67850000D03*
D36*
X108637500Y-78375000D03*
X110712500Y-78375000D03*
D32*
X52750000Y-60650000D03*
D33*
X55250000Y-60650000D03*
D26*
X96325000Y-76375000D03*
X98325000Y-76375000D03*
D29*
X101937500Y-68000000D03*
X99862500Y-68000000D03*
D25*
X58000000Y-77137500D03*
X58000000Y-75062500D03*
D37*
X66450001Y-74795000D03*
X66450001Y-76065000D03*
X66450001Y-77335000D03*
X66450001Y-78605000D03*
X77349999Y-78605000D03*
X77349999Y-77335000D03*
X77349999Y-76065000D03*
X77349999Y-74795000D03*
D38*
X117700000Y-49350000D03*
X115160000Y-51890000D03*
X112620000Y-49350000D03*
D24*
X119250000Y-75762500D03*
X119250000Y-77837500D03*
D36*
X98962500Y-73300000D03*
X101037500Y-73300000D03*
D29*
X115487500Y-72000000D03*
X113412500Y-72000000D03*
D27*
X115450000Y-74250000D03*
X113450000Y-74250000D03*
D36*
X107862500Y-52700000D03*
X109937500Y-52700000D03*
X108262500Y-67900000D03*
X110337500Y-67900000D03*
D39*
X87425000Y-56175000D03*
X87425000Y-61055000D03*
D25*
X79513020Y-77737500D03*
X79513020Y-75662500D03*
D30*
X58300000Y-70900000D03*
X55200000Y-70900000D03*
D26*
X119500000Y-73700000D03*
X121500000Y-73700000D03*
D25*
X81613020Y-77737500D03*
X81613020Y-75662500D03*
X83375000Y-56187500D03*
X83375000Y-54112500D03*
D40*
X125125000Y-55475000D03*
D41*
X122585000Y-55475000D03*
X120045000Y-55475000D03*
X117505000Y-55475000D03*
X114965000Y-55475000D03*
X112425000Y-55475000D03*
X109885000Y-55475000D03*
X107345000Y-55475000D03*
X104805000Y-55475000D03*
X102265000Y-55475000D03*
X99725000Y-55475000D03*
X97185000Y-55475000D03*
X94645000Y-55475000D03*
X92105000Y-55475000D03*
X92105000Y-63095000D03*
X94645000Y-63095000D03*
X97185000Y-63095000D03*
X99725000Y-63095000D03*
X102265000Y-63095000D03*
X104805000Y-63095000D03*
X107345000Y-63095000D03*
X109885000Y-63095000D03*
X112425000Y-63095000D03*
X114965000Y-63095000D03*
X117505000Y-63095000D03*
X120045000Y-63095000D03*
X122585000Y-63095000D03*
X125125000Y-63095000D03*
D26*
X96325000Y-78575000D03*
X98325000Y-78575000D03*
D33*
X77500000Y-53650000D03*
D32*
X77500000Y-51150000D03*
D23*
X52700000Y-73400000D03*
X55800000Y-73400000D03*
D24*
X116650000Y-76612500D03*
X116650000Y-78687500D03*
D34*
X120300000Y-46475000D03*
D35*
X117760000Y-46475000D03*
X115220000Y-46475000D03*
X112680000Y-46475000D03*
X110140000Y-46475000D03*
X107600000Y-46475000D03*
X105060000Y-46475000D03*
X102520000Y-46475000D03*
X99980000Y-46475000D03*
X97440000Y-46475000D03*
X94900000Y-46475000D03*
X92360000Y-46475000D03*
X89820000Y-46475000D03*
X87280000Y-46475000D03*
X84740000Y-46475000D03*
X82200000Y-46475000D03*
M02*
