G04 #@! TF.GenerationSoftware,KiCad,Pcbnew,(6.0.0-0)*
G04 #@! TF.CreationDate,2022-02-24T15:34:45+01:00*
G04 #@! TF.ProjectId,AC Power Supply,41432050-6f77-4657-9220-537570706c79,rev?*
G04 #@! TF.SameCoordinates,Original*
G04 #@! TF.FileFunction,Copper,L2,Bot*
G04 #@! TF.FilePolarity,Positive*
%FSLAX46Y46*%
G04 Gerber Fmt 4.6, Leading zero omitted, Abs format (unit mm)*
G04 Created by KiCad (PCBNEW (6.0.0-0)) date 2022-02-24 15:34:45*
%MOMM*%
%LPD*%
G01*
G04 APERTURE LIST*
G04 #@! TA.AperFunction,ComponentPad*
%ADD10C,1.000000*%
G04 #@! TD*
G04 #@! TA.AperFunction,ComponentPad*
%ADD11R,1.508000X1.508000*%
G04 #@! TD*
G04 #@! TA.AperFunction,ComponentPad*
%ADD12C,1.508000*%
G04 #@! TD*
G04 #@! TA.AperFunction,ComponentPad*
%ADD13C,0.600000*%
G04 #@! TD*
G04 #@! TA.AperFunction,ComponentPad*
%ADD14R,1.700000X1.700000*%
G04 #@! TD*
G04 #@! TA.AperFunction,ComponentPad*
%ADD15O,1.700000X1.700000*%
G04 #@! TD*
G04 #@! TA.AperFunction,ComponentPad*
%ADD16C,1.219200*%
G04 #@! TD*
G04 #@! TA.AperFunction,ComponentPad*
%ADD17C,1.500000*%
G04 #@! TD*
G04 #@! TA.AperFunction,ComponentPad*
%ADD18R,1.600000X2.400000*%
G04 #@! TD*
G04 #@! TA.AperFunction,ComponentPad*
%ADD19O,1.600000X2.400000*%
G04 #@! TD*
G04 #@! TA.AperFunction,ViaPad*
%ADD20C,0.800000*%
G04 #@! TD*
G04 #@! TA.AperFunction,Conductor*
%ADD21C,0.350000*%
G04 #@! TD*
G04 #@! TA.AperFunction,Conductor*
%ADD22C,0.250000*%
G04 #@! TD*
G04 APERTURE END LIST*
G36*
X86913020Y-77700000D02*
G01*
X85713020Y-77700000D01*
X85713020Y-77100000D01*
X86913020Y-77100000D01*
X86913020Y-77700000D01*
G37*
G36*
X86863020Y-76300000D02*
G01*
X85663020Y-76300000D01*
X85663020Y-75700000D01*
X86863020Y-75700000D01*
X86863020Y-76300000D01*
G37*
D10*
X125000000Y-73600000D03*
X55900000Y-78700000D03*
X55900000Y-75700000D03*
D11*
X79620000Y-70300000D03*
D12*
X77080000Y-70300000D03*
X72000000Y-70300000D03*
X66920000Y-70300000D03*
D13*
X85713020Y-77400000D03*
X86913020Y-77400000D03*
D14*
X95875000Y-67850000D03*
D15*
X93335000Y-67850000D03*
X90795000Y-67850000D03*
X88255000Y-67850000D03*
D11*
X52750000Y-60650000D03*
D12*
X55250000Y-60650000D03*
D16*
X117700000Y-49350000D03*
X115160000Y-51890000D03*
X112620000Y-49350000D03*
D13*
X85663020Y-76000000D03*
X86863020Y-76000000D03*
D17*
X87425000Y-56175000D03*
X87425000Y-61055000D03*
D18*
X125125000Y-55475000D03*
D19*
X122585000Y-55475000D03*
X120045000Y-55475000D03*
X117505000Y-55475000D03*
X114965000Y-55475000D03*
X112425000Y-55475000D03*
X109885000Y-55475000D03*
X107345000Y-55475000D03*
X104805000Y-55475000D03*
X102265000Y-55475000D03*
X99725000Y-55475000D03*
X97185000Y-55475000D03*
X94645000Y-55475000D03*
X92105000Y-55475000D03*
X92105000Y-63095000D03*
X94645000Y-63095000D03*
X97185000Y-63095000D03*
X99725000Y-63095000D03*
X102265000Y-63095000D03*
X104805000Y-63095000D03*
X107345000Y-63095000D03*
X109885000Y-63095000D03*
X112425000Y-63095000D03*
X114965000Y-63095000D03*
X117505000Y-63095000D03*
X120045000Y-63095000D03*
X122585000Y-63095000D03*
X125125000Y-63095000D03*
D12*
X77500000Y-53650000D03*
D11*
X77500000Y-51150000D03*
D14*
X120300000Y-46475000D03*
D15*
X117760000Y-46475000D03*
X115220000Y-46475000D03*
X112680000Y-46475000D03*
X110140000Y-46475000D03*
X107600000Y-46475000D03*
X105060000Y-46475000D03*
X102520000Y-46475000D03*
X99980000Y-46475000D03*
X97440000Y-46475000D03*
X94900000Y-46475000D03*
X92360000Y-46475000D03*
X89820000Y-46475000D03*
X87280000Y-46475000D03*
X84740000Y-46475000D03*
X82200000Y-46475000D03*
D20*
X66900000Y-67100000D03*
X121400000Y-79425000D03*
X81400000Y-63150000D03*
X107000000Y-78375000D03*
X119400000Y-71500000D03*
X98225000Y-68000000D03*
X119250000Y-79450000D03*
X114900000Y-78675000D03*
X81613020Y-79400000D03*
X105950000Y-52700000D03*
X81650000Y-54900000D03*
X97325000Y-73300000D03*
X104800000Y-73300000D03*
X79513020Y-79400000D03*
X127200000Y-69675000D03*
X106175000Y-71150000D03*
X83713020Y-79400000D03*
X111825000Y-73975000D03*
X117425000Y-73975000D03*
D21*
X66900000Y-67100000D02*
X68800000Y-67100000D01*
X68800000Y-67100000D02*
X72000000Y-70300000D01*
D22*
X117505000Y-51300000D02*
X112680000Y-46475000D01*
X117505000Y-55475000D02*
X117505000Y-51300000D01*
X114965000Y-53840000D02*
X114965000Y-55475000D01*
X107600000Y-46475000D02*
X114965000Y-53840000D01*
X112425000Y-55475000D02*
X112425000Y-52125000D01*
X112425000Y-52125000D02*
X109800000Y-49500000D01*
X109800000Y-49500000D02*
X97925000Y-49500000D01*
X97925000Y-49500000D02*
X94900000Y-46475000D01*
X97185000Y-54085000D02*
X97185000Y-55475000D01*
X89820000Y-46720000D02*
X97185000Y-54085000D01*
X91825000Y-49500000D02*
X90500000Y-49500000D01*
X94645000Y-52320000D02*
X91825000Y-49500000D01*
X94645000Y-55475000D02*
X94645000Y-52320000D01*
X90500000Y-49500000D02*
X87475000Y-46475000D01*
X92025000Y-46475000D02*
X92025000Y-48150000D01*
X92025000Y-48150000D02*
X99350000Y-55475000D01*
X111825000Y-73975000D02*
X117425000Y-73975000D01*
G04 #@! TA.AperFunction,Conductor*
G36*
X128234121Y-43728002D02*
G01*
X128280614Y-43781658D01*
X128292000Y-43834000D01*
X128292000Y-79966000D01*
X128271998Y-80034121D01*
X128218342Y-80080614D01*
X128166000Y-80092000D01*
X76026000Y-80092000D01*
X75957879Y-80071998D01*
X75911386Y-80018342D01*
X75900000Y-79966000D01*
X75900000Y-75988640D01*
X84849483Y-75988640D01*
X84867183Y-76169160D01*
X84924438Y-76341273D01*
X84928085Y-76347295D01*
X84928086Y-76347297D01*
X84967021Y-76411586D01*
X85018400Y-76496424D01*
X85144402Y-76626902D01*
X85147604Y-76628997D01*
X85186628Y-76686778D01*
X85188249Y-76757756D01*
X85154734Y-76815047D01*
X85082513Y-76885771D01*
X84984255Y-77038238D01*
X84981846Y-77044858D01*
X84981844Y-77044861D01*
X84967311Y-77084791D01*
X84922217Y-77208685D01*
X84899483Y-77388640D01*
X84917183Y-77569160D01*
X84974438Y-77741273D01*
X84978085Y-77747295D01*
X84978086Y-77747297D01*
X85062837Y-77887238D01*
X85068400Y-77896424D01*
X85194402Y-78026902D01*
X85346179Y-78126222D01*
X85352783Y-78128678D01*
X85352785Y-78128679D01*
X85509578Y-78186990D01*
X85509580Y-78186990D01*
X85516188Y-78189448D01*
X85572770Y-78196998D01*
X85615223Y-78202663D01*
X85620715Y-78203842D01*
X85628558Y-78205014D01*
X85637161Y-78207587D01*
X85646134Y-78207642D01*
X85647138Y-78207792D01*
X85660761Y-78208739D01*
X85675339Y-78210684D01*
X85689001Y-78212507D01*
X85689004Y-78212507D01*
X85695981Y-78213438D01*
X85702992Y-78212800D01*
X85702996Y-78212800D01*
X85730796Y-78210270D01*
X85746441Y-78208846D01*
X85758621Y-78208329D01*
X85777306Y-78208443D01*
X85778737Y-78208452D01*
X85782672Y-78208476D01*
X85784016Y-78208092D01*
X85785362Y-78208000D01*
X86846857Y-78208000D01*
X86863521Y-78209107D01*
X86888999Y-78212507D01*
X86889004Y-78212507D01*
X86895981Y-78213438D01*
X86902992Y-78212800D01*
X86902996Y-78212800D01*
X86930796Y-78210270D01*
X86946441Y-78208846D01*
X86958621Y-78208329D01*
X86982672Y-78208476D01*
X86991307Y-78206008D01*
X87000196Y-78204790D01*
X87000203Y-78204843D01*
X87009497Y-78203107D01*
X87076620Y-78196998D01*
X87083322Y-78194820D01*
X87083324Y-78194820D01*
X87242429Y-78143124D01*
X87242432Y-78143123D01*
X87249128Y-78140947D01*
X87404932Y-78048069D01*
X87536286Y-77922982D01*
X87636663Y-77771902D01*
X87691669Y-77627100D01*
X87698575Y-77608920D01*
X87698576Y-77608918D01*
X87701075Y-77602338D01*
X87702055Y-77595366D01*
X87723570Y-77442277D01*
X124037009Y-77442277D01*
X124062625Y-77710769D01*
X124063710Y-77715203D01*
X124063711Y-77715209D01*
X124108054Y-77896424D01*
X124126731Y-77972750D01*
X124227985Y-78222733D01*
X124364265Y-78455482D01*
X124367118Y-78459049D01*
X124484686Y-78606060D01*
X124532716Y-78666119D01*
X124729809Y-78850234D01*
X124951416Y-79003968D01*
X124955499Y-79005999D01*
X124955502Y-79006001D01*
X125071013Y-79063466D01*
X125192894Y-79124101D01*
X125197228Y-79125522D01*
X125197231Y-79125523D01*
X125444853Y-79206698D01*
X125444859Y-79206699D01*
X125449186Y-79208118D01*
X125453677Y-79208898D01*
X125453678Y-79208898D01*
X125711140Y-79253601D01*
X125711148Y-79253602D01*
X125714921Y-79254257D01*
X125718758Y-79254448D01*
X125798578Y-79258422D01*
X125798586Y-79258422D01*
X125800149Y-79258500D01*
X125968512Y-79258500D01*
X125970780Y-79258335D01*
X125970792Y-79258335D01*
X126101884Y-79248823D01*
X126169004Y-79243953D01*
X126173459Y-79242969D01*
X126173462Y-79242969D01*
X126427912Y-79186791D01*
X126427916Y-79186790D01*
X126432372Y-79185806D01*
X126558480Y-79138028D01*
X126680318Y-79091868D01*
X126680321Y-79091867D01*
X126684588Y-79090250D01*
X126920368Y-78959286D01*
X127134773Y-78795657D01*
X127323312Y-78602792D01*
X127482034Y-78384730D01*
X127565190Y-78226676D01*
X127605490Y-78150079D01*
X127605493Y-78150073D01*
X127607615Y-78146039D01*
X127609414Y-78140947D01*
X127695902Y-77896033D01*
X127695902Y-77896032D01*
X127697425Y-77891720D01*
X127749581Y-77627100D01*
X127752133Y-77575844D01*
X127762764Y-77362292D01*
X127762764Y-77362286D01*
X127762991Y-77357723D01*
X127737375Y-77089231D01*
X127725933Y-77042469D01*
X127674355Y-76831688D01*
X127673269Y-76827250D01*
X127572015Y-76577267D01*
X127435735Y-76344518D01*
X127316455Y-76195366D01*
X127270136Y-76137447D01*
X127270135Y-76137445D01*
X127267284Y-76133881D01*
X127070191Y-75949766D01*
X126848584Y-75796032D01*
X126844501Y-75794001D01*
X126844498Y-75793999D01*
X126679606Y-75711967D01*
X126607106Y-75675899D01*
X126602772Y-75674478D01*
X126602769Y-75674477D01*
X126355147Y-75593302D01*
X126355141Y-75593301D01*
X126350814Y-75591882D01*
X126346322Y-75591102D01*
X126088860Y-75546399D01*
X126088852Y-75546398D01*
X126085079Y-75545743D01*
X126073817Y-75545182D01*
X126001422Y-75541578D01*
X126001414Y-75541578D01*
X125999851Y-75541500D01*
X125831488Y-75541500D01*
X125829220Y-75541665D01*
X125829208Y-75541665D01*
X125698116Y-75551177D01*
X125630996Y-75556047D01*
X125626541Y-75557031D01*
X125626538Y-75557031D01*
X125372088Y-75613209D01*
X125372084Y-75613210D01*
X125367628Y-75614194D01*
X125286684Y-75644861D01*
X125119682Y-75708132D01*
X125119679Y-75708133D01*
X125115412Y-75709750D01*
X124879632Y-75840714D01*
X124876000Y-75843486D01*
X124676614Y-75995653D01*
X124665227Y-76004343D01*
X124476688Y-76197208D01*
X124317966Y-76415270D01*
X124315844Y-76419304D01*
X124194510Y-76649921D01*
X124194507Y-76649927D01*
X124192385Y-76653961D01*
X124190865Y-76658266D01*
X124190863Y-76658270D01*
X124107397Y-76894624D01*
X124102575Y-76908280D01*
X124050419Y-77172900D01*
X124050192Y-77177453D01*
X124050192Y-77177456D01*
X124037983Y-77422717D01*
X124037009Y-77442277D01*
X87723570Y-77442277D01*
X87725768Y-77426639D01*
X87725768Y-77426636D01*
X87726319Y-77422717D01*
X87726636Y-77400000D01*
X87706417Y-77219745D01*
X87704100Y-77213091D01*
X87649084Y-77055106D01*
X87649082Y-77055103D01*
X87646765Y-77048448D01*
X87550646Y-76894624D01*
X87422835Y-76765918D01*
X87424422Y-76764342D01*
X87389963Y-76714846D01*
X87387338Y-76643897D01*
X87422572Y-76583656D01*
X87433422Y-76573324D01*
X87486286Y-76522982D01*
X87586663Y-76371902D01*
X87651075Y-76202338D01*
X87652255Y-76193940D01*
X87675768Y-76026639D01*
X87675768Y-76026636D01*
X87676319Y-76022717D01*
X87676530Y-76007611D01*
X87676581Y-76003962D01*
X87676581Y-76003957D01*
X87676636Y-76000000D01*
X87656417Y-75819745D01*
X87654100Y-75813091D01*
X87599084Y-75655106D01*
X87599082Y-75655103D01*
X87596765Y-75648448D01*
X87500646Y-75494624D01*
X87486961Y-75480843D01*
X87377798Y-75370915D01*
X87377794Y-75370912D01*
X87372835Y-75365918D01*
X87361717Y-75358862D01*
X87313558Y-75328300D01*
X87219686Y-75268727D01*
X87190483Y-75258328D01*
X87055445Y-75210243D01*
X87055440Y-75210242D01*
X87048810Y-75207881D01*
X87041822Y-75207048D01*
X87041819Y-75207047D01*
X86962778Y-75197622D01*
X86956360Y-75196290D01*
X86956357Y-75196312D01*
X86947480Y-75194985D01*
X86938879Y-75192413D01*
X86929904Y-75192358D01*
X86929902Y-75192358D01*
X86925124Y-75192329D01*
X86910975Y-75191445D01*
X86875694Y-75187238D01*
X86868700Y-75186404D01*
X86861698Y-75187140D01*
X86861696Y-75187140D01*
X86825477Y-75190947D01*
X86811536Y-75191635D01*
X86797305Y-75191548D01*
X86797304Y-75191548D01*
X86793368Y-75191524D01*
X86792024Y-75191908D01*
X86790680Y-75192000D01*
X85723118Y-75192000D01*
X85708199Y-75191114D01*
X85704292Y-75190648D01*
X85668700Y-75186404D01*
X85661698Y-75187140D01*
X85661696Y-75187140D01*
X85625477Y-75190947D01*
X85611536Y-75191635D01*
X85604061Y-75191589D01*
X85593368Y-75191524D01*
X85584734Y-75193991D01*
X85578774Y-75194808D01*
X85566981Y-75197095D01*
X85495308Y-75204628D01*
X85495306Y-75204629D01*
X85488308Y-75205364D01*
X85316599Y-75263818D01*
X85310595Y-75267512D01*
X85168115Y-75355166D01*
X85168112Y-75355168D01*
X85162108Y-75358862D01*
X85157073Y-75363793D01*
X85157070Y-75363795D01*
X85037545Y-75480843D01*
X85032513Y-75485771D01*
X84934255Y-75638238D01*
X84931846Y-75644858D01*
X84931844Y-75644861D01*
X84877562Y-75793999D01*
X84872217Y-75808685D01*
X84849483Y-75988640D01*
X75900000Y-75988640D01*
X75900000Y-73975000D01*
X110911496Y-73975000D01*
X110912186Y-73981565D01*
X110930287Y-74153783D01*
X110931458Y-74164928D01*
X110990473Y-74346556D01*
X111085960Y-74511944D01*
X111090378Y-74516851D01*
X111090379Y-74516852D01*
X111172899Y-74608500D01*
X111213747Y-74653866D01*
X111368248Y-74766118D01*
X111374276Y-74768802D01*
X111374278Y-74768803D01*
X111536681Y-74841109D01*
X111542712Y-74843794D01*
X111636113Y-74863647D01*
X111723056Y-74882128D01*
X111723061Y-74882128D01*
X111729513Y-74883500D01*
X111920487Y-74883500D01*
X111926939Y-74882128D01*
X111926944Y-74882128D01*
X112013887Y-74863647D01*
X112107288Y-74843794D01*
X112113319Y-74841109D01*
X112275722Y-74768803D01*
X112275724Y-74768802D01*
X112281752Y-74766118D01*
X112436253Y-74653866D01*
X112440668Y-74648963D01*
X112445580Y-74644540D01*
X112446705Y-74645789D01*
X112500014Y-74612949D01*
X112533200Y-74608500D01*
X116716800Y-74608500D01*
X116784921Y-74628502D01*
X116804147Y-74644843D01*
X116804420Y-74644540D01*
X116809332Y-74648963D01*
X116813747Y-74653866D01*
X116968248Y-74766118D01*
X116974276Y-74768802D01*
X116974278Y-74768803D01*
X117136681Y-74841109D01*
X117142712Y-74843794D01*
X117236113Y-74863647D01*
X117323056Y-74882128D01*
X117323061Y-74882128D01*
X117329513Y-74883500D01*
X117520487Y-74883500D01*
X117526939Y-74882128D01*
X117526944Y-74882128D01*
X117613887Y-74863647D01*
X117707288Y-74843794D01*
X117713319Y-74841109D01*
X117875722Y-74768803D01*
X117875724Y-74768802D01*
X117881752Y-74766118D01*
X118036253Y-74653866D01*
X118077101Y-74608500D01*
X118159621Y-74516852D01*
X118159622Y-74516851D01*
X118164040Y-74511944D01*
X118259527Y-74346556D01*
X118318542Y-74164928D01*
X118319714Y-74153783D01*
X118337814Y-73981565D01*
X118338504Y-73975000D01*
X118337676Y-73967123D01*
X118319232Y-73791635D01*
X118319232Y-73791633D01*
X118318542Y-73785072D01*
X118259527Y-73603444D01*
X118249370Y-73585851D01*
X123986719Y-73585851D01*
X124003268Y-73782934D01*
X124057783Y-73973050D01*
X124148187Y-74148956D01*
X124271035Y-74303953D01*
X124275728Y-74307947D01*
X124275729Y-74307948D01*
X124321094Y-74346556D01*
X124421650Y-74432136D01*
X124594294Y-74528624D01*
X124782392Y-74589740D01*
X124978777Y-74613158D01*
X124984912Y-74612686D01*
X124984914Y-74612686D01*
X125169830Y-74598457D01*
X125169834Y-74598456D01*
X125175972Y-74597984D01*
X125366463Y-74544798D01*
X125371967Y-74542018D01*
X125371969Y-74542017D01*
X125537495Y-74458404D01*
X125537497Y-74458403D01*
X125542996Y-74455625D01*
X125698847Y-74333861D01*
X125828078Y-74184145D01*
X125925769Y-74012179D01*
X125988197Y-73824513D01*
X126012985Y-73628295D01*
X126013380Y-73600000D01*
X125994080Y-73403167D01*
X125936916Y-73213831D01*
X125844066Y-73039204D01*
X125773709Y-72952938D01*
X125722960Y-72890713D01*
X125722957Y-72890710D01*
X125719065Y-72885938D01*
X125712724Y-72880692D01*
X125571425Y-72763799D01*
X125571421Y-72763797D01*
X125566675Y-72759870D01*
X125392701Y-72665802D01*
X125203768Y-72607318D01*
X125197643Y-72606674D01*
X125197642Y-72606674D01*
X125013204Y-72587289D01*
X125013202Y-72587289D01*
X125007075Y-72586645D01*
X124924576Y-72594153D01*
X124816251Y-72604011D01*
X124816248Y-72604012D01*
X124810112Y-72604570D01*
X124804206Y-72606308D01*
X124804202Y-72606309D01*
X124699076Y-72637249D01*
X124620381Y-72660410D01*
X124614923Y-72663263D01*
X124614919Y-72663265D01*
X124524147Y-72710720D01*
X124445110Y-72752040D01*
X124290975Y-72875968D01*
X124163846Y-73027474D01*
X124160879Y-73032872D01*
X124160875Y-73032877D01*
X124157397Y-73039204D01*
X124068567Y-73200787D01*
X124066706Y-73206654D01*
X124066705Y-73206656D01*
X124030275Y-73321498D01*
X124008765Y-73389306D01*
X123986719Y-73585851D01*
X118249370Y-73585851D01*
X118245834Y-73579726D01*
X118167341Y-73443774D01*
X118164040Y-73438056D01*
X118120146Y-73389306D01*
X118040675Y-73301045D01*
X118040674Y-73301044D01*
X118036253Y-73296134D01*
X117881752Y-73183882D01*
X117875724Y-73181198D01*
X117875722Y-73181197D01*
X117713319Y-73108891D01*
X117713318Y-73108891D01*
X117707288Y-73106206D01*
X117613887Y-73086353D01*
X117526944Y-73067872D01*
X117526939Y-73067872D01*
X117520487Y-73066500D01*
X117329513Y-73066500D01*
X117323061Y-73067872D01*
X117323056Y-73067872D01*
X117236113Y-73086353D01*
X117142712Y-73106206D01*
X117136682Y-73108891D01*
X117136681Y-73108891D01*
X116974278Y-73181197D01*
X116974276Y-73181198D01*
X116968248Y-73183882D01*
X116813747Y-73296134D01*
X116809332Y-73301037D01*
X116804420Y-73305460D01*
X116803295Y-73304211D01*
X116749986Y-73337051D01*
X116716800Y-73341500D01*
X112533200Y-73341500D01*
X112465079Y-73321498D01*
X112445853Y-73305157D01*
X112445580Y-73305460D01*
X112440668Y-73301037D01*
X112436253Y-73296134D01*
X112281752Y-73183882D01*
X112275724Y-73181198D01*
X112275722Y-73181197D01*
X112113319Y-73108891D01*
X112113318Y-73108891D01*
X112107288Y-73106206D01*
X112013887Y-73086353D01*
X111926944Y-73067872D01*
X111926939Y-73067872D01*
X111920487Y-73066500D01*
X111729513Y-73066500D01*
X111723061Y-73067872D01*
X111723056Y-73067872D01*
X111636113Y-73086353D01*
X111542712Y-73106206D01*
X111536682Y-73108891D01*
X111536681Y-73108891D01*
X111374278Y-73181197D01*
X111374276Y-73181198D01*
X111368248Y-73183882D01*
X111213747Y-73296134D01*
X111209326Y-73301044D01*
X111209325Y-73301045D01*
X111129855Y-73389306D01*
X111085960Y-73438056D01*
X111082659Y-73443774D01*
X111004167Y-73579726D01*
X110990473Y-73603444D01*
X110931458Y-73785072D01*
X110930768Y-73791633D01*
X110930768Y-73791635D01*
X110912324Y-73967123D01*
X110911496Y-73975000D01*
X75900000Y-73975000D01*
X75900000Y-71102134D01*
X78357500Y-71102134D01*
X78364255Y-71164316D01*
X78415385Y-71300705D01*
X78502739Y-71417261D01*
X78619295Y-71504615D01*
X78755684Y-71555745D01*
X78817866Y-71562500D01*
X80422134Y-71562500D01*
X80484316Y-71555745D01*
X80620705Y-71504615D01*
X80737261Y-71417261D01*
X80824615Y-71300705D01*
X80875745Y-71164316D01*
X80882500Y-71102134D01*
X80882500Y-69497866D01*
X80875745Y-69435684D01*
X80824615Y-69299295D01*
X80737261Y-69182739D01*
X80620705Y-69095385D01*
X80484316Y-69044255D01*
X80422134Y-69037500D01*
X78817866Y-69037500D01*
X78755684Y-69044255D01*
X78619295Y-69095385D01*
X78502739Y-69182739D01*
X78415385Y-69299295D01*
X78364255Y-69435684D01*
X78357500Y-69497866D01*
X78357500Y-71102134D01*
X75900000Y-71102134D01*
X75900000Y-68117966D01*
X86923257Y-68117966D01*
X86953565Y-68252446D01*
X86956645Y-68262275D01*
X87036770Y-68459603D01*
X87041413Y-68468794D01*
X87152694Y-68650388D01*
X87158777Y-68658699D01*
X87298213Y-68819667D01*
X87305580Y-68826883D01*
X87469434Y-68962916D01*
X87477881Y-68968831D01*
X87661756Y-69076279D01*
X87671042Y-69080729D01*
X87870001Y-69156703D01*
X87879899Y-69159579D01*
X87983250Y-69180606D01*
X87997299Y-69179410D01*
X88001000Y-69169065D01*
X88001000Y-69168517D01*
X88509000Y-69168517D01*
X88513064Y-69182359D01*
X88526478Y-69184393D01*
X88533184Y-69183534D01*
X88543262Y-69181392D01*
X88747255Y-69120191D01*
X88756842Y-69116433D01*
X88948095Y-69022739D01*
X88956945Y-69017464D01*
X89130328Y-68893792D01*
X89138200Y-68887139D01*
X89289052Y-68736812D01*
X89295730Y-68728965D01*
X89423022Y-68551819D01*
X89424279Y-68552722D01*
X89471373Y-68509362D01*
X89541311Y-68497145D01*
X89606751Y-68524678D01*
X89634579Y-68556511D01*
X89694987Y-68655088D01*
X89841250Y-68823938D01*
X90013126Y-68966632D01*
X90206000Y-69079338D01*
X90210825Y-69081180D01*
X90210826Y-69081181D01*
X90248023Y-69095385D01*
X90414692Y-69159030D01*
X90419760Y-69160061D01*
X90419763Y-69160062D01*
X90504776Y-69177358D01*
X90633597Y-69203567D01*
X90638772Y-69203757D01*
X90638774Y-69203757D01*
X90851673Y-69211564D01*
X90851677Y-69211564D01*
X90856837Y-69211753D01*
X90861957Y-69211097D01*
X90861959Y-69211097D01*
X91073288Y-69184025D01*
X91073289Y-69184025D01*
X91078416Y-69183368D01*
X91083366Y-69181883D01*
X91287429Y-69120661D01*
X91287434Y-69120659D01*
X91292384Y-69119174D01*
X91492994Y-69020896D01*
X91674860Y-68891173D01*
X91833096Y-68733489D01*
X91963453Y-68552077D01*
X91964776Y-68553028D01*
X92011645Y-68509857D01*
X92081580Y-68497625D01*
X92147026Y-68525144D01*
X92174875Y-68556994D01*
X92234987Y-68655088D01*
X92381250Y-68823938D01*
X92553126Y-68966632D01*
X92746000Y-69079338D01*
X92750825Y-69081180D01*
X92750826Y-69081181D01*
X92788023Y-69095385D01*
X92954692Y-69159030D01*
X92959760Y-69160061D01*
X92959763Y-69160062D01*
X93044776Y-69177358D01*
X93173597Y-69203567D01*
X93178772Y-69203757D01*
X93178774Y-69203757D01*
X93391673Y-69211564D01*
X93391677Y-69211564D01*
X93396837Y-69211753D01*
X93401957Y-69211097D01*
X93401959Y-69211097D01*
X93613288Y-69184025D01*
X93613289Y-69184025D01*
X93618416Y-69183368D01*
X93623366Y-69181883D01*
X93827429Y-69120661D01*
X93827434Y-69120659D01*
X93832384Y-69119174D01*
X94032994Y-69020896D01*
X94214860Y-68891173D01*
X94323091Y-68783319D01*
X94385462Y-68749404D01*
X94456268Y-68754592D01*
X94513030Y-68797238D01*
X94530012Y-68828341D01*
X94574385Y-68946705D01*
X94661739Y-69063261D01*
X94778295Y-69150615D01*
X94914684Y-69201745D01*
X94976866Y-69208500D01*
X96773134Y-69208500D01*
X96835316Y-69201745D01*
X96971705Y-69150615D01*
X97088261Y-69063261D01*
X97175615Y-68946705D01*
X97226745Y-68810316D01*
X97233500Y-68748134D01*
X97233500Y-66951866D01*
X97226745Y-66889684D01*
X97175615Y-66753295D01*
X97088261Y-66636739D01*
X96971705Y-66549385D01*
X96835316Y-66498255D01*
X96773134Y-66491500D01*
X94976866Y-66491500D01*
X94914684Y-66498255D01*
X94778295Y-66549385D01*
X94661739Y-66636739D01*
X94574385Y-66753295D01*
X94571233Y-66761703D01*
X94529919Y-66871907D01*
X94487277Y-66928671D01*
X94420716Y-66953371D01*
X94351367Y-66938163D01*
X94318743Y-66912476D01*
X94268151Y-66856875D01*
X94268142Y-66856866D01*
X94264670Y-66853051D01*
X94260619Y-66849852D01*
X94260615Y-66849848D01*
X94093414Y-66717800D01*
X94093410Y-66717798D01*
X94089359Y-66714598D01*
X94053028Y-66694542D01*
X94037136Y-66685769D01*
X93893789Y-66606638D01*
X93888920Y-66604914D01*
X93888916Y-66604912D01*
X93688087Y-66533795D01*
X93688083Y-66533794D01*
X93683212Y-66532069D01*
X93678119Y-66531162D01*
X93678116Y-66531161D01*
X93468373Y-66493800D01*
X93468367Y-66493799D01*
X93463284Y-66492894D01*
X93389452Y-66491992D01*
X93245081Y-66490228D01*
X93245079Y-66490228D01*
X93239911Y-66490165D01*
X93019091Y-66523955D01*
X92806756Y-66593357D01*
X92608607Y-66696507D01*
X92604474Y-66699610D01*
X92604471Y-66699612D01*
X92434100Y-66827530D01*
X92429965Y-66830635D01*
X92404541Y-66857240D01*
X92336280Y-66928671D01*
X92275629Y-66992138D01*
X92168201Y-67149621D01*
X92113293Y-67194621D01*
X92042768Y-67202792D01*
X91979021Y-67171538D01*
X91958324Y-67147054D01*
X91877822Y-67022617D01*
X91877820Y-67022614D01*
X91875014Y-67018277D01*
X91724670Y-66853051D01*
X91720619Y-66849852D01*
X91720615Y-66849848D01*
X91553414Y-66717800D01*
X91553410Y-66717798D01*
X91549359Y-66714598D01*
X91513028Y-66694542D01*
X91497136Y-66685769D01*
X91353789Y-66606638D01*
X91348920Y-66604914D01*
X91348916Y-66604912D01*
X91148087Y-66533795D01*
X91148083Y-66533794D01*
X91143212Y-66532069D01*
X91138119Y-66531162D01*
X91138116Y-66531161D01*
X90928373Y-66493800D01*
X90928367Y-66493799D01*
X90923284Y-66492894D01*
X90849452Y-66491992D01*
X90705081Y-66490228D01*
X90705079Y-66490228D01*
X90699911Y-66490165D01*
X90479091Y-66523955D01*
X90266756Y-66593357D01*
X90068607Y-66696507D01*
X90064474Y-66699610D01*
X90064471Y-66699612D01*
X89894100Y-66827530D01*
X89889965Y-66830635D01*
X89864541Y-66857240D01*
X89796280Y-66928671D01*
X89735629Y-66992138D01*
X89732720Y-66996403D01*
X89732714Y-66996411D01*
X89720404Y-67014457D01*
X89628204Y-67149618D01*
X89627898Y-67150066D01*
X89572987Y-67195069D01*
X89502462Y-67203240D01*
X89438715Y-67171986D01*
X89418018Y-67147502D01*
X89337426Y-67022926D01*
X89331136Y-67014757D01*
X89187806Y-66857240D01*
X89180273Y-66850215D01*
X89013139Y-66718222D01*
X89004552Y-66712517D01*
X88818117Y-66609599D01*
X88808705Y-66605369D01*
X88607959Y-66534280D01*
X88597988Y-66531646D01*
X88526837Y-66518972D01*
X88513540Y-66520432D01*
X88509000Y-66534989D01*
X88509000Y-69168517D01*
X88001000Y-69168517D01*
X88001000Y-68122115D01*
X87996525Y-68106876D01*
X87995135Y-68105671D01*
X87987452Y-68104000D01*
X86938225Y-68104000D01*
X86924694Y-68107973D01*
X86923257Y-68117966D01*
X75900000Y-68117966D01*
X75900000Y-67584183D01*
X86919389Y-67584183D01*
X86920912Y-67592607D01*
X86933292Y-67596000D01*
X87982885Y-67596000D01*
X87998124Y-67591525D01*
X87999329Y-67590135D01*
X88001000Y-67582452D01*
X88001000Y-66533102D01*
X87997082Y-66519758D01*
X87982806Y-66517771D01*
X87944324Y-66523660D01*
X87934288Y-66526051D01*
X87731868Y-66592212D01*
X87722359Y-66596209D01*
X87533463Y-66694542D01*
X87524738Y-66700036D01*
X87354433Y-66827905D01*
X87346726Y-66834748D01*
X87199590Y-66988717D01*
X87193104Y-66996727D01*
X87073098Y-67172649D01*
X87068000Y-67181623D01*
X86978338Y-67374783D01*
X86974775Y-67384470D01*
X86919389Y-67584183D01*
X75900000Y-67584183D01*
X75900000Y-63552127D01*
X90796500Y-63552127D01*
X90811457Y-63723087D01*
X90870716Y-63944243D01*
X90873039Y-63949224D01*
X90873039Y-63949225D01*
X90965151Y-64146762D01*
X90965154Y-64146767D01*
X90967477Y-64151749D01*
X91098802Y-64339300D01*
X91260700Y-64501198D01*
X91265208Y-64504355D01*
X91265211Y-64504357D01*
X91343389Y-64559098D01*
X91448251Y-64632523D01*
X91453233Y-64634846D01*
X91453238Y-64634849D01*
X91649765Y-64726490D01*
X91655757Y-64729284D01*
X91661065Y-64730706D01*
X91661067Y-64730707D01*
X91871598Y-64787119D01*
X91871600Y-64787119D01*
X91876913Y-64788543D01*
X92105000Y-64808498D01*
X92333087Y-64788543D01*
X92338400Y-64787119D01*
X92338402Y-64787119D01*
X92548933Y-64730707D01*
X92548935Y-64730706D01*
X92554243Y-64729284D01*
X92560235Y-64726490D01*
X92756762Y-64634849D01*
X92756767Y-64634846D01*
X92761749Y-64632523D01*
X92866611Y-64559098D01*
X92944789Y-64504357D01*
X92944792Y-64504355D01*
X92949300Y-64501198D01*
X93111198Y-64339300D01*
X93242523Y-64151749D01*
X93244846Y-64146767D01*
X93244849Y-64146762D01*
X93260805Y-64112543D01*
X93307722Y-64059258D01*
X93375999Y-64039797D01*
X93443959Y-64060339D01*
X93489195Y-64112543D01*
X93505151Y-64146762D01*
X93505154Y-64146767D01*
X93507477Y-64151749D01*
X93638802Y-64339300D01*
X93800700Y-64501198D01*
X93805208Y-64504355D01*
X93805211Y-64504357D01*
X93883389Y-64559098D01*
X93988251Y-64632523D01*
X93993233Y-64634846D01*
X93993238Y-64634849D01*
X94189765Y-64726490D01*
X94195757Y-64729284D01*
X94201065Y-64730706D01*
X94201067Y-64730707D01*
X94411598Y-64787119D01*
X94411600Y-64787119D01*
X94416913Y-64788543D01*
X94645000Y-64808498D01*
X94873087Y-64788543D01*
X94878400Y-64787119D01*
X94878402Y-64787119D01*
X95088933Y-64730707D01*
X95088935Y-64730706D01*
X95094243Y-64729284D01*
X95100235Y-64726490D01*
X95296762Y-64634849D01*
X95296767Y-64634846D01*
X95301749Y-64632523D01*
X95406611Y-64559098D01*
X95484789Y-64504357D01*
X95484792Y-64504355D01*
X95489300Y-64501198D01*
X95651198Y-64339300D01*
X95782523Y-64151749D01*
X95784846Y-64146767D01*
X95784849Y-64146762D01*
X95800805Y-64112543D01*
X95847722Y-64059258D01*
X95915999Y-64039797D01*
X95983959Y-64060339D01*
X96029195Y-64112543D01*
X96045151Y-64146762D01*
X96045154Y-64146767D01*
X96047477Y-64151749D01*
X96178802Y-64339300D01*
X96340700Y-64501198D01*
X96345208Y-64504355D01*
X96345211Y-64504357D01*
X96423389Y-64559098D01*
X96528251Y-64632523D01*
X96533233Y-64634846D01*
X96533238Y-64634849D01*
X96729765Y-64726490D01*
X96735757Y-64729284D01*
X96741065Y-64730706D01*
X96741067Y-64730707D01*
X96951598Y-64787119D01*
X96951600Y-64787119D01*
X96956913Y-64788543D01*
X97185000Y-64808498D01*
X97413087Y-64788543D01*
X97418400Y-64787119D01*
X97418402Y-64787119D01*
X97628933Y-64730707D01*
X97628935Y-64730706D01*
X97634243Y-64729284D01*
X97640235Y-64726490D01*
X97836762Y-64634849D01*
X97836767Y-64634846D01*
X97841749Y-64632523D01*
X97946611Y-64559098D01*
X98024789Y-64504357D01*
X98024792Y-64504355D01*
X98029300Y-64501198D01*
X98191198Y-64339300D01*
X98322523Y-64151749D01*
X98324846Y-64146767D01*
X98324849Y-64146762D01*
X98340805Y-64112543D01*
X98387722Y-64059258D01*
X98455999Y-64039797D01*
X98523959Y-64060339D01*
X98569195Y-64112543D01*
X98585151Y-64146762D01*
X98585154Y-64146767D01*
X98587477Y-64151749D01*
X98718802Y-64339300D01*
X98880700Y-64501198D01*
X98885208Y-64504355D01*
X98885211Y-64504357D01*
X98963389Y-64559098D01*
X99068251Y-64632523D01*
X99073233Y-64634846D01*
X99073238Y-64634849D01*
X99269765Y-64726490D01*
X99275757Y-64729284D01*
X99281065Y-64730706D01*
X99281067Y-64730707D01*
X99491598Y-64787119D01*
X99491600Y-64787119D01*
X99496913Y-64788543D01*
X99725000Y-64808498D01*
X99953087Y-64788543D01*
X99958400Y-64787119D01*
X99958402Y-64787119D01*
X100168933Y-64730707D01*
X100168935Y-64730706D01*
X100174243Y-64729284D01*
X100180235Y-64726490D01*
X100376762Y-64634849D01*
X100376767Y-64634846D01*
X100381749Y-64632523D01*
X100486611Y-64559098D01*
X100564789Y-64504357D01*
X100564792Y-64504355D01*
X100569300Y-64501198D01*
X100731198Y-64339300D01*
X100862523Y-64151749D01*
X100864846Y-64146767D01*
X100864849Y-64146762D01*
X100880805Y-64112543D01*
X100927722Y-64059258D01*
X100995999Y-64039797D01*
X101063959Y-64060339D01*
X101109195Y-64112543D01*
X101125151Y-64146762D01*
X101125154Y-64146767D01*
X101127477Y-64151749D01*
X101258802Y-64339300D01*
X101420700Y-64501198D01*
X101425208Y-64504355D01*
X101425211Y-64504357D01*
X101503389Y-64559098D01*
X101608251Y-64632523D01*
X101613233Y-64634846D01*
X101613238Y-64634849D01*
X101809765Y-64726490D01*
X101815757Y-64729284D01*
X101821065Y-64730706D01*
X101821067Y-64730707D01*
X102031598Y-64787119D01*
X102031600Y-64787119D01*
X102036913Y-64788543D01*
X102265000Y-64808498D01*
X102493087Y-64788543D01*
X102498400Y-64787119D01*
X102498402Y-64787119D01*
X102708933Y-64730707D01*
X102708935Y-64730706D01*
X102714243Y-64729284D01*
X102720235Y-64726490D01*
X102916762Y-64634849D01*
X102916767Y-64634846D01*
X102921749Y-64632523D01*
X103026611Y-64559098D01*
X103104789Y-64504357D01*
X103104792Y-64504355D01*
X103109300Y-64501198D01*
X103271198Y-64339300D01*
X103402523Y-64151749D01*
X103404846Y-64146767D01*
X103404849Y-64146762D01*
X103420805Y-64112543D01*
X103467722Y-64059258D01*
X103535999Y-64039797D01*
X103603959Y-64060339D01*
X103649195Y-64112543D01*
X103665151Y-64146762D01*
X103665154Y-64146767D01*
X103667477Y-64151749D01*
X103798802Y-64339300D01*
X103960700Y-64501198D01*
X103965208Y-64504355D01*
X103965211Y-64504357D01*
X104043389Y-64559098D01*
X104148251Y-64632523D01*
X104153233Y-64634846D01*
X104153238Y-64634849D01*
X104349765Y-64726490D01*
X104355757Y-64729284D01*
X104361065Y-64730706D01*
X104361067Y-64730707D01*
X104571598Y-64787119D01*
X104571600Y-64787119D01*
X104576913Y-64788543D01*
X104805000Y-64808498D01*
X105033087Y-64788543D01*
X105038400Y-64787119D01*
X105038402Y-64787119D01*
X105248933Y-64730707D01*
X105248935Y-64730706D01*
X105254243Y-64729284D01*
X105260235Y-64726490D01*
X105456762Y-64634849D01*
X105456767Y-64634846D01*
X105461749Y-64632523D01*
X105566611Y-64559098D01*
X105644789Y-64504357D01*
X105644792Y-64504355D01*
X105649300Y-64501198D01*
X105811198Y-64339300D01*
X105942523Y-64151749D01*
X105944846Y-64146767D01*
X105944849Y-64146762D01*
X105960805Y-64112543D01*
X106007722Y-64059258D01*
X106075999Y-64039797D01*
X106143959Y-64060339D01*
X106189195Y-64112543D01*
X106205151Y-64146762D01*
X106205154Y-64146767D01*
X106207477Y-64151749D01*
X106338802Y-64339300D01*
X106500700Y-64501198D01*
X106505208Y-64504355D01*
X106505211Y-64504357D01*
X106583389Y-64559098D01*
X106688251Y-64632523D01*
X106693233Y-64634846D01*
X106693238Y-64634849D01*
X106889765Y-64726490D01*
X106895757Y-64729284D01*
X106901065Y-64730706D01*
X106901067Y-64730707D01*
X107111598Y-64787119D01*
X107111600Y-64787119D01*
X107116913Y-64788543D01*
X107345000Y-64808498D01*
X107573087Y-64788543D01*
X107578400Y-64787119D01*
X107578402Y-64787119D01*
X107788933Y-64730707D01*
X107788935Y-64730706D01*
X107794243Y-64729284D01*
X107800235Y-64726490D01*
X107996762Y-64634849D01*
X107996767Y-64634846D01*
X108001749Y-64632523D01*
X108106611Y-64559098D01*
X108184789Y-64504357D01*
X108184792Y-64504355D01*
X108189300Y-64501198D01*
X108351198Y-64339300D01*
X108482523Y-64151749D01*
X108484846Y-64146767D01*
X108484849Y-64146762D01*
X108501081Y-64111951D01*
X108547998Y-64058666D01*
X108616275Y-64039205D01*
X108684235Y-64059747D01*
X108729471Y-64111951D01*
X108745586Y-64146511D01*
X108751069Y-64156007D01*
X108876028Y-64334467D01*
X108883084Y-64342875D01*
X109037125Y-64496916D01*
X109045533Y-64503972D01*
X109223993Y-64628931D01*
X109233489Y-64634414D01*
X109430947Y-64726490D01*
X109441239Y-64730236D01*
X109613503Y-64776394D01*
X109627599Y-64776058D01*
X109631000Y-64768116D01*
X109631000Y-64762967D01*
X110139000Y-64762967D01*
X110142973Y-64776498D01*
X110151522Y-64777727D01*
X110328761Y-64730236D01*
X110339053Y-64726490D01*
X110536511Y-64634414D01*
X110546007Y-64628931D01*
X110724467Y-64503972D01*
X110732875Y-64496916D01*
X110886916Y-64342875D01*
X110893972Y-64334467D01*
X111018931Y-64156007D01*
X111024414Y-64146511D01*
X111040529Y-64111951D01*
X111087446Y-64058666D01*
X111155723Y-64039205D01*
X111223683Y-64059747D01*
X111268919Y-64111951D01*
X111285151Y-64146762D01*
X111285154Y-64146767D01*
X111287477Y-64151749D01*
X111418802Y-64339300D01*
X111580700Y-64501198D01*
X111585208Y-64504355D01*
X111585211Y-64504357D01*
X111663389Y-64559098D01*
X111768251Y-64632523D01*
X111773233Y-64634846D01*
X111773238Y-64634849D01*
X111969765Y-64726490D01*
X111975757Y-64729284D01*
X111981065Y-64730706D01*
X111981067Y-64730707D01*
X112191598Y-64787119D01*
X112191600Y-64787119D01*
X112196913Y-64788543D01*
X112425000Y-64808498D01*
X112653087Y-64788543D01*
X112658400Y-64787119D01*
X112658402Y-64787119D01*
X112868933Y-64730707D01*
X112868935Y-64730706D01*
X112874243Y-64729284D01*
X112880235Y-64726490D01*
X113076762Y-64634849D01*
X113076767Y-64634846D01*
X113081749Y-64632523D01*
X113186611Y-64559098D01*
X113264789Y-64504357D01*
X113264792Y-64504355D01*
X113269300Y-64501198D01*
X113431198Y-64339300D01*
X113562523Y-64151749D01*
X113564846Y-64146767D01*
X113564849Y-64146762D01*
X113580805Y-64112543D01*
X113627722Y-64059258D01*
X113695999Y-64039797D01*
X113763959Y-64060339D01*
X113809195Y-64112543D01*
X113825151Y-64146762D01*
X113825154Y-64146767D01*
X113827477Y-64151749D01*
X113958802Y-64339300D01*
X114120700Y-64501198D01*
X114125208Y-64504355D01*
X114125211Y-64504357D01*
X114203389Y-64559098D01*
X114308251Y-64632523D01*
X114313233Y-64634846D01*
X114313238Y-64634849D01*
X114509765Y-64726490D01*
X114515757Y-64729284D01*
X114521065Y-64730706D01*
X114521067Y-64730707D01*
X114731598Y-64787119D01*
X114731600Y-64787119D01*
X114736913Y-64788543D01*
X114965000Y-64808498D01*
X115193087Y-64788543D01*
X115198400Y-64787119D01*
X115198402Y-64787119D01*
X115408933Y-64730707D01*
X115408935Y-64730706D01*
X115414243Y-64729284D01*
X115420235Y-64726490D01*
X115616762Y-64634849D01*
X115616767Y-64634846D01*
X115621749Y-64632523D01*
X115726611Y-64559098D01*
X115804789Y-64504357D01*
X115804792Y-64504355D01*
X115809300Y-64501198D01*
X115971198Y-64339300D01*
X116102523Y-64151749D01*
X116104846Y-64146767D01*
X116104849Y-64146762D01*
X116120805Y-64112543D01*
X116167722Y-64059258D01*
X116235999Y-64039797D01*
X116303959Y-64060339D01*
X116349195Y-64112543D01*
X116365151Y-64146762D01*
X116365154Y-64146767D01*
X116367477Y-64151749D01*
X116498802Y-64339300D01*
X116660700Y-64501198D01*
X116665208Y-64504355D01*
X116665211Y-64504357D01*
X116743389Y-64559098D01*
X116848251Y-64632523D01*
X116853233Y-64634846D01*
X116853238Y-64634849D01*
X117049765Y-64726490D01*
X117055757Y-64729284D01*
X117061065Y-64730706D01*
X117061067Y-64730707D01*
X117271598Y-64787119D01*
X117271600Y-64787119D01*
X117276913Y-64788543D01*
X117505000Y-64808498D01*
X117733087Y-64788543D01*
X117738400Y-64787119D01*
X117738402Y-64787119D01*
X117948933Y-64730707D01*
X117948935Y-64730706D01*
X117954243Y-64729284D01*
X117960235Y-64726490D01*
X118156762Y-64634849D01*
X118156767Y-64634846D01*
X118161749Y-64632523D01*
X118266611Y-64559098D01*
X118344789Y-64504357D01*
X118344792Y-64504355D01*
X118349300Y-64501198D01*
X118511198Y-64339300D01*
X118642523Y-64151749D01*
X118644846Y-64146767D01*
X118644849Y-64146762D01*
X118660805Y-64112543D01*
X118707722Y-64059258D01*
X118775999Y-64039797D01*
X118843959Y-64060339D01*
X118889195Y-64112543D01*
X118905151Y-64146762D01*
X118905154Y-64146767D01*
X118907477Y-64151749D01*
X119038802Y-64339300D01*
X119200700Y-64501198D01*
X119205208Y-64504355D01*
X119205211Y-64504357D01*
X119283389Y-64559098D01*
X119388251Y-64632523D01*
X119393233Y-64634846D01*
X119393238Y-64634849D01*
X119589765Y-64726490D01*
X119595757Y-64729284D01*
X119601065Y-64730706D01*
X119601067Y-64730707D01*
X119811598Y-64787119D01*
X119811600Y-64787119D01*
X119816913Y-64788543D01*
X120045000Y-64808498D01*
X120273087Y-64788543D01*
X120278400Y-64787119D01*
X120278402Y-64787119D01*
X120488933Y-64730707D01*
X120488935Y-64730706D01*
X120494243Y-64729284D01*
X120500235Y-64726490D01*
X120696762Y-64634849D01*
X120696767Y-64634846D01*
X120701749Y-64632523D01*
X120806611Y-64559098D01*
X120884789Y-64504357D01*
X120884792Y-64504355D01*
X120889300Y-64501198D01*
X121051198Y-64339300D01*
X121182523Y-64151749D01*
X121184846Y-64146767D01*
X121184849Y-64146762D01*
X121200805Y-64112543D01*
X121247722Y-64059258D01*
X121315999Y-64039797D01*
X121383959Y-64060339D01*
X121429195Y-64112543D01*
X121445151Y-64146762D01*
X121445154Y-64146767D01*
X121447477Y-64151749D01*
X121578802Y-64339300D01*
X121740700Y-64501198D01*
X121745208Y-64504355D01*
X121745211Y-64504357D01*
X121823389Y-64559098D01*
X121928251Y-64632523D01*
X121933233Y-64634846D01*
X121933238Y-64634849D01*
X122129765Y-64726490D01*
X122135757Y-64729284D01*
X122141065Y-64730706D01*
X122141067Y-64730707D01*
X122351598Y-64787119D01*
X122351600Y-64787119D01*
X122356913Y-64788543D01*
X122585000Y-64808498D01*
X122813087Y-64788543D01*
X122818400Y-64787119D01*
X122818402Y-64787119D01*
X123028933Y-64730707D01*
X123028935Y-64730706D01*
X123034243Y-64729284D01*
X123040235Y-64726490D01*
X123236762Y-64634849D01*
X123236767Y-64634846D01*
X123241749Y-64632523D01*
X123346611Y-64559098D01*
X123424789Y-64504357D01*
X123424792Y-64504355D01*
X123429300Y-64501198D01*
X123591198Y-64339300D01*
X123722523Y-64151749D01*
X123724846Y-64146767D01*
X123724849Y-64146762D01*
X123740805Y-64112543D01*
X123787722Y-64059258D01*
X123855999Y-64039797D01*
X123923959Y-64060339D01*
X123969195Y-64112543D01*
X123985151Y-64146762D01*
X123985154Y-64146767D01*
X123987477Y-64151749D01*
X124118802Y-64339300D01*
X124280700Y-64501198D01*
X124285208Y-64504355D01*
X124285211Y-64504357D01*
X124363389Y-64559098D01*
X124468251Y-64632523D01*
X124473233Y-64634846D01*
X124473238Y-64634849D01*
X124669765Y-64726490D01*
X124675757Y-64729284D01*
X124681065Y-64730706D01*
X124681067Y-64730707D01*
X124891598Y-64787119D01*
X124891600Y-64787119D01*
X124896913Y-64788543D01*
X125125000Y-64808498D01*
X125353087Y-64788543D01*
X125358400Y-64787119D01*
X125358402Y-64787119D01*
X125568933Y-64730707D01*
X125568935Y-64730706D01*
X125574243Y-64729284D01*
X125580235Y-64726490D01*
X125776762Y-64634849D01*
X125776767Y-64634846D01*
X125781749Y-64632523D01*
X125886611Y-64559098D01*
X125964789Y-64504357D01*
X125964792Y-64504355D01*
X125969300Y-64501198D01*
X126131198Y-64339300D01*
X126262523Y-64151749D01*
X126264846Y-64146767D01*
X126264849Y-64146762D01*
X126356961Y-63949225D01*
X126356961Y-63949224D01*
X126359284Y-63944243D01*
X126418543Y-63723087D01*
X126433500Y-63552127D01*
X126433500Y-62637873D01*
X126418543Y-62466913D01*
X126373710Y-62299594D01*
X126360707Y-62251067D01*
X126360706Y-62251065D01*
X126359284Y-62245757D01*
X126264966Y-62043489D01*
X126264849Y-62043238D01*
X126264846Y-62043233D01*
X126262523Y-62038251D01*
X126142638Y-61867038D01*
X126134357Y-61855211D01*
X126134355Y-61855208D01*
X126131198Y-61850700D01*
X125969300Y-61688802D01*
X125964792Y-61685645D01*
X125964789Y-61685643D01*
X125886611Y-61630902D01*
X125781749Y-61557477D01*
X125776767Y-61555154D01*
X125776762Y-61555151D01*
X125579225Y-61463039D01*
X125579224Y-61463039D01*
X125574243Y-61460716D01*
X125568935Y-61459294D01*
X125568933Y-61459293D01*
X125358402Y-61402881D01*
X125358400Y-61402881D01*
X125353087Y-61401457D01*
X125125000Y-61381502D01*
X124896913Y-61401457D01*
X124891600Y-61402881D01*
X124891598Y-61402881D01*
X124681067Y-61459293D01*
X124681065Y-61459294D01*
X124675757Y-61460716D01*
X124670776Y-61463039D01*
X124670775Y-61463039D01*
X124473238Y-61555151D01*
X124473233Y-61555154D01*
X124468251Y-61557477D01*
X124363389Y-61630902D01*
X124285211Y-61685643D01*
X124285208Y-61685645D01*
X124280700Y-61688802D01*
X124118802Y-61850700D01*
X124115645Y-61855208D01*
X124115643Y-61855211D01*
X124107362Y-61867038D01*
X123987477Y-62038251D01*
X123985154Y-62043233D01*
X123985151Y-62043238D01*
X123969195Y-62077457D01*
X123922278Y-62130742D01*
X123854001Y-62150203D01*
X123786041Y-62129661D01*
X123740805Y-62077457D01*
X123724849Y-62043238D01*
X123724846Y-62043233D01*
X123722523Y-62038251D01*
X123602638Y-61867038D01*
X123594357Y-61855211D01*
X123594355Y-61855208D01*
X123591198Y-61850700D01*
X123429300Y-61688802D01*
X123424792Y-61685645D01*
X123424789Y-61685643D01*
X123346611Y-61630902D01*
X123241749Y-61557477D01*
X123236767Y-61555154D01*
X123236762Y-61555151D01*
X123039225Y-61463039D01*
X123039224Y-61463039D01*
X123034243Y-61460716D01*
X123028935Y-61459294D01*
X123028933Y-61459293D01*
X122818402Y-61402881D01*
X122818400Y-61402881D01*
X122813087Y-61401457D01*
X122585000Y-61381502D01*
X122356913Y-61401457D01*
X122351600Y-61402881D01*
X122351598Y-61402881D01*
X122141067Y-61459293D01*
X122141065Y-61459294D01*
X122135757Y-61460716D01*
X122130776Y-61463039D01*
X122130775Y-61463039D01*
X121933238Y-61555151D01*
X121933233Y-61555154D01*
X121928251Y-61557477D01*
X121823389Y-61630902D01*
X121745211Y-61685643D01*
X121745208Y-61685645D01*
X121740700Y-61688802D01*
X121578802Y-61850700D01*
X121575645Y-61855208D01*
X121575643Y-61855211D01*
X121567362Y-61867038D01*
X121447477Y-62038251D01*
X121445154Y-62043233D01*
X121445151Y-62043238D01*
X121429195Y-62077457D01*
X121382278Y-62130742D01*
X121314001Y-62150203D01*
X121246041Y-62129661D01*
X121200805Y-62077457D01*
X121184849Y-62043238D01*
X121184846Y-62043233D01*
X121182523Y-62038251D01*
X121062638Y-61867038D01*
X121054357Y-61855211D01*
X121054355Y-61855208D01*
X121051198Y-61850700D01*
X120889300Y-61688802D01*
X120884792Y-61685645D01*
X120884789Y-61685643D01*
X120806611Y-61630902D01*
X120701749Y-61557477D01*
X120696767Y-61555154D01*
X120696762Y-61555151D01*
X120499225Y-61463039D01*
X120499224Y-61463039D01*
X120494243Y-61460716D01*
X120488935Y-61459294D01*
X120488933Y-61459293D01*
X120278402Y-61402881D01*
X120278400Y-61402881D01*
X120273087Y-61401457D01*
X120045000Y-61381502D01*
X119816913Y-61401457D01*
X119811600Y-61402881D01*
X119811598Y-61402881D01*
X119601067Y-61459293D01*
X119601065Y-61459294D01*
X119595757Y-61460716D01*
X119590776Y-61463039D01*
X119590775Y-61463039D01*
X119393238Y-61555151D01*
X119393233Y-61555154D01*
X119388251Y-61557477D01*
X119283389Y-61630902D01*
X119205211Y-61685643D01*
X119205208Y-61685645D01*
X119200700Y-61688802D01*
X119038802Y-61850700D01*
X119035645Y-61855208D01*
X119035643Y-61855211D01*
X119027362Y-61867038D01*
X118907477Y-62038251D01*
X118905154Y-62043233D01*
X118905151Y-62043238D01*
X118889195Y-62077457D01*
X118842278Y-62130742D01*
X118774001Y-62150203D01*
X118706041Y-62129661D01*
X118660805Y-62077457D01*
X118644849Y-62043238D01*
X118644846Y-62043233D01*
X118642523Y-62038251D01*
X118522638Y-61867038D01*
X118514357Y-61855211D01*
X118514355Y-61855208D01*
X118511198Y-61850700D01*
X118349300Y-61688802D01*
X118344792Y-61685645D01*
X118344789Y-61685643D01*
X118266611Y-61630902D01*
X118161749Y-61557477D01*
X118156767Y-61555154D01*
X118156762Y-61555151D01*
X117959225Y-61463039D01*
X117959224Y-61463039D01*
X117954243Y-61460716D01*
X117948935Y-61459294D01*
X117948933Y-61459293D01*
X117738402Y-61402881D01*
X117738400Y-61402881D01*
X117733087Y-61401457D01*
X117505000Y-61381502D01*
X117276913Y-61401457D01*
X117271600Y-61402881D01*
X117271598Y-61402881D01*
X117061067Y-61459293D01*
X117061065Y-61459294D01*
X117055757Y-61460716D01*
X117050776Y-61463039D01*
X117050775Y-61463039D01*
X116853238Y-61555151D01*
X116853233Y-61555154D01*
X116848251Y-61557477D01*
X116743389Y-61630902D01*
X116665211Y-61685643D01*
X116665208Y-61685645D01*
X116660700Y-61688802D01*
X116498802Y-61850700D01*
X116495645Y-61855208D01*
X116495643Y-61855211D01*
X116487362Y-61867038D01*
X116367477Y-62038251D01*
X116365154Y-62043233D01*
X116365151Y-62043238D01*
X116349195Y-62077457D01*
X116302278Y-62130742D01*
X116234001Y-62150203D01*
X116166041Y-62129661D01*
X116120805Y-62077457D01*
X116104849Y-62043238D01*
X116104846Y-62043233D01*
X116102523Y-62038251D01*
X115982638Y-61867038D01*
X115974357Y-61855211D01*
X115974355Y-61855208D01*
X115971198Y-61850700D01*
X115809300Y-61688802D01*
X115804792Y-61685645D01*
X115804789Y-61685643D01*
X115726611Y-61630902D01*
X115621749Y-61557477D01*
X115616767Y-61555154D01*
X115616762Y-61555151D01*
X115419225Y-61463039D01*
X115419224Y-61463039D01*
X115414243Y-61460716D01*
X115408935Y-61459294D01*
X115408933Y-61459293D01*
X115198402Y-61402881D01*
X115198400Y-61402881D01*
X115193087Y-61401457D01*
X114965000Y-61381502D01*
X114736913Y-61401457D01*
X114731600Y-61402881D01*
X114731598Y-61402881D01*
X114521067Y-61459293D01*
X114521065Y-61459294D01*
X114515757Y-61460716D01*
X114510776Y-61463039D01*
X114510775Y-61463039D01*
X114313238Y-61555151D01*
X114313233Y-61555154D01*
X114308251Y-61557477D01*
X114203389Y-61630902D01*
X114125211Y-61685643D01*
X114125208Y-61685645D01*
X114120700Y-61688802D01*
X113958802Y-61850700D01*
X113955645Y-61855208D01*
X113955643Y-61855211D01*
X113947362Y-61867038D01*
X113827477Y-62038251D01*
X113825154Y-62043233D01*
X113825151Y-62043238D01*
X113809195Y-62077457D01*
X113762278Y-62130742D01*
X113694001Y-62150203D01*
X113626041Y-62129661D01*
X113580805Y-62077457D01*
X113564849Y-62043238D01*
X113564846Y-62043233D01*
X113562523Y-62038251D01*
X113442638Y-61867038D01*
X113434357Y-61855211D01*
X113434355Y-61855208D01*
X113431198Y-61850700D01*
X113269300Y-61688802D01*
X113264792Y-61685645D01*
X113264789Y-61685643D01*
X113186611Y-61630902D01*
X113081749Y-61557477D01*
X113076767Y-61555154D01*
X113076762Y-61555151D01*
X112879225Y-61463039D01*
X112879224Y-61463039D01*
X112874243Y-61460716D01*
X112868935Y-61459294D01*
X112868933Y-61459293D01*
X112658402Y-61402881D01*
X112658400Y-61402881D01*
X112653087Y-61401457D01*
X112425000Y-61381502D01*
X112196913Y-61401457D01*
X112191600Y-61402881D01*
X112191598Y-61402881D01*
X111981067Y-61459293D01*
X111981065Y-61459294D01*
X111975757Y-61460716D01*
X111970776Y-61463039D01*
X111970775Y-61463039D01*
X111773238Y-61555151D01*
X111773233Y-61555154D01*
X111768251Y-61557477D01*
X111663389Y-61630902D01*
X111585211Y-61685643D01*
X111585208Y-61685645D01*
X111580700Y-61688802D01*
X111418802Y-61850700D01*
X111415645Y-61855208D01*
X111415643Y-61855211D01*
X111407362Y-61867038D01*
X111287477Y-62038251D01*
X111285154Y-62043233D01*
X111285151Y-62043238D01*
X111268919Y-62078049D01*
X111222002Y-62131334D01*
X111153725Y-62150795D01*
X111085765Y-62130253D01*
X111040529Y-62078049D01*
X111024414Y-62043489D01*
X111018931Y-62033993D01*
X110893972Y-61855533D01*
X110886916Y-61847125D01*
X110732875Y-61693084D01*
X110724467Y-61686028D01*
X110546007Y-61561069D01*
X110536511Y-61555586D01*
X110339053Y-61463510D01*
X110328761Y-61459764D01*
X110156497Y-61413606D01*
X110142401Y-61413942D01*
X110139000Y-61421884D01*
X110139000Y-64762967D01*
X109631000Y-64762967D01*
X109631000Y-61427033D01*
X109627027Y-61413502D01*
X109618478Y-61412273D01*
X109441239Y-61459764D01*
X109430947Y-61463510D01*
X109233489Y-61555586D01*
X109223993Y-61561069D01*
X109045533Y-61686028D01*
X109037125Y-61693084D01*
X108883084Y-61847125D01*
X108876028Y-61855533D01*
X108751069Y-62033993D01*
X108745586Y-62043489D01*
X108729471Y-62078049D01*
X108682554Y-62131334D01*
X108614277Y-62150795D01*
X108546317Y-62130253D01*
X108501081Y-62078049D01*
X108484849Y-62043238D01*
X108484846Y-62043233D01*
X108482523Y-62038251D01*
X108362638Y-61867038D01*
X108354357Y-61855211D01*
X108354355Y-61855208D01*
X108351198Y-61850700D01*
X108189300Y-61688802D01*
X108184792Y-61685645D01*
X108184789Y-61685643D01*
X108106611Y-61630902D01*
X108001749Y-61557477D01*
X107996767Y-61555154D01*
X107996762Y-61555151D01*
X107799225Y-61463039D01*
X107799224Y-61463039D01*
X107794243Y-61460716D01*
X107788935Y-61459294D01*
X107788933Y-61459293D01*
X107578402Y-61402881D01*
X107578400Y-61402881D01*
X107573087Y-61401457D01*
X107345000Y-61381502D01*
X107116913Y-61401457D01*
X107111600Y-61402881D01*
X107111598Y-61402881D01*
X106901067Y-61459293D01*
X106901065Y-61459294D01*
X106895757Y-61460716D01*
X106890776Y-61463039D01*
X106890775Y-61463039D01*
X106693238Y-61555151D01*
X106693233Y-61555154D01*
X106688251Y-61557477D01*
X106583389Y-61630902D01*
X106505211Y-61685643D01*
X106505208Y-61685645D01*
X106500700Y-61688802D01*
X106338802Y-61850700D01*
X106335645Y-61855208D01*
X106335643Y-61855211D01*
X106327362Y-61867038D01*
X106207477Y-62038251D01*
X106205154Y-62043233D01*
X106205151Y-62043238D01*
X106189195Y-62077457D01*
X106142278Y-62130742D01*
X106074001Y-62150203D01*
X106006041Y-62129661D01*
X105960805Y-62077457D01*
X105944849Y-62043238D01*
X105944846Y-62043233D01*
X105942523Y-62038251D01*
X105822638Y-61867038D01*
X105814357Y-61855211D01*
X105814355Y-61855208D01*
X105811198Y-61850700D01*
X105649300Y-61688802D01*
X105644792Y-61685645D01*
X105644789Y-61685643D01*
X105566611Y-61630902D01*
X105461749Y-61557477D01*
X105456767Y-61555154D01*
X105456762Y-61555151D01*
X105259225Y-61463039D01*
X105259224Y-61463039D01*
X105254243Y-61460716D01*
X105248935Y-61459294D01*
X105248933Y-61459293D01*
X105038402Y-61402881D01*
X105038400Y-61402881D01*
X105033087Y-61401457D01*
X104805000Y-61381502D01*
X104576913Y-61401457D01*
X104571600Y-61402881D01*
X104571598Y-61402881D01*
X104361067Y-61459293D01*
X104361065Y-61459294D01*
X104355757Y-61460716D01*
X104350776Y-61463039D01*
X104350775Y-61463039D01*
X104153238Y-61555151D01*
X104153233Y-61555154D01*
X104148251Y-61557477D01*
X104043389Y-61630902D01*
X103965211Y-61685643D01*
X103965208Y-61685645D01*
X103960700Y-61688802D01*
X103798802Y-61850700D01*
X103795645Y-61855208D01*
X103795643Y-61855211D01*
X103787362Y-61867038D01*
X103667477Y-62038251D01*
X103665154Y-62043233D01*
X103665151Y-62043238D01*
X103649195Y-62077457D01*
X103602278Y-62130742D01*
X103534001Y-62150203D01*
X103466041Y-62129661D01*
X103420805Y-62077457D01*
X103404849Y-62043238D01*
X103404846Y-62043233D01*
X103402523Y-62038251D01*
X103282638Y-61867038D01*
X103274357Y-61855211D01*
X103274355Y-61855208D01*
X103271198Y-61850700D01*
X103109300Y-61688802D01*
X103104792Y-61685645D01*
X103104789Y-61685643D01*
X103026611Y-61630902D01*
X102921749Y-61557477D01*
X102916767Y-61555154D01*
X102916762Y-61555151D01*
X102719225Y-61463039D01*
X102719224Y-61463039D01*
X102714243Y-61460716D01*
X102708935Y-61459294D01*
X102708933Y-61459293D01*
X102498402Y-61402881D01*
X102498400Y-61402881D01*
X102493087Y-61401457D01*
X102265000Y-61381502D01*
X102036913Y-61401457D01*
X102031600Y-61402881D01*
X102031598Y-61402881D01*
X101821067Y-61459293D01*
X101821065Y-61459294D01*
X101815757Y-61460716D01*
X101810776Y-61463039D01*
X101810775Y-61463039D01*
X101613238Y-61555151D01*
X101613233Y-61555154D01*
X101608251Y-61557477D01*
X101503389Y-61630902D01*
X101425211Y-61685643D01*
X101425208Y-61685645D01*
X101420700Y-61688802D01*
X101258802Y-61850700D01*
X101255645Y-61855208D01*
X101255643Y-61855211D01*
X101247362Y-61867038D01*
X101127477Y-62038251D01*
X101125154Y-62043233D01*
X101125151Y-62043238D01*
X101109195Y-62077457D01*
X101062278Y-62130742D01*
X100994001Y-62150203D01*
X100926041Y-62129661D01*
X100880805Y-62077457D01*
X100864849Y-62043238D01*
X100864846Y-62043233D01*
X100862523Y-62038251D01*
X100742638Y-61867038D01*
X100734357Y-61855211D01*
X100734355Y-61855208D01*
X100731198Y-61850700D01*
X100569300Y-61688802D01*
X100564792Y-61685645D01*
X100564789Y-61685643D01*
X100486611Y-61630902D01*
X100381749Y-61557477D01*
X100376767Y-61555154D01*
X100376762Y-61555151D01*
X100179225Y-61463039D01*
X100179224Y-61463039D01*
X100174243Y-61460716D01*
X100168935Y-61459294D01*
X100168933Y-61459293D01*
X99958402Y-61402881D01*
X99958400Y-61402881D01*
X99953087Y-61401457D01*
X99725000Y-61381502D01*
X99496913Y-61401457D01*
X99491600Y-61402881D01*
X99491598Y-61402881D01*
X99281067Y-61459293D01*
X99281065Y-61459294D01*
X99275757Y-61460716D01*
X99270776Y-61463039D01*
X99270775Y-61463039D01*
X99073238Y-61555151D01*
X99073233Y-61555154D01*
X99068251Y-61557477D01*
X98963389Y-61630902D01*
X98885211Y-61685643D01*
X98885208Y-61685645D01*
X98880700Y-61688802D01*
X98718802Y-61850700D01*
X98715645Y-61855208D01*
X98715643Y-61855211D01*
X98707362Y-61867038D01*
X98587477Y-62038251D01*
X98585154Y-62043233D01*
X98585151Y-62043238D01*
X98569195Y-62077457D01*
X98522278Y-62130742D01*
X98454001Y-62150203D01*
X98386041Y-62129661D01*
X98340805Y-62077457D01*
X98324849Y-62043238D01*
X98324846Y-62043233D01*
X98322523Y-62038251D01*
X98202638Y-61867038D01*
X98194357Y-61855211D01*
X98194355Y-61855208D01*
X98191198Y-61850700D01*
X98029300Y-61688802D01*
X98024792Y-61685645D01*
X98024789Y-61685643D01*
X97946611Y-61630902D01*
X97841749Y-61557477D01*
X97836767Y-61555154D01*
X97836762Y-61555151D01*
X97639225Y-61463039D01*
X97639224Y-61463039D01*
X97634243Y-61460716D01*
X97628935Y-61459294D01*
X97628933Y-61459293D01*
X97418402Y-61402881D01*
X97418400Y-61402881D01*
X97413087Y-61401457D01*
X97185000Y-61381502D01*
X96956913Y-61401457D01*
X96951600Y-61402881D01*
X96951598Y-61402881D01*
X96741067Y-61459293D01*
X96741065Y-61459294D01*
X96735757Y-61460716D01*
X96730776Y-61463039D01*
X96730775Y-61463039D01*
X96533238Y-61555151D01*
X96533233Y-61555154D01*
X96528251Y-61557477D01*
X96423389Y-61630902D01*
X96345211Y-61685643D01*
X96345208Y-61685645D01*
X96340700Y-61688802D01*
X96178802Y-61850700D01*
X96175645Y-61855208D01*
X96175643Y-61855211D01*
X96167362Y-61867038D01*
X96047477Y-62038251D01*
X96045154Y-62043233D01*
X96045151Y-62043238D01*
X96029195Y-62077457D01*
X95982278Y-62130742D01*
X95914001Y-62150203D01*
X95846041Y-62129661D01*
X95800805Y-62077457D01*
X95784849Y-62043238D01*
X95784846Y-62043233D01*
X95782523Y-62038251D01*
X95662638Y-61867038D01*
X95654357Y-61855211D01*
X95654355Y-61855208D01*
X95651198Y-61850700D01*
X95489300Y-61688802D01*
X95484792Y-61685645D01*
X95484789Y-61685643D01*
X95406611Y-61630902D01*
X95301749Y-61557477D01*
X95296767Y-61555154D01*
X95296762Y-61555151D01*
X95099225Y-61463039D01*
X95099224Y-61463039D01*
X95094243Y-61460716D01*
X95088935Y-61459294D01*
X95088933Y-61459293D01*
X94878402Y-61402881D01*
X94878400Y-61402881D01*
X94873087Y-61401457D01*
X94645000Y-61381502D01*
X94416913Y-61401457D01*
X94411600Y-61402881D01*
X94411598Y-61402881D01*
X94201067Y-61459293D01*
X94201065Y-61459294D01*
X94195757Y-61460716D01*
X94190776Y-61463039D01*
X94190775Y-61463039D01*
X93993238Y-61555151D01*
X93993233Y-61555154D01*
X93988251Y-61557477D01*
X93883389Y-61630902D01*
X93805211Y-61685643D01*
X93805208Y-61685645D01*
X93800700Y-61688802D01*
X93638802Y-61850700D01*
X93635645Y-61855208D01*
X93635643Y-61855211D01*
X93627362Y-61867038D01*
X93507477Y-62038251D01*
X93505154Y-62043233D01*
X93505151Y-62043238D01*
X93489195Y-62077457D01*
X93442278Y-62130742D01*
X93374001Y-62150203D01*
X93306041Y-62129661D01*
X93260805Y-62077457D01*
X93244849Y-62043238D01*
X93244846Y-62043233D01*
X93242523Y-62038251D01*
X93122638Y-61867038D01*
X93114357Y-61855211D01*
X93114355Y-61855208D01*
X93111198Y-61850700D01*
X92949300Y-61688802D01*
X92944792Y-61685645D01*
X92944789Y-61685643D01*
X92866611Y-61630902D01*
X92761749Y-61557477D01*
X92756767Y-61555154D01*
X92756762Y-61555151D01*
X92559225Y-61463039D01*
X92559224Y-61463039D01*
X92554243Y-61460716D01*
X92548935Y-61459294D01*
X92548933Y-61459293D01*
X92338402Y-61402881D01*
X92338400Y-61402881D01*
X92333087Y-61401457D01*
X92105000Y-61381502D01*
X91876913Y-61401457D01*
X91871600Y-61402881D01*
X91871598Y-61402881D01*
X91661067Y-61459293D01*
X91661065Y-61459294D01*
X91655757Y-61460716D01*
X91650776Y-61463039D01*
X91650775Y-61463039D01*
X91453238Y-61555151D01*
X91453233Y-61555154D01*
X91448251Y-61557477D01*
X91343389Y-61630902D01*
X91265211Y-61685643D01*
X91265208Y-61685645D01*
X91260700Y-61688802D01*
X91098802Y-61850700D01*
X91095645Y-61855208D01*
X91095643Y-61855211D01*
X91087362Y-61867038D01*
X90967477Y-62038251D01*
X90965154Y-62043233D01*
X90965151Y-62043238D01*
X90965034Y-62043489D01*
X90870716Y-62245757D01*
X90869294Y-62251065D01*
X90869293Y-62251067D01*
X90856290Y-62299594D01*
X90811457Y-62466913D01*
X90796500Y-62637873D01*
X90796500Y-63552127D01*
X75900000Y-63552127D01*
X75900000Y-61055000D01*
X86161693Y-61055000D01*
X86180885Y-61274371D01*
X86237880Y-61487076D01*
X86272181Y-61560634D01*
X86328618Y-61681666D01*
X86328621Y-61681671D01*
X86330944Y-61686653D01*
X86334100Y-61691160D01*
X86334101Y-61691162D01*
X86448970Y-61855211D01*
X86457251Y-61867038D01*
X86612962Y-62022749D01*
X86617471Y-62025906D01*
X86617473Y-62025908D01*
X86691093Y-62077457D01*
X86793346Y-62149056D01*
X86992924Y-62242120D01*
X87205629Y-62299115D01*
X87425000Y-62318307D01*
X87644371Y-62299115D01*
X87857076Y-62242120D01*
X88056654Y-62149056D01*
X88158907Y-62077457D01*
X88232527Y-62025908D01*
X88232529Y-62025906D01*
X88237038Y-62022749D01*
X88392749Y-61867038D01*
X88401031Y-61855211D01*
X88515899Y-61691162D01*
X88515900Y-61691160D01*
X88519056Y-61686653D01*
X88521379Y-61681671D01*
X88521382Y-61681666D01*
X88577819Y-61560634D01*
X88612120Y-61487076D01*
X88669115Y-61274371D01*
X88688307Y-61055000D01*
X88669115Y-60835629D01*
X88612120Y-60622924D01*
X88568585Y-60529562D01*
X88521382Y-60428334D01*
X88521379Y-60428329D01*
X88519056Y-60423347D01*
X88392749Y-60242962D01*
X88237038Y-60087251D01*
X88056654Y-59960944D01*
X87857076Y-59867880D01*
X87644371Y-59810885D01*
X87425000Y-59791693D01*
X87205629Y-59810885D01*
X86992924Y-59867880D01*
X86899562Y-59911415D01*
X86798334Y-59958618D01*
X86798329Y-59958621D01*
X86793347Y-59960944D01*
X86788840Y-59964100D01*
X86788838Y-59964101D01*
X86617473Y-60084092D01*
X86617470Y-60084094D01*
X86612962Y-60087251D01*
X86457251Y-60242962D01*
X86330944Y-60423347D01*
X86328621Y-60428329D01*
X86328618Y-60428334D01*
X86281415Y-60529562D01*
X86237880Y-60622924D01*
X86180885Y-60835629D01*
X86161693Y-61055000D01*
X75900000Y-61055000D01*
X75900000Y-56175000D01*
X86161693Y-56175000D01*
X86180885Y-56394371D01*
X86237880Y-56607076D01*
X86267935Y-56671529D01*
X86328618Y-56801666D01*
X86328621Y-56801671D01*
X86330944Y-56806653D01*
X86334100Y-56811160D01*
X86334101Y-56811162D01*
X86380143Y-56876916D01*
X86457251Y-56987038D01*
X86612962Y-57142749D01*
X86617471Y-57145906D01*
X86617473Y-57145908D01*
X86657551Y-57173971D01*
X86793346Y-57269056D01*
X86992924Y-57362120D01*
X87205629Y-57419115D01*
X87425000Y-57438307D01*
X87644371Y-57419115D01*
X87857076Y-57362120D01*
X88056654Y-57269056D01*
X88192449Y-57173971D01*
X88232527Y-57145908D01*
X88232529Y-57145906D01*
X88237038Y-57142749D01*
X88392749Y-56987038D01*
X88469858Y-56876916D01*
X88515899Y-56811162D01*
X88515900Y-56811160D01*
X88519056Y-56806653D01*
X88521379Y-56801671D01*
X88521382Y-56801666D01*
X88582065Y-56671529D01*
X88612120Y-56607076D01*
X88669115Y-56394371D01*
X88688307Y-56175000D01*
X88669115Y-55955629D01*
X88612120Y-55742924D01*
X88568585Y-55649562D01*
X88521382Y-55548334D01*
X88521379Y-55548329D01*
X88519056Y-55543347D01*
X88392749Y-55362962D01*
X88237038Y-55207251D01*
X88056654Y-55080944D01*
X87857076Y-54987880D01*
X87644371Y-54930885D01*
X87425000Y-54911693D01*
X87205629Y-54930885D01*
X86992924Y-54987880D01*
X86928604Y-55017873D01*
X86798334Y-55078618D01*
X86798329Y-55078621D01*
X86793347Y-55080944D01*
X86788840Y-55084100D01*
X86788838Y-55084101D01*
X86617473Y-55204092D01*
X86617470Y-55204094D01*
X86612962Y-55207251D01*
X86457251Y-55362962D01*
X86330944Y-55543347D01*
X86328621Y-55548329D01*
X86328618Y-55548334D01*
X86281415Y-55649562D01*
X86237880Y-55742924D01*
X86180885Y-55955629D01*
X86161693Y-56175000D01*
X75900000Y-56175000D01*
X75900000Y-54703034D01*
X76811521Y-54703034D01*
X76820817Y-54715049D01*
X76862081Y-54743942D01*
X76871576Y-54749425D01*
X77061740Y-54838099D01*
X77072032Y-54841845D01*
X77274704Y-54896151D01*
X77285499Y-54898054D01*
X77494525Y-54916342D01*
X77505475Y-54916342D01*
X77714501Y-54898054D01*
X77725296Y-54896151D01*
X77927968Y-54841845D01*
X77938260Y-54838099D01*
X78128424Y-54749425D01*
X78137919Y-54743942D01*
X78180021Y-54714462D01*
X78188396Y-54703985D01*
X78181328Y-54690538D01*
X77512812Y-54022022D01*
X77498868Y-54014408D01*
X77497035Y-54014539D01*
X77490420Y-54018790D01*
X76817951Y-54691259D01*
X76811521Y-54703034D01*
X75900000Y-54703034D01*
X75900000Y-53655475D01*
X76233658Y-53655475D01*
X76251946Y-53864501D01*
X76253849Y-53875296D01*
X76308155Y-54077968D01*
X76311901Y-54088260D01*
X76400577Y-54278425D01*
X76406055Y-54287915D01*
X76435539Y-54330022D01*
X76446015Y-54338396D01*
X76459463Y-54331327D01*
X77127978Y-53662812D01*
X77134356Y-53651132D01*
X77864408Y-53651132D01*
X77864539Y-53652965D01*
X77868790Y-53659580D01*
X78541259Y-54332049D01*
X78553033Y-54338479D01*
X78565049Y-54329183D01*
X78593945Y-54287915D01*
X78599423Y-54278425D01*
X78688099Y-54088260D01*
X78691845Y-54077968D01*
X78746151Y-53875296D01*
X78748054Y-53864501D01*
X78766342Y-53655475D01*
X78766342Y-53644525D01*
X78748054Y-53435499D01*
X78746151Y-53424704D01*
X78691845Y-53222032D01*
X78688099Y-53211740D01*
X78599423Y-53021575D01*
X78593945Y-53012085D01*
X78564461Y-52969978D01*
X78553985Y-52961604D01*
X78540537Y-52968673D01*
X77872022Y-53637188D01*
X77864408Y-53651132D01*
X77134356Y-53651132D01*
X77135592Y-53648868D01*
X77135461Y-53647035D01*
X77131210Y-53640420D01*
X76458741Y-52967951D01*
X76446967Y-52961521D01*
X76434951Y-52970817D01*
X76406055Y-53012085D01*
X76400577Y-53021575D01*
X76311901Y-53211740D01*
X76308155Y-53222032D01*
X76253849Y-53424704D01*
X76251946Y-53435499D01*
X76233658Y-53644525D01*
X76233658Y-53655475D01*
X75900000Y-53655475D01*
X75900000Y-51952134D01*
X76237500Y-51952134D01*
X76244255Y-52014316D01*
X76295385Y-52150705D01*
X76382739Y-52267261D01*
X76499295Y-52354615D01*
X76635684Y-52405745D01*
X76697866Y-52412500D01*
X76701284Y-52412500D01*
X76703149Y-52412601D01*
X76770089Y-52436257D01*
X76813613Y-52492348D01*
X76819903Y-52563065D01*
X76811890Y-52580282D01*
X76810483Y-52593881D01*
X76818673Y-52609463D01*
X77487188Y-53277978D01*
X77501132Y-53285592D01*
X77502965Y-53285461D01*
X77509580Y-53281210D01*
X78182049Y-52608741D01*
X78189663Y-52594797D01*
X78188525Y-52578885D01*
X78177015Y-52549456D01*
X78191006Y-52479852D01*
X78240407Y-52428861D01*
X78295724Y-52412662D01*
X78298716Y-52412500D01*
X78302134Y-52412500D01*
X78364316Y-52405745D01*
X78500705Y-52354615D01*
X78617261Y-52267261D01*
X78704615Y-52150705D01*
X78755745Y-52014316D01*
X78762500Y-51952134D01*
X78762500Y-50347866D01*
X78755745Y-50285684D01*
X78704615Y-50149295D01*
X78617261Y-50032739D01*
X78500705Y-49945385D01*
X78364316Y-49894255D01*
X78302134Y-49887500D01*
X76697866Y-49887500D01*
X76635684Y-49894255D01*
X76499295Y-49945385D01*
X76382739Y-50032739D01*
X76295385Y-50149295D01*
X76244255Y-50285684D01*
X76237500Y-50347866D01*
X76237500Y-51952134D01*
X75900000Y-51952134D01*
X75900000Y-46742966D01*
X80868257Y-46742966D01*
X80898565Y-46877446D01*
X80901645Y-46887275D01*
X80981770Y-47084603D01*
X80986413Y-47093794D01*
X81097694Y-47275388D01*
X81103777Y-47283699D01*
X81243213Y-47444667D01*
X81250580Y-47451883D01*
X81414434Y-47587916D01*
X81422881Y-47593831D01*
X81606756Y-47701279D01*
X81616042Y-47705729D01*
X81815001Y-47781703D01*
X81824899Y-47784579D01*
X81928250Y-47805606D01*
X81942299Y-47804410D01*
X81946000Y-47794065D01*
X81946000Y-47793517D01*
X82454000Y-47793517D01*
X82458064Y-47807359D01*
X82471478Y-47809393D01*
X82478184Y-47808534D01*
X82488262Y-47806392D01*
X82692255Y-47745191D01*
X82701842Y-47741433D01*
X82893095Y-47647739D01*
X82901945Y-47642464D01*
X83075328Y-47518792D01*
X83083200Y-47512139D01*
X83234052Y-47361812D01*
X83240730Y-47353965D01*
X83368022Y-47176819D01*
X83369279Y-47177722D01*
X83416373Y-47134362D01*
X83486311Y-47122145D01*
X83551751Y-47149678D01*
X83579579Y-47181511D01*
X83639987Y-47280088D01*
X83786250Y-47448938D01*
X83958126Y-47591632D01*
X84151000Y-47704338D01*
X84359692Y-47784030D01*
X84364760Y-47785061D01*
X84364763Y-47785062D01*
X84457075Y-47803843D01*
X84578597Y-47828567D01*
X84583772Y-47828757D01*
X84583774Y-47828757D01*
X84796673Y-47836564D01*
X84796677Y-47836564D01*
X84801837Y-47836753D01*
X84806957Y-47836097D01*
X84806959Y-47836097D01*
X85018288Y-47809025D01*
X85018289Y-47809025D01*
X85023416Y-47808368D01*
X85028369Y-47806882D01*
X85232429Y-47745661D01*
X85232434Y-47745659D01*
X85237384Y-47744174D01*
X85437994Y-47645896D01*
X85619860Y-47516173D01*
X85680764Y-47455482D01*
X85760036Y-47376486D01*
X85778096Y-47358489D01*
X85908453Y-47177077D01*
X85909776Y-47178028D01*
X85956645Y-47134857D01*
X86026580Y-47122625D01*
X86092026Y-47150144D01*
X86119875Y-47181994D01*
X86179987Y-47280088D01*
X86326250Y-47448938D01*
X86498126Y-47591632D01*
X86691000Y-47704338D01*
X86899692Y-47784030D01*
X86904760Y-47785061D01*
X86904763Y-47785062D01*
X86997075Y-47803843D01*
X87118597Y-47828567D01*
X87123772Y-47828757D01*
X87123774Y-47828757D01*
X87336673Y-47836564D01*
X87336677Y-47836564D01*
X87341837Y-47836753D01*
X87346957Y-47836097D01*
X87346959Y-47836097D01*
X87558288Y-47809025D01*
X87558289Y-47809025D01*
X87563416Y-47808368D01*
X87568369Y-47806882D01*
X87759826Y-47749442D01*
X87830822Y-47749026D01*
X87885129Y-47781033D01*
X88945463Y-48841368D01*
X89996348Y-49892253D01*
X90003888Y-49900539D01*
X90008000Y-49907018D01*
X90013777Y-49912443D01*
X90057651Y-49953643D01*
X90060493Y-49956398D01*
X90080230Y-49976135D01*
X90083427Y-49978615D01*
X90092447Y-49986318D01*
X90124679Y-50016586D01*
X90131625Y-50020405D01*
X90131628Y-50020407D01*
X90142434Y-50026348D01*
X90158953Y-50037199D01*
X90174959Y-50049614D01*
X90182228Y-50052759D01*
X90182232Y-50052762D01*
X90215537Y-50067174D01*
X90226187Y-50072391D01*
X90264940Y-50093695D01*
X90272615Y-50095666D01*
X90272616Y-50095666D01*
X90284562Y-50098733D01*
X90303267Y-50105137D01*
X90321855Y-50113181D01*
X90329678Y-50114420D01*
X90329688Y-50114423D01*
X90365524Y-50120099D01*
X90377144Y-50122505D01*
X90412289Y-50131528D01*
X90419970Y-50133500D01*
X90440224Y-50133500D01*
X90459934Y-50135051D01*
X90479943Y-50138220D01*
X90487835Y-50137474D01*
X90523961Y-50134059D01*
X90535819Y-50133500D01*
X91510406Y-50133500D01*
X91578527Y-50153502D01*
X91599501Y-50170405D01*
X93974595Y-52545499D01*
X94008621Y-52607811D01*
X94011500Y-52634594D01*
X94011500Y-53855606D01*
X93991498Y-53923727D01*
X93957771Y-53958819D01*
X93805211Y-54065643D01*
X93805208Y-54065645D01*
X93800700Y-54068802D01*
X93638802Y-54230700D01*
X93635645Y-54235208D01*
X93635643Y-54235211D01*
X93580902Y-54313389D01*
X93507477Y-54418251D01*
X93505154Y-54423233D01*
X93505151Y-54423238D01*
X93489195Y-54457457D01*
X93442278Y-54510742D01*
X93374001Y-54530203D01*
X93306041Y-54509661D01*
X93260805Y-54457457D01*
X93244849Y-54423238D01*
X93244846Y-54423233D01*
X93242523Y-54418251D01*
X93169098Y-54313389D01*
X93114357Y-54235211D01*
X93114355Y-54235208D01*
X93111198Y-54230700D01*
X92949300Y-54068802D01*
X92944792Y-54065645D01*
X92944789Y-54065643D01*
X92784519Y-53953421D01*
X92761749Y-53937477D01*
X92756767Y-53935154D01*
X92756762Y-53935151D01*
X92559225Y-53843039D01*
X92559224Y-53843039D01*
X92554243Y-53840716D01*
X92548935Y-53839294D01*
X92548933Y-53839293D01*
X92338402Y-53782881D01*
X92338400Y-53782881D01*
X92333087Y-53781457D01*
X92105000Y-53761502D01*
X91876913Y-53781457D01*
X91871600Y-53782881D01*
X91871598Y-53782881D01*
X91661067Y-53839293D01*
X91661065Y-53839294D01*
X91655757Y-53840716D01*
X91650776Y-53843039D01*
X91650775Y-53843039D01*
X91453238Y-53935151D01*
X91453233Y-53935154D01*
X91448251Y-53937477D01*
X91425481Y-53953421D01*
X91265211Y-54065643D01*
X91265208Y-54065645D01*
X91260700Y-54068802D01*
X91098802Y-54230700D01*
X91095645Y-54235208D01*
X91095643Y-54235211D01*
X91040902Y-54313389D01*
X90967477Y-54418251D01*
X90965154Y-54423233D01*
X90965151Y-54423238D01*
X90965034Y-54423489D01*
X90870716Y-54625757D01*
X90869294Y-54631065D01*
X90869293Y-54631067D01*
X90849755Y-54703985D01*
X90811457Y-54846913D01*
X90803986Y-54932308D01*
X90798921Y-54990205D01*
X90796500Y-55017873D01*
X90796500Y-55932127D01*
X90796738Y-55934844D01*
X90796738Y-55934851D01*
X90798556Y-55955629D01*
X90811457Y-56103087D01*
X90870716Y-56324243D01*
X90873039Y-56329224D01*
X90873039Y-56329225D01*
X90965151Y-56526762D01*
X90965154Y-56526767D01*
X90967477Y-56531749D01*
X91098802Y-56719300D01*
X91260700Y-56881198D01*
X91265208Y-56884355D01*
X91265211Y-56884357D01*
X91306542Y-56913297D01*
X91448251Y-57012523D01*
X91453233Y-57014846D01*
X91453238Y-57014849D01*
X91649765Y-57106490D01*
X91655757Y-57109284D01*
X91661065Y-57110706D01*
X91661067Y-57110707D01*
X91871598Y-57167119D01*
X91871600Y-57167119D01*
X91876913Y-57168543D01*
X92105000Y-57188498D01*
X92333087Y-57168543D01*
X92338400Y-57167119D01*
X92338402Y-57167119D01*
X92548933Y-57110707D01*
X92548935Y-57110706D01*
X92554243Y-57109284D01*
X92560235Y-57106490D01*
X92756762Y-57014849D01*
X92756767Y-57014846D01*
X92761749Y-57012523D01*
X92903458Y-56913297D01*
X92944789Y-56884357D01*
X92944792Y-56884355D01*
X92949300Y-56881198D01*
X93111198Y-56719300D01*
X93242523Y-56531749D01*
X93244846Y-56526767D01*
X93244849Y-56526762D01*
X93260805Y-56492543D01*
X93307722Y-56439258D01*
X93375999Y-56419797D01*
X93443959Y-56440339D01*
X93489195Y-56492543D01*
X93505151Y-56526762D01*
X93505154Y-56526767D01*
X93507477Y-56531749D01*
X93638802Y-56719300D01*
X93800700Y-56881198D01*
X93805208Y-56884355D01*
X93805211Y-56884357D01*
X93846542Y-56913297D01*
X93988251Y-57012523D01*
X93993233Y-57014846D01*
X93993238Y-57014849D01*
X94189765Y-57106490D01*
X94195757Y-57109284D01*
X94201065Y-57110706D01*
X94201067Y-57110707D01*
X94411598Y-57167119D01*
X94411600Y-57167119D01*
X94416913Y-57168543D01*
X94645000Y-57188498D01*
X94873087Y-57168543D01*
X94878400Y-57167119D01*
X94878402Y-57167119D01*
X95088933Y-57110707D01*
X95088935Y-57110706D01*
X95094243Y-57109284D01*
X95100235Y-57106490D01*
X95296762Y-57014849D01*
X95296767Y-57014846D01*
X95301749Y-57012523D01*
X95443458Y-56913297D01*
X95484789Y-56884357D01*
X95484792Y-56884355D01*
X95489300Y-56881198D01*
X95651198Y-56719300D01*
X95782523Y-56531749D01*
X95784846Y-56526767D01*
X95784849Y-56526762D01*
X95800805Y-56492543D01*
X95847722Y-56439258D01*
X95915999Y-56419797D01*
X95983959Y-56440339D01*
X96029195Y-56492543D01*
X96045151Y-56526762D01*
X96045154Y-56526767D01*
X96047477Y-56531749D01*
X96178802Y-56719300D01*
X96340700Y-56881198D01*
X96345208Y-56884355D01*
X96345211Y-56884357D01*
X96386542Y-56913297D01*
X96528251Y-57012523D01*
X96533233Y-57014846D01*
X96533238Y-57014849D01*
X96729765Y-57106490D01*
X96735757Y-57109284D01*
X96741065Y-57110706D01*
X96741067Y-57110707D01*
X96951598Y-57167119D01*
X96951600Y-57167119D01*
X96956913Y-57168543D01*
X97185000Y-57188498D01*
X97413087Y-57168543D01*
X97418400Y-57167119D01*
X97418402Y-57167119D01*
X97628933Y-57110707D01*
X97628935Y-57110706D01*
X97634243Y-57109284D01*
X97640235Y-57106490D01*
X97836762Y-57014849D01*
X97836767Y-57014846D01*
X97841749Y-57012523D01*
X97983458Y-56913297D01*
X98024789Y-56884357D01*
X98024792Y-56884355D01*
X98029300Y-56881198D01*
X98191198Y-56719300D01*
X98322523Y-56531749D01*
X98324846Y-56526767D01*
X98324849Y-56526762D01*
X98340805Y-56492543D01*
X98387722Y-56439258D01*
X98455999Y-56419797D01*
X98523959Y-56440339D01*
X98569195Y-56492543D01*
X98585151Y-56526762D01*
X98585154Y-56526767D01*
X98587477Y-56531749D01*
X98718802Y-56719300D01*
X98880700Y-56881198D01*
X98885208Y-56884355D01*
X98885211Y-56884357D01*
X98926542Y-56913297D01*
X99068251Y-57012523D01*
X99073233Y-57014846D01*
X99073238Y-57014849D01*
X99269765Y-57106490D01*
X99275757Y-57109284D01*
X99281065Y-57110706D01*
X99281067Y-57110707D01*
X99491598Y-57167119D01*
X99491600Y-57167119D01*
X99496913Y-57168543D01*
X99725000Y-57188498D01*
X99953087Y-57168543D01*
X99958400Y-57167119D01*
X99958402Y-57167119D01*
X100168933Y-57110707D01*
X100168935Y-57110706D01*
X100174243Y-57109284D01*
X100180235Y-57106490D01*
X100376762Y-57014849D01*
X100376767Y-57014846D01*
X100381749Y-57012523D01*
X100523458Y-56913297D01*
X100564789Y-56884357D01*
X100564792Y-56884355D01*
X100569300Y-56881198D01*
X100731198Y-56719300D01*
X100862523Y-56531749D01*
X100864846Y-56526767D01*
X100864849Y-56526762D01*
X100880805Y-56492543D01*
X100927722Y-56439258D01*
X100995999Y-56419797D01*
X101063959Y-56440339D01*
X101109195Y-56492543D01*
X101125151Y-56526762D01*
X101125154Y-56526767D01*
X101127477Y-56531749D01*
X101258802Y-56719300D01*
X101420700Y-56881198D01*
X101425208Y-56884355D01*
X101425211Y-56884357D01*
X101466542Y-56913297D01*
X101608251Y-57012523D01*
X101613233Y-57014846D01*
X101613238Y-57014849D01*
X101809765Y-57106490D01*
X101815757Y-57109284D01*
X101821065Y-57110706D01*
X101821067Y-57110707D01*
X102031598Y-57167119D01*
X102031600Y-57167119D01*
X102036913Y-57168543D01*
X102265000Y-57188498D01*
X102493087Y-57168543D01*
X102498400Y-57167119D01*
X102498402Y-57167119D01*
X102708933Y-57110707D01*
X102708935Y-57110706D01*
X102714243Y-57109284D01*
X102720235Y-57106490D01*
X102916762Y-57014849D01*
X102916767Y-57014846D01*
X102921749Y-57012523D01*
X103063458Y-56913297D01*
X103104789Y-56884357D01*
X103104792Y-56884355D01*
X103109300Y-56881198D01*
X103271198Y-56719300D01*
X103402523Y-56531749D01*
X103404846Y-56526767D01*
X103404849Y-56526762D01*
X103420805Y-56492543D01*
X103467722Y-56439258D01*
X103535999Y-56419797D01*
X103603959Y-56440339D01*
X103649195Y-56492543D01*
X103665151Y-56526762D01*
X103665154Y-56526767D01*
X103667477Y-56531749D01*
X103798802Y-56719300D01*
X103960700Y-56881198D01*
X103965208Y-56884355D01*
X103965211Y-56884357D01*
X104006542Y-56913297D01*
X104148251Y-57012523D01*
X104153233Y-57014846D01*
X104153238Y-57014849D01*
X104349765Y-57106490D01*
X104355757Y-57109284D01*
X104361065Y-57110706D01*
X104361067Y-57110707D01*
X104571598Y-57167119D01*
X104571600Y-57167119D01*
X104576913Y-57168543D01*
X104805000Y-57188498D01*
X105033087Y-57168543D01*
X105038400Y-57167119D01*
X105038402Y-57167119D01*
X105248933Y-57110707D01*
X105248935Y-57110706D01*
X105254243Y-57109284D01*
X105260235Y-57106490D01*
X105456762Y-57014849D01*
X105456767Y-57014846D01*
X105461749Y-57012523D01*
X105603458Y-56913297D01*
X105644789Y-56884357D01*
X105644792Y-56884355D01*
X105649300Y-56881198D01*
X105811198Y-56719300D01*
X105942523Y-56531749D01*
X105944846Y-56526767D01*
X105944849Y-56526762D01*
X105961081Y-56491951D01*
X106007998Y-56438666D01*
X106076275Y-56419205D01*
X106144235Y-56439747D01*
X106189471Y-56491951D01*
X106205586Y-56526511D01*
X106211069Y-56536007D01*
X106336028Y-56714467D01*
X106343084Y-56722875D01*
X106497125Y-56876916D01*
X106505533Y-56883972D01*
X106683993Y-57008931D01*
X106693489Y-57014414D01*
X106890947Y-57106490D01*
X106901239Y-57110236D01*
X107073503Y-57156394D01*
X107087599Y-57156058D01*
X107091000Y-57148116D01*
X107091000Y-53807033D01*
X107087027Y-53793502D01*
X107078478Y-53792273D01*
X106901239Y-53839764D01*
X106890947Y-53843510D01*
X106693489Y-53935586D01*
X106683993Y-53941069D01*
X106505533Y-54066028D01*
X106497125Y-54073084D01*
X106343084Y-54227125D01*
X106336028Y-54235533D01*
X106211069Y-54413993D01*
X106205586Y-54423489D01*
X106189471Y-54458049D01*
X106142554Y-54511334D01*
X106074277Y-54530795D01*
X106006317Y-54510253D01*
X105961081Y-54458049D01*
X105944849Y-54423238D01*
X105944846Y-54423233D01*
X105942523Y-54418251D01*
X105869098Y-54313389D01*
X105814357Y-54235211D01*
X105814355Y-54235208D01*
X105811198Y-54230700D01*
X105649300Y-54068802D01*
X105644792Y-54065645D01*
X105644789Y-54065643D01*
X105484519Y-53953421D01*
X105461749Y-53937477D01*
X105456767Y-53935154D01*
X105456762Y-53935151D01*
X105259225Y-53843039D01*
X105259224Y-53843039D01*
X105254243Y-53840716D01*
X105248935Y-53839294D01*
X105248933Y-53839293D01*
X105038402Y-53782881D01*
X105038400Y-53782881D01*
X105033087Y-53781457D01*
X104805000Y-53761502D01*
X104576913Y-53781457D01*
X104571600Y-53782881D01*
X104571598Y-53782881D01*
X104361067Y-53839293D01*
X104361065Y-53839294D01*
X104355757Y-53840716D01*
X104350776Y-53843039D01*
X104350775Y-53843039D01*
X104153238Y-53935151D01*
X104153233Y-53935154D01*
X104148251Y-53937477D01*
X104125481Y-53953421D01*
X103965211Y-54065643D01*
X103965208Y-54065645D01*
X103960700Y-54068802D01*
X103798802Y-54230700D01*
X103795645Y-54235208D01*
X103795643Y-54235211D01*
X103740902Y-54313389D01*
X103667477Y-54418251D01*
X103665154Y-54423233D01*
X103665151Y-54423238D01*
X103649195Y-54457457D01*
X103602278Y-54510742D01*
X103534001Y-54530203D01*
X103466041Y-54509661D01*
X103420805Y-54457457D01*
X103404849Y-54423238D01*
X103404846Y-54423233D01*
X103402523Y-54418251D01*
X103329098Y-54313389D01*
X103274357Y-54235211D01*
X103274355Y-54235208D01*
X103271198Y-54230700D01*
X103109300Y-54068802D01*
X103104792Y-54065645D01*
X103104789Y-54065643D01*
X102944519Y-53953421D01*
X102921749Y-53937477D01*
X102916767Y-53935154D01*
X102916762Y-53935151D01*
X102719225Y-53843039D01*
X102719224Y-53843039D01*
X102714243Y-53840716D01*
X102708935Y-53839294D01*
X102708933Y-53839293D01*
X102498402Y-53782881D01*
X102498400Y-53782881D01*
X102493087Y-53781457D01*
X102265000Y-53761502D01*
X102036913Y-53781457D01*
X102031600Y-53782881D01*
X102031598Y-53782881D01*
X101821067Y-53839293D01*
X101821065Y-53839294D01*
X101815757Y-53840716D01*
X101810776Y-53843039D01*
X101810775Y-53843039D01*
X101613238Y-53935151D01*
X101613233Y-53935154D01*
X101608251Y-53937477D01*
X101585481Y-53953421D01*
X101425211Y-54065643D01*
X101425208Y-54065645D01*
X101420700Y-54068802D01*
X101258802Y-54230700D01*
X101255645Y-54235208D01*
X101255643Y-54235211D01*
X101200902Y-54313389D01*
X101127477Y-54418251D01*
X101125154Y-54423233D01*
X101125151Y-54423238D01*
X101109195Y-54457457D01*
X101062278Y-54510742D01*
X100994001Y-54530203D01*
X100926041Y-54509661D01*
X100880805Y-54457457D01*
X100864849Y-54423238D01*
X100864846Y-54423233D01*
X100862523Y-54418251D01*
X100789098Y-54313389D01*
X100734357Y-54235211D01*
X100734355Y-54235208D01*
X100731198Y-54230700D01*
X100569300Y-54068802D01*
X100564792Y-54065645D01*
X100564789Y-54065643D01*
X100404519Y-53953421D01*
X100381749Y-53937477D01*
X100376767Y-53935154D01*
X100376762Y-53935151D01*
X100179225Y-53843039D01*
X100179224Y-53843039D01*
X100174243Y-53840716D01*
X100168935Y-53839294D01*
X100168933Y-53839293D01*
X99958402Y-53782881D01*
X99958400Y-53782881D01*
X99953087Y-53781457D01*
X99725000Y-53761502D01*
X99496913Y-53781457D01*
X99491600Y-53782881D01*
X99491598Y-53782881D01*
X99281067Y-53839293D01*
X99281065Y-53839294D01*
X99275757Y-53840716D01*
X99270776Y-53843039D01*
X99270775Y-53843039D01*
X99073238Y-53935151D01*
X99073233Y-53935154D01*
X99068251Y-53937477D01*
X99063744Y-53940633D01*
X99063742Y-53940634D01*
X98943195Y-54025042D01*
X98875921Y-54047730D01*
X98807060Y-54030445D01*
X98781829Y-54010924D01*
X92743238Y-47972333D01*
X92709212Y-47910021D01*
X92714277Y-47839206D01*
X92756824Y-47782370D01*
X92796125Y-47762553D01*
X92813309Y-47757397D01*
X92857384Y-47744174D01*
X92862036Y-47741895D01*
X92862039Y-47741894D01*
X93053346Y-47648173D01*
X93057994Y-47645896D01*
X93239860Y-47516173D01*
X93300764Y-47455482D01*
X93380036Y-47376486D01*
X93398096Y-47358489D01*
X93528453Y-47177077D01*
X93529776Y-47178028D01*
X93576645Y-47134857D01*
X93646580Y-47122625D01*
X93712026Y-47150144D01*
X93739875Y-47181994D01*
X93799987Y-47280088D01*
X93946250Y-47448938D01*
X94118126Y-47591632D01*
X94311000Y-47704338D01*
X94519692Y-47784030D01*
X94524760Y-47785061D01*
X94524763Y-47785062D01*
X94617075Y-47803843D01*
X94738597Y-47828567D01*
X94743772Y-47828757D01*
X94743774Y-47828757D01*
X94956673Y-47836564D01*
X94956677Y-47836564D01*
X94961837Y-47836753D01*
X94966957Y-47836097D01*
X94966959Y-47836097D01*
X95178288Y-47809025D01*
X95178289Y-47809025D01*
X95183416Y-47808368D01*
X95188367Y-47806883D01*
X95188370Y-47806882D01*
X95229829Y-47794444D01*
X95300825Y-47794028D01*
X95355131Y-47826035D01*
X96395274Y-48866179D01*
X97421348Y-49892253D01*
X97428888Y-49900539D01*
X97433000Y-49907018D01*
X97438777Y-49912443D01*
X97482651Y-49953643D01*
X97485493Y-49956398D01*
X97505230Y-49976135D01*
X97508427Y-49978615D01*
X97517447Y-49986318D01*
X97549679Y-50016586D01*
X97556625Y-50020405D01*
X97556628Y-50020407D01*
X97567434Y-50026348D01*
X97583953Y-50037199D01*
X97599959Y-50049614D01*
X97607228Y-50052759D01*
X97607232Y-50052762D01*
X97640537Y-50067174D01*
X97651187Y-50072391D01*
X97689940Y-50093695D01*
X97697615Y-50095666D01*
X97697616Y-50095666D01*
X97709562Y-50098733D01*
X97728267Y-50105137D01*
X97746855Y-50113181D01*
X97754678Y-50114420D01*
X97754688Y-50114423D01*
X97790524Y-50120099D01*
X97802144Y-50122505D01*
X97837289Y-50131528D01*
X97844970Y-50133500D01*
X97865224Y-50133500D01*
X97884934Y-50135051D01*
X97904943Y-50138220D01*
X97912835Y-50137474D01*
X97948961Y-50134059D01*
X97960819Y-50133500D01*
X109485406Y-50133500D01*
X109553527Y-50153502D01*
X109574501Y-50170405D01*
X111754595Y-52350499D01*
X111788621Y-52412811D01*
X111791500Y-52439594D01*
X111791500Y-53855606D01*
X111771498Y-53923727D01*
X111737771Y-53958819D01*
X111585211Y-54065643D01*
X111585208Y-54065645D01*
X111580700Y-54068802D01*
X111418802Y-54230700D01*
X111415645Y-54235208D01*
X111415643Y-54235211D01*
X111360902Y-54313389D01*
X111287477Y-54418251D01*
X111285154Y-54423233D01*
X111285151Y-54423238D01*
X111269195Y-54457457D01*
X111222278Y-54510742D01*
X111154001Y-54530203D01*
X111086041Y-54509661D01*
X111040805Y-54457457D01*
X111024849Y-54423238D01*
X111024846Y-54423233D01*
X111022523Y-54418251D01*
X110949098Y-54313389D01*
X110894357Y-54235211D01*
X110894355Y-54235208D01*
X110891198Y-54230700D01*
X110729300Y-54068802D01*
X110724792Y-54065645D01*
X110724789Y-54065643D01*
X110564519Y-53953421D01*
X110541749Y-53937477D01*
X110536767Y-53935154D01*
X110536762Y-53935151D01*
X110339225Y-53843039D01*
X110339224Y-53843039D01*
X110334243Y-53840716D01*
X110328935Y-53839294D01*
X110328933Y-53839293D01*
X110118402Y-53782881D01*
X110118400Y-53782881D01*
X110113087Y-53781457D01*
X109885000Y-53761502D01*
X109656913Y-53781457D01*
X109651600Y-53782881D01*
X109651598Y-53782881D01*
X109441067Y-53839293D01*
X109441065Y-53839294D01*
X109435757Y-53840716D01*
X109430776Y-53843039D01*
X109430775Y-53843039D01*
X109233238Y-53935151D01*
X109233233Y-53935154D01*
X109228251Y-53937477D01*
X109205481Y-53953421D01*
X109045211Y-54065643D01*
X109045208Y-54065645D01*
X109040700Y-54068802D01*
X108878802Y-54230700D01*
X108875645Y-54235208D01*
X108875643Y-54235211D01*
X108820902Y-54313389D01*
X108747477Y-54418251D01*
X108745154Y-54423233D01*
X108745151Y-54423238D01*
X108728919Y-54458049D01*
X108682002Y-54511334D01*
X108613725Y-54530795D01*
X108545765Y-54510253D01*
X108500529Y-54458049D01*
X108484414Y-54423489D01*
X108478931Y-54413993D01*
X108353972Y-54235533D01*
X108346916Y-54227125D01*
X108192875Y-54073084D01*
X108184467Y-54066028D01*
X108006007Y-53941069D01*
X107996511Y-53935586D01*
X107799053Y-53843510D01*
X107788761Y-53839764D01*
X107616497Y-53793606D01*
X107602401Y-53793942D01*
X107599000Y-53801884D01*
X107599000Y-57142967D01*
X107602973Y-57156498D01*
X107611522Y-57157727D01*
X107788761Y-57110236D01*
X107799053Y-57106490D01*
X107996511Y-57014414D01*
X108006007Y-57008931D01*
X108184467Y-56883972D01*
X108192875Y-56876916D01*
X108346916Y-56722875D01*
X108353972Y-56714467D01*
X108478931Y-56536007D01*
X108484414Y-56526511D01*
X108500529Y-56491951D01*
X108547446Y-56438666D01*
X108615723Y-56419205D01*
X108683683Y-56439747D01*
X108728919Y-56491951D01*
X108745151Y-56526762D01*
X108745154Y-56526767D01*
X108747477Y-56531749D01*
X108878802Y-56719300D01*
X109040700Y-56881198D01*
X109045208Y-56884355D01*
X109045211Y-56884357D01*
X109086542Y-56913297D01*
X109228251Y-57012523D01*
X109233233Y-57014846D01*
X109233238Y-57014849D01*
X109429765Y-57106490D01*
X109435757Y-57109284D01*
X109441065Y-57110706D01*
X109441067Y-57110707D01*
X109651598Y-57167119D01*
X109651600Y-57167119D01*
X109656913Y-57168543D01*
X109885000Y-57188498D01*
X110113087Y-57168543D01*
X110118400Y-57167119D01*
X110118402Y-57167119D01*
X110328933Y-57110707D01*
X110328935Y-57110706D01*
X110334243Y-57109284D01*
X110340235Y-57106490D01*
X110536762Y-57014849D01*
X110536767Y-57014846D01*
X110541749Y-57012523D01*
X110683458Y-56913297D01*
X110724789Y-56884357D01*
X110724792Y-56884355D01*
X110729300Y-56881198D01*
X110891198Y-56719300D01*
X111022523Y-56531749D01*
X111024846Y-56526767D01*
X111024849Y-56526762D01*
X111040805Y-56492543D01*
X111087722Y-56439258D01*
X111155999Y-56419797D01*
X111223959Y-56440339D01*
X111269195Y-56492543D01*
X111285151Y-56526762D01*
X111285154Y-56526767D01*
X111287477Y-56531749D01*
X111418802Y-56719300D01*
X111580700Y-56881198D01*
X111585208Y-56884355D01*
X111585211Y-56884357D01*
X111626542Y-56913297D01*
X111768251Y-57012523D01*
X111773233Y-57014846D01*
X111773238Y-57014849D01*
X111969765Y-57106490D01*
X111975757Y-57109284D01*
X111981065Y-57110706D01*
X111981067Y-57110707D01*
X112191598Y-57167119D01*
X112191600Y-57167119D01*
X112196913Y-57168543D01*
X112425000Y-57188498D01*
X112653087Y-57168543D01*
X112658400Y-57167119D01*
X112658402Y-57167119D01*
X112868933Y-57110707D01*
X112868935Y-57110706D01*
X112874243Y-57109284D01*
X112880235Y-57106490D01*
X113076762Y-57014849D01*
X113076767Y-57014846D01*
X113081749Y-57012523D01*
X113223458Y-56913297D01*
X113264789Y-56884357D01*
X113264792Y-56884355D01*
X113269300Y-56881198D01*
X113431198Y-56719300D01*
X113562523Y-56531749D01*
X113564846Y-56526767D01*
X113564849Y-56526762D01*
X113580805Y-56492543D01*
X113627722Y-56439258D01*
X113695999Y-56419797D01*
X113763959Y-56440339D01*
X113809195Y-56492543D01*
X113825151Y-56526762D01*
X113825154Y-56526767D01*
X113827477Y-56531749D01*
X113958802Y-56719300D01*
X114120700Y-56881198D01*
X114125208Y-56884355D01*
X114125211Y-56884357D01*
X114166542Y-56913297D01*
X114308251Y-57012523D01*
X114313233Y-57014846D01*
X114313238Y-57014849D01*
X114509765Y-57106490D01*
X114515757Y-57109284D01*
X114521065Y-57110706D01*
X114521067Y-57110707D01*
X114731598Y-57167119D01*
X114731600Y-57167119D01*
X114736913Y-57168543D01*
X114965000Y-57188498D01*
X115193087Y-57168543D01*
X115198400Y-57167119D01*
X115198402Y-57167119D01*
X115408933Y-57110707D01*
X115408935Y-57110706D01*
X115414243Y-57109284D01*
X115420235Y-57106490D01*
X115616762Y-57014849D01*
X115616767Y-57014846D01*
X115621749Y-57012523D01*
X115763458Y-56913297D01*
X115804789Y-56884357D01*
X115804792Y-56884355D01*
X115809300Y-56881198D01*
X115971198Y-56719300D01*
X116102523Y-56531749D01*
X116104846Y-56526767D01*
X116104849Y-56526762D01*
X116120805Y-56492543D01*
X116167722Y-56439258D01*
X116235999Y-56419797D01*
X116303959Y-56440339D01*
X116349195Y-56492543D01*
X116365151Y-56526762D01*
X116365154Y-56526767D01*
X116367477Y-56531749D01*
X116498802Y-56719300D01*
X116660700Y-56881198D01*
X116665208Y-56884355D01*
X116665211Y-56884357D01*
X116706542Y-56913297D01*
X116848251Y-57012523D01*
X116853233Y-57014846D01*
X116853238Y-57014849D01*
X117049765Y-57106490D01*
X117055757Y-57109284D01*
X117061065Y-57110706D01*
X117061067Y-57110707D01*
X117271598Y-57167119D01*
X117271600Y-57167119D01*
X117276913Y-57168543D01*
X117505000Y-57188498D01*
X117733087Y-57168543D01*
X117738400Y-57167119D01*
X117738402Y-57167119D01*
X117948933Y-57110707D01*
X117948935Y-57110706D01*
X117954243Y-57109284D01*
X117960235Y-57106490D01*
X118156762Y-57014849D01*
X118156767Y-57014846D01*
X118161749Y-57012523D01*
X118303458Y-56913297D01*
X118344789Y-56884357D01*
X118344792Y-56884355D01*
X118349300Y-56881198D01*
X118511198Y-56719300D01*
X118642523Y-56531749D01*
X118644846Y-56526767D01*
X118644849Y-56526762D01*
X118660805Y-56492543D01*
X118707722Y-56439258D01*
X118775999Y-56419797D01*
X118843959Y-56440339D01*
X118889195Y-56492543D01*
X118905151Y-56526762D01*
X118905154Y-56526767D01*
X118907477Y-56531749D01*
X119038802Y-56719300D01*
X119200700Y-56881198D01*
X119205208Y-56884355D01*
X119205211Y-56884357D01*
X119246542Y-56913297D01*
X119388251Y-57012523D01*
X119393233Y-57014846D01*
X119393238Y-57014849D01*
X119589765Y-57106490D01*
X119595757Y-57109284D01*
X119601065Y-57110706D01*
X119601067Y-57110707D01*
X119811598Y-57167119D01*
X119811600Y-57167119D01*
X119816913Y-57168543D01*
X120045000Y-57188498D01*
X120273087Y-57168543D01*
X120278400Y-57167119D01*
X120278402Y-57167119D01*
X120488933Y-57110707D01*
X120488935Y-57110706D01*
X120494243Y-57109284D01*
X120500235Y-57106490D01*
X120696762Y-57014849D01*
X120696767Y-57014846D01*
X120701749Y-57012523D01*
X120843458Y-56913297D01*
X120884789Y-56884357D01*
X120884792Y-56884355D01*
X120889300Y-56881198D01*
X121051198Y-56719300D01*
X121182523Y-56531749D01*
X121184846Y-56526767D01*
X121184849Y-56526762D01*
X121200805Y-56492543D01*
X121247722Y-56439258D01*
X121315999Y-56419797D01*
X121383959Y-56440339D01*
X121429195Y-56492543D01*
X121445151Y-56526762D01*
X121445154Y-56526767D01*
X121447477Y-56531749D01*
X121578802Y-56719300D01*
X121740700Y-56881198D01*
X121745208Y-56884355D01*
X121745211Y-56884357D01*
X121786542Y-56913297D01*
X121928251Y-57012523D01*
X121933233Y-57014846D01*
X121933238Y-57014849D01*
X122129765Y-57106490D01*
X122135757Y-57109284D01*
X122141065Y-57110706D01*
X122141067Y-57110707D01*
X122351598Y-57167119D01*
X122351600Y-57167119D01*
X122356913Y-57168543D01*
X122585000Y-57188498D01*
X122813087Y-57168543D01*
X122818400Y-57167119D01*
X122818402Y-57167119D01*
X123028933Y-57110707D01*
X123028935Y-57110706D01*
X123034243Y-57109284D01*
X123040235Y-57106490D01*
X123236762Y-57014849D01*
X123236767Y-57014846D01*
X123241749Y-57012523D01*
X123383458Y-56913297D01*
X123424789Y-56884357D01*
X123424792Y-56884355D01*
X123429300Y-56881198D01*
X123591198Y-56719300D01*
X123594357Y-56714789D01*
X123597892Y-56710576D01*
X123599026Y-56711527D01*
X123649071Y-56671529D01*
X123719690Y-56664224D01*
X123783049Y-56696258D01*
X123819030Y-56757462D01*
X123822082Y-56774517D01*
X123823255Y-56785316D01*
X123874385Y-56921705D01*
X123961739Y-57038261D01*
X124078295Y-57125615D01*
X124214684Y-57176745D01*
X124276866Y-57183500D01*
X125973134Y-57183500D01*
X126035316Y-57176745D01*
X126171705Y-57125615D01*
X126288261Y-57038261D01*
X126375615Y-56921705D01*
X126426745Y-56785316D01*
X126433500Y-56723134D01*
X126433500Y-54226866D01*
X126426745Y-54164684D01*
X126375615Y-54028295D01*
X126288261Y-53911739D01*
X126171705Y-53824385D01*
X126035316Y-53773255D01*
X125973134Y-53766500D01*
X124276866Y-53766500D01*
X124214684Y-53773255D01*
X124078295Y-53824385D01*
X123961739Y-53911739D01*
X123874385Y-54028295D01*
X123823255Y-54164684D01*
X123822083Y-54175474D01*
X123821197Y-54177606D01*
X123820575Y-54180222D01*
X123820152Y-54180121D01*
X123794845Y-54241035D01*
X123736483Y-54281463D01*
X123665529Y-54283922D01*
X123604510Y-54247629D01*
X123597511Y-54238969D01*
X123594354Y-54235207D01*
X123591198Y-54230700D01*
X123429300Y-54068802D01*
X123424792Y-54065645D01*
X123424789Y-54065643D01*
X123264519Y-53953421D01*
X123241749Y-53937477D01*
X123236767Y-53935154D01*
X123236762Y-53935151D01*
X123039225Y-53843039D01*
X123039224Y-53843039D01*
X123034243Y-53840716D01*
X123028935Y-53839294D01*
X123028933Y-53839293D01*
X122818402Y-53782881D01*
X122818400Y-53782881D01*
X122813087Y-53781457D01*
X122585000Y-53761502D01*
X122356913Y-53781457D01*
X122351600Y-53782881D01*
X122351598Y-53782881D01*
X122141067Y-53839293D01*
X122141065Y-53839294D01*
X122135757Y-53840716D01*
X122130776Y-53843039D01*
X122130775Y-53843039D01*
X121933238Y-53935151D01*
X121933233Y-53935154D01*
X121928251Y-53937477D01*
X121905481Y-53953421D01*
X121745211Y-54065643D01*
X121745208Y-54065645D01*
X121740700Y-54068802D01*
X121578802Y-54230700D01*
X121575645Y-54235208D01*
X121575643Y-54235211D01*
X121520902Y-54313389D01*
X121447477Y-54418251D01*
X121445154Y-54423233D01*
X121445151Y-54423238D01*
X121429195Y-54457457D01*
X121382278Y-54510742D01*
X121314001Y-54530203D01*
X121246041Y-54509661D01*
X121200805Y-54457457D01*
X121184849Y-54423238D01*
X121184846Y-54423233D01*
X121182523Y-54418251D01*
X121109098Y-54313389D01*
X121054357Y-54235211D01*
X121054355Y-54235208D01*
X121051198Y-54230700D01*
X120889300Y-54068802D01*
X120884792Y-54065645D01*
X120884789Y-54065643D01*
X120724519Y-53953421D01*
X120701749Y-53937477D01*
X120696767Y-53935154D01*
X120696762Y-53935151D01*
X120499225Y-53843039D01*
X120499224Y-53843039D01*
X120494243Y-53840716D01*
X120488935Y-53839294D01*
X120488933Y-53839293D01*
X120278402Y-53782881D01*
X120278400Y-53782881D01*
X120273087Y-53781457D01*
X120045000Y-53761502D01*
X119816913Y-53781457D01*
X119811600Y-53782881D01*
X119811598Y-53782881D01*
X119601067Y-53839293D01*
X119601065Y-53839294D01*
X119595757Y-53840716D01*
X119590776Y-53843039D01*
X119590775Y-53843039D01*
X119393238Y-53935151D01*
X119393233Y-53935154D01*
X119388251Y-53937477D01*
X119365481Y-53953421D01*
X119205211Y-54065643D01*
X119205208Y-54065645D01*
X119200700Y-54068802D01*
X119038802Y-54230700D01*
X119035645Y-54235208D01*
X119035643Y-54235211D01*
X118980902Y-54313389D01*
X118907477Y-54418251D01*
X118905154Y-54423233D01*
X118905151Y-54423238D01*
X118889195Y-54457457D01*
X118842278Y-54510742D01*
X118774001Y-54530203D01*
X118706041Y-54509661D01*
X118660805Y-54457457D01*
X118644849Y-54423238D01*
X118644846Y-54423233D01*
X118642523Y-54418251D01*
X118569098Y-54313389D01*
X118514357Y-54235211D01*
X118514355Y-54235208D01*
X118511198Y-54230700D01*
X118349300Y-54068802D01*
X118344792Y-54065645D01*
X118344789Y-54065643D01*
X118192229Y-53958819D01*
X118147901Y-53903362D01*
X118138500Y-53855606D01*
X118138500Y-51378763D01*
X118139027Y-51367579D01*
X118140701Y-51360091D01*
X118138562Y-51292032D01*
X118138500Y-51288075D01*
X118138500Y-51260144D01*
X118137994Y-51256138D01*
X118137061Y-51244292D01*
X118135922Y-51208037D01*
X118135673Y-51200110D01*
X118130022Y-51180658D01*
X118126014Y-51161306D01*
X118124468Y-51149068D01*
X118124467Y-51149066D01*
X118123474Y-51141203D01*
X118107194Y-51100086D01*
X118103359Y-51088885D01*
X118091018Y-51046406D01*
X118086985Y-51039587D01*
X118086983Y-51039582D01*
X118080707Y-51028971D01*
X118072010Y-51011221D01*
X118064552Y-50992383D01*
X118038571Y-50956623D01*
X118032053Y-50946701D01*
X118013578Y-50915460D01*
X118013574Y-50915455D01*
X118009542Y-50908637D01*
X117995218Y-50894313D01*
X117982376Y-50879278D01*
X117980355Y-50876496D01*
X117970472Y-50862893D01*
X117936406Y-50834711D01*
X117927627Y-50826722D01*
X117773159Y-50672254D01*
X117739133Y-50609942D01*
X117744198Y-50539127D01*
X117786745Y-50482291D01*
X117844173Y-50458463D01*
X117956303Y-50442204D01*
X117967484Y-50439520D01*
X118151048Y-50377208D01*
X118161551Y-50372532D01*
X118275086Y-50308950D01*
X118284948Y-50298875D01*
X118281993Y-50291203D01*
X117341922Y-49351132D01*
X118064408Y-49351132D01*
X118064539Y-49352965D01*
X118068790Y-49359580D01*
X118637288Y-49928078D01*
X118649668Y-49934838D01*
X118656248Y-49929913D01*
X118722532Y-49811551D01*
X118727208Y-49801048D01*
X118789520Y-49617484D01*
X118792205Y-49606302D01*
X118820317Y-49412415D01*
X118820947Y-49405032D01*
X118822291Y-49353704D01*
X118822048Y-49346305D01*
X118804123Y-49151215D01*
X118802026Y-49139901D01*
X118749407Y-48953331D01*
X118745285Y-48942592D01*
X118659755Y-48769154D01*
X118651726Y-48763130D01*
X118639309Y-48769901D01*
X118072022Y-49337188D01*
X118064408Y-49351132D01*
X117341922Y-49351132D01*
X116761434Y-48770644D01*
X116749054Y-48763884D01*
X116743088Y-48768350D01*
X116665738Y-48915369D01*
X116661335Y-48926002D01*
X116603851Y-49111127D01*
X116601461Y-49122371D01*
X116591970Y-49202558D01*
X116564099Y-49267855D01*
X116505351Y-49307719D01*
X116434376Y-49309493D01*
X116377748Y-49276843D01*
X115502576Y-48401671D01*
X117115783Y-48401671D01*
X117119269Y-48410059D01*
X117687188Y-48977978D01*
X117701132Y-48985592D01*
X117702965Y-48985461D01*
X117709580Y-48981210D01*
X118277241Y-48413549D01*
X118284001Y-48401169D01*
X118277971Y-48393114D01*
X118214433Y-48353024D01*
X118204190Y-48347805D01*
X118024138Y-48275972D01*
X118013112Y-48272705D01*
X117822989Y-48234888D01*
X117811542Y-48233685D01*
X117617720Y-48231148D01*
X117606240Y-48232051D01*
X117415202Y-48264877D01*
X117404082Y-48267857D01*
X117222216Y-48334951D01*
X117211838Y-48339901D01*
X117125381Y-48391338D01*
X117115783Y-48401671D01*
X115502576Y-48401671D01*
X115151318Y-48050413D01*
X115117292Y-47988101D01*
X115122357Y-47917286D01*
X115164904Y-47860450D01*
X115231424Y-47835639D01*
X115245024Y-47835403D01*
X115261698Y-47836015D01*
X115276674Y-47836564D01*
X115276678Y-47836564D01*
X115281837Y-47836753D01*
X115286957Y-47836097D01*
X115286959Y-47836097D01*
X115498288Y-47809025D01*
X115498289Y-47809025D01*
X115503416Y-47808368D01*
X115508369Y-47806882D01*
X115712429Y-47745661D01*
X115712434Y-47745659D01*
X115717384Y-47744174D01*
X115917994Y-47645896D01*
X116099860Y-47516173D01*
X116160764Y-47455482D01*
X116240036Y-47376486D01*
X116258096Y-47358489D01*
X116388453Y-47177077D01*
X116389776Y-47178028D01*
X116436645Y-47134857D01*
X116506580Y-47122625D01*
X116572026Y-47150144D01*
X116599875Y-47181994D01*
X116659987Y-47280088D01*
X116806250Y-47448938D01*
X116978126Y-47591632D01*
X117171000Y-47704338D01*
X117379692Y-47784030D01*
X117384760Y-47785061D01*
X117384763Y-47785062D01*
X117477075Y-47803843D01*
X117598597Y-47828567D01*
X117603772Y-47828757D01*
X117603774Y-47828757D01*
X117816673Y-47836564D01*
X117816677Y-47836564D01*
X117821837Y-47836753D01*
X117826957Y-47836097D01*
X117826959Y-47836097D01*
X118038288Y-47809025D01*
X118038289Y-47809025D01*
X118043416Y-47808368D01*
X118048369Y-47806882D01*
X118252429Y-47745661D01*
X118252434Y-47745659D01*
X118257384Y-47744174D01*
X118457994Y-47645896D01*
X118639860Y-47516173D01*
X118700764Y-47455482D01*
X118748479Y-47407933D01*
X118810851Y-47374017D01*
X118881658Y-47379205D01*
X118938419Y-47421851D01*
X118955401Y-47452954D01*
X118996676Y-47563054D01*
X119005214Y-47578649D01*
X119081715Y-47680724D01*
X119094276Y-47693285D01*
X119196351Y-47769786D01*
X119211946Y-47778324D01*
X119332394Y-47823478D01*
X119347649Y-47827105D01*
X119398514Y-47832631D01*
X119405328Y-47833000D01*
X120027885Y-47833000D01*
X120043124Y-47828525D01*
X120044329Y-47827135D01*
X120046000Y-47819452D01*
X120046000Y-47814884D01*
X120554000Y-47814884D01*
X120558475Y-47830123D01*
X120559865Y-47831328D01*
X120567548Y-47832999D01*
X121194669Y-47832999D01*
X121201490Y-47832629D01*
X121252352Y-47827105D01*
X121267604Y-47823479D01*
X121388054Y-47778324D01*
X121403649Y-47769786D01*
X121505724Y-47693285D01*
X121518285Y-47680724D01*
X121594786Y-47578649D01*
X121603324Y-47563054D01*
X121648478Y-47442606D01*
X121652105Y-47427351D01*
X121657631Y-47376486D01*
X121658000Y-47369672D01*
X121658000Y-46747115D01*
X121653525Y-46731876D01*
X121652135Y-46730671D01*
X121644452Y-46729000D01*
X120572115Y-46729000D01*
X120556876Y-46733475D01*
X120555671Y-46734865D01*
X120554000Y-46742548D01*
X120554000Y-47814884D01*
X120046000Y-47814884D01*
X120046000Y-46442277D01*
X124037009Y-46442277D01*
X124062625Y-46710769D01*
X124063710Y-46715203D01*
X124063711Y-46715209D01*
X124124267Y-46962680D01*
X124126731Y-46972750D01*
X124227985Y-47222733D01*
X124304824Y-47353965D01*
X124357933Y-47444667D01*
X124364265Y-47455482D01*
X124450293Y-47563054D01*
X124513799Y-47642464D01*
X124532716Y-47666119D01*
X124729809Y-47850234D01*
X124951416Y-48003968D01*
X124955499Y-48005999D01*
X124955502Y-48006001D01*
X125071013Y-48063466D01*
X125192894Y-48124101D01*
X125197228Y-48125522D01*
X125197231Y-48125523D01*
X125444853Y-48206698D01*
X125444859Y-48206699D01*
X125449186Y-48208118D01*
X125453677Y-48208898D01*
X125453678Y-48208898D01*
X125711140Y-48253601D01*
X125711148Y-48253602D01*
X125714921Y-48254257D01*
X125718758Y-48254448D01*
X125798578Y-48258422D01*
X125798586Y-48258422D01*
X125800149Y-48258500D01*
X125968512Y-48258500D01*
X125970780Y-48258335D01*
X125970792Y-48258335D01*
X126101884Y-48248823D01*
X126169004Y-48243953D01*
X126173459Y-48242969D01*
X126173462Y-48242969D01*
X126427912Y-48186791D01*
X126427916Y-48186790D01*
X126432372Y-48185806D01*
X126558480Y-48138028D01*
X126680318Y-48091868D01*
X126680321Y-48091867D01*
X126684588Y-48090250D01*
X126920368Y-47959286D01*
X127077710Y-47839206D01*
X127131141Y-47798429D01*
X127131142Y-47798428D01*
X127134773Y-47795657D01*
X127145131Y-47785062D01*
X127320117Y-47606060D01*
X127323312Y-47602792D01*
X127482034Y-47384730D01*
X127565190Y-47226676D01*
X127605490Y-47150079D01*
X127605493Y-47150073D01*
X127607615Y-47146039D01*
X127611911Y-47133876D01*
X127695902Y-46896033D01*
X127695902Y-46896032D01*
X127697425Y-46891720D01*
X127726744Y-46742966D01*
X127748700Y-46631572D01*
X127748701Y-46631566D01*
X127749581Y-46627100D01*
X127758811Y-46441695D01*
X127762764Y-46362292D01*
X127762764Y-46362286D01*
X127762991Y-46357723D01*
X127737375Y-46089231D01*
X127715488Y-45999783D01*
X127674355Y-45831688D01*
X127673269Y-45827250D01*
X127572015Y-45577267D01*
X127435735Y-45344518D01*
X127317928Y-45197208D01*
X127270136Y-45137447D01*
X127270135Y-45137445D01*
X127267284Y-45133881D01*
X127070191Y-44949766D01*
X126848584Y-44796032D01*
X126844501Y-44794001D01*
X126844498Y-44793999D01*
X126679606Y-44711967D01*
X126607106Y-44675899D01*
X126602772Y-44674478D01*
X126602769Y-44674477D01*
X126355147Y-44593302D01*
X126355141Y-44593301D01*
X126350814Y-44591882D01*
X126346322Y-44591102D01*
X126088860Y-44546399D01*
X126088852Y-44546398D01*
X126085079Y-44545743D01*
X126073817Y-44545182D01*
X126001422Y-44541578D01*
X126001414Y-44541578D01*
X125999851Y-44541500D01*
X125831488Y-44541500D01*
X125829220Y-44541665D01*
X125829208Y-44541665D01*
X125698116Y-44551177D01*
X125630996Y-44556047D01*
X125626541Y-44557031D01*
X125626538Y-44557031D01*
X125372088Y-44613209D01*
X125372084Y-44613210D01*
X125367628Y-44614194D01*
X125241520Y-44661972D01*
X125119682Y-44708132D01*
X125119679Y-44708133D01*
X125115412Y-44709750D01*
X124879632Y-44840714D01*
X124665227Y-45004343D01*
X124476688Y-45197208D01*
X124317966Y-45415270D01*
X124269496Y-45507396D01*
X124194510Y-45649921D01*
X124194507Y-45649927D01*
X124192385Y-45653961D01*
X124190865Y-45658266D01*
X124190863Y-45658270D01*
X124104098Y-45903967D01*
X124102575Y-45908280D01*
X124050419Y-46172900D01*
X124050192Y-46177453D01*
X124050192Y-46177456D01*
X124040991Y-46362292D01*
X124037009Y-46442277D01*
X120046000Y-46442277D01*
X120046000Y-46202885D01*
X120554000Y-46202885D01*
X120558475Y-46218124D01*
X120559865Y-46219329D01*
X120567548Y-46221000D01*
X121639884Y-46221000D01*
X121655123Y-46216525D01*
X121656328Y-46215135D01*
X121657999Y-46207452D01*
X121657999Y-45580331D01*
X121657629Y-45573510D01*
X121652105Y-45522648D01*
X121648479Y-45507396D01*
X121603324Y-45386946D01*
X121594786Y-45371351D01*
X121518285Y-45269276D01*
X121505724Y-45256715D01*
X121403649Y-45180214D01*
X121388054Y-45171676D01*
X121267606Y-45126522D01*
X121252351Y-45122895D01*
X121201486Y-45117369D01*
X121194672Y-45117000D01*
X120572115Y-45117000D01*
X120556876Y-45121475D01*
X120555671Y-45122865D01*
X120554000Y-45130548D01*
X120554000Y-46202885D01*
X120046000Y-46202885D01*
X120046000Y-45135116D01*
X120041525Y-45119877D01*
X120040135Y-45118672D01*
X120032452Y-45117001D01*
X119405331Y-45117001D01*
X119398510Y-45117371D01*
X119347648Y-45122895D01*
X119332396Y-45126521D01*
X119211946Y-45171676D01*
X119196351Y-45180214D01*
X119094276Y-45256715D01*
X119081715Y-45269276D01*
X119005214Y-45371351D01*
X118996676Y-45386946D01*
X118955297Y-45497322D01*
X118912655Y-45554087D01*
X118846093Y-45578786D01*
X118776744Y-45563578D01*
X118744121Y-45537891D01*
X118693151Y-45481876D01*
X118693145Y-45481870D01*
X118689670Y-45478051D01*
X118685619Y-45474852D01*
X118685615Y-45474848D01*
X118518414Y-45342800D01*
X118518410Y-45342798D01*
X118514359Y-45339598D01*
X118478028Y-45319542D01*
X118386970Y-45269276D01*
X118318789Y-45231638D01*
X118313920Y-45229914D01*
X118313916Y-45229912D01*
X118113087Y-45158795D01*
X118113083Y-45158794D01*
X118108212Y-45157069D01*
X118103119Y-45156162D01*
X118103116Y-45156161D01*
X117893373Y-45118800D01*
X117893367Y-45118799D01*
X117888284Y-45117894D01*
X117814452Y-45116992D01*
X117670081Y-45115228D01*
X117670079Y-45115228D01*
X117664911Y-45115165D01*
X117444091Y-45148955D01*
X117231756Y-45218357D01*
X117033607Y-45321507D01*
X117029474Y-45324610D01*
X117029471Y-45324612D01*
X116908726Y-45415270D01*
X116854965Y-45455635D01*
X116700629Y-45617138D01*
X116593201Y-45774621D01*
X116538293Y-45819621D01*
X116467768Y-45827792D01*
X116404021Y-45796538D01*
X116383324Y-45772054D01*
X116302822Y-45647617D01*
X116302820Y-45647614D01*
X116300014Y-45643277D01*
X116149670Y-45478051D01*
X116145619Y-45474852D01*
X116145615Y-45474848D01*
X115978414Y-45342800D01*
X115978410Y-45342798D01*
X115974359Y-45339598D01*
X115938028Y-45319542D01*
X115846970Y-45269276D01*
X115778789Y-45231638D01*
X115773920Y-45229914D01*
X115773916Y-45229912D01*
X115573087Y-45158795D01*
X115573083Y-45158794D01*
X115568212Y-45157069D01*
X115563119Y-45156162D01*
X115563116Y-45156161D01*
X115353373Y-45118800D01*
X115353367Y-45118799D01*
X115348284Y-45117894D01*
X115274452Y-45116992D01*
X115130081Y-45115228D01*
X115130079Y-45115228D01*
X115124911Y-45115165D01*
X114904091Y-45148955D01*
X114691756Y-45218357D01*
X114493607Y-45321507D01*
X114489474Y-45324610D01*
X114489471Y-45324612D01*
X114368726Y-45415270D01*
X114314965Y-45455635D01*
X114160629Y-45617138D01*
X114053201Y-45774621D01*
X113998293Y-45819621D01*
X113927768Y-45827792D01*
X113864021Y-45796538D01*
X113843324Y-45772054D01*
X113762822Y-45647617D01*
X113762820Y-45647614D01*
X113760014Y-45643277D01*
X113609670Y-45478051D01*
X113605619Y-45474852D01*
X113605615Y-45474848D01*
X113438414Y-45342800D01*
X113438410Y-45342798D01*
X113434359Y-45339598D01*
X113398028Y-45319542D01*
X113306970Y-45269276D01*
X113238789Y-45231638D01*
X113233920Y-45229914D01*
X113233916Y-45229912D01*
X113033087Y-45158795D01*
X113033083Y-45158794D01*
X113028212Y-45157069D01*
X113023119Y-45156162D01*
X113023116Y-45156161D01*
X112813373Y-45118800D01*
X112813367Y-45118799D01*
X112808284Y-45117894D01*
X112734452Y-45116992D01*
X112590081Y-45115228D01*
X112590079Y-45115228D01*
X112584911Y-45115165D01*
X112364091Y-45148955D01*
X112151756Y-45218357D01*
X111953607Y-45321507D01*
X111949474Y-45324610D01*
X111949471Y-45324612D01*
X111828726Y-45415270D01*
X111774965Y-45455635D01*
X111620629Y-45617138D01*
X111617720Y-45621403D01*
X111617714Y-45621411D01*
X111605404Y-45639457D01*
X111513204Y-45774618D01*
X111512898Y-45775066D01*
X111457987Y-45820069D01*
X111387462Y-45828240D01*
X111323715Y-45796986D01*
X111303018Y-45772502D01*
X111222426Y-45647926D01*
X111216136Y-45639757D01*
X111072806Y-45482240D01*
X111065273Y-45475215D01*
X110898139Y-45343222D01*
X110889552Y-45337517D01*
X110703117Y-45234599D01*
X110693705Y-45230369D01*
X110492959Y-45159280D01*
X110482988Y-45156646D01*
X110411837Y-45143972D01*
X110398540Y-45145432D01*
X110394000Y-45159989D01*
X110394000Y-47793517D01*
X110398064Y-47807359D01*
X110411478Y-47809393D01*
X110418184Y-47808534D01*
X110428262Y-47806392D01*
X110632255Y-47745191D01*
X110641842Y-47741433D01*
X110833095Y-47647739D01*
X110841945Y-47642464D01*
X111015328Y-47518792D01*
X111023200Y-47512139D01*
X111174052Y-47361812D01*
X111180730Y-47353965D01*
X111308022Y-47176819D01*
X111309279Y-47177722D01*
X111356373Y-47134362D01*
X111426311Y-47122145D01*
X111491751Y-47149678D01*
X111519579Y-47181511D01*
X111579987Y-47280088D01*
X111726250Y-47448938D01*
X111898126Y-47591632D01*
X112091000Y-47704338D01*
X112299692Y-47784030D01*
X112304760Y-47785061D01*
X112304763Y-47785062D01*
X112397075Y-47803843D01*
X112518597Y-47828567D01*
X112523772Y-47828757D01*
X112523774Y-47828757D01*
X112736673Y-47836564D01*
X112736677Y-47836564D01*
X112741837Y-47836753D01*
X112746957Y-47836097D01*
X112746959Y-47836097D01*
X112958288Y-47809025D01*
X112958289Y-47809025D01*
X112963416Y-47808368D01*
X112968367Y-47806883D01*
X112968370Y-47806882D01*
X113009829Y-47794444D01*
X113080825Y-47794028D01*
X113135131Y-47826035D01*
X116834595Y-51525499D01*
X116868621Y-51587811D01*
X116871500Y-51614594D01*
X116871500Y-53855606D01*
X116851498Y-53923727D01*
X116817771Y-53958819D01*
X116665211Y-54065643D01*
X116665208Y-54065645D01*
X116660700Y-54068802D01*
X116498802Y-54230700D01*
X116495645Y-54235208D01*
X116495643Y-54235211D01*
X116440902Y-54313389D01*
X116367477Y-54418251D01*
X116365154Y-54423233D01*
X116365151Y-54423238D01*
X116349195Y-54457457D01*
X116302278Y-54510742D01*
X116234001Y-54530203D01*
X116166041Y-54509661D01*
X116120805Y-54457457D01*
X116104849Y-54423238D01*
X116104846Y-54423233D01*
X116102523Y-54418251D01*
X116029098Y-54313389D01*
X115974357Y-54235211D01*
X115974355Y-54235208D01*
X115971198Y-54230700D01*
X115809300Y-54068802D01*
X115804792Y-54065645D01*
X115804789Y-54065643D01*
X115653115Y-53959440D01*
X115608787Y-53903983D01*
X115599448Y-53860186D01*
X115598562Y-53832002D01*
X115598500Y-53828043D01*
X115598500Y-53800144D01*
X115597996Y-53796153D01*
X115597063Y-53784311D01*
X115596974Y-53781457D01*
X115595674Y-53740111D01*
X115593462Y-53732497D01*
X115593461Y-53732492D01*
X115590023Y-53720659D01*
X115586012Y-53701295D01*
X115584467Y-53689064D01*
X115583474Y-53681203D01*
X115580557Y-53673836D01*
X115580556Y-53673831D01*
X115567198Y-53640092D01*
X115563354Y-53628865D01*
X115553230Y-53594022D01*
X115551018Y-53586407D01*
X115540707Y-53568972D01*
X115532012Y-53551224D01*
X115524552Y-53532383D01*
X115498564Y-53496613D01*
X115492048Y-53486693D01*
X115473580Y-53455465D01*
X115473578Y-53455462D01*
X115469542Y-53448638D01*
X115455221Y-53434317D01*
X115442380Y-53419283D01*
X115435131Y-53409306D01*
X115430472Y-53402893D01*
X115396395Y-53374702D01*
X115387616Y-53366712D01*
X115233599Y-53212695D01*
X115199573Y-53150383D01*
X115204638Y-53079568D01*
X115247185Y-53022732D01*
X115304613Y-52998904D01*
X115335090Y-52994485D01*
X115422133Y-52981864D01*
X115427597Y-52980009D01*
X115427602Y-52980008D01*
X115611249Y-52917669D01*
X115611254Y-52917667D01*
X115616721Y-52915811D01*
X115796012Y-52815403D01*
X115954003Y-52684003D01*
X116085403Y-52526012D01*
X116185811Y-52346721D01*
X116187667Y-52341254D01*
X116187669Y-52341249D01*
X116250008Y-52157602D01*
X116250009Y-52157597D01*
X116251864Y-52152133D01*
X116253291Y-52142297D01*
X116280818Y-51952442D01*
X116281351Y-51948768D01*
X116282890Y-51890000D01*
X116264087Y-51685370D01*
X116236573Y-51587811D01*
X116209878Y-51493157D01*
X116209876Y-51493152D01*
X116208308Y-51487592D01*
X116117421Y-51303292D01*
X116018737Y-51171137D01*
X115997923Y-51143264D01*
X115997922Y-51143263D01*
X115994470Y-51138640D01*
X115866596Y-51020434D01*
X115847812Y-51003070D01*
X115847809Y-51003068D01*
X115843572Y-50999151D01*
X115691230Y-50903031D01*
X115674665Y-50892579D01*
X115674660Y-50892577D01*
X115669781Y-50889498D01*
X115478918Y-50813351D01*
X115277374Y-50773261D01*
X115271599Y-50773185D01*
X115271595Y-50773185D01*
X115170796Y-50771866D01*
X115071899Y-50770571D01*
X114869375Y-50805372D01*
X114863958Y-50807370D01*
X114863952Y-50807372D01*
X114727153Y-50857840D01*
X114676583Y-50876496D01*
X114631982Y-50903031D01*
X114504950Y-50978607D01*
X114504947Y-50978609D01*
X114499982Y-50981563D01*
X114345484Y-51117054D01*
X114341909Y-51121589D01*
X114341908Y-51121590D01*
X114229563Y-51264099D01*
X114218265Y-51278430D01*
X114122585Y-51460289D01*
X114061648Y-51656538D01*
X114060969Y-51662275D01*
X114051520Y-51742109D01*
X114023649Y-51807406D01*
X113964901Y-51847270D01*
X113893927Y-51849044D01*
X113837298Y-51816394D01*
X112693599Y-50672695D01*
X112659573Y-50610383D01*
X112664638Y-50539568D01*
X112707185Y-50482732D01*
X112764613Y-50458904D01*
X112795090Y-50454485D01*
X112882133Y-50441864D01*
X112887597Y-50440009D01*
X112887602Y-50440008D01*
X113071249Y-50377669D01*
X113071254Y-50377667D01*
X113076721Y-50375811D01*
X113256012Y-50275403D01*
X113414003Y-50144003D01*
X113545403Y-49986012D01*
X113645811Y-49806721D01*
X113647667Y-49801254D01*
X113647669Y-49801249D01*
X113710008Y-49617602D01*
X113710009Y-49617597D01*
X113711864Y-49612133D01*
X113712710Y-49606302D01*
X113740818Y-49412442D01*
X113741351Y-49408768D01*
X113742890Y-49350000D01*
X113724087Y-49145370D01*
X113714400Y-49111021D01*
X113669878Y-48953157D01*
X113669876Y-48953152D01*
X113668308Y-48947592D01*
X113577421Y-48763292D01*
X113454470Y-48598640D01*
X113303572Y-48459151D01*
X113212471Y-48401671D01*
X113134665Y-48352579D01*
X113134660Y-48352577D01*
X113129781Y-48349498D01*
X112938918Y-48273351D01*
X112761801Y-48238120D01*
X112743040Y-48234388D01*
X112743039Y-48234388D01*
X112737374Y-48233261D01*
X112731599Y-48233185D01*
X112731595Y-48233185D01*
X112630796Y-48231866D01*
X112531899Y-48230571D01*
X112329375Y-48265372D01*
X112323958Y-48267370D01*
X112323952Y-48267372D01*
X112177800Y-48321290D01*
X112136583Y-48336496D01*
X112114729Y-48349498D01*
X111964950Y-48438607D01*
X111964947Y-48438609D01*
X111959982Y-48441563D01*
X111805484Y-48577054D01*
X111678265Y-48738430D01*
X111582585Y-48920289D01*
X111521648Y-49116538D01*
X111520969Y-49122275D01*
X111511520Y-49202108D01*
X111483649Y-49267405D01*
X111424901Y-49307269D01*
X111353926Y-49309043D01*
X111297298Y-49276393D01*
X109922801Y-47901896D01*
X109888775Y-47839584D01*
X109885949Y-47809146D01*
X109886000Y-47807388D01*
X109886000Y-45158102D01*
X109882082Y-45144758D01*
X109867806Y-45142771D01*
X109829324Y-45148660D01*
X109819288Y-45151051D01*
X109616868Y-45217212D01*
X109607359Y-45221209D01*
X109418463Y-45319542D01*
X109409738Y-45325036D01*
X109239433Y-45452905D01*
X109231726Y-45459748D01*
X109084590Y-45613717D01*
X109078109Y-45621722D01*
X108973498Y-45775074D01*
X108918587Y-45820076D01*
X108848062Y-45828247D01*
X108784315Y-45796993D01*
X108763618Y-45772509D01*
X108682822Y-45647617D01*
X108682820Y-45647614D01*
X108680014Y-45643277D01*
X108529670Y-45478051D01*
X108525619Y-45474852D01*
X108525615Y-45474848D01*
X108358414Y-45342800D01*
X108358410Y-45342798D01*
X108354359Y-45339598D01*
X108318028Y-45319542D01*
X108226970Y-45269276D01*
X108158789Y-45231638D01*
X108153920Y-45229914D01*
X108153916Y-45229912D01*
X107953087Y-45158795D01*
X107953083Y-45158794D01*
X107948212Y-45157069D01*
X107943119Y-45156162D01*
X107943116Y-45156161D01*
X107733373Y-45118800D01*
X107733367Y-45118799D01*
X107728284Y-45117894D01*
X107654452Y-45116992D01*
X107510081Y-45115228D01*
X107510079Y-45115228D01*
X107504911Y-45115165D01*
X107284091Y-45148955D01*
X107071756Y-45218357D01*
X106873607Y-45321507D01*
X106869474Y-45324610D01*
X106869471Y-45324612D01*
X106748726Y-45415270D01*
X106694965Y-45455635D01*
X106540629Y-45617138D01*
X106537720Y-45621403D01*
X106537714Y-45621411D01*
X106525404Y-45639457D01*
X106433204Y-45774618D01*
X106432898Y-45775066D01*
X106377987Y-45820069D01*
X106307462Y-45828240D01*
X106243715Y-45796986D01*
X106223018Y-45772502D01*
X106142426Y-45647926D01*
X106136136Y-45639757D01*
X105992806Y-45482240D01*
X105985273Y-45475215D01*
X105818139Y-45343222D01*
X105809552Y-45337517D01*
X105623117Y-45234599D01*
X105613705Y-45230369D01*
X105412959Y-45159280D01*
X105402988Y-45156646D01*
X105331837Y-45143972D01*
X105318540Y-45145432D01*
X105314000Y-45159989D01*
X105314000Y-47793517D01*
X105318064Y-47807359D01*
X105331478Y-47809393D01*
X105338184Y-47808534D01*
X105348262Y-47806392D01*
X105552255Y-47745191D01*
X105561842Y-47741433D01*
X105753095Y-47647739D01*
X105761945Y-47642464D01*
X105935328Y-47518792D01*
X105943200Y-47512139D01*
X106094052Y-47361812D01*
X106100730Y-47353965D01*
X106228022Y-47176819D01*
X106229279Y-47177722D01*
X106276373Y-47134362D01*
X106346311Y-47122145D01*
X106411751Y-47149678D01*
X106439579Y-47181511D01*
X106499987Y-47280088D01*
X106646250Y-47448938D01*
X106818126Y-47591632D01*
X107011000Y-47704338D01*
X107219692Y-47784030D01*
X107224760Y-47785061D01*
X107224763Y-47785062D01*
X107317075Y-47803843D01*
X107438597Y-47828567D01*
X107443772Y-47828757D01*
X107443774Y-47828757D01*
X107656673Y-47836564D01*
X107656677Y-47836564D01*
X107661837Y-47836753D01*
X107666957Y-47836097D01*
X107666959Y-47836097D01*
X107878288Y-47809025D01*
X107878289Y-47809025D01*
X107883416Y-47808368D01*
X107888367Y-47806883D01*
X107888370Y-47806882D01*
X107929829Y-47794444D01*
X108000825Y-47794028D01*
X108055131Y-47826035D01*
X108880501Y-48651405D01*
X108914527Y-48713717D01*
X108909462Y-48784532D01*
X108866915Y-48841368D01*
X108800395Y-48866179D01*
X108791406Y-48866500D01*
X98239594Y-48866500D01*
X98171473Y-48846498D01*
X98150499Y-48829595D01*
X97222801Y-47901897D01*
X97188775Y-47839585D01*
X97185949Y-47809148D01*
X97186000Y-47807390D01*
X97186000Y-47793517D01*
X97694000Y-47793517D01*
X97698064Y-47807359D01*
X97711478Y-47809393D01*
X97718184Y-47808534D01*
X97728262Y-47806392D01*
X97932255Y-47745191D01*
X97941842Y-47741433D01*
X98133095Y-47647739D01*
X98141945Y-47642464D01*
X98315328Y-47518792D01*
X98323200Y-47512139D01*
X98474052Y-47361812D01*
X98480730Y-47353965D01*
X98608022Y-47176819D01*
X98609147Y-47177627D01*
X98656669Y-47133876D01*
X98726607Y-47121661D01*
X98792046Y-47149197D01*
X98819870Y-47181028D01*
X98877690Y-47275383D01*
X98883777Y-47283699D01*
X99023213Y-47444667D01*
X99030580Y-47451883D01*
X99194434Y-47587916D01*
X99202881Y-47593831D01*
X99386756Y-47701279D01*
X99396042Y-47705729D01*
X99595001Y-47781703D01*
X99604899Y-47784579D01*
X99708250Y-47805606D01*
X99722299Y-47804410D01*
X99726000Y-47794065D01*
X99726000Y-47793517D01*
X100234000Y-47793517D01*
X100238064Y-47807359D01*
X100251478Y-47809393D01*
X100258184Y-47808534D01*
X100268262Y-47806392D01*
X100472255Y-47745191D01*
X100481842Y-47741433D01*
X100673095Y-47647739D01*
X100681945Y-47642464D01*
X100855328Y-47518792D01*
X100863200Y-47512139D01*
X101014052Y-47361812D01*
X101020730Y-47353965D01*
X101148022Y-47176819D01*
X101149147Y-47177627D01*
X101196669Y-47133876D01*
X101266607Y-47121661D01*
X101332046Y-47149197D01*
X101359870Y-47181028D01*
X101417690Y-47275383D01*
X101423777Y-47283699D01*
X101563213Y-47444667D01*
X101570580Y-47451883D01*
X101734434Y-47587916D01*
X101742881Y-47593831D01*
X101926756Y-47701279D01*
X101936042Y-47705729D01*
X102135001Y-47781703D01*
X102144899Y-47784579D01*
X102248250Y-47805606D01*
X102262299Y-47804410D01*
X102266000Y-47794065D01*
X102266000Y-47793517D01*
X102774000Y-47793517D01*
X102778064Y-47807359D01*
X102791478Y-47809393D01*
X102798184Y-47808534D01*
X102808262Y-47806392D01*
X103012255Y-47745191D01*
X103021842Y-47741433D01*
X103213095Y-47647739D01*
X103221945Y-47642464D01*
X103395328Y-47518792D01*
X103403200Y-47512139D01*
X103554052Y-47361812D01*
X103560730Y-47353965D01*
X103688022Y-47176819D01*
X103689147Y-47177627D01*
X103736669Y-47133876D01*
X103806607Y-47121661D01*
X103872046Y-47149197D01*
X103899870Y-47181028D01*
X103957690Y-47275383D01*
X103963777Y-47283699D01*
X104103213Y-47444667D01*
X104110580Y-47451883D01*
X104274434Y-47587916D01*
X104282881Y-47593831D01*
X104466756Y-47701279D01*
X104476042Y-47705729D01*
X104675001Y-47781703D01*
X104684899Y-47784579D01*
X104788250Y-47805606D01*
X104802299Y-47804410D01*
X104806000Y-47794065D01*
X104806000Y-46747115D01*
X104801525Y-46731876D01*
X104800135Y-46730671D01*
X104792452Y-46729000D01*
X102792115Y-46729000D01*
X102776876Y-46733475D01*
X102775671Y-46734865D01*
X102774000Y-46742548D01*
X102774000Y-47793517D01*
X102266000Y-47793517D01*
X102266000Y-46747115D01*
X102261525Y-46731876D01*
X102260135Y-46730671D01*
X102252452Y-46729000D01*
X100252115Y-46729000D01*
X100236876Y-46733475D01*
X100235671Y-46734865D01*
X100234000Y-46742548D01*
X100234000Y-47793517D01*
X99726000Y-47793517D01*
X99726000Y-46747115D01*
X99721525Y-46731876D01*
X99720135Y-46730671D01*
X99712452Y-46729000D01*
X97712115Y-46729000D01*
X97696876Y-46733475D01*
X97695671Y-46734865D01*
X97694000Y-46742548D01*
X97694000Y-47793517D01*
X97186000Y-47793517D01*
X97186000Y-46202885D01*
X97694000Y-46202885D01*
X97698475Y-46218124D01*
X97699865Y-46219329D01*
X97707548Y-46221000D01*
X99707885Y-46221000D01*
X99723124Y-46216525D01*
X99724329Y-46215135D01*
X99726000Y-46207452D01*
X99726000Y-46202885D01*
X100234000Y-46202885D01*
X100238475Y-46218124D01*
X100239865Y-46219329D01*
X100247548Y-46221000D01*
X102247885Y-46221000D01*
X102263124Y-46216525D01*
X102264329Y-46215135D01*
X102266000Y-46207452D01*
X102266000Y-46202885D01*
X102774000Y-46202885D01*
X102778475Y-46218124D01*
X102779865Y-46219329D01*
X102787548Y-46221000D01*
X104787885Y-46221000D01*
X104803124Y-46216525D01*
X104804329Y-46215135D01*
X104806000Y-46207452D01*
X104806000Y-45158102D01*
X104802082Y-45144758D01*
X104787806Y-45142771D01*
X104749324Y-45148660D01*
X104739288Y-45151051D01*
X104536868Y-45217212D01*
X104527359Y-45221209D01*
X104338463Y-45319542D01*
X104329738Y-45325036D01*
X104159433Y-45452905D01*
X104151726Y-45459748D01*
X104004590Y-45613717D01*
X103998104Y-45621727D01*
X103893193Y-45775521D01*
X103838282Y-45820524D01*
X103767757Y-45828695D01*
X103704010Y-45797441D01*
X103683313Y-45772957D01*
X103602427Y-45647926D01*
X103596136Y-45639757D01*
X103452806Y-45482240D01*
X103445273Y-45475215D01*
X103278139Y-45343222D01*
X103269552Y-45337517D01*
X103083117Y-45234599D01*
X103073705Y-45230369D01*
X102872959Y-45159280D01*
X102862988Y-45156646D01*
X102791837Y-45143972D01*
X102778540Y-45145432D01*
X102774000Y-45159989D01*
X102774000Y-46202885D01*
X102266000Y-46202885D01*
X102266000Y-45158102D01*
X102262082Y-45144758D01*
X102247806Y-45142771D01*
X102209324Y-45148660D01*
X102199288Y-45151051D01*
X101996868Y-45217212D01*
X101987359Y-45221209D01*
X101798463Y-45319542D01*
X101789738Y-45325036D01*
X101619433Y-45452905D01*
X101611726Y-45459748D01*
X101464590Y-45613717D01*
X101458104Y-45621727D01*
X101353193Y-45775521D01*
X101298282Y-45820524D01*
X101227757Y-45828695D01*
X101164010Y-45797441D01*
X101143313Y-45772957D01*
X101062427Y-45647926D01*
X101056136Y-45639757D01*
X100912806Y-45482240D01*
X100905273Y-45475215D01*
X100738139Y-45343222D01*
X100729552Y-45337517D01*
X100543117Y-45234599D01*
X100533705Y-45230369D01*
X100332959Y-45159280D01*
X100322988Y-45156646D01*
X100251837Y-45143972D01*
X100238540Y-45145432D01*
X100234000Y-45159989D01*
X100234000Y-46202885D01*
X99726000Y-46202885D01*
X99726000Y-45158102D01*
X99722082Y-45144758D01*
X99707806Y-45142771D01*
X99669324Y-45148660D01*
X99659288Y-45151051D01*
X99456868Y-45217212D01*
X99447359Y-45221209D01*
X99258463Y-45319542D01*
X99249738Y-45325036D01*
X99079433Y-45452905D01*
X99071726Y-45459748D01*
X98924590Y-45613717D01*
X98918104Y-45621727D01*
X98813193Y-45775521D01*
X98758282Y-45820524D01*
X98687757Y-45828695D01*
X98624010Y-45797441D01*
X98603313Y-45772957D01*
X98522427Y-45647926D01*
X98516136Y-45639757D01*
X98372806Y-45482240D01*
X98365273Y-45475215D01*
X98198139Y-45343222D01*
X98189552Y-45337517D01*
X98003117Y-45234599D01*
X97993705Y-45230369D01*
X97792959Y-45159280D01*
X97782988Y-45156646D01*
X97711837Y-45143972D01*
X97698540Y-45145432D01*
X97694000Y-45159989D01*
X97694000Y-46202885D01*
X97186000Y-46202885D01*
X97186000Y-45158102D01*
X97182082Y-45144758D01*
X97167806Y-45142771D01*
X97129324Y-45148660D01*
X97119288Y-45151051D01*
X96916868Y-45217212D01*
X96907359Y-45221209D01*
X96718463Y-45319542D01*
X96709738Y-45325036D01*
X96539433Y-45452905D01*
X96531726Y-45459748D01*
X96384590Y-45613717D01*
X96378109Y-45621722D01*
X96273498Y-45775074D01*
X96218587Y-45820076D01*
X96148062Y-45828247D01*
X96084315Y-45796993D01*
X96063618Y-45772509D01*
X95982822Y-45647617D01*
X95982820Y-45647614D01*
X95980014Y-45643277D01*
X95829670Y-45478051D01*
X95825619Y-45474852D01*
X95825615Y-45474848D01*
X95658414Y-45342800D01*
X95658410Y-45342798D01*
X95654359Y-45339598D01*
X95618028Y-45319542D01*
X95526970Y-45269276D01*
X95458789Y-45231638D01*
X95453920Y-45229914D01*
X95453916Y-45229912D01*
X95253087Y-45158795D01*
X95253083Y-45158794D01*
X95248212Y-45157069D01*
X95243119Y-45156162D01*
X95243116Y-45156161D01*
X95033373Y-45118800D01*
X95033367Y-45118799D01*
X95028284Y-45117894D01*
X94954452Y-45116992D01*
X94810081Y-45115228D01*
X94810079Y-45115228D01*
X94804911Y-45115165D01*
X94584091Y-45148955D01*
X94371756Y-45218357D01*
X94173607Y-45321507D01*
X94169474Y-45324610D01*
X94169471Y-45324612D01*
X94048726Y-45415270D01*
X93994965Y-45455635D01*
X93840629Y-45617138D01*
X93733201Y-45774621D01*
X93678293Y-45819621D01*
X93607768Y-45827792D01*
X93544021Y-45796538D01*
X93523324Y-45772054D01*
X93442822Y-45647617D01*
X93442820Y-45647614D01*
X93440014Y-45643277D01*
X93289670Y-45478051D01*
X93285619Y-45474852D01*
X93285615Y-45474848D01*
X93118414Y-45342800D01*
X93118410Y-45342798D01*
X93114359Y-45339598D01*
X93078028Y-45319542D01*
X92986970Y-45269276D01*
X92918789Y-45231638D01*
X92913920Y-45229914D01*
X92913916Y-45229912D01*
X92713087Y-45158795D01*
X92713083Y-45158794D01*
X92708212Y-45157069D01*
X92703119Y-45156162D01*
X92703116Y-45156161D01*
X92493373Y-45118800D01*
X92493367Y-45118799D01*
X92488284Y-45117894D01*
X92414452Y-45116992D01*
X92270081Y-45115228D01*
X92270079Y-45115228D01*
X92264911Y-45115165D01*
X92044091Y-45148955D01*
X91831756Y-45218357D01*
X91633607Y-45321507D01*
X91629474Y-45324610D01*
X91629471Y-45324612D01*
X91508726Y-45415270D01*
X91454965Y-45455635D01*
X91300629Y-45617138D01*
X91193201Y-45774621D01*
X91138293Y-45819621D01*
X91067768Y-45827792D01*
X91004021Y-45796538D01*
X90983324Y-45772054D01*
X90902822Y-45647617D01*
X90902820Y-45647614D01*
X90900014Y-45643277D01*
X90749670Y-45478051D01*
X90745619Y-45474852D01*
X90745615Y-45474848D01*
X90578414Y-45342800D01*
X90578410Y-45342798D01*
X90574359Y-45339598D01*
X90538028Y-45319542D01*
X90446970Y-45269276D01*
X90378789Y-45231638D01*
X90373920Y-45229914D01*
X90373916Y-45229912D01*
X90173087Y-45158795D01*
X90173083Y-45158794D01*
X90168212Y-45157069D01*
X90163119Y-45156162D01*
X90163116Y-45156161D01*
X89953373Y-45118800D01*
X89953367Y-45118799D01*
X89948284Y-45117894D01*
X89874452Y-45116992D01*
X89730081Y-45115228D01*
X89730079Y-45115228D01*
X89724911Y-45115165D01*
X89504091Y-45148955D01*
X89291756Y-45218357D01*
X89093607Y-45321507D01*
X89089474Y-45324610D01*
X89089471Y-45324612D01*
X88968726Y-45415270D01*
X88914965Y-45455635D01*
X88760629Y-45617138D01*
X88653201Y-45774621D01*
X88598293Y-45819621D01*
X88527768Y-45827792D01*
X88464021Y-45796538D01*
X88443324Y-45772054D01*
X88362822Y-45647617D01*
X88362820Y-45647614D01*
X88360014Y-45643277D01*
X88209670Y-45478051D01*
X88205619Y-45474852D01*
X88205615Y-45474848D01*
X88038414Y-45342800D01*
X88038410Y-45342798D01*
X88034359Y-45339598D01*
X87998028Y-45319542D01*
X87906970Y-45269276D01*
X87838789Y-45231638D01*
X87833920Y-45229914D01*
X87833916Y-45229912D01*
X87633087Y-45158795D01*
X87633083Y-45158794D01*
X87628212Y-45157069D01*
X87623119Y-45156162D01*
X87623116Y-45156161D01*
X87413373Y-45118800D01*
X87413367Y-45118799D01*
X87408284Y-45117894D01*
X87334452Y-45116992D01*
X87190081Y-45115228D01*
X87190079Y-45115228D01*
X87184911Y-45115165D01*
X86964091Y-45148955D01*
X86751756Y-45218357D01*
X86553607Y-45321507D01*
X86549474Y-45324610D01*
X86549471Y-45324612D01*
X86428726Y-45415270D01*
X86374965Y-45455635D01*
X86220629Y-45617138D01*
X86113201Y-45774621D01*
X86058293Y-45819621D01*
X85987768Y-45827792D01*
X85924021Y-45796538D01*
X85903324Y-45772054D01*
X85822822Y-45647617D01*
X85822820Y-45647614D01*
X85820014Y-45643277D01*
X85669670Y-45478051D01*
X85665619Y-45474852D01*
X85665615Y-45474848D01*
X85498414Y-45342800D01*
X85498410Y-45342798D01*
X85494359Y-45339598D01*
X85458028Y-45319542D01*
X85366970Y-45269276D01*
X85298789Y-45231638D01*
X85293920Y-45229914D01*
X85293916Y-45229912D01*
X85093087Y-45158795D01*
X85093083Y-45158794D01*
X85088212Y-45157069D01*
X85083119Y-45156162D01*
X85083116Y-45156161D01*
X84873373Y-45118800D01*
X84873367Y-45118799D01*
X84868284Y-45117894D01*
X84794452Y-45116992D01*
X84650081Y-45115228D01*
X84650079Y-45115228D01*
X84644911Y-45115165D01*
X84424091Y-45148955D01*
X84211756Y-45218357D01*
X84013607Y-45321507D01*
X84009474Y-45324610D01*
X84009471Y-45324612D01*
X83888726Y-45415270D01*
X83834965Y-45455635D01*
X83680629Y-45617138D01*
X83677720Y-45621403D01*
X83677714Y-45621411D01*
X83665404Y-45639457D01*
X83573204Y-45774618D01*
X83572898Y-45775066D01*
X83517987Y-45820069D01*
X83447462Y-45828240D01*
X83383715Y-45796986D01*
X83363018Y-45772502D01*
X83282426Y-45647926D01*
X83276136Y-45639757D01*
X83132806Y-45482240D01*
X83125273Y-45475215D01*
X82958139Y-45343222D01*
X82949552Y-45337517D01*
X82763117Y-45234599D01*
X82753705Y-45230369D01*
X82552959Y-45159280D01*
X82542988Y-45156646D01*
X82471837Y-45143972D01*
X82458540Y-45145432D01*
X82454000Y-45159989D01*
X82454000Y-47793517D01*
X81946000Y-47793517D01*
X81946000Y-46747115D01*
X81941525Y-46731876D01*
X81940135Y-46730671D01*
X81932452Y-46729000D01*
X80883225Y-46729000D01*
X80869694Y-46732973D01*
X80868257Y-46742966D01*
X75900000Y-46742966D01*
X75900000Y-46209183D01*
X80864389Y-46209183D01*
X80865912Y-46217607D01*
X80878292Y-46221000D01*
X81927885Y-46221000D01*
X81943124Y-46216525D01*
X81944329Y-46215135D01*
X81946000Y-46207452D01*
X81946000Y-45158102D01*
X81942082Y-45144758D01*
X81927806Y-45142771D01*
X81889324Y-45148660D01*
X81879288Y-45151051D01*
X81676868Y-45217212D01*
X81667359Y-45221209D01*
X81478463Y-45319542D01*
X81469738Y-45325036D01*
X81299433Y-45452905D01*
X81291726Y-45459748D01*
X81144590Y-45613717D01*
X81138104Y-45621727D01*
X81018098Y-45797649D01*
X81013000Y-45806623D01*
X80923338Y-45999783D01*
X80919775Y-46009470D01*
X80864389Y-46209183D01*
X75900000Y-46209183D01*
X75900000Y-43834000D01*
X75920002Y-43765879D01*
X75973658Y-43719386D01*
X76026000Y-43708000D01*
X128166000Y-43708000D01*
X128234121Y-43728002D01*
G37*
G04 #@! TD.AperFunction*
G04 #@! TA.AperFunction,Conductor*
G36*
X68042121Y-43728002D02*
G01*
X68088614Y-43781658D01*
X68100000Y-43834000D01*
X68100000Y-69390364D01*
X68079998Y-69458485D01*
X68026342Y-69504978D01*
X67956068Y-69515082D01*
X67891488Y-69485588D01*
X67884905Y-69479459D01*
X67734620Y-69329174D01*
X67730112Y-69326017D01*
X67730109Y-69326015D01*
X67558171Y-69205623D01*
X67558168Y-69205621D01*
X67553662Y-69202466D01*
X67548680Y-69200143D01*
X67548675Y-69200140D01*
X67358432Y-69111429D01*
X67358431Y-69111429D01*
X67353450Y-69109106D01*
X67348142Y-69107684D01*
X67348140Y-69107683D01*
X67282748Y-69090161D01*
X67140068Y-69051930D01*
X66920000Y-69032677D01*
X66699932Y-69051930D01*
X66557252Y-69090161D01*
X66491860Y-69107683D01*
X66491858Y-69107684D01*
X66486550Y-69109106D01*
X66481569Y-69111428D01*
X66481568Y-69111429D01*
X66291320Y-69200143D01*
X66291317Y-69200145D01*
X66286339Y-69202466D01*
X66105380Y-69329174D01*
X65949174Y-69485380D01*
X65822466Y-69666339D01*
X65729106Y-69866550D01*
X65671930Y-70079932D01*
X65652677Y-70300000D01*
X65671930Y-70520068D01*
X65729106Y-70733450D01*
X65822466Y-70933661D01*
X65949174Y-71114620D01*
X66105380Y-71270826D01*
X66109888Y-71273983D01*
X66109891Y-71273985D01*
X66281829Y-71394377D01*
X66286338Y-71397534D01*
X66291320Y-71399857D01*
X66291325Y-71399860D01*
X66481568Y-71488571D01*
X66486550Y-71490894D01*
X66491858Y-71492316D01*
X66491860Y-71492317D01*
X66557252Y-71509839D01*
X66699932Y-71548070D01*
X66920000Y-71567323D01*
X67140068Y-71548070D01*
X67282748Y-71509839D01*
X67348140Y-71492317D01*
X67348142Y-71492316D01*
X67353450Y-71490894D01*
X67358432Y-71488571D01*
X67548675Y-71399860D01*
X67548680Y-71399857D01*
X67553662Y-71397534D01*
X67558171Y-71394377D01*
X67730109Y-71273985D01*
X67730112Y-71273983D01*
X67734620Y-71270826D01*
X67884905Y-71120541D01*
X67947217Y-71086515D01*
X68018032Y-71091580D01*
X68074868Y-71134127D01*
X68099679Y-71200647D01*
X68100000Y-71209636D01*
X68100000Y-79966000D01*
X68079998Y-80034121D01*
X68026342Y-80080614D01*
X67974000Y-80092000D01*
X48434000Y-80092000D01*
X48365879Y-80071998D01*
X48319386Y-80018342D01*
X48308000Y-79966000D01*
X48308000Y-77442277D01*
X49037009Y-77442277D01*
X49062625Y-77710769D01*
X49063710Y-77715203D01*
X49063711Y-77715209D01*
X49125645Y-77968312D01*
X49126731Y-77972750D01*
X49227985Y-78222733D01*
X49364265Y-78455482D01*
X49367118Y-78459049D01*
X49484686Y-78606060D01*
X49532716Y-78666119D01*
X49729809Y-78850234D01*
X49951416Y-79003968D01*
X49955499Y-79005999D01*
X49955502Y-79006001D01*
X50071013Y-79063466D01*
X50192894Y-79124101D01*
X50197228Y-79125522D01*
X50197231Y-79125523D01*
X50444853Y-79206698D01*
X50444859Y-79206699D01*
X50449186Y-79208118D01*
X50453677Y-79208898D01*
X50453678Y-79208898D01*
X50711140Y-79253601D01*
X50711148Y-79253602D01*
X50714921Y-79254257D01*
X50718758Y-79254448D01*
X50798578Y-79258422D01*
X50798586Y-79258422D01*
X50800149Y-79258500D01*
X50968512Y-79258500D01*
X50970780Y-79258335D01*
X50970792Y-79258335D01*
X51101884Y-79248823D01*
X51169004Y-79243953D01*
X51173459Y-79242969D01*
X51173462Y-79242969D01*
X51427912Y-79186791D01*
X51427916Y-79186790D01*
X51432372Y-79185806D01*
X51558480Y-79138028D01*
X51680318Y-79091868D01*
X51680321Y-79091867D01*
X51684588Y-79090250D01*
X51920368Y-78959286D01*
X52134773Y-78795657D01*
X52323312Y-78602792D01*
X52482034Y-78384730D01*
X52565190Y-78226676D01*
X52605490Y-78150079D01*
X52605493Y-78150073D01*
X52607615Y-78146039D01*
X52670378Y-77968312D01*
X52695902Y-77896033D01*
X52695902Y-77896032D01*
X52697425Y-77891720D01*
X52749581Y-77627100D01*
X52758782Y-77442277D01*
X52762764Y-77362292D01*
X52762764Y-77362286D01*
X52762991Y-77357723D01*
X52737375Y-77089231D01*
X52692042Y-76903967D01*
X52674355Y-76831688D01*
X52673269Y-76827250D01*
X52572015Y-76577267D01*
X52435735Y-76344518D01*
X52317928Y-76197208D01*
X52270136Y-76137447D01*
X52270135Y-76137445D01*
X52267284Y-76133881D01*
X52070191Y-75949766D01*
X51848584Y-75796032D01*
X51844501Y-75794001D01*
X51844498Y-75793999D01*
X51679606Y-75711967D01*
X51627110Y-75685851D01*
X54886719Y-75685851D01*
X54887235Y-75691995D01*
X54899956Y-75843486D01*
X54903268Y-75882934D01*
X54904967Y-75888858D01*
X54939019Y-76007611D01*
X54957783Y-76073050D01*
X55048187Y-76248956D01*
X55171035Y-76403953D01*
X55321650Y-76532136D01*
X55494294Y-76628624D01*
X55682392Y-76689740D01*
X55878777Y-76713158D01*
X55884912Y-76712686D01*
X55884914Y-76712686D01*
X56069830Y-76698457D01*
X56069834Y-76698456D01*
X56075972Y-76697984D01*
X56266463Y-76644798D01*
X56271967Y-76642018D01*
X56271969Y-76642017D01*
X56437495Y-76558404D01*
X56437497Y-76558403D01*
X56442996Y-76555625D01*
X56598847Y-76433861D01*
X56728078Y-76284145D01*
X56825769Y-76112179D01*
X56888197Y-75924513D01*
X56912985Y-75728295D01*
X56913244Y-75709750D01*
X56913331Y-75703523D01*
X56913331Y-75703520D01*
X56913380Y-75700000D01*
X56894080Y-75503167D01*
X56836916Y-75313831D01*
X56744066Y-75139204D01*
X56673709Y-75052938D01*
X56622960Y-74990713D01*
X56622957Y-74990710D01*
X56619065Y-74985938D01*
X56612724Y-74980692D01*
X56471425Y-74863799D01*
X56471421Y-74863797D01*
X56466675Y-74859870D01*
X56292701Y-74765802D01*
X56103768Y-74707318D01*
X56097643Y-74706674D01*
X56097642Y-74706674D01*
X55913204Y-74687289D01*
X55913202Y-74687289D01*
X55907075Y-74686645D01*
X55824576Y-74694153D01*
X55716251Y-74704011D01*
X55716248Y-74704012D01*
X55710112Y-74704570D01*
X55704206Y-74706308D01*
X55704202Y-74706309D01*
X55599076Y-74737249D01*
X55520381Y-74760410D01*
X55514923Y-74763263D01*
X55514919Y-74763265D01*
X55424147Y-74810720D01*
X55345110Y-74852040D01*
X55190975Y-74975968D01*
X55063846Y-75127474D01*
X55060879Y-75132872D01*
X55060875Y-75132877D01*
X55057397Y-75139204D01*
X54968567Y-75300787D01*
X54966706Y-75306654D01*
X54966705Y-75306656D01*
X54910627Y-75483436D01*
X54908765Y-75489306D01*
X54886719Y-75685851D01*
X51627110Y-75685851D01*
X51607106Y-75675899D01*
X51602772Y-75674478D01*
X51602769Y-75674477D01*
X51355147Y-75593302D01*
X51355141Y-75593301D01*
X51350814Y-75591882D01*
X51346322Y-75591102D01*
X51088860Y-75546399D01*
X51088852Y-75546398D01*
X51085079Y-75545743D01*
X51073817Y-75545182D01*
X51001422Y-75541578D01*
X51001414Y-75541578D01*
X50999851Y-75541500D01*
X50831488Y-75541500D01*
X50829220Y-75541665D01*
X50829208Y-75541665D01*
X50698116Y-75551177D01*
X50630996Y-75556047D01*
X50626541Y-75557031D01*
X50626538Y-75557031D01*
X50372088Y-75613209D01*
X50372084Y-75613210D01*
X50367628Y-75614194D01*
X50241520Y-75661972D01*
X50119682Y-75708132D01*
X50119679Y-75708133D01*
X50115412Y-75709750D01*
X49879632Y-75840714D01*
X49665227Y-76004343D01*
X49476688Y-76197208D01*
X49317966Y-76415270D01*
X49315844Y-76419304D01*
X49194510Y-76649921D01*
X49194507Y-76649927D01*
X49192385Y-76653961D01*
X49190865Y-76658266D01*
X49190863Y-76658270D01*
X49104098Y-76903967D01*
X49102575Y-76908280D01*
X49050419Y-77172900D01*
X49050192Y-77177453D01*
X49050192Y-77177456D01*
X49040991Y-77362292D01*
X49037009Y-77442277D01*
X48308000Y-77442277D01*
X48308000Y-61452134D01*
X51487500Y-61452134D01*
X51494255Y-61514316D01*
X51545385Y-61650705D01*
X51632739Y-61767261D01*
X51749295Y-61854615D01*
X51885684Y-61905745D01*
X51947866Y-61912500D01*
X53552134Y-61912500D01*
X53614316Y-61905745D01*
X53750705Y-61854615D01*
X53867261Y-61767261D01*
X53954615Y-61650705D01*
X54005745Y-61514316D01*
X54010939Y-61466500D01*
X54038180Y-61400939D01*
X54096543Y-61360512D01*
X54167497Y-61358056D01*
X54228515Y-61394351D01*
X54239415Y-61407838D01*
X54279174Y-61464620D01*
X54435380Y-61620826D01*
X54439888Y-61623983D01*
X54439891Y-61623985D01*
X54488314Y-61657891D01*
X54616338Y-61747534D01*
X54621320Y-61749857D01*
X54621325Y-61749860D01*
X54811568Y-61838571D01*
X54816550Y-61840894D01*
X54821858Y-61842316D01*
X54821860Y-61842317D01*
X54847656Y-61849229D01*
X55029932Y-61898070D01*
X55250000Y-61917323D01*
X55470068Y-61898070D01*
X55652344Y-61849229D01*
X55678140Y-61842317D01*
X55678142Y-61842316D01*
X55683450Y-61840894D01*
X55688432Y-61838571D01*
X55878675Y-61749860D01*
X55878680Y-61749857D01*
X55883662Y-61747534D01*
X56011686Y-61657891D01*
X56060109Y-61623985D01*
X56060112Y-61623983D01*
X56064620Y-61620826D01*
X56220826Y-61464620D01*
X56347534Y-61283661D01*
X56440894Y-61083450D01*
X56498070Y-60870068D01*
X56517323Y-60650000D01*
X56498070Y-60429932D01*
X56440894Y-60216550D01*
X56347534Y-60016339D01*
X56220826Y-59835380D01*
X56064620Y-59679174D01*
X56060112Y-59676017D01*
X56060109Y-59676015D01*
X55888171Y-59555623D01*
X55888168Y-59555621D01*
X55883662Y-59552466D01*
X55878680Y-59550143D01*
X55878675Y-59550140D01*
X55688432Y-59461429D01*
X55688431Y-59461429D01*
X55683450Y-59459106D01*
X55678142Y-59457684D01*
X55678140Y-59457683D01*
X55612748Y-59440161D01*
X55470068Y-59401930D01*
X55250000Y-59382677D01*
X55029932Y-59401930D01*
X54887252Y-59440161D01*
X54821860Y-59457683D01*
X54821858Y-59457684D01*
X54816550Y-59459106D01*
X54811569Y-59461428D01*
X54811568Y-59461429D01*
X54621320Y-59550143D01*
X54621317Y-59550145D01*
X54616339Y-59552466D01*
X54435380Y-59679174D01*
X54279174Y-59835380D01*
X54268039Y-59851283D01*
X54239415Y-59892162D01*
X54183958Y-59936491D01*
X54113339Y-59943800D01*
X54049978Y-59911770D01*
X54013993Y-59850568D01*
X54010939Y-59833499D01*
X54006598Y-59793540D01*
X54005745Y-59785684D01*
X53954615Y-59649295D01*
X53867261Y-59532739D01*
X53750705Y-59445385D01*
X53614316Y-59394255D01*
X53552134Y-59387500D01*
X51947866Y-59387500D01*
X51885684Y-59394255D01*
X51749295Y-59445385D01*
X51632739Y-59532739D01*
X51545385Y-59649295D01*
X51494255Y-59785684D01*
X51487500Y-59847866D01*
X51487500Y-61452134D01*
X48308000Y-61452134D01*
X48308000Y-46442277D01*
X49037009Y-46442277D01*
X49062625Y-46710769D01*
X49063710Y-46715203D01*
X49063711Y-46715209D01*
X49125645Y-46968312D01*
X49126731Y-46972750D01*
X49227985Y-47222733D01*
X49364265Y-47455482D01*
X49367118Y-47459049D01*
X49484686Y-47606060D01*
X49532716Y-47666119D01*
X49729809Y-47850234D01*
X49951416Y-48003968D01*
X49955499Y-48005999D01*
X49955502Y-48006001D01*
X50071013Y-48063466D01*
X50192894Y-48124101D01*
X50197228Y-48125522D01*
X50197231Y-48125523D01*
X50444853Y-48206698D01*
X50444859Y-48206699D01*
X50449186Y-48208118D01*
X50453677Y-48208898D01*
X50453678Y-48208898D01*
X50711140Y-48253601D01*
X50711148Y-48253602D01*
X50714921Y-48254257D01*
X50718758Y-48254448D01*
X50798578Y-48258422D01*
X50798586Y-48258422D01*
X50800149Y-48258500D01*
X50968512Y-48258500D01*
X50970780Y-48258335D01*
X50970792Y-48258335D01*
X51101884Y-48248823D01*
X51169004Y-48243953D01*
X51173459Y-48242969D01*
X51173462Y-48242969D01*
X51427912Y-48186791D01*
X51427916Y-48186790D01*
X51432372Y-48185806D01*
X51558480Y-48138028D01*
X51680318Y-48091868D01*
X51680321Y-48091867D01*
X51684588Y-48090250D01*
X51920368Y-47959286D01*
X52134773Y-47795657D01*
X52323312Y-47602792D01*
X52482034Y-47384730D01*
X52565190Y-47226676D01*
X52605490Y-47150079D01*
X52605493Y-47150073D01*
X52607615Y-47146039D01*
X52670378Y-46968312D01*
X52695902Y-46896033D01*
X52695902Y-46896032D01*
X52697425Y-46891720D01*
X52749581Y-46627100D01*
X52758782Y-46442277D01*
X52762764Y-46362292D01*
X52762764Y-46362286D01*
X52762991Y-46357723D01*
X52737375Y-46089231D01*
X52692042Y-45903967D01*
X52674355Y-45831688D01*
X52673269Y-45827250D01*
X52572015Y-45577267D01*
X52435735Y-45344518D01*
X52317928Y-45197208D01*
X52270136Y-45137447D01*
X52270135Y-45137445D01*
X52267284Y-45133881D01*
X52070191Y-44949766D01*
X51848584Y-44796032D01*
X51844501Y-44794001D01*
X51844498Y-44793999D01*
X51679606Y-44711967D01*
X51607106Y-44675899D01*
X51602772Y-44674478D01*
X51602769Y-44674477D01*
X51355147Y-44593302D01*
X51355141Y-44593301D01*
X51350814Y-44591882D01*
X51346322Y-44591102D01*
X51088860Y-44546399D01*
X51088852Y-44546398D01*
X51085079Y-44545743D01*
X51073817Y-44545182D01*
X51001422Y-44541578D01*
X51001414Y-44541578D01*
X50999851Y-44541500D01*
X50831488Y-44541500D01*
X50829220Y-44541665D01*
X50829208Y-44541665D01*
X50698116Y-44551177D01*
X50630996Y-44556047D01*
X50626541Y-44557031D01*
X50626538Y-44557031D01*
X50372088Y-44613209D01*
X50372084Y-44613210D01*
X50367628Y-44614194D01*
X50241520Y-44661972D01*
X50119682Y-44708132D01*
X50119679Y-44708133D01*
X50115412Y-44709750D01*
X49879632Y-44840714D01*
X49665227Y-45004343D01*
X49476688Y-45197208D01*
X49317966Y-45415270D01*
X49315844Y-45419304D01*
X49194510Y-45649921D01*
X49194507Y-45649927D01*
X49192385Y-45653961D01*
X49190865Y-45658266D01*
X49190863Y-45658270D01*
X49104098Y-45903967D01*
X49102575Y-45908280D01*
X49050419Y-46172900D01*
X49050192Y-46177453D01*
X49050192Y-46177456D01*
X49040991Y-46362292D01*
X49037009Y-46442277D01*
X48308000Y-46442277D01*
X48308000Y-43834000D01*
X48328002Y-43765879D01*
X48381658Y-43719386D01*
X48434000Y-43708000D01*
X67974000Y-43708000D01*
X68042121Y-43728002D01*
G37*
G04 #@! TD.AperFunction*
M02*
