%FSLAX45Y45*%
G04 Gerber Fmt 4.5, Leading zero omitted, Abs format (unit mm)*
G04 Created by KiCad (PCBNEW (6.0.0-0)) date 2022-02-23 00:42:36*
%MOMM*%
%LPD*%
G01*
G04 APERTURE LIST*
%TA.AperFunction,Profile*%
%ADD10C,0.100000*%
%TD*%
%ADD11C,0.200000*%
G04 APERTURE END LIST*
D10*
X12880000Y-4320000D02*
X4780000Y-4320000D01*
X4780000Y-8060000D02*
X12880000Y-8060000D01*
X12880000Y-8060000D02*
X12880000Y-4320000D01*
X4780000Y-4320000D02*
X4780000Y-8060000D01*
D11*
X5032619Y-8375476D02*
X5032619Y-8175476D01*
X5080238Y-8175476D01*
X5108810Y-8185000D01*
X5127857Y-8204048D01*
X5137381Y-8223095D01*
X5146905Y-8261190D01*
X5146905Y-8289762D01*
X5137381Y-8327857D01*
X5127857Y-8346905D01*
X5108810Y-8365952D01*
X5080238Y-8375476D01*
X5032619Y-8375476D01*
X5232619Y-8375476D02*
X5232619Y-8242143D01*
X5232619Y-8280238D02*
X5242143Y-8261190D01*
X5251667Y-8251667D01*
X5270714Y-8242143D01*
X5289762Y-8242143D01*
X5356429Y-8375476D02*
X5356429Y-8242143D01*
X5356429Y-8175476D02*
X5346905Y-8185000D01*
X5356429Y-8194524D01*
X5365952Y-8185000D01*
X5356429Y-8175476D01*
X5356429Y-8194524D01*
X5480238Y-8375476D02*
X5461190Y-8365952D01*
X5451667Y-8346905D01*
X5451667Y-8175476D01*
X5585000Y-8375476D02*
X5565952Y-8365952D01*
X5556429Y-8346905D01*
X5556429Y-8175476D01*
X5813571Y-8375476D02*
X5813571Y-8175476D01*
X5880238Y-8318333D01*
X5946905Y-8175476D01*
X5946905Y-8375476D01*
X6127857Y-8375476D02*
X6127857Y-8270714D01*
X6118333Y-8251667D01*
X6099286Y-8242143D01*
X6061190Y-8242143D01*
X6042143Y-8251667D01*
X6127857Y-8365952D02*
X6108809Y-8375476D01*
X6061190Y-8375476D01*
X6042143Y-8365952D01*
X6032619Y-8346905D01*
X6032619Y-8327857D01*
X6042143Y-8308809D01*
X6061190Y-8299286D01*
X6108809Y-8299286D01*
X6127857Y-8289762D01*
X6223095Y-8242143D02*
X6223095Y-8442143D01*
X6223095Y-8251667D02*
X6242143Y-8242143D01*
X6280238Y-8242143D01*
X6299286Y-8251667D01*
X6308809Y-8261190D01*
X6318333Y-8280238D01*
X6318333Y-8337381D01*
X6308809Y-8356428D01*
X6299286Y-8365952D01*
X6280238Y-8375476D01*
X6242143Y-8375476D01*
X6223095Y-8365952D01*
X6404048Y-8356428D02*
X6413571Y-8365952D01*
X6404048Y-8375476D01*
X6394524Y-8365952D01*
X6404048Y-8356428D01*
X6404048Y-8375476D01*
X6404048Y-8251667D02*
X6413571Y-8261190D01*
X6404048Y-8270714D01*
X6394524Y-8261190D01*
X6404048Y-8251667D01*
X6404048Y-8270714D01*
M02*
