G04 #@! TF.GenerationSoftware,KiCad,Pcbnew,(6.0.0-0)*
G04 #@! TF.CreationDate,2022-02-23T00:42:31+01:00*
G04 #@! TF.ProjectId,AC Power Supply,41432050-6f77-4657-9220-537570706c79,rev?*
G04 #@! TF.SameCoordinates,Original*
G04 #@! TF.FileFunction,Legend,Top*
G04 #@! TF.FilePolarity,Positive*
%FSLAX46Y46*%
G04 Gerber Fmt 4.6, Leading zero omitted, Abs format (unit mm)*
G04 Created by KiCad (PCBNEW (6.0.0-0)) date 2022-02-23 00:42:31*
%MOMM*%
%LPD*%
G01*
G04 APERTURE LIST*
G04 Aperture macros list*
%AMRoundRect*
0 Rectangle with rounded corners*
0 $1 Rounding radius*
0 $2 $3 $4 $5 $6 $7 $8 $9 X,Y pos of 4 corners*
0 Add a 4 corners polygon primitive as box body*
4,1,4,$2,$3,$4,$5,$6,$7,$8,$9,$2,$3,0*
0 Add four circle primitives for the rounded corners*
1,1,$1+$1,$2,$3*
1,1,$1+$1,$4,$5*
1,1,$1+$1,$6,$7*
1,1,$1+$1,$8,$9*
0 Add four rect primitives between the rounded corners*
20,1,$1+$1,$2,$3,$4,$5,0*
20,1,$1+$1,$4,$5,$6,$7,0*
20,1,$1+$1,$6,$7,$8,$9,0*
20,1,$1+$1,$8,$9,$2,$3,0*%
G04 Aperture macros list end*
%ADD10C,0.100000*%
%ADD11C,0.150000*%
%ADD12C,0.300000*%
%ADD13C,0.125000*%
%ADD14C,0.120000*%
%ADD15C,0.127000*%
%ADD16C,0.200000*%
%ADD17C,1.219200*%
%ADD18RoundRect,0.250000X0.450000X-0.350000X0.450000X0.350000X-0.450000X0.350000X-0.450000X-0.350000X0*%
%ADD19RoundRect,0.250000X-0.450000X0.350000X-0.450000X-0.350000X0.450000X-0.350000X0.450000X0.350000X0*%
%ADD20RoundRect,0.250000X-0.400000X-0.625000X0.400000X-0.625000X0.400000X0.625000X-0.400000X0.625000X0*%
%ADD21RoundRect,0.250000X-0.475000X0.337500X-0.475000X-0.337500X0.475000X-0.337500X0.475000X0.337500X0*%
%ADD22RoundRect,0.250000X0.475000X-0.337500X0.475000X0.337500X-0.475000X0.337500X-0.475000X-0.337500X0*%
%ADD23RoundRect,0.250000X-0.350000X-0.450000X0.350000X-0.450000X0.350000X0.450000X-0.350000X0.450000X0*%
%ADD24RoundRect,0.250000X0.350000X0.450000X-0.350000X0.450000X-0.350000X-0.450000X0.350000X-0.450000X0*%
%ADD25RoundRect,0.250000X-0.400000X-1.450000X0.400000X-1.450000X0.400000X1.450000X-0.400000X1.450000X0*%
%ADD26RoundRect,0.250000X-0.337500X-0.475000X0.337500X-0.475000X0.337500X0.475000X-0.337500X0.475000X0*%
%ADD27C,4.700000*%
%ADD28RoundRect,0.250000X0.400000X0.625000X-0.400000X0.625000X-0.400000X-0.625000X0.400000X-0.625000X0*%
%ADD29RoundRect,0.250000X0.450000X-0.325000X0.450000X0.325000X-0.450000X0.325000X-0.450000X-0.325000X0*%
%ADD30R,1.799999X0.599999*%
%ADD31R,1.508000X1.508000*%
%ADD32C,1.508000*%
%ADD33R,1.700000X1.700000*%
%ADD34O,1.700000X1.700000*%
%ADD35RoundRect,0.150000X-0.825000X-0.150000X0.825000X-0.150000X0.825000X0.150000X-0.825000X0.150000X0*%
%ADD36RoundRect,0.250000X0.337500X0.475000X-0.337500X0.475000X-0.337500X-0.475000X0.337500X-0.475000X0*%
%ADD37R,1.560000X0.650000*%
%ADD38C,1.500000*%
%ADD39R,1.600000X2.400000*%
%ADD40O,1.600000X2.400000*%
G04 APERTURE END LIST*
D10*
X52633333Y-52883333D02*
X52566666Y-52850000D01*
X52433333Y-52850000D01*
X52366666Y-52883333D01*
X52300000Y-52950000D01*
X52266666Y-53016666D01*
X52266666Y-53150000D01*
X52300000Y-53216666D01*
X52366666Y-53283333D01*
X52433333Y-53316666D01*
X52566666Y-53316666D01*
X52633333Y-53283333D01*
X52500000Y-52616666D02*
X52333333Y-52650000D01*
X52166666Y-52750000D01*
X52066666Y-52916666D01*
X52033333Y-53083333D01*
X52066666Y-53250000D01*
X52166666Y-53416666D01*
X52333333Y-53516666D01*
X52500000Y-53550000D01*
X52666666Y-53516666D01*
X52833333Y-53416666D01*
X52933333Y-53250000D01*
X52966666Y-53083333D01*
X52933333Y-52916666D01*
X52833333Y-52750000D01*
X52666666Y-52650000D01*
X52500000Y-52616666D01*
X53766666Y-52783333D02*
X53800000Y-52750000D01*
X53866666Y-52716666D01*
X54033333Y-52716666D01*
X54100000Y-52750000D01*
X54133333Y-52783333D01*
X54166666Y-52850000D01*
X54166666Y-52916666D01*
X54133333Y-53016666D01*
X53733333Y-53416666D01*
X54166666Y-53416666D01*
X54600000Y-52716666D02*
X54666666Y-52716666D01*
X54733333Y-52750000D01*
X54766666Y-52783333D01*
X54800000Y-52850000D01*
X54833333Y-52983333D01*
X54833333Y-53150000D01*
X54800000Y-53283333D01*
X54766666Y-53350000D01*
X54733333Y-53383333D01*
X54666666Y-53416666D01*
X54600000Y-53416666D01*
X54533333Y-53383333D01*
X54500000Y-53350000D01*
X54466666Y-53283333D01*
X54433333Y-53150000D01*
X54433333Y-52983333D01*
X54466666Y-52850000D01*
X54500000Y-52783333D01*
X54533333Y-52750000D01*
X54600000Y-52716666D01*
X55100000Y-52783333D02*
X55133333Y-52750000D01*
X55200000Y-52716666D01*
X55366666Y-52716666D01*
X55433333Y-52750000D01*
X55466666Y-52783333D01*
X55500000Y-52850000D01*
X55500000Y-52916666D01*
X55466666Y-53016666D01*
X55066666Y-53416666D01*
X55500000Y-53416666D01*
X55766666Y-52783333D02*
X55800000Y-52750000D01*
X55866666Y-52716666D01*
X56033333Y-52716666D01*
X56100000Y-52750000D01*
X56133333Y-52783333D01*
X56166666Y-52850000D01*
X56166666Y-52916666D01*
X56133333Y-53016666D01*
X55733333Y-53416666D01*
X56166666Y-53416666D01*
X57000000Y-53416666D02*
X57000000Y-52716666D01*
X57400000Y-53416666D01*
X57400000Y-52716666D01*
X57733333Y-53416666D02*
X57733333Y-52950000D01*
X57733333Y-52716666D02*
X57700000Y-52750000D01*
X57733333Y-52783333D01*
X57766666Y-52750000D01*
X57733333Y-52716666D01*
X57733333Y-52783333D01*
X58066666Y-53416666D02*
X58066666Y-52716666D01*
X58133333Y-53150000D02*
X58333333Y-53416666D01*
X58333333Y-52950000D02*
X58066666Y-53216666D01*
X58733333Y-53416666D02*
X58666666Y-53383333D01*
X58633333Y-53350000D01*
X58600000Y-53283333D01*
X58600000Y-53083333D01*
X58633333Y-53016666D01*
X58666666Y-52983333D01*
X58733333Y-52950000D01*
X58833333Y-52950000D01*
X58900000Y-52983333D01*
X58933333Y-53016666D01*
X58966666Y-53083333D01*
X58966666Y-53283333D01*
X58933333Y-53350000D01*
X58900000Y-53383333D01*
X58833333Y-53416666D01*
X58733333Y-53416666D01*
X59366666Y-53416666D02*
X59300000Y-53383333D01*
X59266666Y-53316666D01*
X59266666Y-52716666D01*
X59933333Y-53416666D02*
X59933333Y-53050000D01*
X59900000Y-52983333D01*
X59833333Y-52950000D01*
X59700000Y-52950000D01*
X59633333Y-52983333D01*
X59933333Y-53383333D02*
X59866666Y-53416666D01*
X59700000Y-53416666D01*
X59633333Y-53383333D01*
X59600000Y-53316666D01*
X59600000Y-53250000D01*
X59633333Y-53183333D01*
X59700000Y-53150000D01*
X59866666Y-53150000D01*
X59933333Y-53116666D01*
X60266666Y-52950000D02*
X60266666Y-53550000D01*
X60233333Y-53616666D01*
X60166666Y-53650000D01*
X60133333Y-53650000D01*
X60266666Y-52716666D02*
X60233333Y-52750000D01*
X60266666Y-52783333D01*
X60300000Y-52750000D01*
X60266666Y-52716666D01*
X60266666Y-52783333D01*
X61366666Y-53050000D02*
X61466666Y-53083333D01*
X61500000Y-53116666D01*
X61533333Y-53183333D01*
X61533333Y-53283333D01*
X61500000Y-53350000D01*
X61466666Y-53383333D01*
X61400000Y-53416666D01*
X61133333Y-53416666D01*
X61133333Y-52716666D01*
X61366666Y-52716666D01*
X61433333Y-52750000D01*
X61466666Y-52783333D01*
X61500000Y-52850000D01*
X61500000Y-52916666D01*
X61466666Y-52983333D01*
X61433333Y-53016666D01*
X61366666Y-53050000D01*
X61133333Y-53050000D01*
X61833333Y-53416666D02*
X61833333Y-52950000D01*
X61833333Y-53083333D02*
X61866666Y-53016666D01*
X61900000Y-52983333D01*
X61966666Y-52950000D01*
X62033333Y-52950000D01*
X62266666Y-53416666D02*
X62266666Y-52950000D01*
X62266666Y-52716666D02*
X62233333Y-52750000D01*
X62266666Y-52783333D01*
X62300000Y-52750000D01*
X62266666Y-52716666D01*
X62266666Y-52783333D01*
X62600000Y-52950000D02*
X62600000Y-53416666D01*
X62600000Y-53016666D02*
X62633333Y-52983333D01*
X62700000Y-52950000D01*
X62800000Y-52950000D01*
X62866666Y-52983333D01*
X62900000Y-53050000D01*
X62900000Y-53416666D01*
X63533333Y-53383333D02*
X63466666Y-53416666D01*
X63333333Y-53416666D01*
X63266666Y-53383333D01*
X63233333Y-53350000D01*
X63200000Y-53283333D01*
X63200000Y-53083333D01*
X63233333Y-53016666D01*
X63266666Y-52983333D01*
X63333333Y-52950000D01*
X63466666Y-52950000D01*
X63533333Y-52983333D01*
X63833333Y-53416666D02*
X63833333Y-52716666D01*
X64133333Y-53416666D02*
X64133333Y-53050000D01*
X64100000Y-52983333D01*
X64033333Y-52950000D01*
X63933333Y-52950000D01*
X63866666Y-52983333D01*
X63833333Y-53016666D01*
X65200000Y-52716666D02*
X65200000Y-53216666D01*
X65166666Y-53316666D01*
X65100000Y-53383333D01*
X65000000Y-53416666D01*
X64933333Y-53416666D01*
X65900000Y-52950000D02*
X65466666Y-53416666D01*
X65633333Y-53416666D02*
X65566666Y-53383333D01*
X65533333Y-53350000D01*
X65500000Y-53283333D01*
X65500000Y-53083333D01*
X65533333Y-53016666D01*
X65566666Y-52983333D01*
X65633333Y-52950000D01*
X65733333Y-52950000D01*
X65800000Y-52983333D01*
X65833333Y-53016666D01*
X65866666Y-53083333D01*
X65866666Y-53283333D01*
X65833333Y-53350000D01*
X65800000Y-53383333D01*
X65733333Y-53416666D01*
X65633333Y-53416666D01*
X66166666Y-53416666D02*
X66166666Y-52950000D01*
X66166666Y-53083333D02*
X66200000Y-53016666D01*
X66233333Y-52983333D01*
X66300000Y-52950000D01*
X66366666Y-52950000D01*
X66900000Y-52950000D02*
X66900000Y-53516666D01*
X66866666Y-53583333D01*
X66833333Y-53616666D01*
X66766666Y-53650000D01*
X66666666Y-53650000D01*
X66600000Y-53616666D01*
X66900000Y-53383333D02*
X66833333Y-53416666D01*
X66700000Y-53416666D01*
X66633333Y-53383333D01*
X66600000Y-53350000D01*
X66566666Y-53283333D01*
X66566666Y-53083333D01*
X66600000Y-53016666D01*
X66633333Y-52983333D01*
X66700000Y-52950000D01*
X66833333Y-52950000D01*
X66900000Y-52983333D01*
X67500000Y-53383333D02*
X67433333Y-53416666D01*
X67300000Y-53416666D01*
X67233333Y-53383333D01*
X67200000Y-53316666D01*
X67200000Y-53050000D01*
X67233333Y-52983333D01*
X67300000Y-52950000D01*
X67433333Y-52950000D01*
X67500000Y-52983333D01*
X67533333Y-53050000D01*
X67533333Y-53116666D01*
X67200000Y-53183333D01*
X67833333Y-52950000D02*
X67833333Y-53416666D01*
X67833333Y-53016666D02*
X67866666Y-52983333D01*
X67933333Y-52950000D01*
X68033333Y-52950000D01*
X68100000Y-52983333D01*
X68133333Y-53050000D01*
X68133333Y-53416666D01*
X68433333Y-53383333D02*
X68500000Y-53416666D01*
X68633333Y-53416666D01*
X68700000Y-53383333D01*
X68733333Y-53316666D01*
X68733333Y-53283333D01*
X68700000Y-53216666D01*
X68633333Y-53183333D01*
X68533333Y-53183333D01*
X68466666Y-53150000D01*
X68433333Y-53083333D01*
X68433333Y-53050000D01*
X68466666Y-52983333D01*
X68533333Y-52950000D01*
X68633333Y-52950000D01*
X68700000Y-52983333D01*
X69300000Y-53383333D02*
X69233333Y-53416666D01*
X69100000Y-53416666D01*
X69033333Y-53383333D01*
X69000000Y-53316666D01*
X69000000Y-53050000D01*
X69033333Y-52983333D01*
X69100000Y-52950000D01*
X69233333Y-52950000D01*
X69300000Y-52983333D01*
X69333333Y-53050000D01*
X69333333Y-53116666D01*
X69000000Y-53183333D01*
X69633333Y-52950000D02*
X69633333Y-53416666D01*
X69633333Y-53016666D02*
X69666666Y-52983333D01*
X69733333Y-52950000D01*
X69833333Y-52950000D01*
X69900000Y-52983333D01*
X69933333Y-53050000D01*
X69933333Y-53416666D01*
D11*
X56885714Y-51757142D02*
X56585714Y-51328571D01*
X56371428Y-51757142D02*
X56371428Y-50857142D01*
X56714285Y-50857142D01*
X56800000Y-50900000D01*
X56842857Y-50942857D01*
X56885714Y-51028571D01*
X56885714Y-51157142D01*
X56842857Y-51242857D01*
X56800000Y-51285714D01*
X56714285Y-51328571D01*
X56371428Y-51328571D01*
X57614285Y-51714285D02*
X57528571Y-51757142D01*
X57357142Y-51757142D01*
X57271428Y-51714285D01*
X57228571Y-51628571D01*
X57228571Y-51285714D01*
X57271428Y-51200000D01*
X57357142Y-51157142D01*
X57528571Y-51157142D01*
X57614285Y-51200000D01*
X57657142Y-51285714D01*
X57657142Y-51371428D01*
X57228571Y-51457142D01*
X57957142Y-51157142D02*
X58171428Y-51757142D01*
X58385714Y-51157142D01*
X58728571Y-51757142D02*
X58728571Y-51157142D01*
X58728571Y-50857142D02*
X58685714Y-50900000D01*
X58728571Y-50942857D01*
X58771428Y-50900000D01*
X58728571Y-50857142D01*
X58728571Y-50942857D01*
X59114285Y-51714285D02*
X59200000Y-51757142D01*
X59371428Y-51757142D01*
X59457142Y-51714285D01*
X59500000Y-51628571D01*
X59500000Y-51585714D01*
X59457142Y-51500000D01*
X59371428Y-51457142D01*
X59242857Y-51457142D01*
X59157142Y-51414285D01*
X59114285Y-51328571D01*
X59114285Y-51285714D01*
X59157142Y-51200000D01*
X59242857Y-51157142D01*
X59371428Y-51157142D01*
X59457142Y-51200000D01*
X59885714Y-51757142D02*
X59885714Y-51157142D01*
X59885714Y-50857142D02*
X59842857Y-50900000D01*
X59885714Y-50942857D01*
X59928571Y-50900000D01*
X59885714Y-50857142D01*
X59885714Y-50942857D01*
X60442857Y-51757142D02*
X60357142Y-51714285D01*
X60314285Y-51671428D01*
X60271428Y-51585714D01*
X60271428Y-51328571D01*
X60314285Y-51242857D01*
X60357142Y-51200000D01*
X60442857Y-51157142D01*
X60571428Y-51157142D01*
X60657142Y-51200000D01*
X60700000Y-51242857D01*
X60742857Y-51328571D01*
X60742857Y-51585714D01*
X60700000Y-51671428D01*
X60657142Y-51714285D01*
X60571428Y-51757142D01*
X60442857Y-51757142D01*
X61128571Y-51157142D02*
X61128571Y-51757142D01*
X61128571Y-51242857D02*
X61171428Y-51200000D01*
X61257142Y-51157142D01*
X61385714Y-51157142D01*
X61471428Y-51200000D01*
X61514285Y-51285714D01*
X61514285Y-51757142D01*
X63100000Y-51757142D02*
X62585714Y-51757142D01*
X62842857Y-51757142D02*
X62842857Y-50857142D01*
X62757142Y-50985714D01*
X62671428Y-51071428D01*
X62585714Y-51114285D01*
X63485714Y-51671428D02*
X63528571Y-51714285D01*
X63485714Y-51757142D01*
X63442857Y-51714285D01*
X63485714Y-51671428D01*
X63485714Y-51757142D01*
X64385714Y-51757142D02*
X63871428Y-51757142D01*
X64128571Y-51757142D02*
X64128571Y-50857142D01*
X64042857Y-50985714D01*
X63957142Y-51071428D01*
X63871428Y-51114285D01*
X64771428Y-51671428D02*
X64814285Y-51714285D01*
X64771428Y-51757142D01*
X64728571Y-51714285D01*
X64771428Y-51671428D01*
X64771428Y-51757142D01*
X65371428Y-50857142D02*
X65457142Y-50857142D01*
X65542857Y-50900000D01*
X65585714Y-50942857D01*
X65628571Y-51028571D01*
X65671428Y-51200000D01*
X65671428Y-51414285D01*
X65628571Y-51585714D01*
X65585714Y-51671428D01*
X65542857Y-51714285D01*
X65457142Y-51757142D01*
X65371428Y-51757142D01*
X65285714Y-51714285D01*
X65242857Y-51671428D01*
X65200000Y-51585714D01*
X65157142Y-51414285D01*
X65157142Y-51200000D01*
X65200000Y-51028571D01*
X65242857Y-50942857D01*
X65285714Y-50900000D01*
X65371428Y-50857142D01*
D12*
X54000000Y-49650000D02*
X54714285Y-49650000D01*
X53857142Y-50078571D02*
X54357142Y-48578571D01*
X54857142Y-50078571D01*
X56214285Y-49935714D02*
X56142857Y-50007142D01*
X55928571Y-50078571D01*
X55785714Y-50078571D01*
X55571428Y-50007142D01*
X55428571Y-49864285D01*
X55357142Y-49721428D01*
X55285714Y-49435714D01*
X55285714Y-49221428D01*
X55357142Y-48935714D01*
X55428571Y-48792857D01*
X55571428Y-48650000D01*
X55785714Y-48578571D01*
X55928571Y-48578571D01*
X56142857Y-48650000D01*
X56214285Y-48721428D01*
X57785714Y-48578571D02*
X58285714Y-50078571D01*
X58785714Y-48578571D01*
X59500000Y-50078571D02*
X59357142Y-50007142D01*
X59285714Y-49935714D01*
X59214285Y-49792857D01*
X59214285Y-49364285D01*
X59285714Y-49221428D01*
X59357142Y-49150000D01*
X59500000Y-49078571D01*
X59714285Y-49078571D01*
X59857142Y-49150000D01*
X59928571Y-49221428D01*
X60000000Y-49364285D01*
X60000000Y-49792857D01*
X59928571Y-49935714D01*
X59857142Y-50007142D01*
X59714285Y-50078571D01*
X59500000Y-50078571D01*
X60857142Y-50078571D02*
X60714285Y-50007142D01*
X60642857Y-49864285D01*
X60642857Y-48578571D01*
X61214285Y-49078571D02*
X61785714Y-49078571D01*
X61428571Y-48578571D02*
X61428571Y-49864285D01*
X61500000Y-50007142D01*
X61642857Y-50078571D01*
X61785714Y-50078571D01*
X62285714Y-50078571D02*
X62285714Y-49078571D01*
X62285714Y-49221428D02*
X62357142Y-49150000D01*
X62500000Y-49078571D01*
X62714285Y-49078571D01*
X62857142Y-49150000D01*
X62928571Y-49292857D01*
X62928571Y-50078571D01*
X62928571Y-49292857D02*
X63000000Y-49150000D01*
X63142857Y-49078571D01*
X63357142Y-49078571D01*
X63500000Y-49150000D01*
X63571428Y-49292857D01*
X63571428Y-50078571D01*
X64857142Y-50007142D02*
X64714285Y-50078571D01*
X64428571Y-50078571D01*
X64285714Y-50007142D01*
X64214285Y-49864285D01*
X64214285Y-49292857D01*
X64285714Y-49150000D01*
X64428571Y-49078571D01*
X64714285Y-49078571D01*
X64857142Y-49150000D01*
X64928571Y-49292857D01*
X64928571Y-49435714D01*
X64214285Y-49578571D01*
X65357142Y-49078571D02*
X65928571Y-49078571D01*
X65571428Y-48578571D02*
X65571428Y-49864285D01*
X65642857Y-50007142D01*
X65785714Y-50078571D01*
X65928571Y-50078571D01*
X67000000Y-50007142D02*
X66857142Y-50078571D01*
X66571428Y-50078571D01*
X66428571Y-50007142D01*
X66357142Y-49864285D01*
X66357142Y-49292857D01*
X66428571Y-49150000D01*
X66571428Y-49078571D01*
X66857142Y-49078571D01*
X67000000Y-49150000D01*
X67071428Y-49292857D01*
X67071428Y-49435714D01*
X66357142Y-49578571D01*
X67714285Y-50078571D02*
X67714285Y-49078571D01*
X67714285Y-49364285D02*
X67785714Y-49221428D01*
X67857142Y-49150000D01*
X68000000Y-49078571D01*
X68142857Y-49078571D01*
D11*
X88650000Y-70561904D02*
X88688095Y-70485713D01*
X88688095Y-70371428D01*
X88650000Y-70257142D01*
X88573809Y-70180951D01*
X88497619Y-70142856D01*
X88345238Y-70104761D01*
X88230952Y-70104761D01*
X88078571Y-70142856D01*
X88002380Y-70180951D01*
X87926190Y-70257142D01*
X87888095Y-70371428D01*
X87888095Y-70447618D01*
X87926190Y-70561904D01*
X87964285Y-70599999D01*
X88230952Y-70599999D01*
X88230952Y-70447618D01*
X87888095Y-70942856D02*
X88688095Y-70942856D01*
X87888095Y-71399999D01*
X88688095Y-71399999D01*
X87888095Y-71780951D02*
X88688095Y-71780951D01*
X88688095Y-71971428D01*
X88650000Y-72085713D01*
X88573809Y-72161904D01*
X88497619Y-72199999D01*
X88345238Y-72238094D01*
X88230952Y-72238094D01*
X88078571Y-72199999D01*
X88002380Y-72161904D01*
X87926190Y-72085713D01*
X87888095Y-71971428D01*
X87888095Y-71780951D01*
X90742857Y-70142856D02*
X90742857Y-70752380D01*
X90438095Y-70447618D02*
X91047619Y-70447618D01*
X91238095Y-71514285D02*
X91238095Y-71133332D01*
X90857142Y-71095237D01*
X90895238Y-71133332D01*
X90933333Y-71209523D01*
X90933333Y-71399999D01*
X90895238Y-71476189D01*
X90857142Y-71514285D01*
X90780952Y-71552380D01*
X90590476Y-71552380D01*
X90514285Y-71514285D01*
X90476190Y-71476189D01*
X90438095Y-71399999D01*
X90438095Y-71209523D01*
X90476190Y-71133332D01*
X90514285Y-71095237D01*
X91238095Y-71780951D02*
X90438095Y-72047618D01*
X91238095Y-72314285D01*
X55942857Y-55361904D02*
X56209523Y-56161904D01*
X56476190Y-55361904D01*
X56742857Y-56161904D02*
X56742857Y-55361904D01*
X57123809Y-56161904D02*
X57123809Y-55361904D01*
X57580952Y-56161904D01*
X57580952Y-55361904D01*
X57923809Y-55438095D02*
X57961904Y-55400000D01*
X58038095Y-55361904D01*
X58228571Y-55361904D01*
X58304761Y-55400000D01*
X58342857Y-55438095D01*
X58380952Y-55514285D01*
X58380952Y-55590476D01*
X58342857Y-55704761D01*
X57885714Y-56161904D01*
X58380952Y-56161904D01*
X93216666Y-70104761D02*
X93216666Y-70485713D01*
X92988095Y-70028570D02*
X93788095Y-70295237D01*
X92988095Y-70561904D01*
X93788095Y-70980951D02*
X93788095Y-71057142D01*
X93750000Y-71133332D01*
X93711904Y-71171428D01*
X93635714Y-71209523D01*
X93483333Y-71247618D01*
X93292857Y-71247618D01*
X93140476Y-71209523D01*
X93064285Y-71171428D01*
X93026190Y-71133332D01*
X92988095Y-71057142D01*
X92988095Y-70980951D01*
X93026190Y-70904761D01*
X93064285Y-70866666D01*
X93140476Y-70828570D01*
X93292857Y-70790475D01*
X93483333Y-70790475D01*
X93635714Y-70828570D01*
X93711904Y-70866666D01*
X93750000Y-70904761D01*
X93788095Y-70980951D01*
X71971428Y-46507142D02*
X72580952Y-46507142D01*
X72276190Y-46811904D02*
X72276190Y-46202380D01*
X73342857Y-46011904D02*
X72961904Y-46011904D01*
X72923809Y-46392857D01*
X72961904Y-46354761D01*
X73038095Y-46316666D01*
X73228571Y-46316666D01*
X73304761Y-46354761D01*
X73342857Y-46392857D01*
X73380952Y-46469047D01*
X73380952Y-46659523D01*
X73342857Y-46735714D01*
X73304761Y-46773809D01*
X73228571Y-46811904D01*
X73038095Y-46811904D01*
X72961904Y-46773809D01*
X72923809Y-46735714D01*
X73609523Y-46011904D02*
X73876190Y-46811904D01*
X74142857Y-46011904D01*
X95716666Y-70104761D02*
X95716666Y-70485714D01*
X95488095Y-70028571D02*
X96288095Y-70295238D01*
X95488095Y-70561904D01*
X95488095Y-71285714D02*
X95869047Y-71019047D01*
X95488095Y-70828571D02*
X96288095Y-70828571D01*
X96288095Y-71133333D01*
X96250000Y-71209523D01*
X96211904Y-71247619D01*
X96135714Y-71285714D01*
X96021428Y-71285714D01*
X95945238Y-71247619D01*
X95907142Y-71209523D01*
X95869047Y-71133333D01*
X95869047Y-70828571D01*
X95907142Y-71628571D02*
X95907142Y-71895238D01*
X95488095Y-72009523D02*
X95488095Y-71628571D01*
X96288095Y-71628571D01*
X96288095Y-72009523D01*
X95907142Y-72619047D02*
X95907142Y-72352380D01*
X95488095Y-72352380D02*
X96288095Y-72352380D01*
X96288095Y-72733333D01*
X77290476Y-46050000D02*
X77214285Y-46011904D01*
X77100000Y-46011904D01*
X76985714Y-46050000D01*
X76909523Y-46126190D01*
X76871428Y-46202380D01*
X76833333Y-46354761D01*
X76833333Y-46469047D01*
X76871428Y-46621428D01*
X76909523Y-46697619D01*
X76985714Y-46773809D01*
X77100000Y-46811904D01*
X77176190Y-46811904D01*
X77290476Y-46773809D01*
X77328571Y-46735714D01*
X77328571Y-46469047D01*
X77176190Y-46469047D01*
X77671428Y-46811904D02*
X77671428Y-46011904D01*
X78128571Y-46811904D01*
X78128571Y-46011904D01*
X78509523Y-46811904D02*
X78509523Y-46011904D01*
X78700000Y-46011904D01*
X78814285Y-46050000D01*
X78890476Y-46126190D01*
X78928571Y-46202380D01*
X78966666Y-46354761D01*
X78966666Y-46469047D01*
X78928571Y-46621428D01*
X78890476Y-46697619D01*
X78814285Y-46773809D01*
X78700000Y-46811904D01*
X78509523Y-46811904D01*
X51042857Y-55361904D02*
X51309523Y-56161904D01*
X51576190Y-55361904D01*
X51842857Y-56161904D02*
X51842857Y-55361904D01*
X52223809Y-56161904D02*
X52223809Y-55361904D01*
X52680952Y-56161904D01*
X52680952Y-55361904D01*
X53480952Y-56161904D02*
X53023809Y-56161904D01*
X53252380Y-56161904D02*
X53252380Y-55361904D01*
X53176190Y-55476190D01*
X53100000Y-55552380D01*
X53023809Y-55590476D01*
X119423809Y-51561904D02*
X119157142Y-51180952D01*
X118966666Y-51561904D02*
X118966666Y-50761904D01*
X119271428Y-50761904D01*
X119347619Y-50800000D01*
X119385714Y-50838095D01*
X119423809Y-50914285D01*
X119423809Y-51028571D01*
X119385714Y-51104761D01*
X119347619Y-51142857D01*
X119271428Y-51180952D01*
X118966666Y-51180952D01*
X119652380Y-50761904D02*
X119919047Y-51561904D01*
X120185714Y-50761904D01*
X120871428Y-51561904D02*
X120414285Y-51561904D01*
X120642857Y-51561904D02*
X120642857Y-50761904D01*
X120566666Y-50876190D01*
X120490476Y-50952380D01*
X120414285Y-50990476D01*
X114335714Y-66586904D02*
X114069047Y-66205952D01*
X113878571Y-66586904D02*
X113878571Y-65786904D01*
X114183333Y-65786904D01*
X114259523Y-65825000D01*
X114297619Y-65863095D01*
X114335714Y-65939285D01*
X114335714Y-66053571D01*
X114297619Y-66129761D01*
X114259523Y-66167857D01*
X114183333Y-66205952D01*
X113878571Y-66205952D01*
X115097619Y-66586904D02*
X114640476Y-66586904D01*
X114869047Y-66586904D02*
X114869047Y-65786904D01*
X114792857Y-65901190D01*
X114716666Y-65977380D01*
X114640476Y-66015476D01*
X115821428Y-65786904D02*
X115440476Y-65786904D01*
X115402380Y-66167857D01*
X115440476Y-66129761D01*
X115516666Y-66091666D01*
X115707142Y-66091666D01*
X115783333Y-66129761D01*
X115821428Y-66167857D01*
X115859523Y-66244047D01*
X115859523Y-66434523D01*
X115821428Y-66510714D01*
X115783333Y-66548809D01*
X115707142Y-66586904D01*
X115516666Y-66586904D01*
X115440476Y-66548809D01*
X115402380Y-66510714D01*
X121085714Y-79811904D02*
X120819047Y-79430952D01*
X120628571Y-79811904D02*
X120628571Y-79011904D01*
X120933333Y-79011904D01*
X121009523Y-79050000D01*
X121047619Y-79088095D01*
X121085714Y-79164285D01*
X121085714Y-79278571D01*
X121047619Y-79354761D01*
X121009523Y-79392857D01*
X120933333Y-79430952D01*
X120628571Y-79430952D01*
X121847619Y-79811904D02*
X121390476Y-79811904D01*
X121619047Y-79811904D02*
X121619047Y-79011904D01*
X121542857Y-79126190D01*
X121466666Y-79202380D01*
X121390476Y-79240476D01*
X122304761Y-79354761D02*
X122228571Y-79316666D01*
X122190476Y-79278571D01*
X122152380Y-79202380D01*
X122152380Y-79164285D01*
X122190476Y-79088095D01*
X122228571Y-79050000D01*
X122304761Y-79011904D01*
X122457142Y-79011904D01*
X122533333Y-79050000D01*
X122571428Y-79088095D01*
X122609523Y-79164285D01*
X122609523Y-79202380D01*
X122571428Y-79278571D01*
X122533333Y-79316666D01*
X122457142Y-79354761D01*
X122304761Y-79354761D01*
X122228571Y-79392857D01*
X122190476Y-79430952D01*
X122152380Y-79507142D01*
X122152380Y-79659523D01*
X122190476Y-79735714D01*
X122228571Y-79773809D01*
X122304761Y-79811904D01*
X122457142Y-79811904D01*
X122533333Y-79773809D01*
X122571428Y-79735714D01*
X122609523Y-79659523D01*
X122609523Y-79507142D01*
X122571428Y-79430952D01*
X122533333Y-79392857D01*
X122457142Y-79354761D01*
X63566666Y-68961904D02*
X63300000Y-68580952D01*
X63109523Y-68961904D02*
X63109523Y-68161904D01*
X63414285Y-68161904D01*
X63490476Y-68200000D01*
X63528571Y-68238095D01*
X63566666Y-68314285D01*
X63566666Y-68428571D01*
X63528571Y-68504761D01*
X63490476Y-68542857D01*
X63414285Y-68580952D01*
X63109523Y-68580952D01*
X63833333Y-68161904D02*
X64328571Y-68161904D01*
X64061904Y-68466666D01*
X64176190Y-68466666D01*
X64252380Y-68504761D01*
X64290476Y-68542857D01*
X64328571Y-68619047D01*
X64328571Y-68809523D01*
X64290476Y-68885714D01*
X64252380Y-68923809D01*
X64176190Y-68961904D01*
X63947619Y-68961904D01*
X63871428Y-68923809D01*
X63833333Y-68885714D01*
X82735714Y-65360714D02*
X82697619Y-65398809D01*
X82583333Y-65436904D01*
X82507142Y-65436904D01*
X82392857Y-65398809D01*
X82316666Y-65322619D01*
X82278571Y-65246428D01*
X82240476Y-65094047D01*
X82240476Y-64979761D01*
X82278571Y-64827380D01*
X82316666Y-64751190D01*
X82392857Y-64675000D01*
X82507142Y-64636904D01*
X82583333Y-64636904D01*
X82697619Y-64675000D01*
X82735714Y-64713095D01*
X83497619Y-65436904D02*
X83040476Y-65436904D01*
X83269047Y-65436904D02*
X83269047Y-64636904D01*
X83192857Y-64751190D01*
X83116666Y-64827380D01*
X83040476Y-64865476D01*
X83954761Y-64979761D02*
X83878571Y-64941666D01*
X83840476Y-64903571D01*
X83802380Y-64827380D01*
X83802380Y-64789285D01*
X83840476Y-64713095D01*
X83878571Y-64675000D01*
X83954761Y-64636904D01*
X84107142Y-64636904D01*
X84183333Y-64675000D01*
X84221428Y-64713095D01*
X84259523Y-64789285D01*
X84259523Y-64827380D01*
X84221428Y-64903571D01*
X84183333Y-64941666D01*
X84107142Y-64979761D01*
X83954761Y-64979761D01*
X83878571Y-65017857D01*
X83840476Y-65055952D01*
X83802380Y-65132142D01*
X83802380Y-65284523D01*
X83840476Y-65360714D01*
X83878571Y-65398809D01*
X83954761Y-65436904D01*
X84107142Y-65436904D01*
X84183333Y-65398809D01*
X84221428Y-65360714D01*
X84259523Y-65284523D01*
X84259523Y-65132142D01*
X84221428Y-65055952D01*
X84183333Y-65017857D01*
X84107142Y-64979761D01*
X111585714Y-66560714D02*
X111547619Y-66598809D01*
X111433333Y-66636904D01*
X111357142Y-66636904D01*
X111242857Y-66598809D01*
X111166666Y-66522619D01*
X111128571Y-66446428D01*
X111090476Y-66294047D01*
X111090476Y-66179761D01*
X111128571Y-66027380D01*
X111166666Y-65951190D01*
X111242857Y-65875000D01*
X111357142Y-65836904D01*
X111433333Y-65836904D01*
X111547619Y-65875000D01*
X111585714Y-65913095D01*
X112347619Y-66636904D02*
X111890476Y-66636904D01*
X112119047Y-66636904D02*
X112119047Y-65836904D01*
X112042857Y-65951190D01*
X111966666Y-66027380D01*
X111890476Y-66065476D01*
X113109523Y-66636904D02*
X112652380Y-66636904D01*
X112880952Y-66636904D02*
X112880952Y-65836904D01*
X112804761Y-65951190D01*
X112728571Y-66027380D01*
X112652380Y-66065476D01*
X107086904Y-79089285D02*
X106705952Y-79355952D01*
X107086904Y-79546428D02*
X106286904Y-79546428D01*
X106286904Y-79241666D01*
X106325000Y-79165476D01*
X106363095Y-79127380D01*
X106439285Y-79089285D01*
X106553571Y-79089285D01*
X106629761Y-79127380D01*
X106667857Y-79165476D01*
X106705952Y-79241666D01*
X106705952Y-79546428D01*
X107086904Y-78327380D02*
X107086904Y-78784523D01*
X107086904Y-78555952D02*
X106286904Y-78555952D01*
X106401190Y-78632142D01*
X106477380Y-78708333D01*
X106515476Y-78784523D01*
X107086904Y-77565476D02*
X107086904Y-78022619D01*
X107086904Y-77794047D02*
X106286904Y-77794047D01*
X106401190Y-77870238D01*
X106477380Y-77946428D01*
X106515476Y-78022619D01*
X112685714Y-78811904D02*
X112419047Y-78430952D01*
X112228571Y-78811904D02*
X112228571Y-78011904D01*
X112533333Y-78011904D01*
X112609523Y-78050000D01*
X112647619Y-78088095D01*
X112685714Y-78164285D01*
X112685714Y-78278571D01*
X112647619Y-78354761D01*
X112609523Y-78392857D01*
X112533333Y-78430952D01*
X112228571Y-78430952D01*
X113447619Y-78811904D02*
X112990476Y-78811904D01*
X113219047Y-78811904D02*
X113219047Y-78011904D01*
X113142857Y-78126190D01*
X113066666Y-78202380D01*
X112990476Y-78240476D01*
X114133333Y-78278571D02*
X114133333Y-78811904D01*
X113942857Y-77973809D02*
X113752380Y-78545238D01*
X114247619Y-78545238D01*
X71766666Y-68561904D02*
X71500000Y-68180952D01*
X71309523Y-68561904D02*
X71309523Y-67761904D01*
X71614285Y-67761904D01*
X71690476Y-67800000D01*
X71728571Y-67838095D01*
X71766666Y-67914285D01*
X71766666Y-68028571D01*
X71728571Y-68104761D01*
X71690476Y-68142857D01*
X71614285Y-68180952D01*
X71309523Y-68180952D01*
X72223809Y-68104761D02*
X72147619Y-68066666D01*
X72109523Y-68028571D01*
X72071428Y-67952380D01*
X72071428Y-67914285D01*
X72109523Y-67838095D01*
X72147619Y-67800000D01*
X72223809Y-67761904D01*
X72376190Y-67761904D01*
X72452380Y-67800000D01*
X72490476Y-67838095D01*
X72528571Y-67914285D01*
X72528571Y-67952380D01*
X72490476Y-68028571D01*
X72452380Y-68066666D01*
X72376190Y-68104761D01*
X72223809Y-68104761D01*
X72147619Y-68142857D01*
X72109523Y-68180952D01*
X72071428Y-68257142D01*
X72071428Y-68409523D01*
X72109523Y-68485714D01*
X72147619Y-68523809D01*
X72223809Y-68561904D01*
X72376190Y-68561904D01*
X72452380Y-68523809D01*
X72490476Y-68485714D01*
X72528571Y-68409523D01*
X72528571Y-68257142D01*
X72490476Y-68180952D01*
X72452380Y-68142857D01*
X72376190Y-68104761D01*
D13*
X108135714Y-74186904D02*
X107869047Y-73805952D01*
X107678571Y-74186904D02*
X107678571Y-73386904D01*
X107983333Y-73386904D01*
X108059523Y-73425000D01*
X108097619Y-73463095D01*
X108135714Y-73539285D01*
X108135714Y-73653571D01*
X108097619Y-73729761D01*
X108059523Y-73767857D01*
X107983333Y-73805952D01*
X107678571Y-73805952D01*
X108897619Y-74186904D02*
X108440476Y-74186904D01*
X108669047Y-74186904D02*
X108669047Y-73386904D01*
X108592857Y-73501190D01*
X108516666Y-73577380D01*
X108440476Y-73615476D01*
X109278571Y-74186904D02*
X109430952Y-74186904D01*
X109507142Y-74148809D01*
X109545238Y-74110714D01*
X109621428Y-73996428D01*
X109659523Y-73844047D01*
X109659523Y-73539285D01*
X109621428Y-73463095D01*
X109583333Y-73425000D01*
X109507142Y-73386904D01*
X109354761Y-73386904D01*
X109278571Y-73425000D01*
X109240476Y-73463095D01*
X109202380Y-73539285D01*
X109202380Y-73729761D01*
X109240476Y-73805952D01*
X109278571Y-73844047D01*
X109354761Y-73882142D01*
X109507142Y-73882142D01*
X109583333Y-73844047D01*
X109621428Y-73805952D01*
X109659523Y-73729761D01*
D11*
X111936904Y-72064285D02*
X111555952Y-72330952D01*
X111936904Y-72521428D02*
X111136904Y-72521428D01*
X111136904Y-72216666D01*
X111175000Y-72140476D01*
X111213095Y-72102380D01*
X111289285Y-72064285D01*
X111403571Y-72064285D01*
X111479761Y-72102380D01*
X111517857Y-72140476D01*
X111555952Y-72216666D01*
X111555952Y-72521428D01*
X111213095Y-71759523D02*
X111175000Y-71721428D01*
X111136904Y-71645238D01*
X111136904Y-71454761D01*
X111175000Y-71378571D01*
X111213095Y-71340476D01*
X111289285Y-71302380D01*
X111365476Y-71302380D01*
X111479761Y-71340476D01*
X111936904Y-71797619D01*
X111936904Y-71302380D01*
X111136904Y-70807142D02*
X111136904Y-70730952D01*
X111175000Y-70654761D01*
X111213095Y-70616666D01*
X111289285Y-70578571D01*
X111441666Y-70540476D01*
X111632142Y-70540476D01*
X111784523Y-70578571D01*
X111860714Y-70616666D01*
X111898809Y-70654761D01*
X111936904Y-70730952D01*
X111936904Y-70807142D01*
X111898809Y-70883333D01*
X111860714Y-70921428D01*
X111784523Y-70959523D01*
X111632142Y-70997619D01*
X111441666Y-70997619D01*
X111289285Y-70959523D01*
X111213095Y-70921428D01*
X111175000Y-70883333D01*
X111136904Y-70807142D01*
X67854166Y-71785714D02*
X67816071Y-71823809D01*
X67701785Y-71861904D01*
X67625595Y-71861904D01*
X67511309Y-71823809D01*
X67435119Y-71747619D01*
X67397023Y-71671428D01*
X67358928Y-71519047D01*
X67358928Y-71404761D01*
X67397023Y-71252380D01*
X67435119Y-71176190D01*
X67511309Y-71100000D01*
X67625595Y-71061904D01*
X67701785Y-71061904D01*
X67816071Y-71100000D01*
X67854166Y-71138095D01*
X68158928Y-71138095D02*
X68197023Y-71100000D01*
X68273214Y-71061904D01*
X68463690Y-71061904D01*
X68539880Y-71100000D01*
X68577976Y-71138095D01*
X68616071Y-71214285D01*
X68616071Y-71290476D01*
X68577976Y-71404761D01*
X68120833Y-71861904D01*
X68616071Y-71861904D01*
X54766666Y-64541904D02*
X54500000Y-64160952D01*
X54309523Y-64541904D02*
X54309523Y-63741904D01*
X54614285Y-63741904D01*
X54690476Y-63780000D01*
X54728571Y-63818095D01*
X54766666Y-63894285D01*
X54766666Y-64008571D01*
X54728571Y-64084761D01*
X54690476Y-64122857D01*
X54614285Y-64160952D01*
X54309523Y-64160952D01*
X55071428Y-63818095D02*
X55109523Y-63780000D01*
X55185714Y-63741904D01*
X55376190Y-63741904D01*
X55452380Y-63780000D01*
X55490476Y-63818095D01*
X55528571Y-63894285D01*
X55528571Y-63970476D01*
X55490476Y-64084761D01*
X55033333Y-64541904D01*
X55528571Y-64541904D01*
X100541666Y-75285714D02*
X100503571Y-75323809D01*
X100389285Y-75361904D01*
X100313095Y-75361904D01*
X100198809Y-75323809D01*
X100122619Y-75247619D01*
X100084523Y-75171428D01*
X100046428Y-75019047D01*
X100046428Y-74904761D01*
X100084523Y-74752380D01*
X100122619Y-74676190D01*
X100198809Y-74600000D01*
X100313095Y-74561904D01*
X100389285Y-74561904D01*
X100503571Y-74600000D01*
X100541666Y-74638095D01*
X101227380Y-74561904D02*
X101075000Y-74561904D01*
X100998809Y-74600000D01*
X100960714Y-74638095D01*
X100884523Y-74752380D01*
X100846428Y-74904761D01*
X100846428Y-75209523D01*
X100884523Y-75285714D01*
X100922619Y-75323809D01*
X100998809Y-75361904D01*
X101151190Y-75361904D01*
X101227380Y-75323809D01*
X101265476Y-75285714D01*
X101303571Y-75209523D01*
X101303571Y-75019047D01*
X101265476Y-74942857D01*
X101227380Y-74904761D01*
X101151190Y-74866666D01*
X100998809Y-74866666D01*
X100922619Y-74904761D01*
X100884523Y-74942857D01*
X100846428Y-75019047D01*
X106635714Y-76336904D02*
X106369047Y-75955952D01*
X106178571Y-76336904D02*
X106178571Y-75536904D01*
X106483333Y-75536904D01*
X106559523Y-75575000D01*
X106597619Y-75613095D01*
X106635714Y-75689285D01*
X106635714Y-75803571D01*
X106597619Y-75879761D01*
X106559523Y-75917857D01*
X106483333Y-75955952D01*
X106178571Y-75955952D01*
X107397619Y-76336904D02*
X106940476Y-76336904D01*
X107169047Y-76336904D02*
X107169047Y-75536904D01*
X107092857Y-75651190D01*
X107016666Y-75727380D01*
X106940476Y-75765476D01*
X107702380Y-75613095D02*
X107740476Y-75575000D01*
X107816666Y-75536904D01*
X108007142Y-75536904D01*
X108083333Y-75575000D01*
X108121428Y-75613095D01*
X108159523Y-75689285D01*
X108159523Y-75765476D01*
X108121428Y-75879761D01*
X107664285Y-76336904D01*
X108159523Y-76336904D01*
X126235714Y-69935714D02*
X126197619Y-69973809D01*
X126083333Y-70011904D01*
X126007142Y-70011904D01*
X125892857Y-69973809D01*
X125816666Y-69897619D01*
X125778571Y-69821428D01*
X125740476Y-69669047D01*
X125740476Y-69554761D01*
X125778571Y-69402380D01*
X125816666Y-69326190D01*
X125892857Y-69250000D01*
X126007142Y-69211904D01*
X126083333Y-69211904D01*
X126197619Y-69250000D01*
X126235714Y-69288095D01*
X126997619Y-70011904D02*
X126540476Y-70011904D01*
X126769047Y-70011904D02*
X126769047Y-69211904D01*
X126692857Y-69326190D01*
X126616666Y-69402380D01*
X126540476Y-69440476D01*
X127492857Y-69211904D02*
X127569047Y-69211904D01*
X127645238Y-69250000D01*
X127683333Y-69288095D01*
X127721428Y-69364285D01*
X127759523Y-69516666D01*
X127759523Y-69707142D01*
X127721428Y-69859523D01*
X127683333Y-69935714D01*
X127645238Y-69973809D01*
X127569047Y-70011904D01*
X127492857Y-70011904D01*
X127416666Y-69973809D01*
X127378571Y-69935714D01*
X127340476Y-69859523D01*
X127302380Y-69707142D01*
X127302380Y-69516666D01*
X127340476Y-69364285D01*
X127378571Y-69288095D01*
X127416666Y-69250000D01*
X127492857Y-69211904D01*
X105685714Y-66510714D02*
X105647619Y-66548809D01*
X105533333Y-66586904D01*
X105457142Y-66586904D01*
X105342857Y-66548809D01*
X105266666Y-66472619D01*
X105228571Y-66396428D01*
X105190476Y-66244047D01*
X105190476Y-66129761D01*
X105228571Y-65977380D01*
X105266666Y-65901190D01*
X105342857Y-65825000D01*
X105457142Y-65786904D01*
X105533333Y-65786904D01*
X105647619Y-65825000D01*
X105685714Y-65863095D01*
X106447619Y-66586904D02*
X105990476Y-66586904D01*
X106219047Y-66586904D02*
X106219047Y-65786904D01*
X106142857Y-65901190D01*
X106066666Y-65977380D01*
X105990476Y-66015476D01*
X107171428Y-65786904D02*
X106790476Y-65786904D01*
X106752380Y-66167857D01*
X106790476Y-66129761D01*
X106866666Y-66091666D01*
X107057142Y-66091666D01*
X107133333Y-66129761D01*
X107171428Y-66167857D01*
X107209523Y-66244047D01*
X107209523Y-66434523D01*
X107171428Y-66510714D01*
X107133333Y-66548809D01*
X107057142Y-66586904D01*
X106866666Y-66586904D01*
X106790476Y-66548809D01*
X106752380Y-66510714D01*
X51266666Y-71461904D02*
X51000000Y-71080952D01*
X50809523Y-71461904D02*
X50809523Y-70661904D01*
X51114285Y-70661904D01*
X51190476Y-70700000D01*
X51228571Y-70738095D01*
X51266666Y-70814285D01*
X51266666Y-70928571D01*
X51228571Y-71004761D01*
X51190476Y-71042857D01*
X51114285Y-71080952D01*
X50809523Y-71080952D01*
X51952380Y-70661904D02*
X51800000Y-70661904D01*
X51723809Y-70700000D01*
X51685714Y-70738095D01*
X51609523Y-70852380D01*
X51571428Y-71004761D01*
X51571428Y-71309523D01*
X51609523Y-71385714D01*
X51647619Y-71423809D01*
X51723809Y-71461904D01*
X51876190Y-71461904D01*
X51952380Y-71423809D01*
X51990476Y-71385714D01*
X52028571Y-71309523D01*
X52028571Y-71119047D01*
X51990476Y-71042857D01*
X51952380Y-71004761D01*
X51876190Y-70966666D01*
X51723809Y-70966666D01*
X51647619Y-71004761D01*
X51609523Y-71042857D01*
X51571428Y-71119047D01*
X63491666Y-66286904D02*
X63225000Y-65905952D01*
X63034523Y-66286904D02*
X63034523Y-65486904D01*
X63339285Y-65486904D01*
X63415476Y-65525000D01*
X63453571Y-65563095D01*
X63491666Y-65639285D01*
X63491666Y-65753571D01*
X63453571Y-65829761D01*
X63415476Y-65867857D01*
X63339285Y-65905952D01*
X63034523Y-65905952D01*
X64253571Y-66286904D02*
X63796428Y-66286904D01*
X64025000Y-66286904D02*
X64025000Y-65486904D01*
X63948809Y-65601190D01*
X63872619Y-65677380D01*
X63796428Y-65715476D01*
X74316666Y-65385714D02*
X74278571Y-65423809D01*
X74164285Y-65461904D01*
X74088095Y-65461904D01*
X73973809Y-65423809D01*
X73897619Y-65347619D01*
X73859523Y-65271428D01*
X73821428Y-65119047D01*
X73821428Y-65004761D01*
X73859523Y-64852380D01*
X73897619Y-64776190D01*
X73973809Y-64700000D01*
X74088095Y-64661904D01*
X74164285Y-64661904D01*
X74278571Y-64700000D01*
X74316666Y-64738095D01*
X74583333Y-64661904D02*
X75078571Y-64661904D01*
X74811904Y-64966666D01*
X74926190Y-64966666D01*
X75002380Y-65004761D01*
X75040476Y-65042857D01*
X75078571Y-65119047D01*
X75078571Y-65309523D01*
X75040476Y-65385714D01*
X75002380Y-65423809D01*
X74926190Y-65461904D01*
X74697619Y-65461904D01*
X74621428Y-65423809D01*
X74583333Y-65385714D01*
X126285714Y-73436904D02*
X126019047Y-73055952D01*
X125828571Y-73436904D02*
X125828571Y-72636904D01*
X126133333Y-72636904D01*
X126209523Y-72675000D01*
X126247619Y-72713095D01*
X126285714Y-72789285D01*
X126285714Y-72903571D01*
X126247619Y-72979761D01*
X126209523Y-73017857D01*
X126133333Y-73055952D01*
X125828571Y-73055952D01*
X127047619Y-73436904D02*
X126590476Y-73436904D01*
X126819047Y-73436904D02*
X126819047Y-72636904D01*
X126742857Y-72751190D01*
X126666666Y-72827380D01*
X126590476Y-72865476D01*
X127733333Y-72636904D02*
X127580952Y-72636904D01*
X127504761Y-72675000D01*
X127466666Y-72713095D01*
X127390476Y-72827380D01*
X127352380Y-72979761D01*
X127352380Y-73284523D01*
X127390476Y-73360714D01*
X127428571Y-73398809D01*
X127504761Y-73436904D01*
X127657142Y-73436904D01*
X127733333Y-73398809D01*
X127771428Y-73360714D01*
X127809523Y-73284523D01*
X127809523Y-73094047D01*
X127771428Y-73017857D01*
X127733333Y-72979761D01*
X127657142Y-72941666D01*
X127504761Y-72941666D01*
X127428571Y-72979761D01*
X127390476Y-73017857D01*
X127352380Y-73094047D01*
X102316666Y-70386904D02*
X101935714Y-70386904D01*
X101935714Y-69586904D01*
X103002380Y-70386904D02*
X102545238Y-70386904D01*
X102773809Y-70386904D02*
X102773809Y-69586904D01*
X102697619Y-69701190D01*
X102621428Y-69777380D01*
X102545238Y-69815476D01*
X82085714Y-49611904D02*
X81819047Y-49230952D01*
X81628571Y-49611904D02*
X81628571Y-48811904D01*
X81933333Y-48811904D01*
X82009523Y-48850000D01*
X82047619Y-48888095D01*
X82085714Y-48964285D01*
X82085714Y-49078571D01*
X82047619Y-49154761D01*
X82009523Y-49192857D01*
X81933333Y-49230952D01*
X81628571Y-49230952D01*
X82390476Y-48888095D02*
X82428571Y-48850000D01*
X82504761Y-48811904D01*
X82695238Y-48811904D01*
X82771428Y-48850000D01*
X82809523Y-48888095D01*
X82847619Y-48964285D01*
X82847619Y-49040476D01*
X82809523Y-49154761D01*
X82352380Y-49611904D01*
X82847619Y-49611904D01*
X83609523Y-49611904D02*
X83152380Y-49611904D01*
X83380952Y-49611904D02*
X83380952Y-48811904D01*
X83304761Y-48926190D01*
X83228571Y-49002380D01*
X83152380Y-49040476D01*
X70319047Y-72561904D02*
X70319047Y-71761904D01*
X71157142Y-72485714D02*
X71119047Y-72523809D01*
X71004761Y-72561904D01*
X70928571Y-72561904D01*
X70814285Y-72523809D01*
X70738095Y-72447619D01*
X70700000Y-72371428D01*
X70661904Y-72219047D01*
X70661904Y-72104761D01*
X70700000Y-71952380D01*
X70738095Y-71876190D01*
X70814285Y-71800000D01*
X70928571Y-71761904D01*
X71004761Y-71761904D01*
X71119047Y-71800000D01*
X71157142Y-71838095D01*
X71919047Y-72561904D02*
X71461904Y-72561904D01*
X71690476Y-72561904D02*
X71690476Y-71761904D01*
X71614285Y-71876190D01*
X71538095Y-71952380D01*
X71461904Y-71990476D01*
X63328571Y-56411904D02*
X63328571Y-55611904D01*
X63633333Y-55611904D01*
X63709523Y-55650000D01*
X63747619Y-55688095D01*
X63785714Y-55764285D01*
X63785714Y-55878571D01*
X63747619Y-55954761D01*
X63709523Y-55992857D01*
X63633333Y-56030952D01*
X63328571Y-56030952D01*
X64090476Y-56373809D02*
X64204761Y-56411904D01*
X64395238Y-56411904D01*
X64471428Y-56373809D01*
X64509523Y-56335714D01*
X64547619Y-56259523D01*
X64547619Y-56183333D01*
X64509523Y-56107142D01*
X64471428Y-56069047D01*
X64395238Y-56030952D01*
X64242857Y-55992857D01*
X64166666Y-55954761D01*
X64128571Y-55916666D01*
X64090476Y-55840476D01*
X64090476Y-55764285D01*
X64128571Y-55688095D01*
X64166666Y-55650000D01*
X64242857Y-55611904D01*
X64433333Y-55611904D01*
X64547619Y-55650000D01*
X65309523Y-56411904D02*
X64852380Y-56411904D01*
X65080952Y-56411904D02*
X65080952Y-55611904D01*
X65004761Y-55726190D01*
X64928571Y-55802380D01*
X64852380Y-55840476D01*
X51266666Y-69361904D02*
X51000000Y-68980952D01*
X50809523Y-69361904D02*
X50809523Y-68561904D01*
X51114285Y-68561904D01*
X51190476Y-68600000D01*
X51228571Y-68638095D01*
X51266666Y-68714285D01*
X51266666Y-68828571D01*
X51228571Y-68904761D01*
X51190476Y-68942857D01*
X51114285Y-68980952D01*
X50809523Y-68980952D01*
X51952380Y-68828571D02*
X51952380Y-69361904D01*
X51761904Y-68523809D02*
X51571428Y-69095238D01*
X52066666Y-69095238D01*
X97766904Y-68116666D02*
X98338333Y-68116666D01*
X98452619Y-68154761D01*
X98528809Y-68230952D01*
X98566904Y-68345238D01*
X98566904Y-68421428D01*
X98033571Y-67392857D02*
X98566904Y-67392857D01*
X97728809Y-67583333D02*
X98300238Y-67773809D01*
X98300238Y-67278571D01*
X109516666Y-76985714D02*
X109478571Y-77023809D01*
X109364285Y-77061904D01*
X109288095Y-77061904D01*
X109173809Y-77023809D01*
X109097619Y-76947619D01*
X109059523Y-76871428D01*
X109021428Y-76719047D01*
X109021428Y-76604761D01*
X109059523Y-76452380D01*
X109097619Y-76376190D01*
X109173809Y-76300000D01*
X109288095Y-76261904D01*
X109364285Y-76261904D01*
X109478571Y-76300000D01*
X109516666Y-76338095D01*
X109897619Y-77061904D02*
X110050000Y-77061904D01*
X110126190Y-77023809D01*
X110164285Y-76985714D01*
X110240476Y-76871428D01*
X110278571Y-76719047D01*
X110278571Y-76414285D01*
X110240476Y-76338095D01*
X110202380Y-76300000D01*
X110126190Y-76261904D01*
X109973809Y-76261904D01*
X109897619Y-76300000D01*
X109859523Y-76338095D01*
X109821428Y-76414285D01*
X109821428Y-76604761D01*
X109859523Y-76680952D01*
X109897619Y-76719047D01*
X109973809Y-76757142D01*
X110126190Y-76757142D01*
X110202380Y-76719047D01*
X110240476Y-76680952D01*
X110278571Y-76604761D01*
X49383333Y-59811904D02*
X49383333Y-60383333D01*
X49345238Y-60497619D01*
X49269047Y-60573809D01*
X49154761Y-60611904D01*
X49078571Y-60611904D01*
X49726190Y-59888095D02*
X49764285Y-59850000D01*
X49840476Y-59811904D01*
X50030952Y-59811904D01*
X50107142Y-59850000D01*
X50145238Y-59888095D01*
X50183333Y-59964285D01*
X50183333Y-60040476D01*
X50145238Y-60154761D01*
X49688095Y-60611904D01*
X50183333Y-60611904D01*
D13*
X119619047Y-66661904D02*
X119619047Y-65861904D01*
X120457142Y-66585714D02*
X120419047Y-66623809D01*
X120304761Y-66661904D01*
X120228571Y-66661904D01*
X120114285Y-66623809D01*
X120038095Y-66547619D01*
X120000000Y-66471428D01*
X119961904Y-66319047D01*
X119961904Y-66204761D01*
X120000000Y-66052380D01*
X120038095Y-65976190D01*
X120114285Y-65900000D01*
X120228571Y-65861904D01*
X120304761Y-65861904D01*
X120419047Y-65900000D01*
X120457142Y-65938095D01*
X120761904Y-65938095D02*
X120800000Y-65900000D01*
X120876190Y-65861904D01*
X121066666Y-65861904D01*
X121142857Y-65900000D01*
X121180952Y-65938095D01*
X121219047Y-66014285D01*
X121219047Y-66090476D01*
X121180952Y-66204761D01*
X120723809Y-66661904D01*
X121219047Y-66661904D01*
D11*
X94166666Y-76961904D02*
X93900000Y-76580952D01*
X93709523Y-76961904D02*
X93709523Y-76161904D01*
X94014285Y-76161904D01*
X94090476Y-76200000D01*
X94128571Y-76238095D01*
X94166666Y-76314285D01*
X94166666Y-76428571D01*
X94128571Y-76504761D01*
X94090476Y-76542857D01*
X94014285Y-76580952D01*
X93709523Y-76580952D01*
X94547619Y-76961904D02*
X94700000Y-76961904D01*
X94776190Y-76923809D01*
X94814285Y-76885714D01*
X94890476Y-76771428D01*
X94928571Y-76619047D01*
X94928571Y-76314285D01*
X94890476Y-76238095D01*
X94852380Y-76200000D01*
X94776190Y-76161904D01*
X94623809Y-76161904D01*
X94547619Y-76200000D01*
X94509523Y-76238095D01*
X94471428Y-76314285D01*
X94471428Y-76504761D01*
X94509523Y-76580952D01*
X94547619Y-76619047D01*
X94623809Y-76657142D01*
X94776190Y-76657142D01*
X94852380Y-76619047D01*
X94890476Y-76580952D01*
X94928571Y-76504761D01*
X100010714Y-69935714D02*
X99972619Y-69973809D01*
X99858333Y-70011904D01*
X99782142Y-70011904D01*
X99667857Y-69973809D01*
X99591666Y-69897619D01*
X99553571Y-69821428D01*
X99515476Y-69669047D01*
X99515476Y-69554761D01*
X99553571Y-69402380D01*
X99591666Y-69326190D01*
X99667857Y-69250000D01*
X99782142Y-69211904D01*
X99858333Y-69211904D01*
X99972619Y-69250000D01*
X100010714Y-69288095D01*
X100772619Y-70011904D02*
X100315476Y-70011904D01*
X100544047Y-70011904D02*
X100544047Y-69211904D01*
X100467857Y-69326190D01*
X100391666Y-69402380D01*
X100315476Y-69440476D01*
X101039285Y-69211904D02*
X101572619Y-69211904D01*
X101229761Y-70011904D01*
X69164166Y-65235714D02*
X69126071Y-65273809D01*
X69011785Y-65311904D01*
X68935595Y-65311904D01*
X68821309Y-65273809D01*
X68745119Y-65197619D01*
X68707023Y-65121428D01*
X68668928Y-64969047D01*
X68668928Y-64854761D01*
X68707023Y-64702380D01*
X68745119Y-64626190D01*
X68821309Y-64550000D01*
X68935595Y-64511904D01*
X69011785Y-64511904D01*
X69126071Y-64550000D01*
X69164166Y-64588095D01*
X69926071Y-65311904D02*
X69468928Y-65311904D01*
X69697500Y-65311904D02*
X69697500Y-64511904D01*
X69621309Y-64626190D01*
X69545119Y-64702380D01*
X69468928Y-64740476D01*
X118710714Y-79710714D02*
X118672619Y-79748809D01*
X118558333Y-79786904D01*
X118482142Y-79786904D01*
X118367857Y-79748809D01*
X118291666Y-79672619D01*
X118253571Y-79596428D01*
X118215476Y-79444047D01*
X118215476Y-79329761D01*
X118253571Y-79177380D01*
X118291666Y-79101190D01*
X118367857Y-79025000D01*
X118482142Y-78986904D01*
X118558333Y-78986904D01*
X118672619Y-79025000D01*
X118710714Y-79063095D01*
X119472619Y-79786904D02*
X119015476Y-79786904D01*
X119244047Y-79786904D02*
X119244047Y-78986904D01*
X119167857Y-79101190D01*
X119091666Y-79177380D01*
X119015476Y-79215476D01*
X119777380Y-79063095D02*
X119815476Y-79025000D01*
X119891666Y-78986904D01*
X120082142Y-78986904D01*
X120158333Y-79025000D01*
X120196428Y-79063095D01*
X120234523Y-79139285D01*
X120234523Y-79215476D01*
X120196428Y-79329761D01*
X119739285Y-79786904D01*
X120234523Y-79786904D01*
X99435714Y-71985714D02*
X99397619Y-72023809D01*
X99283333Y-72061904D01*
X99207142Y-72061904D01*
X99092857Y-72023809D01*
X99016666Y-71947619D01*
X98978571Y-71871428D01*
X98940476Y-71719047D01*
X98940476Y-71604761D01*
X98978571Y-71452380D01*
X99016666Y-71376190D01*
X99092857Y-71300000D01*
X99207142Y-71261904D01*
X99283333Y-71261904D01*
X99397619Y-71300000D01*
X99435714Y-71338095D01*
X100197619Y-72061904D02*
X99740476Y-72061904D01*
X99969047Y-72061904D02*
X99969047Y-71261904D01*
X99892857Y-71376190D01*
X99816666Y-71452380D01*
X99740476Y-71490476D01*
X100883333Y-71528571D02*
X100883333Y-72061904D01*
X100692857Y-71223809D02*
X100502380Y-71795238D01*
X100997619Y-71795238D01*
X111741666Y-73485714D02*
X111703571Y-73523809D01*
X111589285Y-73561904D01*
X111513095Y-73561904D01*
X111398809Y-73523809D01*
X111322619Y-73447619D01*
X111284523Y-73371428D01*
X111246428Y-73219047D01*
X111246428Y-73104761D01*
X111284523Y-72952380D01*
X111322619Y-72876190D01*
X111398809Y-72800000D01*
X111513095Y-72761904D01*
X111589285Y-72761904D01*
X111703571Y-72800000D01*
X111741666Y-72838095D01*
X112198809Y-73104761D02*
X112122619Y-73066666D01*
X112084523Y-73028571D01*
X112046428Y-72952380D01*
X112046428Y-72914285D01*
X112084523Y-72838095D01*
X112122619Y-72800000D01*
X112198809Y-72761904D01*
X112351190Y-72761904D01*
X112427380Y-72800000D01*
X112465476Y-72838095D01*
X112503571Y-72914285D01*
X112503571Y-72952380D01*
X112465476Y-73028571D01*
X112427380Y-73066666D01*
X112351190Y-73104761D01*
X112198809Y-73104761D01*
X112122619Y-73142857D01*
X112084523Y-73180952D01*
X112046428Y-73257142D01*
X112046428Y-73409523D01*
X112084523Y-73485714D01*
X112122619Y-73523809D01*
X112198809Y-73561904D01*
X112351190Y-73561904D01*
X112427380Y-73523809D01*
X112465476Y-73485714D01*
X112503571Y-73409523D01*
X112503571Y-73257142D01*
X112465476Y-73180952D01*
X112427380Y-73142857D01*
X112351190Y-73104761D01*
X110885714Y-74761904D02*
X110619047Y-74380952D01*
X110428571Y-74761904D02*
X110428571Y-73961904D01*
X110733333Y-73961904D01*
X110809523Y-74000000D01*
X110847619Y-74038095D01*
X110885714Y-74114285D01*
X110885714Y-74228571D01*
X110847619Y-74304761D01*
X110809523Y-74342857D01*
X110733333Y-74380952D01*
X110428571Y-74380952D01*
X111647619Y-74761904D02*
X111190476Y-74761904D01*
X111419047Y-74761904D02*
X111419047Y-73961904D01*
X111342857Y-74076190D01*
X111266666Y-74152380D01*
X111190476Y-74190476D01*
X111914285Y-73961904D02*
X112409523Y-73961904D01*
X112142857Y-74266666D01*
X112257142Y-74266666D01*
X112333333Y-74304761D01*
X112371428Y-74342857D01*
X112409523Y-74419047D01*
X112409523Y-74609523D01*
X112371428Y-74685714D01*
X112333333Y-74723809D01*
X112257142Y-74761904D01*
X112028571Y-74761904D01*
X111952380Y-74723809D01*
X111914285Y-74685714D01*
X108235714Y-51210714D02*
X108197619Y-51248809D01*
X108083333Y-51286904D01*
X108007142Y-51286904D01*
X107892857Y-51248809D01*
X107816666Y-51172619D01*
X107778571Y-51096428D01*
X107740476Y-50944047D01*
X107740476Y-50829761D01*
X107778571Y-50677380D01*
X107816666Y-50601190D01*
X107892857Y-50525000D01*
X108007142Y-50486904D01*
X108083333Y-50486904D01*
X108197619Y-50525000D01*
X108235714Y-50563095D01*
X108997619Y-51286904D02*
X108540476Y-51286904D01*
X108769047Y-51286904D02*
X108769047Y-50486904D01*
X108692857Y-50601190D01*
X108616666Y-50677380D01*
X108540476Y-50715476D01*
X109683333Y-50486904D02*
X109530952Y-50486904D01*
X109454761Y-50525000D01*
X109416666Y-50563095D01*
X109340476Y-50677380D01*
X109302380Y-50829761D01*
X109302380Y-51134523D01*
X109340476Y-51210714D01*
X109378571Y-51248809D01*
X109454761Y-51286904D01*
X109607142Y-51286904D01*
X109683333Y-51248809D01*
X109721428Y-51210714D01*
X109759523Y-51134523D01*
X109759523Y-50944047D01*
X109721428Y-50867857D01*
X109683333Y-50829761D01*
X109607142Y-50791666D01*
X109454761Y-50791666D01*
X109378571Y-50829761D01*
X109340476Y-50867857D01*
X109302380Y-50944047D01*
D13*
X108660714Y-66460714D02*
X108622619Y-66498809D01*
X108508333Y-66536904D01*
X108432142Y-66536904D01*
X108317857Y-66498809D01*
X108241666Y-66422619D01*
X108203571Y-66346428D01*
X108165476Y-66194047D01*
X108165476Y-66079761D01*
X108203571Y-65927380D01*
X108241666Y-65851190D01*
X108317857Y-65775000D01*
X108432142Y-65736904D01*
X108508333Y-65736904D01*
X108622619Y-65775000D01*
X108660714Y-65813095D01*
X109422619Y-66536904D02*
X108965476Y-66536904D01*
X109194047Y-66536904D02*
X109194047Y-65736904D01*
X109117857Y-65851190D01*
X109041666Y-65927380D01*
X108965476Y-65965476D01*
X109689285Y-65736904D02*
X110184523Y-65736904D01*
X109917857Y-66041666D01*
X110032142Y-66041666D01*
X110108333Y-66079761D01*
X110146428Y-66117857D01*
X110184523Y-66194047D01*
X110184523Y-66384523D01*
X110146428Y-66460714D01*
X110108333Y-66498809D01*
X110032142Y-66536904D01*
X109803571Y-66536904D01*
X109727380Y-66498809D01*
X109689285Y-66460714D01*
X101419047Y-71661904D02*
X101419047Y-70861904D01*
X102257142Y-71585714D02*
X102219047Y-71623809D01*
X102104761Y-71661904D01*
X102028571Y-71661904D01*
X101914285Y-71623809D01*
X101838095Y-71547619D01*
X101800000Y-71471428D01*
X101761904Y-71319047D01*
X101761904Y-71204761D01*
X101800000Y-71052380D01*
X101838095Y-70976190D01*
X101914285Y-70900000D01*
X102028571Y-70861904D01*
X102104761Y-70861904D01*
X102219047Y-70900000D01*
X102257142Y-70938095D01*
X102523809Y-70861904D02*
X103019047Y-70861904D01*
X102752380Y-71166666D01*
X102866666Y-71166666D01*
X102942857Y-71204761D01*
X102980952Y-71242857D01*
X103019047Y-71319047D01*
X103019047Y-71509523D01*
X102980952Y-71585714D01*
X102942857Y-71623809D01*
X102866666Y-71661904D01*
X102638095Y-71661904D01*
X102561904Y-71623809D01*
X102523809Y-71585714D01*
D11*
X86994047Y-51780952D02*
X86994047Y-52161904D01*
X86727380Y-51361904D02*
X86994047Y-51780952D01*
X87260714Y-51361904D01*
X87946428Y-52161904D02*
X87489285Y-52161904D01*
X87717857Y-52161904D02*
X87717857Y-51361904D01*
X87641666Y-51476190D01*
X87565476Y-51552380D01*
X87489285Y-51590476D01*
X77516666Y-72885714D02*
X77478571Y-72923809D01*
X77364285Y-72961904D01*
X77288095Y-72961904D01*
X77173809Y-72923809D01*
X77097619Y-72847619D01*
X77059523Y-72771428D01*
X77021428Y-72619047D01*
X77021428Y-72504761D01*
X77059523Y-72352380D01*
X77097619Y-72276190D01*
X77173809Y-72200000D01*
X77288095Y-72161904D01*
X77364285Y-72161904D01*
X77478571Y-72200000D01*
X77516666Y-72238095D01*
X78240476Y-72161904D02*
X77859523Y-72161904D01*
X77821428Y-72542857D01*
X77859523Y-72504761D01*
X77935714Y-72466666D01*
X78126190Y-72466666D01*
X78202380Y-72504761D01*
X78240476Y-72542857D01*
X78278571Y-72619047D01*
X78278571Y-72809523D01*
X78240476Y-72885714D01*
X78202380Y-72923809D01*
X78126190Y-72961904D01*
X77935714Y-72961904D01*
X77859523Y-72923809D01*
X77821428Y-72885714D01*
X60966666Y-73361904D02*
X60700000Y-72980952D01*
X60509523Y-73361904D02*
X60509523Y-72561904D01*
X60814285Y-72561904D01*
X60890476Y-72600000D01*
X60928571Y-72638095D01*
X60966666Y-72714285D01*
X60966666Y-72828571D01*
X60928571Y-72904761D01*
X60890476Y-72942857D01*
X60814285Y-72980952D01*
X60509523Y-72980952D01*
X61690476Y-72561904D02*
X61309523Y-72561904D01*
X61271428Y-72942857D01*
X61309523Y-72904761D01*
X61385714Y-72866666D01*
X61576190Y-72866666D01*
X61652380Y-72904761D01*
X61690476Y-72942857D01*
X61728571Y-73019047D01*
X61728571Y-73209523D01*
X61690476Y-73285714D01*
X61652380Y-73323809D01*
X61576190Y-73361904D01*
X61385714Y-73361904D01*
X61309523Y-73323809D01*
X61271428Y-73285714D01*
X123085714Y-74136904D02*
X122819047Y-73755952D01*
X122628571Y-74136904D02*
X122628571Y-73336904D01*
X122933333Y-73336904D01*
X123009523Y-73375000D01*
X123047619Y-73413095D01*
X123085714Y-73489285D01*
X123085714Y-73603571D01*
X123047619Y-73679761D01*
X123009523Y-73717857D01*
X122933333Y-73755952D01*
X122628571Y-73755952D01*
X123847619Y-74136904D02*
X123390476Y-74136904D01*
X123619047Y-74136904D02*
X123619047Y-73336904D01*
X123542857Y-73451190D01*
X123466666Y-73527380D01*
X123390476Y-73565476D01*
X124114285Y-73336904D02*
X124647619Y-73336904D01*
X124304761Y-74136904D01*
X77491666Y-68560714D02*
X77453571Y-68598809D01*
X77339285Y-68636904D01*
X77263095Y-68636904D01*
X77148809Y-68598809D01*
X77072619Y-68522619D01*
X77034523Y-68446428D01*
X76996428Y-68294047D01*
X76996428Y-68179761D01*
X77034523Y-68027380D01*
X77072619Y-67951190D01*
X77148809Y-67875000D01*
X77263095Y-67836904D01*
X77339285Y-67836904D01*
X77453571Y-67875000D01*
X77491666Y-67913095D01*
X78177380Y-68103571D02*
X78177380Y-68636904D01*
X77986904Y-67798809D02*
X77796428Y-68370238D01*
X78291666Y-68370238D01*
X82910714Y-52810714D02*
X82872619Y-52848809D01*
X82758333Y-52886904D01*
X82682142Y-52886904D01*
X82567857Y-52848809D01*
X82491666Y-52772619D01*
X82453571Y-52696428D01*
X82415476Y-52544047D01*
X82415476Y-52429761D01*
X82453571Y-52277380D01*
X82491666Y-52201190D01*
X82567857Y-52125000D01*
X82682142Y-52086904D01*
X82758333Y-52086904D01*
X82872619Y-52125000D01*
X82910714Y-52163095D01*
X83672619Y-52886904D02*
X83215476Y-52886904D01*
X83444047Y-52886904D02*
X83444047Y-52086904D01*
X83367857Y-52201190D01*
X83291666Y-52277380D01*
X83215476Y-52315476D01*
X84053571Y-52886904D02*
X84205952Y-52886904D01*
X84282142Y-52848809D01*
X84320238Y-52810714D01*
X84396428Y-52696428D01*
X84434523Y-52544047D01*
X84434523Y-52239285D01*
X84396428Y-52163095D01*
X84358333Y-52125000D01*
X84282142Y-52086904D01*
X84129761Y-52086904D01*
X84053571Y-52125000D01*
X84015476Y-52163095D01*
X83977380Y-52239285D01*
X83977380Y-52429761D01*
X84015476Y-52505952D01*
X84053571Y-52544047D01*
X84129761Y-52582142D01*
X84282142Y-52582142D01*
X84358333Y-52544047D01*
X84396428Y-52505952D01*
X84434523Y-52429761D01*
X91294047Y-53411904D02*
X91294047Y-52611904D01*
X92132142Y-53335714D02*
X92094047Y-53373809D01*
X91979761Y-53411904D01*
X91903571Y-53411904D01*
X91789285Y-53373809D01*
X91713095Y-53297619D01*
X91675000Y-53221428D01*
X91636904Y-53069047D01*
X91636904Y-52954761D01*
X91675000Y-52802380D01*
X91713095Y-52726190D01*
X91789285Y-52650000D01*
X91903571Y-52611904D01*
X91979761Y-52611904D01*
X92094047Y-52650000D01*
X92132142Y-52688095D01*
X92817857Y-52878571D02*
X92817857Y-53411904D01*
X92627380Y-52573809D02*
X92436904Y-53145238D01*
X92932142Y-53145238D01*
X93460714Y-78961904D02*
X93194047Y-78580952D01*
X93003571Y-78961904D02*
X93003571Y-78161904D01*
X93308333Y-78161904D01*
X93384523Y-78200000D01*
X93422619Y-78238095D01*
X93460714Y-78314285D01*
X93460714Y-78428571D01*
X93422619Y-78504761D01*
X93384523Y-78542857D01*
X93308333Y-78580952D01*
X93003571Y-78580952D01*
X94222619Y-78961904D02*
X93765476Y-78961904D01*
X93994047Y-78961904D02*
X93994047Y-78161904D01*
X93917857Y-78276190D01*
X93841666Y-78352380D01*
X93765476Y-78390476D01*
X94717857Y-78161904D02*
X94794047Y-78161904D01*
X94870238Y-78200000D01*
X94908333Y-78238095D01*
X94946428Y-78314285D01*
X94984523Y-78466666D01*
X94984523Y-78657142D01*
X94946428Y-78809523D01*
X94908333Y-78885714D01*
X94870238Y-78923809D01*
X94794047Y-78961904D01*
X94717857Y-78961904D01*
X94641666Y-78923809D01*
X94603571Y-78885714D01*
X94565476Y-78809523D01*
X94527380Y-78657142D01*
X94527380Y-78466666D01*
X94565476Y-78314285D01*
X94603571Y-78238095D01*
X94641666Y-78200000D01*
X94717857Y-78161904D01*
X76358333Y-54571904D02*
X76358333Y-55143333D01*
X76320238Y-55257619D01*
X76244047Y-55333809D01*
X76129761Y-55371904D01*
X76053571Y-55371904D01*
X76663095Y-54571904D02*
X77158333Y-54571904D01*
X76891666Y-54876666D01*
X77005952Y-54876666D01*
X77082142Y-54914761D01*
X77120238Y-54952857D01*
X77158333Y-55029047D01*
X77158333Y-55219523D01*
X77120238Y-55295714D01*
X77082142Y-55333809D01*
X77005952Y-55371904D01*
X76777380Y-55371904D01*
X76701190Y-55333809D01*
X76663095Y-55295714D01*
X54166666Y-74061904D02*
X53900000Y-73680952D01*
X53709523Y-74061904D02*
X53709523Y-73261904D01*
X54014285Y-73261904D01*
X54090476Y-73300000D01*
X54128571Y-73338095D01*
X54166666Y-73414285D01*
X54166666Y-73528571D01*
X54128571Y-73604761D01*
X54090476Y-73642857D01*
X54014285Y-73680952D01*
X53709523Y-73680952D01*
X54433333Y-73261904D02*
X54966666Y-73261904D01*
X54623809Y-74061904D01*
X117166666Y-75460714D02*
X117128571Y-75498809D01*
X117014285Y-75536904D01*
X116938095Y-75536904D01*
X116823809Y-75498809D01*
X116747619Y-75422619D01*
X116709523Y-75346428D01*
X116671428Y-75194047D01*
X116671428Y-75079761D01*
X116709523Y-74927380D01*
X116747619Y-74851190D01*
X116823809Y-74775000D01*
X116938095Y-74736904D01*
X117014285Y-74736904D01*
X117128571Y-74775000D01*
X117166666Y-74813095D01*
X117433333Y-74736904D02*
X117966666Y-74736904D01*
X117623809Y-75536904D01*
D14*
X115922000Y-47572000D02*
G75*
G03*
X115922000Y-47572000I-127000J0D01*
G01*
X111858000Y-53160000D02*
X118462000Y-53160000D01*
X117003739Y-48715000D02*
X113316261Y-48715000D01*
X118462000Y-53160000D02*
X118462000Y-49904401D01*
X111858000Y-49904401D02*
X111858000Y-53160000D01*
X115285000Y-69027064D02*
X115285000Y-68572936D01*
X113815000Y-69027064D02*
X113815000Y-68572936D01*
X122135000Y-76572936D02*
X122135000Y-77027064D01*
X120665000Y-76572936D02*
X120665000Y-77027064D01*
X59572936Y-69410000D02*
X61027064Y-69410000D01*
X59572936Y-67590000D02*
X61027064Y-67590000D01*
X82640000Y-61838748D02*
X82640000Y-62361252D01*
X84110000Y-61838748D02*
X84110000Y-62361252D01*
X113135000Y-69111252D02*
X113135000Y-68588748D01*
X111665000Y-69111252D02*
X111665000Y-68588748D01*
X103847936Y-77110000D02*
X104302064Y-77110000D01*
X103847936Y-75640000D02*
X104302064Y-75640000D01*
X113852064Y-76015000D02*
X113397936Y-76015000D01*
X113852064Y-77485000D02*
X113397936Y-77485000D01*
X66413748Y-66390000D02*
X69186252Y-66390000D01*
X66413748Y-69810000D02*
X69186252Y-69810000D01*
X109527064Y-71465000D02*
X109072936Y-71465000D01*
X109527064Y-72935000D02*
X109072936Y-72935000D01*
X109527064Y-70835000D02*
X109072936Y-70835000D01*
X109527064Y-69365000D02*
X109072936Y-69365000D01*
X64988748Y-70665000D02*
X65511252Y-70665000D01*
X64988748Y-72135000D02*
X65511252Y-72135000D01*
X54172936Y-65090000D02*
X55627064Y-65090000D01*
X54172936Y-66910000D02*
X55627064Y-66910000D01*
X101510000Y-77213748D02*
X101510000Y-77736252D01*
X100040000Y-77213748D02*
X100040000Y-77736252D01*
X103847936Y-77840000D02*
X104302064Y-77840000D01*
X103847936Y-79310000D02*
X104302064Y-79310000D01*
X125888748Y-68685000D02*
X126411252Y-68685000D01*
X125888748Y-67215000D02*
X126411252Y-67215000D01*
X106935000Y-69061252D02*
X106935000Y-68538748D01*
X105465000Y-69061252D02*
X105465000Y-68538748D01*
X54172936Y-70090000D02*
X55627064Y-70090000D01*
X54172936Y-71910000D02*
X55627064Y-71910000D01*
X61027064Y-65090000D02*
X59572936Y-65090000D01*
X61027064Y-66910000D02*
X59572936Y-66910000D01*
X77038748Y-64165000D02*
X77561252Y-64165000D01*
X77038748Y-65635000D02*
X77561252Y-65635000D01*
X126302064Y-70665000D02*
X125847936Y-70665000D01*
X126302064Y-72135000D02*
X125847936Y-72135000D01*
X103290000Y-69061252D02*
X103290000Y-68538748D01*
X104710000Y-69061252D02*
X104710000Y-68538748D01*
X85522936Y-49985000D02*
X85977064Y-49985000D01*
X85522936Y-48515000D02*
X85977064Y-48515000D01*
X65509556Y-78844999D02*
X71459556Y-78844999D01*
X64684556Y-72945001D02*
X71459556Y-72945001D01*
X62234556Y-73395000D02*
X64684556Y-73395000D01*
X64684556Y-73395000D02*
X64684556Y-72945001D01*
D15*
X60775000Y-63000000D02*
X60775000Y-57000000D01*
X80425000Y-63000000D02*
X79300000Y-63000000D01*
X60775000Y-57000000D02*
X80425000Y-57000000D01*
X80425000Y-57000000D02*
X80425000Y-63000000D01*
X64400000Y-63000000D02*
X60775000Y-63000000D01*
D16*
X81200000Y-62100000D02*
G75*
G03*
X81200000Y-62100000I-100000J0D01*
G01*
D14*
X55627064Y-67590000D02*
X54172936Y-67590000D01*
X55627064Y-69410000D02*
X54172936Y-69410000D01*
X95875000Y-66520000D02*
X97205000Y-66520000D01*
X97205000Y-66520000D02*
X97205000Y-67850000D01*
X94605000Y-69180000D02*
X86925000Y-69180000D01*
X94605000Y-66520000D02*
X94605000Y-69180000D01*
X86925000Y-66520000D02*
X86925000Y-69180000D01*
X94605000Y-66520000D02*
X86925000Y-66520000D01*
X109413748Y-77640000D02*
X109936252Y-77640000D01*
X109413748Y-79110000D02*
X109936252Y-79110000D01*
D15*
X58300000Y-57250000D02*
X58300000Y-63000000D01*
X50900000Y-63000000D02*
X50900000Y-57250000D01*
X50900000Y-57250000D02*
X58300000Y-57250000D01*
X58300000Y-63000000D02*
X50900000Y-63000000D01*
D16*
X53450000Y-56625000D02*
G75*
G03*
X53450000Y-56625000I-100000J0D01*
G01*
D14*
X120350000Y-67090000D02*
X116900000Y-67090000D01*
X120350000Y-67090000D02*
X122300000Y-67090000D01*
X120350000Y-72210000D02*
X122300000Y-72210000D01*
X120350000Y-72210000D02*
X118400000Y-72210000D01*
X97097936Y-75640000D02*
X97552064Y-75640000D01*
X97097936Y-77110000D02*
X97552064Y-77110000D01*
X101161252Y-67265000D02*
X100638748Y-67265000D01*
X101161252Y-68735000D02*
X100638748Y-68735000D01*
X66298748Y-65635000D02*
X66821252Y-65635000D01*
X66298748Y-64165000D02*
X66821252Y-64165000D01*
X119985000Y-76538748D02*
X119985000Y-77061252D01*
X118515000Y-76538748D02*
X118515000Y-77061252D01*
X99738748Y-72565000D02*
X100261252Y-72565000D01*
X99738748Y-74035000D02*
X100261252Y-74035000D01*
X114711252Y-71265000D02*
X114188748Y-71265000D01*
X114711252Y-72735000D02*
X114188748Y-72735000D01*
X114677064Y-73515000D02*
X114222936Y-73515000D01*
X114677064Y-74985000D02*
X114222936Y-74985000D01*
X108638748Y-53435000D02*
X109161252Y-53435000D01*
X108638748Y-51965000D02*
X109161252Y-51965000D01*
X109038748Y-68635000D02*
X109561252Y-68635000D01*
X109038748Y-67165000D02*
X109561252Y-67165000D01*
X105700000Y-71690000D02*
X103900000Y-71690000D01*
X103900000Y-74910000D02*
X106850000Y-74910000D01*
X89950000Y-55415000D02*
X89950000Y-61815000D01*
X84900000Y-55415000D02*
X84900000Y-61815000D01*
X84900000Y-61815000D02*
G75*
G03*
X89950000Y-61815000I2525000J0D01*
G01*
X89950000Y-55415000D02*
G75*
G03*
X84900000Y-55415000I-2525000J0D01*
G01*
X75061252Y-72169556D02*
X74538748Y-72169556D01*
X75061252Y-70699556D02*
X74538748Y-70699556D01*
X61027064Y-71910000D02*
X59572936Y-71910000D01*
X61027064Y-70090000D02*
X59572936Y-70090000D01*
X120272936Y-74435000D02*
X120727064Y-74435000D01*
X120272936Y-72965000D02*
X120727064Y-72965000D01*
X75061252Y-68465000D02*
X74538748Y-68465000D01*
X75061252Y-69935000D02*
X74538748Y-69935000D01*
X82640000Y-55411252D02*
X82640000Y-54888748D01*
X84110000Y-55411252D02*
X84110000Y-54888748D01*
X90775000Y-57035000D02*
X90775000Y-61535000D01*
X90715000Y-64535000D02*
X126515000Y-64535000D01*
X126455000Y-57035000D02*
X90775000Y-57035000D01*
X126455000Y-61535000D02*
X126455000Y-60285000D01*
X90775000Y-61535000D02*
X126455000Y-61535000D01*
X126515000Y-64535000D02*
X126515000Y-54035000D01*
X90715000Y-54035000D02*
X90715000Y-64535000D01*
X126515000Y-54035000D02*
X90715000Y-54035000D01*
X126455000Y-58285000D02*
X126455000Y-57035000D01*
X126455000Y-58285000D02*
G75*
G03*
X126455000Y-60285000I0J-1000000D01*
G01*
X97097936Y-79310000D02*
X97552064Y-79310000D01*
X97097936Y-77840000D02*
X97552064Y-77840000D01*
D15*
X79550000Y-53750000D02*
X72150000Y-53750000D01*
X72150000Y-48000000D02*
X79550000Y-48000000D01*
X72150000Y-53750000D02*
X72150000Y-48000000D01*
X79550000Y-48000000D02*
X79550000Y-53750000D01*
D16*
X74700000Y-47375000D02*
G75*
G03*
X74700000Y-47375000I-100000J0D01*
G01*
D14*
X57072936Y-72590000D02*
X58527064Y-72590000D01*
X57072936Y-74410000D02*
X58527064Y-74410000D01*
X117385000Y-77388748D02*
X117385000Y-77911252D01*
X115915000Y-77388748D02*
X115915000Y-77911252D01*
%LPC*%
D17*
X112620000Y-49350000D03*
X115160000Y-51890000D03*
X117700000Y-49350000D03*
D18*
X114550000Y-69800000D03*
X114550000Y-67800000D03*
D19*
X121400000Y-75800000D03*
X121400000Y-77800000D03*
D20*
X58750000Y-68500000D03*
X61850000Y-68500000D03*
D21*
X83375000Y-61062500D03*
X83375000Y-63137500D03*
D22*
X112400000Y-69887500D03*
X112400000Y-67812500D03*
D23*
X103075000Y-76375000D03*
X105075000Y-76375000D03*
D24*
X114625000Y-76750000D03*
X112625000Y-76750000D03*
D25*
X65575000Y-68100000D03*
X70025000Y-68100000D03*
D24*
X110300000Y-72200000D03*
X108300000Y-72200000D03*
X110300000Y-70100000D03*
X108300000Y-70100000D03*
D26*
X64212500Y-71400000D03*
X66287500Y-71400000D03*
D20*
X53350000Y-66000000D03*
X56450000Y-66000000D03*
D21*
X100775000Y-76437500D03*
X100775000Y-78512500D03*
D23*
X103075000Y-78575000D03*
X105075000Y-78575000D03*
D26*
X125112500Y-67950000D03*
X127187500Y-67950000D03*
D27*
X125900000Y-46400000D03*
D22*
X106200000Y-69837500D03*
X106200000Y-67762500D03*
D20*
X53350000Y-71000000D03*
X56450000Y-71000000D03*
D28*
X61850000Y-66000000D03*
X58750000Y-66000000D03*
D26*
X76262500Y-64900000D03*
X78337500Y-64900000D03*
D27*
X50900000Y-77400000D03*
D24*
X127075000Y-71400000D03*
X125075000Y-71400000D03*
D29*
X104000000Y-69825000D03*
X104000000Y-67775000D03*
D23*
X84750000Y-49250000D03*
X86750000Y-49250000D03*
D30*
X63034557Y-73990000D03*
X63034557Y-75260000D03*
X63034557Y-76530000D03*
X63034557Y-77800000D03*
X73934555Y-77800000D03*
X73934555Y-76530000D03*
X73934555Y-75260000D03*
X73934555Y-73990000D03*
D31*
X78220000Y-62100000D03*
D32*
X75680000Y-62100000D03*
X70600000Y-62100000D03*
X65520000Y-62100000D03*
D28*
X56450000Y-68500000D03*
X53350000Y-68500000D03*
D33*
X95875000Y-67850000D03*
D34*
X93335000Y-67850000D03*
X90795000Y-67850000D03*
X88255000Y-67850000D03*
D26*
X108637500Y-78375000D03*
X110712500Y-78375000D03*
D31*
X53350000Y-59600000D03*
D32*
X55850000Y-59600000D03*
D35*
X117875000Y-67745000D03*
X117875000Y-69015000D03*
X117875000Y-70285000D03*
X117875000Y-71555000D03*
X122825000Y-71555000D03*
X122825000Y-70285000D03*
X122825000Y-69015000D03*
X122825000Y-67745000D03*
D23*
X96325000Y-76375000D03*
X98325000Y-76375000D03*
D36*
X101937500Y-68000000D03*
X99862500Y-68000000D03*
D26*
X65522500Y-64900000D03*
X67597500Y-64900000D03*
D27*
X125900000Y-77400000D03*
D21*
X119250000Y-75762500D03*
X119250000Y-77837500D03*
D26*
X98962500Y-73300000D03*
X101037500Y-73300000D03*
D36*
X115487500Y-72000000D03*
X113412500Y-72000000D03*
D24*
X115450000Y-74250000D03*
X113450000Y-74250000D03*
D26*
X107862500Y-52700000D03*
X109937500Y-52700000D03*
X108262500Y-67900000D03*
X110337500Y-67900000D03*
D37*
X106150000Y-74250000D03*
X106150000Y-73300000D03*
X106150000Y-72350000D03*
X103450000Y-72350000D03*
X103450000Y-73300000D03*
X103450000Y-74250000D03*
D38*
X87425000Y-56175000D03*
X87425000Y-61055000D03*
D36*
X75837500Y-71434556D03*
X73762500Y-71434556D03*
D27*
X50900000Y-46400000D03*
D28*
X61850000Y-71000000D03*
X58750000Y-71000000D03*
D23*
X119500000Y-73700000D03*
X121500000Y-73700000D03*
D36*
X75837500Y-69200000D03*
X73762500Y-69200000D03*
D22*
X83375000Y-56187500D03*
X83375000Y-54112500D03*
D39*
X125125000Y-55475000D03*
D40*
X122585000Y-55475000D03*
X120045000Y-55475000D03*
X117505000Y-55475000D03*
X114965000Y-55475000D03*
X112425000Y-55475000D03*
X109885000Y-55475000D03*
X107345000Y-55475000D03*
X104805000Y-55475000D03*
X102265000Y-55475000D03*
X99725000Y-55475000D03*
X97185000Y-55475000D03*
X94645000Y-55475000D03*
X92105000Y-55475000D03*
X92105000Y-63095000D03*
X94645000Y-63095000D03*
X97185000Y-63095000D03*
X99725000Y-63095000D03*
X102265000Y-63095000D03*
X104805000Y-63095000D03*
X107345000Y-63095000D03*
X109885000Y-63095000D03*
X112425000Y-63095000D03*
X114965000Y-63095000D03*
X117505000Y-63095000D03*
X120045000Y-63095000D03*
X122585000Y-63095000D03*
X125125000Y-63095000D03*
D23*
X96325000Y-78575000D03*
X98325000Y-78575000D03*
D31*
X74600000Y-50350000D03*
D32*
X77100000Y-50350000D03*
D20*
X56250000Y-73500000D03*
X59350000Y-73500000D03*
D21*
X116650000Y-76612500D03*
X116650000Y-78687500D03*
D33*
X120300000Y-46475000D03*
D34*
X117760000Y-46475000D03*
X115220000Y-46475000D03*
X112680000Y-46475000D03*
X110140000Y-46475000D03*
X107600000Y-46475000D03*
X105060000Y-46475000D03*
X102520000Y-46475000D03*
X99980000Y-46475000D03*
X97440000Y-46475000D03*
X94900000Y-46475000D03*
X92360000Y-46475000D03*
X89820000Y-46475000D03*
X87280000Y-46475000D03*
X84740000Y-46475000D03*
X82200000Y-46475000D03*
M02*
