G04 #@! TF.GenerationSoftware,KiCad,Pcbnew,(6.0.0-0)*
G04 #@! TF.CreationDate,2022-02-23T00:42:30+01:00*
G04 #@! TF.ProjectId,AC Power Supply,41432050-6f77-4657-9220-537570706c79,rev?*
G04 #@! TF.SameCoordinates,Original*
G04 #@! TF.FileFunction,Copper,L2,Bot*
G04 #@! TF.FilePolarity,Positive*
%FSLAX46Y46*%
G04 Gerber Fmt 4.6, Leading zero omitted, Abs format (unit mm)*
G04 Created by KiCad (PCBNEW (6.0.0-0)) date 2022-02-23 00:42:30*
%MOMM*%
%LPD*%
G01*
G04 APERTURE LIST*
G04 #@! TA.AperFunction,ComponentPad*
%ADD10C,1.219200*%
G04 #@! TD*
G04 #@! TA.AperFunction,ComponentPad*
%ADD11C,4.700000*%
G04 #@! TD*
G04 #@! TA.AperFunction,ComponentPad*
%ADD12R,1.508000X1.508000*%
G04 #@! TD*
G04 #@! TA.AperFunction,ComponentPad*
%ADD13C,1.508000*%
G04 #@! TD*
G04 #@! TA.AperFunction,ComponentPad*
%ADD14R,1.700000X1.700000*%
G04 #@! TD*
G04 #@! TA.AperFunction,ComponentPad*
%ADD15O,1.700000X1.700000*%
G04 #@! TD*
G04 #@! TA.AperFunction,ComponentPad*
%ADD16C,1.500000*%
G04 #@! TD*
G04 #@! TA.AperFunction,ComponentPad*
%ADD17R,1.600000X2.400000*%
G04 #@! TD*
G04 #@! TA.AperFunction,ComponentPad*
%ADD18O,1.600000X2.400000*%
G04 #@! TD*
G04 #@! TA.AperFunction,ViaPad*
%ADD19C,0.800000*%
G04 #@! TD*
G04 #@! TA.AperFunction,Conductor*
%ADD20C,0.250000*%
G04 #@! TD*
G04 APERTURE END LIST*
D10*
X112620000Y-49350000D03*
X115160000Y-51890000D03*
X117700000Y-49350000D03*
D11*
X125900000Y-46400000D03*
X50900000Y-77400000D03*
D12*
X78220000Y-62100000D03*
D13*
X75680000Y-62100000D03*
X70600000Y-62100000D03*
X65520000Y-62100000D03*
D14*
X95875000Y-67850000D03*
D15*
X93335000Y-67850000D03*
X90795000Y-67850000D03*
X88255000Y-67850000D03*
D12*
X53350000Y-59600000D03*
D13*
X55850000Y-59600000D03*
D11*
X125900000Y-77400000D03*
D16*
X87425000Y-56175000D03*
X87425000Y-61055000D03*
D11*
X50900000Y-46400000D03*
D17*
X125125000Y-55475000D03*
D18*
X122585000Y-55475000D03*
X120045000Y-55475000D03*
X117505000Y-55475000D03*
X114965000Y-55475000D03*
X112425000Y-55475000D03*
X109885000Y-55475000D03*
X107345000Y-55475000D03*
X104805000Y-55475000D03*
X102265000Y-55475000D03*
X99725000Y-55475000D03*
X97185000Y-55475000D03*
X94645000Y-55475000D03*
X92105000Y-55475000D03*
X92105000Y-63095000D03*
X94645000Y-63095000D03*
X97185000Y-63095000D03*
X99725000Y-63095000D03*
X102265000Y-63095000D03*
X104805000Y-63095000D03*
X107345000Y-63095000D03*
X109885000Y-63095000D03*
X112425000Y-63095000D03*
X114965000Y-63095000D03*
X117505000Y-63095000D03*
X120045000Y-63095000D03*
X122585000Y-63095000D03*
X125125000Y-63095000D03*
D12*
X74600000Y-50350000D03*
D13*
X77100000Y-50350000D03*
D14*
X120300000Y-46475000D03*
D15*
X117760000Y-46475000D03*
X115220000Y-46475000D03*
X112680000Y-46475000D03*
X110140000Y-46475000D03*
X107600000Y-46475000D03*
X105060000Y-46475000D03*
X102520000Y-46475000D03*
X99980000Y-46475000D03*
X97440000Y-46475000D03*
X94900000Y-46475000D03*
X92360000Y-46475000D03*
X89820000Y-46475000D03*
X87280000Y-46475000D03*
X84740000Y-46475000D03*
X82200000Y-46475000D03*
D19*
X76100000Y-77800000D03*
X61000000Y-77800000D03*
X61050000Y-76550000D03*
X54450000Y-72800000D03*
X69600000Y-65150000D03*
X68100000Y-71400000D03*
X74500000Y-64850000D03*
X81400000Y-63150000D03*
X81650000Y-54900000D03*
X105950000Y-52700000D03*
X77450000Y-69175000D03*
X121400000Y-79425000D03*
X107000000Y-78375000D03*
X98225000Y-68000000D03*
X119250000Y-79450000D03*
X114900000Y-78675000D03*
X77500000Y-71450000D03*
X97325000Y-73300000D03*
X119600000Y-71650000D03*
X104800000Y-73300000D03*
X127200000Y-69675000D03*
X106175000Y-71150000D03*
X111825000Y-73975000D03*
X117425000Y-73975000D03*
D20*
X112425000Y-55475000D02*
X112425000Y-52125000D01*
X112425000Y-52125000D02*
X109800000Y-49500000D01*
X109800000Y-49500000D02*
X97925000Y-49500000D01*
X97925000Y-49500000D02*
X94900000Y-46475000D01*
X114965000Y-53840000D02*
X114965000Y-55475000D01*
X107600000Y-46475000D02*
X114965000Y-53840000D01*
X117505000Y-55475000D02*
X117505000Y-51300000D01*
X117505000Y-51300000D02*
X112680000Y-46475000D01*
X111825000Y-73975000D02*
X117425000Y-73975000D01*
X97185000Y-54085000D02*
X97185000Y-55475000D01*
X89820000Y-46720000D02*
X97185000Y-54085000D01*
X91825000Y-49500000D02*
X90500000Y-49500000D01*
X94645000Y-52320000D02*
X91825000Y-49500000D01*
X94645000Y-55475000D02*
X94645000Y-52320000D01*
X90500000Y-49500000D02*
X87475000Y-46475000D01*
X92025000Y-46475000D02*
X92025000Y-48150000D01*
X92025000Y-48150000D02*
X99350000Y-55475000D01*
G04 #@! TA.AperFunction,Conductor*
G36*
X49443126Y-43728002D02*
G01*
X49489619Y-43781658D01*
X49499723Y-43851932D01*
X49470229Y-43916512D01*
X49441961Y-43940737D01*
X49244694Y-44064482D01*
X49238766Y-44068694D01*
X49080316Y-44195636D01*
X49071846Y-44207762D01*
X49078241Y-44219030D01*
X50887190Y-46027980D01*
X50901131Y-46035592D01*
X50902966Y-46035461D01*
X50909580Y-46031210D01*
X52720675Y-44220114D01*
X52728067Y-44206577D01*
X52721279Y-44196875D01*
X52633637Y-44122022D01*
X52627861Y-44117638D01*
X52361398Y-43938582D01*
X52316013Y-43883986D01*
X52307350Y-43813520D01*
X52338158Y-43749556D01*
X52398657Y-43712403D01*
X52431674Y-43708000D01*
X124375005Y-43708000D01*
X124443126Y-43728002D01*
X124489619Y-43781658D01*
X124499723Y-43851932D01*
X124470229Y-43916512D01*
X124441961Y-43940737D01*
X124244694Y-44064482D01*
X124238766Y-44068694D01*
X124080316Y-44195636D01*
X124071846Y-44207762D01*
X124078241Y-44219030D01*
X125887190Y-46027980D01*
X125901131Y-46035592D01*
X125902966Y-46035461D01*
X125909580Y-46031210D01*
X127720675Y-44220114D01*
X127728067Y-44206577D01*
X127721279Y-44196875D01*
X127633637Y-44122022D01*
X127627861Y-44117638D01*
X127361398Y-43938582D01*
X127316013Y-43883986D01*
X127307350Y-43813520D01*
X127338158Y-43749556D01*
X127398657Y-43712403D01*
X127431674Y-43708000D01*
X128166000Y-43708000D01*
X128234121Y-43728002D01*
X128280614Y-43781658D01*
X128292000Y-43834000D01*
X128292000Y-44465206D01*
X128271998Y-44533327D01*
X128218342Y-44579820D01*
X128148068Y-44589924D01*
X128101598Y-44573504D01*
X128094035Y-44569007D01*
X128093431Y-44569028D01*
X128084951Y-44574260D01*
X126272020Y-46387190D01*
X126264408Y-46401131D01*
X126264539Y-46402966D01*
X126268790Y-46409580D01*
X128079776Y-48220565D01*
X128093129Y-48227857D01*
X128093228Y-48227787D01*
X128160391Y-48204773D01*
X128229335Y-48221723D01*
X128278170Y-48273256D01*
X128292000Y-48330648D01*
X128292000Y-75465206D01*
X128271998Y-75533327D01*
X128218342Y-75579820D01*
X128148068Y-75589924D01*
X128101598Y-75573504D01*
X128094035Y-75569007D01*
X128093431Y-75569028D01*
X128084951Y-75574260D01*
X126272020Y-77387190D01*
X126264408Y-77401131D01*
X126264539Y-77402966D01*
X126268790Y-77409580D01*
X128079776Y-79220565D01*
X128093129Y-79227857D01*
X128093228Y-79227787D01*
X128160391Y-79204773D01*
X128229335Y-79221723D01*
X128278170Y-79273256D01*
X128292000Y-79330648D01*
X128292000Y-79966000D01*
X128271998Y-80034121D01*
X128218342Y-80080614D01*
X128166000Y-80092000D01*
X127423452Y-80092000D01*
X127355331Y-80071998D01*
X127308838Y-80018342D01*
X127298734Y-79948068D01*
X127328228Y-79883488D01*
X127359881Y-79857212D01*
X127481143Y-79786352D01*
X127487176Y-79782343D01*
X127721689Y-79606266D01*
X127730143Y-79594939D01*
X127723398Y-79582609D01*
X125912810Y-77772020D01*
X125898869Y-77764408D01*
X125897034Y-77764539D01*
X125890420Y-77768790D01*
X124077663Y-79581548D01*
X124070049Y-79595492D01*
X124070067Y-79595745D01*
X124075981Y-79604488D01*
X124095672Y-79622405D01*
X124101304Y-79626966D01*
X124363062Y-79815058D01*
X124369192Y-79818948D01*
X124435591Y-79855905D01*
X124485385Y-79906511D01*
X124499915Y-79976005D01*
X124474567Y-80042323D01*
X124417389Y-80084408D01*
X124374313Y-80092000D01*
X52423452Y-80092000D01*
X52355331Y-80071998D01*
X52308838Y-80018342D01*
X52298734Y-79948068D01*
X52328228Y-79883488D01*
X52359881Y-79857212D01*
X52481143Y-79786352D01*
X52487176Y-79782343D01*
X52721689Y-79606266D01*
X52730143Y-79594939D01*
X52723398Y-79582609D01*
X50912810Y-77772020D01*
X50898869Y-77764408D01*
X50897034Y-77764539D01*
X50890420Y-77768790D01*
X49077663Y-79581548D01*
X49070049Y-79595492D01*
X49070067Y-79595745D01*
X49075981Y-79604488D01*
X49095672Y-79622405D01*
X49101304Y-79626966D01*
X49363062Y-79815058D01*
X49369192Y-79818948D01*
X49435591Y-79855905D01*
X49485385Y-79906511D01*
X49499915Y-79976005D01*
X49474567Y-80042323D01*
X49417389Y-80084408D01*
X49374313Y-80092000D01*
X48434000Y-80092000D01*
X48365879Y-80071998D01*
X48319386Y-80018342D01*
X48308000Y-79966000D01*
X48308000Y-79080421D01*
X48328002Y-79012300D01*
X48381658Y-78965807D01*
X48451932Y-78955703D01*
X48516512Y-78985197D01*
X48537840Y-79009054D01*
X48635856Y-79151668D01*
X48640291Y-79157387D01*
X48695061Y-79220170D01*
X48708233Y-79228573D01*
X48718084Y-79222705D01*
X50527980Y-77412810D01*
X50534357Y-77401131D01*
X51264408Y-77401131D01*
X51264539Y-77402966D01*
X51268790Y-77409580D01*
X53079776Y-79220565D01*
X53093130Y-79227857D01*
X53103102Y-79220803D01*
X53196013Y-79109681D01*
X53200329Y-79103870D01*
X53377308Y-78834447D01*
X53380922Y-78828185D01*
X53525759Y-78540208D01*
X53528632Y-78533570D01*
X53639407Y-78230864D01*
X53641503Y-78223923D01*
X53716751Y-77910495D01*
X53718035Y-77903356D01*
X53756858Y-77582538D01*
X53757282Y-77576968D01*
X53762755Y-77402797D01*
X53762682Y-77397204D01*
X53744079Y-77074573D01*
X53743247Y-77067383D01*
X53687828Y-76749840D01*
X53686173Y-76742785D01*
X53594627Y-76433733D01*
X53592170Y-76426908D01*
X53465706Y-76130417D01*
X53462485Y-76123928D01*
X53302773Y-75843924D01*
X53298841Y-75837869D01*
X53108003Y-75578075D01*
X53106760Y-75576573D01*
X53094037Y-75569007D01*
X53093431Y-75569028D01*
X53084951Y-75574260D01*
X51272020Y-77387190D01*
X51264408Y-77401131D01*
X50534357Y-77401131D01*
X50535592Y-77398869D01*
X50535461Y-77397034D01*
X50531210Y-77390420D01*
X48719218Y-75578429D01*
X48706425Y-75571443D01*
X48695671Y-75579308D01*
X48551419Y-75763280D01*
X48547281Y-75769234D01*
X48541432Y-75778778D01*
X48488784Y-75826409D01*
X48418742Y-75838015D01*
X48353545Y-75809911D01*
X48313891Y-75751020D01*
X48308000Y-75712942D01*
X48308000Y-75207762D01*
X49071846Y-75207762D01*
X49078241Y-75219030D01*
X50887190Y-77027980D01*
X50901131Y-77035592D01*
X50902966Y-77035461D01*
X50909580Y-77031210D01*
X52720675Y-75220114D01*
X52728067Y-75206577D01*
X52721279Y-75196875D01*
X52633637Y-75122022D01*
X52627849Y-75117629D01*
X52360314Y-74937852D01*
X52354091Y-74934172D01*
X52067643Y-74786325D01*
X52061032Y-74783382D01*
X51759507Y-74669445D01*
X51752581Y-74667274D01*
X51439957Y-74588749D01*
X51432850Y-74587393D01*
X51113273Y-74545319D01*
X51106031Y-74544788D01*
X50783759Y-74539725D01*
X50776497Y-74540029D01*
X50455761Y-74572043D01*
X50448613Y-74573175D01*
X50133670Y-74641844D01*
X50126692Y-74643792D01*
X49821727Y-74748205D01*
X49815033Y-74750937D01*
X49524090Y-74889710D01*
X49517735Y-74893204D01*
X49244694Y-75064482D01*
X49238766Y-75068694D01*
X49080316Y-75195636D01*
X49071846Y-75207762D01*
X48308000Y-75207762D01*
X48308000Y-73159479D01*
X48328002Y-73091358D01*
X48381658Y-73044865D01*
X48451932Y-73034761D01*
X48459436Y-73036074D01*
X53999465Y-74179255D01*
X54062136Y-74212610D01*
X54096827Y-74274554D01*
X54100000Y-74302654D01*
X54100000Y-75900000D01*
X54111588Y-75907354D01*
X54111589Y-75907355D01*
X59284861Y-79190393D01*
X59284862Y-79190393D01*
X59300000Y-79200000D01*
X69000000Y-79200000D01*
X69000000Y-77313708D01*
X123038665Y-77313708D01*
X123047102Y-77635932D01*
X123047708Y-77643148D01*
X123093126Y-77962264D01*
X123094560Y-77969375D01*
X123176356Y-78281164D01*
X123178593Y-78288047D01*
X123295679Y-78588358D01*
X123298699Y-78594956D01*
X123449532Y-78879831D01*
X123453278Y-78886016D01*
X123635856Y-79151668D01*
X123640291Y-79157387D01*
X123695061Y-79220170D01*
X123708233Y-79228573D01*
X123718084Y-79222705D01*
X125527980Y-77412810D01*
X125535592Y-77398869D01*
X125535461Y-77397034D01*
X125531210Y-77390420D01*
X123719218Y-75578429D01*
X123706425Y-75571443D01*
X123695671Y-75579308D01*
X123551419Y-75763280D01*
X123547284Y-75769229D01*
X123378856Y-76044078D01*
X123375445Y-76050439D01*
X123239724Y-76342826D01*
X123237056Y-76349564D01*
X123135845Y-76655596D01*
X123133969Y-76662600D01*
X123068604Y-76978237D01*
X123067547Y-76985398D01*
X123038893Y-77306455D01*
X123038665Y-77313708D01*
X69000000Y-77313708D01*
X69000000Y-75207762D01*
X124071846Y-75207762D01*
X124078241Y-75219030D01*
X125887190Y-77027980D01*
X125901131Y-77035592D01*
X125902966Y-77035461D01*
X125909580Y-77031210D01*
X127720675Y-75220114D01*
X127728067Y-75206577D01*
X127721279Y-75196875D01*
X127633637Y-75122022D01*
X127627849Y-75117629D01*
X127360314Y-74937852D01*
X127354091Y-74934172D01*
X127067643Y-74786325D01*
X127061032Y-74783382D01*
X126759507Y-74669445D01*
X126752581Y-74667274D01*
X126439957Y-74588749D01*
X126432850Y-74587393D01*
X126113273Y-74545319D01*
X126106031Y-74544788D01*
X125783759Y-74539725D01*
X125776497Y-74540029D01*
X125455761Y-74572043D01*
X125448613Y-74573175D01*
X125133670Y-74641844D01*
X125126692Y-74643792D01*
X124821727Y-74748205D01*
X124815033Y-74750937D01*
X124524090Y-74889710D01*
X124517735Y-74893204D01*
X124244694Y-75064482D01*
X124238766Y-75068694D01*
X124080316Y-75195636D01*
X124071846Y-75207762D01*
X69000000Y-75207762D01*
X69000000Y-73975000D01*
X110911496Y-73975000D01*
X110931458Y-74164928D01*
X110990473Y-74346556D01*
X111085960Y-74511944D01*
X111090378Y-74516851D01*
X111090379Y-74516852D01*
X111155115Y-74588749D01*
X111213747Y-74653866D01*
X111368248Y-74766118D01*
X111374276Y-74768802D01*
X111374278Y-74768803D01*
X111536681Y-74841109D01*
X111542712Y-74843794D01*
X111636113Y-74863647D01*
X111723056Y-74882128D01*
X111723061Y-74882128D01*
X111729513Y-74883500D01*
X111920487Y-74883500D01*
X111926939Y-74882128D01*
X111926944Y-74882128D01*
X112013887Y-74863647D01*
X112107288Y-74843794D01*
X112113319Y-74841109D01*
X112275722Y-74768803D01*
X112275724Y-74768802D01*
X112281752Y-74766118D01*
X112436253Y-74653866D01*
X112440668Y-74648963D01*
X112445580Y-74644540D01*
X112446705Y-74645789D01*
X112500014Y-74612949D01*
X112533200Y-74608500D01*
X116716800Y-74608500D01*
X116784921Y-74628502D01*
X116804147Y-74644843D01*
X116804420Y-74644540D01*
X116809332Y-74648963D01*
X116813747Y-74653866D01*
X116968248Y-74766118D01*
X116974276Y-74768802D01*
X116974278Y-74768803D01*
X117136681Y-74841109D01*
X117142712Y-74843794D01*
X117236113Y-74863647D01*
X117323056Y-74882128D01*
X117323061Y-74882128D01*
X117329513Y-74883500D01*
X117520487Y-74883500D01*
X117526939Y-74882128D01*
X117526944Y-74882128D01*
X117613887Y-74863647D01*
X117707288Y-74843794D01*
X117713319Y-74841109D01*
X117875722Y-74768803D01*
X117875724Y-74768802D01*
X117881752Y-74766118D01*
X118036253Y-74653866D01*
X118094885Y-74588749D01*
X118159621Y-74516852D01*
X118159622Y-74516851D01*
X118164040Y-74511944D01*
X118259527Y-74346556D01*
X118318542Y-74164928D01*
X118338504Y-73975000D01*
X118318542Y-73785072D01*
X118259527Y-73603444D01*
X118164040Y-73438056D01*
X118072999Y-73336944D01*
X118040675Y-73301045D01*
X118040674Y-73301044D01*
X118036253Y-73296134D01*
X117881752Y-73183882D01*
X117875724Y-73181198D01*
X117875722Y-73181197D01*
X117713319Y-73108891D01*
X117713318Y-73108891D01*
X117707288Y-73106206D01*
X117613887Y-73086353D01*
X117526944Y-73067872D01*
X117526939Y-73067872D01*
X117520487Y-73066500D01*
X117329513Y-73066500D01*
X117323061Y-73067872D01*
X117323056Y-73067872D01*
X117236113Y-73086353D01*
X117142712Y-73106206D01*
X117136682Y-73108891D01*
X117136681Y-73108891D01*
X116974278Y-73181197D01*
X116974276Y-73181198D01*
X116968248Y-73183882D01*
X116813747Y-73296134D01*
X116809332Y-73301037D01*
X116804420Y-73305460D01*
X116803295Y-73304211D01*
X116749986Y-73337051D01*
X116716800Y-73341500D01*
X112533200Y-73341500D01*
X112465079Y-73321498D01*
X112445853Y-73305157D01*
X112445580Y-73305460D01*
X112440668Y-73301037D01*
X112436253Y-73296134D01*
X112281752Y-73183882D01*
X112275724Y-73181198D01*
X112275722Y-73181197D01*
X112113319Y-73108891D01*
X112113318Y-73108891D01*
X112107288Y-73106206D01*
X112013887Y-73086353D01*
X111926944Y-73067872D01*
X111926939Y-73067872D01*
X111920487Y-73066500D01*
X111729513Y-73066500D01*
X111723061Y-73067872D01*
X111723056Y-73067872D01*
X111636113Y-73086353D01*
X111542712Y-73106206D01*
X111536682Y-73108891D01*
X111536681Y-73108891D01*
X111374278Y-73181197D01*
X111374276Y-73181198D01*
X111368248Y-73183882D01*
X111213747Y-73296134D01*
X111209326Y-73301044D01*
X111209325Y-73301045D01*
X111177002Y-73336944D01*
X111085960Y-73438056D01*
X110990473Y-73603444D01*
X110931458Y-73785072D01*
X110911496Y-73975000D01*
X69000000Y-73975000D01*
X69000000Y-73169836D01*
X69020002Y-73101715D01*
X69059220Y-73062988D01*
X72184638Y-71109601D01*
X72200000Y-71100000D01*
X72200000Y-68236690D01*
X72219699Y-68169044D01*
X72252204Y-68117966D01*
X86923257Y-68117966D01*
X86953565Y-68252446D01*
X86956645Y-68262275D01*
X87036770Y-68459603D01*
X87041413Y-68468794D01*
X87152694Y-68650388D01*
X87158777Y-68658699D01*
X87298213Y-68819667D01*
X87305580Y-68826883D01*
X87469434Y-68962916D01*
X87477881Y-68968831D01*
X87661756Y-69076279D01*
X87671042Y-69080729D01*
X87870001Y-69156703D01*
X87879899Y-69159579D01*
X87983250Y-69180606D01*
X87997299Y-69179410D01*
X88001000Y-69169065D01*
X88001000Y-69168517D01*
X88509000Y-69168517D01*
X88513064Y-69182359D01*
X88526478Y-69184393D01*
X88533184Y-69183534D01*
X88543262Y-69181392D01*
X88747255Y-69120191D01*
X88756842Y-69116433D01*
X88948095Y-69022739D01*
X88956945Y-69017464D01*
X89130328Y-68893792D01*
X89138200Y-68887139D01*
X89289052Y-68736812D01*
X89295730Y-68728965D01*
X89423022Y-68551819D01*
X89424279Y-68552722D01*
X89471373Y-68509362D01*
X89541311Y-68497145D01*
X89606751Y-68524678D01*
X89634579Y-68556511D01*
X89694987Y-68655088D01*
X89841250Y-68823938D01*
X90013126Y-68966632D01*
X90206000Y-69079338D01*
X90414692Y-69159030D01*
X90419760Y-69160061D01*
X90419763Y-69160062D01*
X90514862Y-69179410D01*
X90633597Y-69203567D01*
X90638772Y-69203757D01*
X90638774Y-69203757D01*
X90851673Y-69211564D01*
X90851677Y-69211564D01*
X90856837Y-69211753D01*
X90861957Y-69211097D01*
X90861959Y-69211097D01*
X91073288Y-69184025D01*
X91073289Y-69184025D01*
X91078416Y-69183368D01*
X91083366Y-69181883D01*
X91287429Y-69120661D01*
X91287434Y-69120659D01*
X91292384Y-69119174D01*
X91492994Y-69020896D01*
X91674860Y-68891173D01*
X91833096Y-68733489D01*
X91963453Y-68552077D01*
X91964776Y-68553028D01*
X92011645Y-68509857D01*
X92081580Y-68497625D01*
X92147026Y-68525144D01*
X92174875Y-68556994D01*
X92234987Y-68655088D01*
X92381250Y-68823938D01*
X92553126Y-68966632D01*
X92746000Y-69079338D01*
X92954692Y-69159030D01*
X92959760Y-69160061D01*
X92959763Y-69160062D01*
X93054862Y-69179410D01*
X93173597Y-69203567D01*
X93178772Y-69203757D01*
X93178774Y-69203757D01*
X93391673Y-69211564D01*
X93391677Y-69211564D01*
X93396837Y-69211753D01*
X93401957Y-69211097D01*
X93401959Y-69211097D01*
X93613288Y-69184025D01*
X93613289Y-69184025D01*
X93618416Y-69183368D01*
X93623366Y-69181883D01*
X93827429Y-69120661D01*
X93827434Y-69120659D01*
X93832384Y-69119174D01*
X94032994Y-69020896D01*
X94214860Y-68891173D01*
X94323091Y-68783319D01*
X94385462Y-68749404D01*
X94456268Y-68754592D01*
X94513030Y-68797238D01*
X94530012Y-68828341D01*
X94574385Y-68946705D01*
X94661739Y-69063261D01*
X94778295Y-69150615D01*
X94914684Y-69201745D01*
X94976866Y-69208500D01*
X96773134Y-69208500D01*
X96835316Y-69201745D01*
X96971705Y-69150615D01*
X97088261Y-69063261D01*
X97175615Y-68946705D01*
X97226745Y-68810316D01*
X97233500Y-68748134D01*
X97233500Y-66951866D01*
X97226745Y-66889684D01*
X97175615Y-66753295D01*
X97088261Y-66636739D01*
X96971705Y-66549385D01*
X96835316Y-66498255D01*
X96773134Y-66491500D01*
X94976866Y-66491500D01*
X94914684Y-66498255D01*
X94778295Y-66549385D01*
X94661739Y-66636739D01*
X94574385Y-66753295D01*
X94571233Y-66761703D01*
X94529919Y-66871907D01*
X94487277Y-66928671D01*
X94420716Y-66953371D01*
X94351367Y-66938163D01*
X94318743Y-66912476D01*
X94268151Y-66856875D01*
X94268142Y-66856866D01*
X94264670Y-66853051D01*
X94260619Y-66849852D01*
X94260615Y-66849848D01*
X94093414Y-66717800D01*
X94093410Y-66717798D01*
X94089359Y-66714598D01*
X94053028Y-66694542D01*
X94037136Y-66685769D01*
X93893789Y-66606638D01*
X93888920Y-66604914D01*
X93888916Y-66604912D01*
X93688087Y-66533795D01*
X93688083Y-66533794D01*
X93683212Y-66532069D01*
X93678119Y-66531162D01*
X93678116Y-66531161D01*
X93468373Y-66493800D01*
X93468367Y-66493799D01*
X93463284Y-66492894D01*
X93389452Y-66491992D01*
X93245081Y-66490228D01*
X93245079Y-66490228D01*
X93239911Y-66490165D01*
X93019091Y-66523955D01*
X92806756Y-66593357D01*
X92608607Y-66696507D01*
X92604474Y-66699610D01*
X92604471Y-66699612D01*
X92434100Y-66827530D01*
X92429965Y-66830635D01*
X92404541Y-66857240D01*
X92336280Y-66928671D01*
X92275629Y-66992138D01*
X92168201Y-67149621D01*
X92113293Y-67194621D01*
X92042768Y-67202792D01*
X91979021Y-67171538D01*
X91958324Y-67147054D01*
X91877822Y-67022617D01*
X91877820Y-67022614D01*
X91875014Y-67018277D01*
X91724670Y-66853051D01*
X91720619Y-66849852D01*
X91720615Y-66849848D01*
X91553414Y-66717800D01*
X91553410Y-66717798D01*
X91549359Y-66714598D01*
X91513028Y-66694542D01*
X91497136Y-66685769D01*
X91353789Y-66606638D01*
X91348920Y-66604914D01*
X91348916Y-66604912D01*
X91148087Y-66533795D01*
X91148083Y-66533794D01*
X91143212Y-66532069D01*
X91138119Y-66531162D01*
X91138116Y-66531161D01*
X90928373Y-66493800D01*
X90928367Y-66493799D01*
X90923284Y-66492894D01*
X90849452Y-66491992D01*
X90705081Y-66490228D01*
X90705079Y-66490228D01*
X90699911Y-66490165D01*
X90479091Y-66523955D01*
X90266756Y-66593357D01*
X90068607Y-66696507D01*
X90064474Y-66699610D01*
X90064471Y-66699612D01*
X89894100Y-66827530D01*
X89889965Y-66830635D01*
X89864541Y-66857240D01*
X89796280Y-66928671D01*
X89735629Y-66992138D01*
X89732720Y-66996403D01*
X89732714Y-66996411D01*
X89720404Y-67014457D01*
X89628204Y-67149618D01*
X89627898Y-67150066D01*
X89572987Y-67195069D01*
X89502462Y-67203240D01*
X89438715Y-67171986D01*
X89418018Y-67147502D01*
X89337426Y-67022926D01*
X89331136Y-67014757D01*
X89187806Y-66857240D01*
X89180273Y-66850215D01*
X89013139Y-66718222D01*
X89004552Y-66712517D01*
X88818117Y-66609599D01*
X88808705Y-66605369D01*
X88607959Y-66534280D01*
X88597988Y-66531646D01*
X88526837Y-66518972D01*
X88513540Y-66520432D01*
X88509000Y-66534989D01*
X88509000Y-69168517D01*
X88001000Y-69168517D01*
X88001000Y-68122115D01*
X87996525Y-68106876D01*
X87995135Y-68105671D01*
X87987452Y-68104000D01*
X86938225Y-68104000D01*
X86924694Y-68107973D01*
X86923257Y-68117966D01*
X72252204Y-68117966D01*
X72258563Y-68107973D01*
X72591884Y-67584183D01*
X86919389Y-67584183D01*
X86920912Y-67592607D01*
X86933292Y-67596000D01*
X87982885Y-67596000D01*
X87998124Y-67591525D01*
X87999329Y-67590135D01*
X88001000Y-67582452D01*
X88001000Y-66533102D01*
X87997082Y-66519758D01*
X87982806Y-66517771D01*
X87944324Y-66523660D01*
X87934288Y-66526051D01*
X87731868Y-66592212D01*
X87722359Y-66596209D01*
X87533463Y-66694542D01*
X87524738Y-66700036D01*
X87354433Y-66827905D01*
X87346726Y-66834748D01*
X87199590Y-66988717D01*
X87193104Y-66996727D01*
X87073098Y-67172649D01*
X87068000Y-67181623D01*
X86978338Y-67374783D01*
X86974775Y-67384470D01*
X86919389Y-67584183D01*
X72591884Y-67584183D01*
X73600000Y-66000000D01*
X73600000Y-63552127D01*
X90796500Y-63552127D01*
X90811457Y-63723087D01*
X90870716Y-63944243D01*
X90873039Y-63949224D01*
X90873039Y-63949225D01*
X90965151Y-64146762D01*
X90965154Y-64146767D01*
X90967477Y-64151749D01*
X91098802Y-64339300D01*
X91260700Y-64501198D01*
X91265208Y-64504355D01*
X91265211Y-64504357D01*
X91343389Y-64559098D01*
X91448251Y-64632523D01*
X91453233Y-64634846D01*
X91453238Y-64634849D01*
X91649765Y-64726490D01*
X91655757Y-64729284D01*
X91661065Y-64730706D01*
X91661067Y-64730707D01*
X91871598Y-64787119D01*
X91871600Y-64787119D01*
X91876913Y-64788543D01*
X92105000Y-64808498D01*
X92333087Y-64788543D01*
X92338400Y-64787119D01*
X92338402Y-64787119D01*
X92548933Y-64730707D01*
X92548935Y-64730706D01*
X92554243Y-64729284D01*
X92560235Y-64726490D01*
X92756762Y-64634849D01*
X92756767Y-64634846D01*
X92761749Y-64632523D01*
X92866611Y-64559098D01*
X92944789Y-64504357D01*
X92944792Y-64504355D01*
X92949300Y-64501198D01*
X93111198Y-64339300D01*
X93242523Y-64151749D01*
X93244846Y-64146767D01*
X93244849Y-64146762D01*
X93260805Y-64112543D01*
X93307722Y-64059258D01*
X93375999Y-64039797D01*
X93443959Y-64060339D01*
X93489195Y-64112543D01*
X93505151Y-64146762D01*
X93505154Y-64146767D01*
X93507477Y-64151749D01*
X93638802Y-64339300D01*
X93800700Y-64501198D01*
X93805208Y-64504355D01*
X93805211Y-64504357D01*
X93883389Y-64559098D01*
X93988251Y-64632523D01*
X93993233Y-64634846D01*
X93993238Y-64634849D01*
X94189765Y-64726490D01*
X94195757Y-64729284D01*
X94201065Y-64730706D01*
X94201067Y-64730707D01*
X94411598Y-64787119D01*
X94411600Y-64787119D01*
X94416913Y-64788543D01*
X94645000Y-64808498D01*
X94873087Y-64788543D01*
X94878400Y-64787119D01*
X94878402Y-64787119D01*
X95088933Y-64730707D01*
X95088935Y-64730706D01*
X95094243Y-64729284D01*
X95100235Y-64726490D01*
X95296762Y-64634849D01*
X95296767Y-64634846D01*
X95301749Y-64632523D01*
X95406611Y-64559098D01*
X95484789Y-64504357D01*
X95484792Y-64504355D01*
X95489300Y-64501198D01*
X95651198Y-64339300D01*
X95782523Y-64151749D01*
X95784846Y-64146767D01*
X95784849Y-64146762D01*
X95800805Y-64112543D01*
X95847722Y-64059258D01*
X95915999Y-64039797D01*
X95983959Y-64060339D01*
X96029195Y-64112543D01*
X96045151Y-64146762D01*
X96045154Y-64146767D01*
X96047477Y-64151749D01*
X96178802Y-64339300D01*
X96340700Y-64501198D01*
X96345208Y-64504355D01*
X96345211Y-64504357D01*
X96423389Y-64559098D01*
X96528251Y-64632523D01*
X96533233Y-64634846D01*
X96533238Y-64634849D01*
X96729765Y-64726490D01*
X96735757Y-64729284D01*
X96741065Y-64730706D01*
X96741067Y-64730707D01*
X96951598Y-64787119D01*
X96951600Y-64787119D01*
X96956913Y-64788543D01*
X97185000Y-64808498D01*
X97413087Y-64788543D01*
X97418400Y-64787119D01*
X97418402Y-64787119D01*
X97628933Y-64730707D01*
X97628935Y-64730706D01*
X97634243Y-64729284D01*
X97640235Y-64726490D01*
X97836762Y-64634849D01*
X97836767Y-64634846D01*
X97841749Y-64632523D01*
X97946611Y-64559098D01*
X98024789Y-64504357D01*
X98024792Y-64504355D01*
X98029300Y-64501198D01*
X98191198Y-64339300D01*
X98322523Y-64151749D01*
X98324846Y-64146767D01*
X98324849Y-64146762D01*
X98340805Y-64112543D01*
X98387722Y-64059258D01*
X98455999Y-64039797D01*
X98523959Y-64060339D01*
X98569195Y-64112543D01*
X98585151Y-64146762D01*
X98585154Y-64146767D01*
X98587477Y-64151749D01*
X98718802Y-64339300D01*
X98880700Y-64501198D01*
X98885208Y-64504355D01*
X98885211Y-64504357D01*
X98963389Y-64559098D01*
X99068251Y-64632523D01*
X99073233Y-64634846D01*
X99073238Y-64634849D01*
X99269765Y-64726490D01*
X99275757Y-64729284D01*
X99281065Y-64730706D01*
X99281067Y-64730707D01*
X99491598Y-64787119D01*
X99491600Y-64787119D01*
X99496913Y-64788543D01*
X99725000Y-64808498D01*
X99953087Y-64788543D01*
X99958400Y-64787119D01*
X99958402Y-64787119D01*
X100168933Y-64730707D01*
X100168935Y-64730706D01*
X100174243Y-64729284D01*
X100180235Y-64726490D01*
X100376762Y-64634849D01*
X100376767Y-64634846D01*
X100381749Y-64632523D01*
X100486611Y-64559098D01*
X100564789Y-64504357D01*
X100564792Y-64504355D01*
X100569300Y-64501198D01*
X100731198Y-64339300D01*
X100862523Y-64151749D01*
X100864846Y-64146767D01*
X100864849Y-64146762D01*
X100880805Y-64112543D01*
X100927722Y-64059258D01*
X100995999Y-64039797D01*
X101063959Y-64060339D01*
X101109195Y-64112543D01*
X101125151Y-64146762D01*
X101125154Y-64146767D01*
X101127477Y-64151749D01*
X101258802Y-64339300D01*
X101420700Y-64501198D01*
X101425208Y-64504355D01*
X101425211Y-64504357D01*
X101503389Y-64559098D01*
X101608251Y-64632523D01*
X101613233Y-64634846D01*
X101613238Y-64634849D01*
X101809765Y-64726490D01*
X101815757Y-64729284D01*
X101821065Y-64730706D01*
X101821067Y-64730707D01*
X102031598Y-64787119D01*
X102031600Y-64787119D01*
X102036913Y-64788543D01*
X102265000Y-64808498D01*
X102493087Y-64788543D01*
X102498400Y-64787119D01*
X102498402Y-64787119D01*
X102708933Y-64730707D01*
X102708935Y-64730706D01*
X102714243Y-64729284D01*
X102720235Y-64726490D01*
X102916762Y-64634849D01*
X102916767Y-64634846D01*
X102921749Y-64632523D01*
X103026611Y-64559098D01*
X103104789Y-64504357D01*
X103104792Y-64504355D01*
X103109300Y-64501198D01*
X103271198Y-64339300D01*
X103402523Y-64151749D01*
X103404846Y-64146767D01*
X103404849Y-64146762D01*
X103420805Y-64112543D01*
X103467722Y-64059258D01*
X103535999Y-64039797D01*
X103603959Y-64060339D01*
X103649195Y-64112543D01*
X103665151Y-64146762D01*
X103665154Y-64146767D01*
X103667477Y-64151749D01*
X103798802Y-64339300D01*
X103960700Y-64501198D01*
X103965208Y-64504355D01*
X103965211Y-64504357D01*
X104043389Y-64559098D01*
X104148251Y-64632523D01*
X104153233Y-64634846D01*
X104153238Y-64634849D01*
X104349765Y-64726490D01*
X104355757Y-64729284D01*
X104361065Y-64730706D01*
X104361067Y-64730707D01*
X104571598Y-64787119D01*
X104571600Y-64787119D01*
X104576913Y-64788543D01*
X104805000Y-64808498D01*
X105033087Y-64788543D01*
X105038400Y-64787119D01*
X105038402Y-64787119D01*
X105248933Y-64730707D01*
X105248935Y-64730706D01*
X105254243Y-64729284D01*
X105260235Y-64726490D01*
X105456762Y-64634849D01*
X105456767Y-64634846D01*
X105461749Y-64632523D01*
X105566611Y-64559098D01*
X105644789Y-64504357D01*
X105644792Y-64504355D01*
X105649300Y-64501198D01*
X105811198Y-64339300D01*
X105942523Y-64151749D01*
X105944846Y-64146767D01*
X105944849Y-64146762D01*
X105960805Y-64112543D01*
X106007722Y-64059258D01*
X106075999Y-64039797D01*
X106143959Y-64060339D01*
X106189195Y-64112543D01*
X106205151Y-64146762D01*
X106205154Y-64146767D01*
X106207477Y-64151749D01*
X106338802Y-64339300D01*
X106500700Y-64501198D01*
X106505208Y-64504355D01*
X106505211Y-64504357D01*
X106583389Y-64559098D01*
X106688251Y-64632523D01*
X106693233Y-64634846D01*
X106693238Y-64634849D01*
X106889765Y-64726490D01*
X106895757Y-64729284D01*
X106901065Y-64730706D01*
X106901067Y-64730707D01*
X107111598Y-64787119D01*
X107111600Y-64787119D01*
X107116913Y-64788543D01*
X107345000Y-64808498D01*
X107573087Y-64788543D01*
X107578400Y-64787119D01*
X107578402Y-64787119D01*
X107788933Y-64730707D01*
X107788935Y-64730706D01*
X107794243Y-64729284D01*
X107800235Y-64726490D01*
X107996762Y-64634849D01*
X107996767Y-64634846D01*
X108001749Y-64632523D01*
X108106611Y-64559098D01*
X108184789Y-64504357D01*
X108184792Y-64504355D01*
X108189300Y-64501198D01*
X108351198Y-64339300D01*
X108482523Y-64151749D01*
X108484846Y-64146767D01*
X108484849Y-64146762D01*
X108501081Y-64111951D01*
X108547998Y-64058666D01*
X108616275Y-64039205D01*
X108684235Y-64059747D01*
X108729471Y-64111951D01*
X108745586Y-64146511D01*
X108751069Y-64156007D01*
X108876028Y-64334467D01*
X108883084Y-64342875D01*
X109037125Y-64496916D01*
X109045533Y-64503972D01*
X109223993Y-64628931D01*
X109233489Y-64634414D01*
X109430947Y-64726490D01*
X109441239Y-64730236D01*
X109613503Y-64776394D01*
X109627599Y-64776058D01*
X109631000Y-64768116D01*
X109631000Y-64762967D01*
X110139000Y-64762967D01*
X110142973Y-64776498D01*
X110151522Y-64777727D01*
X110328761Y-64730236D01*
X110339053Y-64726490D01*
X110536511Y-64634414D01*
X110546007Y-64628931D01*
X110724467Y-64503972D01*
X110732875Y-64496916D01*
X110886916Y-64342875D01*
X110893972Y-64334467D01*
X111018931Y-64156007D01*
X111024414Y-64146511D01*
X111040529Y-64111951D01*
X111087446Y-64058666D01*
X111155723Y-64039205D01*
X111223683Y-64059747D01*
X111268919Y-64111951D01*
X111285151Y-64146762D01*
X111285154Y-64146767D01*
X111287477Y-64151749D01*
X111418802Y-64339300D01*
X111580700Y-64501198D01*
X111585208Y-64504355D01*
X111585211Y-64504357D01*
X111663389Y-64559098D01*
X111768251Y-64632523D01*
X111773233Y-64634846D01*
X111773238Y-64634849D01*
X111969765Y-64726490D01*
X111975757Y-64729284D01*
X111981065Y-64730706D01*
X111981067Y-64730707D01*
X112191598Y-64787119D01*
X112191600Y-64787119D01*
X112196913Y-64788543D01*
X112425000Y-64808498D01*
X112653087Y-64788543D01*
X112658400Y-64787119D01*
X112658402Y-64787119D01*
X112868933Y-64730707D01*
X112868935Y-64730706D01*
X112874243Y-64729284D01*
X112880235Y-64726490D01*
X113076762Y-64634849D01*
X113076767Y-64634846D01*
X113081749Y-64632523D01*
X113186611Y-64559098D01*
X113264789Y-64504357D01*
X113264792Y-64504355D01*
X113269300Y-64501198D01*
X113431198Y-64339300D01*
X113562523Y-64151749D01*
X113564846Y-64146767D01*
X113564849Y-64146762D01*
X113580805Y-64112543D01*
X113627722Y-64059258D01*
X113695999Y-64039797D01*
X113763959Y-64060339D01*
X113809195Y-64112543D01*
X113825151Y-64146762D01*
X113825154Y-64146767D01*
X113827477Y-64151749D01*
X113958802Y-64339300D01*
X114120700Y-64501198D01*
X114125208Y-64504355D01*
X114125211Y-64504357D01*
X114203389Y-64559098D01*
X114308251Y-64632523D01*
X114313233Y-64634846D01*
X114313238Y-64634849D01*
X114509765Y-64726490D01*
X114515757Y-64729284D01*
X114521065Y-64730706D01*
X114521067Y-64730707D01*
X114731598Y-64787119D01*
X114731600Y-64787119D01*
X114736913Y-64788543D01*
X114965000Y-64808498D01*
X115193087Y-64788543D01*
X115198400Y-64787119D01*
X115198402Y-64787119D01*
X115408933Y-64730707D01*
X115408935Y-64730706D01*
X115414243Y-64729284D01*
X115420235Y-64726490D01*
X115616762Y-64634849D01*
X115616767Y-64634846D01*
X115621749Y-64632523D01*
X115726611Y-64559098D01*
X115804789Y-64504357D01*
X115804792Y-64504355D01*
X115809300Y-64501198D01*
X115971198Y-64339300D01*
X116102523Y-64151749D01*
X116104846Y-64146767D01*
X116104849Y-64146762D01*
X116120805Y-64112543D01*
X116167722Y-64059258D01*
X116235999Y-64039797D01*
X116303959Y-64060339D01*
X116349195Y-64112543D01*
X116365151Y-64146762D01*
X116365154Y-64146767D01*
X116367477Y-64151749D01*
X116498802Y-64339300D01*
X116660700Y-64501198D01*
X116665208Y-64504355D01*
X116665211Y-64504357D01*
X116743389Y-64559098D01*
X116848251Y-64632523D01*
X116853233Y-64634846D01*
X116853238Y-64634849D01*
X117049765Y-64726490D01*
X117055757Y-64729284D01*
X117061065Y-64730706D01*
X117061067Y-64730707D01*
X117271598Y-64787119D01*
X117271600Y-64787119D01*
X117276913Y-64788543D01*
X117505000Y-64808498D01*
X117733087Y-64788543D01*
X117738400Y-64787119D01*
X117738402Y-64787119D01*
X117948933Y-64730707D01*
X117948935Y-64730706D01*
X117954243Y-64729284D01*
X117960235Y-64726490D01*
X118156762Y-64634849D01*
X118156767Y-64634846D01*
X118161749Y-64632523D01*
X118266611Y-64559098D01*
X118344789Y-64504357D01*
X118344792Y-64504355D01*
X118349300Y-64501198D01*
X118511198Y-64339300D01*
X118642523Y-64151749D01*
X118644846Y-64146767D01*
X118644849Y-64146762D01*
X118660805Y-64112543D01*
X118707722Y-64059258D01*
X118775999Y-64039797D01*
X118843959Y-64060339D01*
X118889195Y-64112543D01*
X118905151Y-64146762D01*
X118905154Y-64146767D01*
X118907477Y-64151749D01*
X119038802Y-64339300D01*
X119200700Y-64501198D01*
X119205208Y-64504355D01*
X119205211Y-64504357D01*
X119283389Y-64559098D01*
X119388251Y-64632523D01*
X119393233Y-64634846D01*
X119393238Y-64634849D01*
X119589765Y-64726490D01*
X119595757Y-64729284D01*
X119601065Y-64730706D01*
X119601067Y-64730707D01*
X119811598Y-64787119D01*
X119811600Y-64787119D01*
X119816913Y-64788543D01*
X120045000Y-64808498D01*
X120273087Y-64788543D01*
X120278400Y-64787119D01*
X120278402Y-64787119D01*
X120488933Y-64730707D01*
X120488935Y-64730706D01*
X120494243Y-64729284D01*
X120500235Y-64726490D01*
X120696762Y-64634849D01*
X120696767Y-64634846D01*
X120701749Y-64632523D01*
X120806611Y-64559098D01*
X120884789Y-64504357D01*
X120884792Y-64504355D01*
X120889300Y-64501198D01*
X121051198Y-64339300D01*
X121182523Y-64151749D01*
X121184846Y-64146767D01*
X121184849Y-64146762D01*
X121200805Y-64112543D01*
X121247722Y-64059258D01*
X121315999Y-64039797D01*
X121383959Y-64060339D01*
X121429195Y-64112543D01*
X121445151Y-64146762D01*
X121445154Y-64146767D01*
X121447477Y-64151749D01*
X121578802Y-64339300D01*
X121740700Y-64501198D01*
X121745208Y-64504355D01*
X121745211Y-64504357D01*
X121823389Y-64559098D01*
X121928251Y-64632523D01*
X121933233Y-64634846D01*
X121933238Y-64634849D01*
X122129765Y-64726490D01*
X122135757Y-64729284D01*
X122141065Y-64730706D01*
X122141067Y-64730707D01*
X122351598Y-64787119D01*
X122351600Y-64787119D01*
X122356913Y-64788543D01*
X122585000Y-64808498D01*
X122813087Y-64788543D01*
X122818400Y-64787119D01*
X122818402Y-64787119D01*
X123028933Y-64730707D01*
X123028935Y-64730706D01*
X123034243Y-64729284D01*
X123040235Y-64726490D01*
X123236762Y-64634849D01*
X123236767Y-64634846D01*
X123241749Y-64632523D01*
X123346611Y-64559098D01*
X123424789Y-64504357D01*
X123424792Y-64504355D01*
X123429300Y-64501198D01*
X123591198Y-64339300D01*
X123722523Y-64151749D01*
X123724846Y-64146767D01*
X123724849Y-64146762D01*
X123740805Y-64112543D01*
X123787722Y-64059258D01*
X123855999Y-64039797D01*
X123923959Y-64060339D01*
X123969195Y-64112543D01*
X123985151Y-64146762D01*
X123985154Y-64146767D01*
X123987477Y-64151749D01*
X124118802Y-64339300D01*
X124280700Y-64501198D01*
X124285208Y-64504355D01*
X124285211Y-64504357D01*
X124363389Y-64559098D01*
X124468251Y-64632523D01*
X124473233Y-64634846D01*
X124473238Y-64634849D01*
X124669765Y-64726490D01*
X124675757Y-64729284D01*
X124681065Y-64730706D01*
X124681067Y-64730707D01*
X124891598Y-64787119D01*
X124891600Y-64787119D01*
X124896913Y-64788543D01*
X125125000Y-64808498D01*
X125353087Y-64788543D01*
X125358400Y-64787119D01*
X125358402Y-64787119D01*
X125568933Y-64730707D01*
X125568935Y-64730706D01*
X125574243Y-64729284D01*
X125580235Y-64726490D01*
X125776762Y-64634849D01*
X125776767Y-64634846D01*
X125781749Y-64632523D01*
X125886611Y-64559098D01*
X125964789Y-64504357D01*
X125964792Y-64504355D01*
X125969300Y-64501198D01*
X126131198Y-64339300D01*
X126262523Y-64151749D01*
X126264846Y-64146767D01*
X126264849Y-64146762D01*
X126356961Y-63949225D01*
X126356961Y-63949224D01*
X126359284Y-63944243D01*
X126418543Y-63723087D01*
X126433500Y-63552127D01*
X126433500Y-62637873D01*
X126418543Y-62466913D01*
X126373710Y-62299594D01*
X126360707Y-62251067D01*
X126360706Y-62251065D01*
X126359284Y-62245757D01*
X126305148Y-62129661D01*
X126264849Y-62043238D01*
X126264846Y-62043233D01*
X126262523Y-62038251D01*
X126142638Y-61867038D01*
X126134357Y-61855211D01*
X126134355Y-61855208D01*
X126131198Y-61850700D01*
X125969300Y-61688802D01*
X125964792Y-61685645D01*
X125964789Y-61685643D01*
X125886611Y-61630902D01*
X125781749Y-61557477D01*
X125776767Y-61555154D01*
X125776762Y-61555151D01*
X125579225Y-61463039D01*
X125579224Y-61463039D01*
X125574243Y-61460716D01*
X125568935Y-61459294D01*
X125568933Y-61459293D01*
X125358402Y-61402881D01*
X125358400Y-61402881D01*
X125353087Y-61401457D01*
X125125000Y-61381502D01*
X124896913Y-61401457D01*
X124891600Y-61402881D01*
X124891598Y-61402881D01*
X124681067Y-61459293D01*
X124681065Y-61459294D01*
X124675757Y-61460716D01*
X124670776Y-61463039D01*
X124670775Y-61463039D01*
X124473238Y-61555151D01*
X124473233Y-61555154D01*
X124468251Y-61557477D01*
X124363389Y-61630902D01*
X124285211Y-61685643D01*
X124285208Y-61685645D01*
X124280700Y-61688802D01*
X124118802Y-61850700D01*
X124115645Y-61855208D01*
X124115643Y-61855211D01*
X124107362Y-61867038D01*
X123987477Y-62038251D01*
X123985154Y-62043233D01*
X123985151Y-62043238D01*
X123969195Y-62077457D01*
X123922278Y-62130742D01*
X123854001Y-62150203D01*
X123786041Y-62129661D01*
X123740805Y-62077457D01*
X123724849Y-62043238D01*
X123724846Y-62043233D01*
X123722523Y-62038251D01*
X123602638Y-61867038D01*
X123594357Y-61855211D01*
X123594355Y-61855208D01*
X123591198Y-61850700D01*
X123429300Y-61688802D01*
X123424792Y-61685645D01*
X123424789Y-61685643D01*
X123346611Y-61630902D01*
X123241749Y-61557477D01*
X123236767Y-61555154D01*
X123236762Y-61555151D01*
X123039225Y-61463039D01*
X123039224Y-61463039D01*
X123034243Y-61460716D01*
X123028935Y-61459294D01*
X123028933Y-61459293D01*
X122818402Y-61402881D01*
X122818400Y-61402881D01*
X122813087Y-61401457D01*
X122585000Y-61381502D01*
X122356913Y-61401457D01*
X122351600Y-61402881D01*
X122351598Y-61402881D01*
X122141067Y-61459293D01*
X122141065Y-61459294D01*
X122135757Y-61460716D01*
X122130776Y-61463039D01*
X122130775Y-61463039D01*
X121933238Y-61555151D01*
X121933233Y-61555154D01*
X121928251Y-61557477D01*
X121823389Y-61630902D01*
X121745211Y-61685643D01*
X121745208Y-61685645D01*
X121740700Y-61688802D01*
X121578802Y-61850700D01*
X121575645Y-61855208D01*
X121575643Y-61855211D01*
X121567362Y-61867038D01*
X121447477Y-62038251D01*
X121445154Y-62043233D01*
X121445151Y-62043238D01*
X121429195Y-62077457D01*
X121382278Y-62130742D01*
X121314001Y-62150203D01*
X121246041Y-62129661D01*
X121200805Y-62077457D01*
X121184849Y-62043238D01*
X121184846Y-62043233D01*
X121182523Y-62038251D01*
X121062638Y-61867038D01*
X121054357Y-61855211D01*
X121054355Y-61855208D01*
X121051198Y-61850700D01*
X120889300Y-61688802D01*
X120884792Y-61685645D01*
X120884789Y-61685643D01*
X120806611Y-61630902D01*
X120701749Y-61557477D01*
X120696767Y-61555154D01*
X120696762Y-61555151D01*
X120499225Y-61463039D01*
X120499224Y-61463039D01*
X120494243Y-61460716D01*
X120488935Y-61459294D01*
X120488933Y-61459293D01*
X120278402Y-61402881D01*
X120278400Y-61402881D01*
X120273087Y-61401457D01*
X120045000Y-61381502D01*
X119816913Y-61401457D01*
X119811600Y-61402881D01*
X119811598Y-61402881D01*
X119601067Y-61459293D01*
X119601065Y-61459294D01*
X119595757Y-61460716D01*
X119590776Y-61463039D01*
X119590775Y-61463039D01*
X119393238Y-61555151D01*
X119393233Y-61555154D01*
X119388251Y-61557477D01*
X119283389Y-61630902D01*
X119205211Y-61685643D01*
X119205208Y-61685645D01*
X119200700Y-61688802D01*
X119038802Y-61850700D01*
X119035645Y-61855208D01*
X119035643Y-61855211D01*
X119027362Y-61867038D01*
X118907477Y-62038251D01*
X118905154Y-62043233D01*
X118905151Y-62043238D01*
X118889195Y-62077457D01*
X118842278Y-62130742D01*
X118774001Y-62150203D01*
X118706041Y-62129661D01*
X118660805Y-62077457D01*
X118644849Y-62043238D01*
X118644846Y-62043233D01*
X118642523Y-62038251D01*
X118522638Y-61867038D01*
X118514357Y-61855211D01*
X118514355Y-61855208D01*
X118511198Y-61850700D01*
X118349300Y-61688802D01*
X118344792Y-61685645D01*
X118344789Y-61685643D01*
X118266611Y-61630902D01*
X118161749Y-61557477D01*
X118156767Y-61555154D01*
X118156762Y-61555151D01*
X117959225Y-61463039D01*
X117959224Y-61463039D01*
X117954243Y-61460716D01*
X117948935Y-61459294D01*
X117948933Y-61459293D01*
X117738402Y-61402881D01*
X117738400Y-61402881D01*
X117733087Y-61401457D01*
X117505000Y-61381502D01*
X117276913Y-61401457D01*
X117271600Y-61402881D01*
X117271598Y-61402881D01*
X117061067Y-61459293D01*
X117061065Y-61459294D01*
X117055757Y-61460716D01*
X117050776Y-61463039D01*
X117050775Y-61463039D01*
X116853238Y-61555151D01*
X116853233Y-61555154D01*
X116848251Y-61557477D01*
X116743389Y-61630902D01*
X116665211Y-61685643D01*
X116665208Y-61685645D01*
X116660700Y-61688802D01*
X116498802Y-61850700D01*
X116495645Y-61855208D01*
X116495643Y-61855211D01*
X116487362Y-61867038D01*
X116367477Y-62038251D01*
X116365154Y-62043233D01*
X116365151Y-62043238D01*
X116349195Y-62077457D01*
X116302278Y-62130742D01*
X116234001Y-62150203D01*
X116166041Y-62129661D01*
X116120805Y-62077457D01*
X116104849Y-62043238D01*
X116104846Y-62043233D01*
X116102523Y-62038251D01*
X115982638Y-61867038D01*
X115974357Y-61855211D01*
X115974355Y-61855208D01*
X115971198Y-61850700D01*
X115809300Y-61688802D01*
X115804792Y-61685645D01*
X115804789Y-61685643D01*
X115726611Y-61630902D01*
X115621749Y-61557477D01*
X115616767Y-61555154D01*
X115616762Y-61555151D01*
X115419225Y-61463039D01*
X115419224Y-61463039D01*
X115414243Y-61460716D01*
X115408935Y-61459294D01*
X115408933Y-61459293D01*
X115198402Y-61402881D01*
X115198400Y-61402881D01*
X115193087Y-61401457D01*
X114965000Y-61381502D01*
X114736913Y-61401457D01*
X114731600Y-61402881D01*
X114731598Y-61402881D01*
X114521067Y-61459293D01*
X114521065Y-61459294D01*
X114515757Y-61460716D01*
X114510776Y-61463039D01*
X114510775Y-61463039D01*
X114313238Y-61555151D01*
X114313233Y-61555154D01*
X114308251Y-61557477D01*
X114203389Y-61630902D01*
X114125211Y-61685643D01*
X114125208Y-61685645D01*
X114120700Y-61688802D01*
X113958802Y-61850700D01*
X113955645Y-61855208D01*
X113955643Y-61855211D01*
X113947362Y-61867038D01*
X113827477Y-62038251D01*
X113825154Y-62043233D01*
X113825151Y-62043238D01*
X113809195Y-62077457D01*
X113762278Y-62130742D01*
X113694001Y-62150203D01*
X113626041Y-62129661D01*
X113580805Y-62077457D01*
X113564849Y-62043238D01*
X113564846Y-62043233D01*
X113562523Y-62038251D01*
X113442638Y-61867038D01*
X113434357Y-61855211D01*
X113434355Y-61855208D01*
X113431198Y-61850700D01*
X113269300Y-61688802D01*
X113264792Y-61685645D01*
X113264789Y-61685643D01*
X113186611Y-61630902D01*
X113081749Y-61557477D01*
X113076767Y-61555154D01*
X113076762Y-61555151D01*
X112879225Y-61463039D01*
X112879224Y-61463039D01*
X112874243Y-61460716D01*
X112868935Y-61459294D01*
X112868933Y-61459293D01*
X112658402Y-61402881D01*
X112658400Y-61402881D01*
X112653087Y-61401457D01*
X112425000Y-61381502D01*
X112196913Y-61401457D01*
X112191600Y-61402881D01*
X112191598Y-61402881D01*
X111981067Y-61459293D01*
X111981065Y-61459294D01*
X111975757Y-61460716D01*
X111970776Y-61463039D01*
X111970775Y-61463039D01*
X111773238Y-61555151D01*
X111773233Y-61555154D01*
X111768251Y-61557477D01*
X111663389Y-61630902D01*
X111585211Y-61685643D01*
X111585208Y-61685645D01*
X111580700Y-61688802D01*
X111418802Y-61850700D01*
X111415645Y-61855208D01*
X111415643Y-61855211D01*
X111407362Y-61867038D01*
X111287477Y-62038251D01*
X111285154Y-62043233D01*
X111285151Y-62043238D01*
X111268919Y-62078049D01*
X111222002Y-62131334D01*
X111153725Y-62150795D01*
X111085765Y-62130253D01*
X111040529Y-62078049D01*
X111024414Y-62043489D01*
X111018931Y-62033993D01*
X110893972Y-61855533D01*
X110886916Y-61847125D01*
X110732875Y-61693084D01*
X110724467Y-61686028D01*
X110546007Y-61561069D01*
X110536511Y-61555586D01*
X110339053Y-61463510D01*
X110328761Y-61459764D01*
X110156497Y-61413606D01*
X110142401Y-61413942D01*
X110139000Y-61421884D01*
X110139000Y-64762967D01*
X109631000Y-64762967D01*
X109631000Y-61427033D01*
X109627027Y-61413502D01*
X109618478Y-61412273D01*
X109441239Y-61459764D01*
X109430947Y-61463510D01*
X109233489Y-61555586D01*
X109223993Y-61561069D01*
X109045533Y-61686028D01*
X109037125Y-61693084D01*
X108883084Y-61847125D01*
X108876028Y-61855533D01*
X108751069Y-62033993D01*
X108745586Y-62043489D01*
X108729471Y-62078049D01*
X108682554Y-62131334D01*
X108614277Y-62150795D01*
X108546317Y-62130253D01*
X108501081Y-62078049D01*
X108484849Y-62043238D01*
X108484846Y-62043233D01*
X108482523Y-62038251D01*
X108362638Y-61867038D01*
X108354357Y-61855211D01*
X108354355Y-61855208D01*
X108351198Y-61850700D01*
X108189300Y-61688802D01*
X108184792Y-61685645D01*
X108184789Y-61685643D01*
X108106611Y-61630902D01*
X108001749Y-61557477D01*
X107996767Y-61555154D01*
X107996762Y-61555151D01*
X107799225Y-61463039D01*
X107799224Y-61463039D01*
X107794243Y-61460716D01*
X107788935Y-61459294D01*
X107788933Y-61459293D01*
X107578402Y-61402881D01*
X107578400Y-61402881D01*
X107573087Y-61401457D01*
X107345000Y-61381502D01*
X107116913Y-61401457D01*
X107111600Y-61402881D01*
X107111598Y-61402881D01*
X106901067Y-61459293D01*
X106901065Y-61459294D01*
X106895757Y-61460716D01*
X106890776Y-61463039D01*
X106890775Y-61463039D01*
X106693238Y-61555151D01*
X106693233Y-61555154D01*
X106688251Y-61557477D01*
X106583389Y-61630902D01*
X106505211Y-61685643D01*
X106505208Y-61685645D01*
X106500700Y-61688802D01*
X106338802Y-61850700D01*
X106335645Y-61855208D01*
X106335643Y-61855211D01*
X106327362Y-61867038D01*
X106207477Y-62038251D01*
X106205154Y-62043233D01*
X106205151Y-62043238D01*
X106189195Y-62077457D01*
X106142278Y-62130742D01*
X106074001Y-62150203D01*
X106006041Y-62129661D01*
X105960805Y-62077457D01*
X105944849Y-62043238D01*
X105944846Y-62043233D01*
X105942523Y-62038251D01*
X105822638Y-61867038D01*
X105814357Y-61855211D01*
X105814355Y-61855208D01*
X105811198Y-61850700D01*
X105649300Y-61688802D01*
X105644792Y-61685645D01*
X105644789Y-61685643D01*
X105566611Y-61630902D01*
X105461749Y-61557477D01*
X105456767Y-61555154D01*
X105456762Y-61555151D01*
X105259225Y-61463039D01*
X105259224Y-61463039D01*
X105254243Y-61460716D01*
X105248935Y-61459294D01*
X105248933Y-61459293D01*
X105038402Y-61402881D01*
X105038400Y-61402881D01*
X105033087Y-61401457D01*
X104805000Y-61381502D01*
X104576913Y-61401457D01*
X104571600Y-61402881D01*
X104571598Y-61402881D01*
X104361067Y-61459293D01*
X104361065Y-61459294D01*
X104355757Y-61460716D01*
X104350776Y-61463039D01*
X104350775Y-61463039D01*
X104153238Y-61555151D01*
X104153233Y-61555154D01*
X104148251Y-61557477D01*
X104043389Y-61630902D01*
X103965211Y-61685643D01*
X103965208Y-61685645D01*
X103960700Y-61688802D01*
X103798802Y-61850700D01*
X103795645Y-61855208D01*
X103795643Y-61855211D01*
X103787362Y-61867038D01*
X103667477Y-62038251D01*
X103665154Y-62043233D01*
X103665151Y-62043238D01*
X103649195Y-62077457D01*
X103602278Y-62130742D01*
X103534001Y-62150203D01*
X103466041Y-62129661D01*
X103420805Y-62077457D01*
X103404849Y-62043238D01*
X103404846Y-62043233D01*
X103402523Y-62038251D01*
X103282638Y-61867038D01*
X103274357Y-61855211D01*
X103274355Y-61855208D01*
X103271198Y-61850700D01*
X103109300Y-61688802D01*
X103104792Y-61685645D01*
X103104789Y-61685643D01*
X103026611Y-61630902D01*
X102921749Y-61557477D01*
X102916767Y-61555154D01*
X102916762Y-61555151D01*
X102719225Y-61463039D01*
X102719224Y-61463039D01*
X102714243Y-61460716D01*
X102708935Y-61459294D01*
X102708933Y-61459293D01*
X102498402Y-61402881D01*
X102498400Y-61402881D01*
X102493087Y-61401457D01*
X102265000Y-61381502D01*
X102036913Y-61401457D01*
X102031600Y-61402881D01*
X102031598Y-61402881D01*
X101821067Y-61459293D01*
X101821065Y-61459294D01*
X101815757Y-61460716D01*
X101810776Y-61463039D01*
X101810775Y-61463039D01*
X101613238Y-61555151D01*
X101613233Y-61555154D01*
X101608251Y-61557477D01*
X101503389Y-61630902D01*
X101425211Y-61685643D01*
X101425208Y-61685645D01*
X101420700Y-61688802D01*
X101258802Y-61850700D01*
X101255645Y-61855208D01*
X101255643Y-61855211D01*
X101247362Y-61867038D01*
X101127477Y-62038251D01*
X101125154Y-62043233D01*
X101125151Y-62043238D01*
X101109195Y-62077457D01*
X101062278Y-62130742D01*
X100994001Y-62150203D01*
X100926041Y-62129661D01*
X100880805Y-62077457D01*
X100864849Y-62043238D01*
X100864846Y-62043233D01*
X100862523Y-62038251D01*
X100742638Y-61867038D01*
X100734357Y-61855211D01*
X100734355Y-61855208D01*
X100731198Y-61850700D01*
X100569300Y-61688802D01*
X100564792Y-61685645D01*
X100564789Y-61685643D01*
X100486611Y-61630902D01*
X100381749Y-61557477D01*
X100376767Y-61555154D01*
X100376762Y-61555151D01*
X100179225Y-61463039D01*
X100179224Y-61463039D01*
X100174243Y-61460716D01*
X100168935Y-61459294D01*
X100168933Y-61459293D01*
X99958402Y-61402881D01*
X99958400Y-61402881D01*
X99953087Y-61401457D01*
X99725000Y-61381502D01*
X99496913Y-61401457D01*
X99491600Y-61402881D01*
X99491598Y-61402881D01*
X99281067Y-61459293D01*
X99281065Y-61459294D01*
X99275757Y-61460716D01*
X99270776Y-61463039D01*
X99270775Y-61463039D01*
X99073238Y-61555151D01*
X99073233Y-61555154D01*
X99068251Y-61557477D01*
X98963389Y-61630902D01*
X98885211Y-61685643D01*
X98885208Y-61685645D01*
X98880700Y-61688802D01*
X98718802Y-61850700D01*
X98715645Y-61855208D01*
X98715643Y-61855211D01*
X98707362Y-61867038D01*
X98587477Y-62038251D01*
X98585154Y-62043233D01*
X98585151Y-62043238D01*
X98569195Y-62077457D01*
X98522278Y-62130742D01*
X98454001Y-62150203D01*
X98386041Y-62129661D01*
X98340805Y-62077457D01*
X98324849Y-62043238D01*
X98324846Y-62043233D01*
X98322523Y-62038251D01*
X98202638Y-61867038D01*
X98194357Y-61855211D01*
X98194355Y-61855208D01*
X98191198Y-61850700D01*
X98029300Y-61688802D01*
X98024792Y-61685645D01*
X98024789Y-61685643D01*
X97946611Y-61630902D01*
X97841749Y-61557477D01*
X97836767Y-61555154D01*
X97836762Y-61555151D01*
X97639225Y-61463039D01*
X97639224Y-61463039D01*
X97634243Y-61460716D01*
X97628935Y-61459294D01*
X97628933Y-61459293D01*
X97418402Y-61402881D01*
X97418400Y-61402881D01*
X97413087Y-61401457D01*
X97185000Y-61381502D01*
X96956913Y-61401457D01*
X96951600Y-61402881D01*
X96951598Y-61402881D01*
X96741067Y-61459293D01*
X96741065Y-61459294D01*
X96735757Y-61460716D01*
X96730776Y-61463039D01*
X96730775Y-61463039D01*
X96533238Y-61555151D01*
X96533233Y-61555154D01*
X96528251Y-61557477D01*
X96423389Y-61630902D01*
X96345211Y-61685643D01*
X96345208Y-61685645D01*
X96340700Y-61688802D01*
X96178802Y-61850700D01*
X96175645Y-61855208D01*
X96175643Y-61855211D01*
X96167362Y-61867038D01*
X96047477Y-62038251D01*
X96045154Y-62043233D01*
X96045151Y-62043238D01*
X96029195Y-62077457D01*
X95982278Y-62130742D01*
X95914001Y-62150203D01*
X95846041Y-62129661D01*
X95800805Y-62077457D01*
X95784849Y-62043238D01*
X95784846Y-62043233D01*
X95782523Y-62038251D01*
X95662638Y-61867038D01*
X95654357Y-61855211D01*
X95654355Y-61855208D01*
X95651198Y-61850700D01*
X95489300Y-61688802D01*
X95484792Y-61685645D01*
X95484789Y-61685643D01*
X95406611Y-61630902D01*
X95301749Y-61557477D01*
X95296767Y-61555154D01*
X95296762Y-61555151D01*
X95099225Y-61463039D01*
X95099224Y-61463039D01*
X95094243Y-61460716D01*
X95088935Y-61459294D01*
X95088933Y-61459293D01*
X94878402Y-61402881D01*
X94878400Y-61402881D01*
X94873087Y-61401457D01*
X94645000Y-61381502D01*
X94416913Y-61401457D01*
X94411600Y-61402881D01*
X94411598Y-61402881D01*
X94201067Y-61459293D01*
X94201065Y-61459294D01*
X94195757Y-61460716D01*
X94190776Y-61463039D01*
X94190775Y-61463039D01*
X93993238Y-61555151D01*
X93993233Y-61555154D01*
X93988251Y-61557477D01*
X93883389Y-61630902D01*
X93805211Y-61685643D01*
X93805208Y-61685645D01*
X93800700Y-61688802D01*
X93638802Y-61850700D01*
X93635645Y-61855208D01*
X93635643Y-61855211D01*
X93627362Y-61867038D01*
X93507477Y-62038251D01*
X93505154Y-62043233D01*
X93505151Y-62043238D01*
X93489195Y-62077457D01*
X93442278Y-62130742D01*
X93374001Y-62150203D01*
X93306041Y-62129661D01*
X93260805Y-62077457D01*
X93244849Y-62043238D01*
X93244846Y-62043233D01*
X93242523Y-62038251D01*
X93122638Y-61867038D01*
X93114357Y-61855211D01*
X93114355Y-61855208D01*
X93111198Y-61850700D01*
X92949300Y-61688802D01*
X92944792Y-61685645D01*
X92944789Y-61685643D01*
X92866611Y-61630902D01*
X92761749Y-61557477D01*
X92756767Y-61555154D01*
X92756762Y-61555151D01*
X92559225Y-61463039D01*
X92559224Y-61463039D01*
X92554243Y-61460716D01*
X92548935Y-61459294D01*
X92548933Y-61459293D01*
X92338402Y-61402881D01*
X92338400Y-61402881D01*
X92333087Y-61401457D01*
X92105000Y-61381502D01*
X91876913Y-61401457D01*
X91871600Y-61402881D01*
X91871598Y-61402881D01*
X91661067Y-61459293D01*
X91661065Y-61459294D01*
X91655757Y-61460716D01*
X91650776Y-61463039D01*
X91650775Y-61463039D01*
X91453238Y-61555151D01*
X91453233Y-61555154D01*
X91448251Y-61557477D01*
X91343389Y-61630902D01*
X91265211Y-61685643D01*
X91265208Y-61685645D01*
X91260700Y-61688802D01*
X91098802Y-61850700D01*
X91095645Y-61855208D01*
X91095643Y-61855211D01*
X91087362Y-61867038D01*
X90967477Y-62038251D01*
X90965154Y-62043233D01*
X90965151Y-62043238D01*
X90924852Y-62129661D01*
X90870716Y-62245757D01*
X90869294Y-62251065D01*
X90869293Y-62251067D01*
X90856290Y-62299594D01*
X90811457Y-62466913D01*
X90796500Y-62637873D01*
X90796500Y-63552127D01*
X73600000Y-63552127D01*
X73600000Y-63153034D01*
X74991521Y-63153034D01*
X75000817Y-63165049D01*
X75042081Y-63193942D01*
X75051576Y-63199425D01*
X75241740Y-63288099D01*
X75252032Y-63291845D01*
X75454704Y-63346151D01*
X75465499Y-63348054D01*
X75674525Y-63366342D01*
X75685475Y-63366342D01*
X75894501Y-63348054D01*
X75905296Y-63346151D01*
X76107968Y-63291845D01*
X76118260Y-63288099D01*
X76308424Y-63199425D01*
X76317919Y-63193942D01*
X76360021Y-63164462D01*
X76368396Y-63153985D01*
X76361328Y-63140538D01*
X75692812Y-62472022D01*
X75678868Y-62464408D01*
X75677035Y-62464539D01*
X75670420Y-62468790D01*
X74997951Y-63141259D01*
X74991521Y-63153034D01*
X73600000Y-63153034D01*
X73600000Y-62105475D01*
X74413658Y-62105475D01*
X74431946Y-62314501D01*
X74433849Y-62325296D01*
X74488155Y-62527968D01*
X74491901Y-62538260D01*
X74580577Y-62728425D01*
X74586055Y-62737915D01*
X74615539Y-62780022D01*
X74626015Y-62788396D01*
X74639463Y-62781327D01*
X75307978Y-62112812D01*
X75314356Y-62101132D01*
X76044408Y-62101132D01*
X76044539Y-62102965D01*
X76048790Y-62109580D01*
X76721259Y-62782049D01*
X76733034Y-62788479D01*
X76754401Y-62771949D01*
X76820519Y-62746086D01*
X76890124Y-62760076D01*
X76941116Y-62809475D01*
X76957500Y-62871607D01*
X76957500Y-62902134D01*
X76964255Y-62964316D01*
X77015385Y-63100705D01*
X77102739Y-63217261D01*
X77219295Y-63304615D01*
X77355684Y-63355745D01*
X77417866Y-63362500D01*
X79022134Y-63362500D01*
X79084316Y-63355745D01*
X79220705Y-63304615D01*
X79337261Y-63217261D01*
X79424615Y-63100705D01*
X79475745Y-62964316D01*
X79482500Y-62902134D01*
X79482500Y-61297866D01*
X79475745Y-61235684D01*
X79424615Y-61099295D01*
X79391418Y-61055000D01*
X86161693Y-61055000D01*
X86180885Y-61274371D01*
X86237880Y-61487076D01*
X86272181Y-61560634D01*
X86328618Y-61681666D01*
X86328621Y-61681671D01*
X86330944Y-61686653D01*
X86334100Y-61691160D01*
X86334101Y-61691162D01*
X86448970Y-61855211D01*
X86457251Y-61867038D01*
X86612962Y-62022749D01*
X86617471Y-62025906D01*
X86617473Y-62025908D01*
X86691093Y-62077457D01*
X86793346Y-62149056D01*
X86992924Y-62242120D01*
X87205629Y-62299115D01*
X87425000Y-62318307D01*
X87644371Y-62299115D01*
X87857076Y-62242120D01*
X88056654Y-62149056D01*
X88158907Y-62077457D01*
X88232527Y-62025908D01*
X88232529Y-62025906D01*
X88237038Y-62022749D01*
X88392749Y-61867038D01*
X88401031Y-61855211D01*
X88515899Y-61691162D01*
X88515900Y-61691160D01*
X88519056Y-61686653D01*
X88521379Y-61681671D01*
X88521382Y-61681666D01*
X88577819Y-61560634D01*
X88612120Y-61487076D01*
X88669115Y-61274371D01*
X88688307Y-61055000D01*
X88669115Y-60835629D01*
X88612120Y-60622924D01*
X88538160Y-60464316D01*
X88521382Y-60428334D01*
X88521379Y-60428329D01*
X88519056Y-60423347D01*
X88515899Y-60418838D01*
X88395908Y-60247473D01*
X88395906Y-60247470D01*
X88392749Y-60242962D01*
X88237038Y-60087251D01*
X88056654Y-59960944D01*
X87857076Y-59867880D01*
X87644371Y-59810885D01*
X87425000Y-59791693D01*
X87205629Y-59810885D01*
X86992924Y-59867880D01*
X86899562Y-59911415D01*
X86798334Y-59958618D01*
X86798329Y-59958621D01*
X86793347Y-59960944D01*
X86788840Y-59964100D01*
X86788838Y-59964101D01*
X86617473Y-60084092D01*
X86617470Y-60084094D01*
X86612962Y-60087251D01*
X86457251Y-60242962D01*
X86454094Y-60247470D01*
X86454092Y-60247473D01*
X86334101Y-60418838D01*
X86330944Y-60423347D01*
X86328621Y-60428329D01*
X86328618Y-60428334D01*
X86311840Y-60464316D01*
X86237880Y-60622924D01*
X86180885Y-60835629D01*
X86161693Y-61055000D01*
X79391418Y-61055000D01*
X79337261Y-60982739D01*
X79220705Y-60895385D01*
X79084316Y-60844255D01*
X79022134Y-60837500D01*
X77417866Y-60837500D01*
X77355684Y-60844255D01*
X77219295Y-60895385D01*
X77102739Y-60982739D01*
X77015385Y-61099295D01*
X76964255Y-61235684D01*
X76957500Y-61297866D01*
X76957500Y-61328245D01*
X76937498Y-61396366D01*
X76883842Y-61442859D01*
X76813568Y-61452963D01*
X76752828Y-61426666D01*
X76733985Y-61411604D01*
X76720537Y-61418673D01*
X76052022Y-62087188D01*
X76044408Y-62101132D01*
X75314356Y-62101132D01*
X75315592Y-62098868D01*
X75315461Y-62097035D01*
X75311210Y-62090420D01*
X74638741Y-61417951D01*
X74626967Y-61411521D01*
X74614951Y-61420817D01*
X74586055Y-61462085D01*
X74580577Y-61471575D01*
X74491901Y-61661740D01*
X74488155Y-61672032D01*
X74433849Y-61874704D01*
X74431946Y-61885499D01*
X74413658Y-62094525D01*
X74413658Y-62105475D01*
X73600000Y-62105475D01*
X73600000Y-61046015D01*
X74991604Y-61046015D01*
X74998673Y-61059463D01*
X75667188Y-61727978D01*
X75681132Y-61735592D01*
X75682965Y-61735461D01*
X75689580Y-61731210D01*
X76362049Y-61058741D01*
X76368479Y-61046966D01*
X76359183Y-61034951D01*
X76317919Y-61006058D01*
X76308424Y-61000575D01*
X76118260Y-60911901D01*
X76107968Y-60908155D01*
X75905296Y-60853849D01*
X75894501Y-60851946D01*
X75685475Y-60833658D01*
X75674525Y-60833658D01*
X75465499Y-60851946D01*
X75454704Y-60853849D01*
X75252032Y-60908155D01*
X75241740Y-60911901D01*
X75051575Y-61000577D01*
X75042085Y-61006055D01*
X74999978Y-61035539D01*
X74991604Y-61046015D01*
X73600000Y-61046015D01*
X73600000Y-56175000D01*
X86161693Y-56175000D01*
X86180885Y-56394371D01*
X86237880Y-56607076D01*
X86267935Y-56671529D01*
X86328618Y-56801666D01*
X86328621Y-56801671D01*
X86330944Y-56806653D01*
X86334100Y-56811160D01*
X86334101Y-56811162D01*
X86380143Y-56876916D01*
X86457251Y-56987038D01*
X86612962Y-57142749D01*
X86617471Y-57145906D01*
X86617473Y-57145908D01*
X86657551Y-57173971D01*
X86793346Y-57269056D01*
X86992924Y-57362120D01*
X87205629Y-57419115D01*
X87425000Y-57438307D01*
X87644371Y-57419115D01*
X87857076Y-57362120D01*
X88056654Y-57269056D01*
X88192449Y-57173971D01*
X88232527Y-57145908D01*
X88232529Y-57145906D01*
X88237038Y-57142749D01*
X88392749Y-56987038D01*
X88469858Y-56876916D01*
X88515899Y-56811162D01*
X88515900Y-56811160D01*
X88519056Y-56806653D01*
X88521379Y-56801671D01*
X88521382Y-56801666D01*
X88582065Y-56671529D01*
X88612120Y-56607076D01*
X88669115Y-56394371D01*
X88688307Y-56175000D01*
X88669115Y-55955629D01*
X88612120Y-55742924D01*
X88568585Y-55649562D01*
X88521382Y-55548334D01*
X88521379Y-55548329D01*
X88519056Y-55543347D01*
X88392749Y-55362962D01*
X88237038Y-55207251D01*
X88056654Y-55080944D01*
X87857076Y-54987880D01*
X87644371Y-54930885D01*
X87425000Y-54911693D01*
X87205629Y-54930885D01*
X86992924Y-54987880D01*
X86928604Y-55017873D01*
X86798334Y-55078618D01*
X86798329Y-55078621D01*
X86793347Y-55080944D01*
X86788840Y-55084100D01*
X86788838Y-55084101D01*
X86617473Y-55204092D01*
X86617470Y-55204094D01*
X86612962Y-55207251D01*
X86457251Y-55362962D01*
X86330944Y-55543347D01*
X86328621Y-55548329D01*
X86328618Y-55548334D01*
X86281415Y-55649562D01*
X86237880Y-55742924D01*
X86180885Y-55955629D01*
X86161693Y-56175000D01*
X73600000Y-56175000D01*
X73600000Y-55300000D01*
X48434000Y-55300000D01*
X48365879Y-55279998D01*
X48319386Y-55226342D01*
X48308000Y-55174000D01*
X48308000Y-51152134D01*
X73337500Y-51152134D01*
X73344255Y-51214316D01*
X73395385Y-51350705D01*
X73482739Y-51467261D01*
X73599295Y-51554615D01*
X73735684Y-51605745D01*
X73797866Y-51612500D01*
X75402134Y-51612500D01*
X75464316Y-51605745D01*
X75600705Y-51554615D01*
X75717261Y-51467261D01*
X75765397Y-51403034D01*
X76411521Y-51403034D01*
X76420817Y-51415049D01*
X76462081Y-51443942D01*
X76471576Y-51449425D01*
X76661740Y-51538099D01*
X76672032Y-51541845D01*
X76874704Y-51596151D01*
X76885499Y-51598054D01*
X77094525Y-51616342D01*
X77105475Y-51616342D01*
X77314501Y-51598054D01*
X77325296Y-51596151D01*
X77527968Y-51541845D01*
X77538260Y-51538099D01*
X77728424Y-51449425D01*
X77737919Y-51443942D01*
X77780021Y-51414462D01*
X77788396Y-51403985D01*
X77781328Y-51390538D01*
X77112812Y-50722022D01*
X77098868Y-50714408D01*
X77097035Y-50714539D01*
X77090420Y-50718790D01*
X76417951Y-51391259D01*
X76411521Y-51403034D01*
X75765397Y-51403034D01*
X75804615Y-51350705D01*
X75855745Y-51214316D01*
X75862500Y-51152134D01*
X75862500Y-51148716D01*
X75862601Y-51146851D01*
X75886257Y-51079911D01*
X75942348Y-51036387D01*
X76013065Y-51030097D01*
X76030282Y-51038110D01*
X76043881Y-51039517D01*
X76059463Y-51031327D01*
X76727978Y-50362812D01*
X76734356Y-50351132D01*
X77464408Y-50351132D01*
X77464539Y-50352965D01*
X77468790Y-50359580D01*
X78141259Y-51032049D01*
X78153033Y-51038479D01*
X78165049Y-51029183D01*
X78193945Y-50987915D01*
X78199423Y-50978425D01*
X78288099Y-50788260D01*
X78291845Y-50777968D01*
X78346151Y-50575296D01*
X78348054Y-50564501D01*
X78366342Y-50355475D01*
X78366342Y-50344525D01*
X78348054Y-50135499D01*
X78346151Y-50124704D01*
X78291845Y-49922032D01*
X78288099Y-49911740D01*
X78199423Y-49721575D01*
X78193945Y-49712085D01*
X78164461Y-49669978D01*
X78153985Y-49661604D01*
X78140537Y-49668673D01*
X77472022Y-50337188D01*
X77464408Y-50351132D01*
X76734356Y-50351132D01*
X76735592Y-50348868D01*
X76735461Y-50347035D01*
X76731210Y-50340420D01*
X76058741Y-49667951D01*
X76044797Y-49660337D01*
X76028885Y-49661475D01*
X75999456Y-49672985D01*
X75929852Y-49658994D01*
X75878861Y-49609593D01*
X75862662Y-49554276D01*
X75862500Y-49551283D01*
X75862500Y-49547866D01*
X75855745Y-49485684D01*
X75804615Y-49349295D01*
X75764684Y-49296015D01*
X76411604Y-49296015D01*
X76418673Y-49309463D01*
X77087188Y-49977978D01*
X77101132Y-49985592D01*
X77102965Y-49985461D01*
X77109580Y-49981210D01*
X77782049Y-49308741D01*
X77788479Y-49296966D01*
X77779183Y-49284951D01*
X77737919Y-49256058D01*
X77728424Y-49250575D01*
X77538260Y-49161901D01*
X77527968Y-49158155D01*
X77325296Y-49103849D01*
X77314501Y-49101946D01*
X77105475Y-49083658D01*
X77094525Y-49083658D01*
X76885499Y-49101946D01*
X76874704Y-49103849D01*
X76672032Y-49158155D01*
X76661740Y-49161901D01*
X76471575Y-49250577D01*
X76462085Y-49256055D01*
X76419978Y-49285539D01*
X76411604Y-49296015D01*
X75764684Y-49296015D01*
X75717261Y-49232739D01*
X75600705Y-49145385D01*
X75464316Y-49094255D01*
X75402134Y-49087500D01*
X73797866Y-49087500D01*
X73735684Y-49094255D01*
X73599295Y-49145385D01*
X73482739Y-49232739D01*
X73395385Y-49349295D01*
X73344255Y-49485684D01*
X73337500Y-49547866D01*
X73337500Y-51152134D01*
X48308000Y-51152134D01*
X48308000Y-48595492D01*
X49070049Y-48595492D01*
X49070067Y-48595745D01*
X49075981Y-48604488D01*
X49095672Y-48622405D01*
X49101304Y-48626966D01*
X49363062Y-48815058D01*
X49369192Y-48818948D01*
X49650831Y-48975706D01*
X49657351Y-48978858D01*
X49955151Y-49102211D01*
X49962002Y-49104597D01*
X50271989Y-49192899D01*
X50279078Y-49194484D01*
X50597171Y-49246574D01*
X50604377Y-49247331D01*
X50926352Y-49262515D01*
X50933602Y-49262439D01*
X51255178Y-49240517D01*
X51262387Y-49239606D01*
X51579319Y-49180866D01*
X51586349Y-49179139D01*
X51894445Y-49084356D01*
X51901222Y-49081836D01*
X52196389Y-48952267D01*
X52202829Y-48948986D01*
X52481143Y-48786352D01*
X52487176Y-48782343D01*
X52721689Y-48606266D01*
X52730143Y-48594939D01*
X52723398Y-48582609D01*
X50912810Y-46772020D01*
X50898869Y-46764408D01*
X50897034Y-46764539D01*
X50890420Y-46768790D01*
X49077663Y-48581548D01*
X49070049Y-48595492D01*
X48308000Y-48595492D01*
X48308000Y-48080421D01*
X48328002Y-48012300D01*
X48381658Y-47965807D01*
X48451932Y-47955703D01*
X48516512Y-47985197D01*
X48537840Y-48009054D01*
X48635856Y-48151668D01*
X48640291Y-48157387D01*
X48695061Y-48220170D01*
X48708233Y-48228573D01*
X48718084Y-48222705D01*
X50527980Y-46412810D01*
X50534357Y-46401131D01*
X51264408Y-46401131D01*
X51264539Y-46402966D01*
X51268790Y-46409580D01*
X53079776Y-48220565D01*
X53093130Y-48227857D01*
X53103102Y-48220803D01*
X53196013Y-48109681D01*
X53200329Y-48103870D01*
X53377308Y-47834447D01*
X53380922Y-47828185D01*
X53525759Y-47540208D01*
X53528632Y-47533570D01*
X53639407Y-47230864D01*
X53641503Y-47223923D01*
X53716751Y-46910495D01*
X53718035Y-46903356D01*
X53737444Y-46742966D01*
X80868257Y-46742966D01*
X80898565Y-46877446D01*
X80901645Y-46887275D01*
X80981770Y-47084603D01*
X80986413Y-47093794D01*
X81097694Y-47275388D01*
X81103777Y-47283699D01*
X81243213Y-47444667D01*
X81250580Y-47451883D01*
X81414434Y-47587916D01*
X81422881Y-47593831D01*
X81606756Y-47701279D01*
X81616042Y-47705729D01*
X81815001Y-47781703D01*
X81824899Y-47784579D01*
X81928250Y-47805606D01*
X81942299Y-47804410D01*
X81946000Y-47794065D01*
X81946000Y-47793517D01*
X82454000Y-47793517D01*
X82458064Y-47807359D01*
X82471478Y-47809393D01*
X82478184Y-47808534D01*
X82488262Y-47806392D01*
X82692255Y-47745191D01*
X82701842Y-47741433D01*
X82893095Y-47647739D01*
X82901945Y-47642464D01*
X83075328Y-47518792D01*
X83083200Y-47512139D01*
X83234052Y-47361812D01*
X83240730Y-47353965D01*
X83368022Y-47176819D01*
X83369279Y-47177722D01*
X83416373Y-47134362D01*
X83486311Y-47122145D01*
X83551751Y-47149678D01*
X83579579Y-47181511D01*
X83639987Y-47280088D01*
X83786250Y-47448938D01*
X83958126Y-47591632D01*
X84151000Y-47704338D01*
X84359692Y-47784030D01*
X84364760Y-47785061D01*
X84364763Y-47785062D01*
X84457075Y-47803843D01*
X84578597Y-47828567D01*
X84583772Y-47828757D01*
X84583774Y-47828757D01*
X84796673Y-47836564D01*
X84796677Y-47836564D01*
X84801837Y-47836753D01*
X84806957Y-47836097D01*
X84806959Y-47836097D01*
X85018288Y-47809025D01*
X85018289Y-47809025D01*
X85023416Y-47808368D01*
X85028369Y-47806882D01*
X85232429Y-47745661D01*
X85232434Y-47745659D01*
X85237384Y-47744174D01*
X85437994Y-47645896D01*
X85619860Y-47516173D01*
X85778096Y-47358489D01*
X85828714Y-47288047D01*
X85908453Y-47177077D01*
X85909776Y-47178028D01*
X85956645Y-47134857D01*
X86026580Y-47122625D01*
X86092026Y-47150144D01*
X86119875Y-47181994D01*
X86179987Y-47280088D01*
X86326250Y-47448938D01*
X86498126Y-47591632D01*
X86691000Y-47704338D01*
X86899692Y-47784030D01*
X86904760Y-47785061D01*
X86904763Y-47785062D01*
X86997075Y-47803843D01*
X87118597Y-47828567D01*
X87123772Y-47828757D01*
X87123774Y-47828757D01*
X87336673Y-47836564D01*
X87336677Y-47836564D01*
X87341837Y-47836753D01*
X87346957Y-47836097D01*
X87346959Y-47836097D01*
X87558288Y-47809025D01*
X87558289Y-47809025D01*
X87563416Y-47808368D01*
X87568369Y-47806882D01*
X87759826Y-47749442D01*
X87830822Y-47749026D01*
X87885129Y-47781033D01*
X88945463Y-48841368D01*
X89996348Y-49892253D01*
X90003888Y-49900539D01*
X90008000Y-49907018D01*
X90013777Y-49912443D01*
X90057651Y-49953643D01*
X90060493Y-49956398D01*
X90080230Y-49976135D01*
X90083427Y-49978615D01*
X90092447Y-49986318D01*
X90124679Y-50016586D01*
X90131625Y-50020405D01*
X90131628Y-50020407D01*
X90142434Y-50026348D01*
X90158953Y-50037199D01*
X90174959Y-50049614D01*
X90182228Y-50052759D01*
X90182232Y-50052762D01*
X90215537Y-50067174D01*
X90226187Y-50072391D01*
X90264940Y-50093695D01*
X90272615Y-50095666D01*
X90272616Y-50095666D01*
X90284562Y-50098733D01*
X90303267Y-50105137D01*
X90321855Y-50113181D01*
X90329678Y-50114420D01*
X90329688Y-50114423D01*
X90365524Y-50120099D01*
X90377144Y-50122505D01*
X90412289Y-50131528D01*
X90419970Y-50133500D01*
X90440224Y-50133500D01*
X90459934Y-50135051D01*
X90479943Y-50138220D01*
X90487835Y-50137474D01*
X90523961Y-50134059D01*
X90535819Y-50133500D01*
X91510406Y-50133500D01*
X91578527Y-50153502D01*
X91599501Y-50170405D01*
X93974595Y-52545499D01*
X94008621Y-52607811D01*
X94011500Y-52634594D01*
X94011500Y-53855606D01*
X93991498Y-53923727D01*
X93957771Y-53958819D01*
X93805211Y-54065643D01*
X93805208Y-54065645D01*
X93800700Y-54068802D01*
X93638802Y-54230700D01*
X93507477Y-54418251D01*
X93505154Y-54423233D01*
X93505151Y-54423238D01*
X93489195Y-54457457D01*
X93442278Y-54510742D01*
X93374001Y-54530203D01*
X93306041Y-54509661D01*
X93260805Y-54457457D01*
X93244849Y-54423238D01*
X93244846Y-54423233D01*
X93242523Y-54418251D01*
X93111198Y-54230700D01*
X92949300Y-54068802D01*
X92944792Y-54065645D01*
X92944789Y-54065643D01*
X92784519Y-53953421D01*
X92761749Y-53937477D01*
X92756767Y-53935154D01*
X92756762Y-53935151D01*
X92559225Y-53843039D01*
X92559224Y-53843039D01*
X92554243Y-53840716D01*
X92548935Y-53839294D01*
X92548933Y-53839293D01*
X92338402Y-53782881D01*
X92338400Y-53782881D01*
X92333087Y-53781457D01*
X92105000Y-53761502D01*
X91876913Y-53781457D01*
X91871600Y-53782881D01*
X91871598Y-53782881D01*
X91661067Y-53839293D01*
X91661065Y-53839294D01*
X91655757Y-53840716D01*
X91650776Y-53843039D01*
X91650775Y-53843039D01*
X91453238Y-53935151D01*
X91453233Y-53935154D01*
X91448251Y-53937477D01*
X91425481Y-53953421D01*
X91265211Y-54065643D01*
X91265208Y-54065645D01*
X91260700Y-54068802D01*
X91098802Y-54230700D01*
X90967477Y-54418251D01*
X90965154Y-54423233D01*
X90965151Y-54423238D01*
X90965034Y-54423489D01*
X90870716Y-54625757D01*
X90811457Y-54846913D01*
X90803986Y-54932308D01*
X90798921Y-54990205D01*
X90796500Y-55017873D01*
X90796500Y-55932127D01*
X90796738Y-55934844D01*
X90796738Y-55934851D01*
X90798556Y-55955629D01*
X90811457Y-56103087D01*
X90870716Y-56324243D01*
X90873039Y-56329224D01*
X90873039Y-56329225D01*
X90965151Y-56526762D01*
X90965154Y-56526767D01*
X90967477Y-56531749D01*
X91098802Y-56719300D01*
X91260700Y-56881198D01*
X91265208Y-56884355D01*
X91265211Y-56884357D01*
X91306542Y-56913297D01*
X91448251Y-57012523D01*
X91453233Y-57014846D01*
X91453238Y-57014849D01*
X91649765Y-57106490D01*
X91655757Y-57109284D01*
X91661065Y-57110706D01*
X91661067Y-57110707D01*
X91871598Y-57167119D01*
X91871600Y-57167119D01*
X91876913Y-57168543D01*
X92105000Y-57188498D01*
X92333087Y-57168543D01*
X92338400Y-57167119D01*
X92338402Y-57167119D01*
X92548933Y-57110707D01*
X92548935Y-57110706D01*
X92554243Y-57109284D01*
X92560235Y-57106490D01*
X92756762Y-57014849D01*
X92756767Y-57014846D01*
X92761749Y-57012523D01*
X92903458Y-56913297D01*
X92944789Y-56884357D01*
X92944792Y-56884355D01*
X92949300Y-56881198D01*
X93111198Y-56719300D01*
X93242523Y-56531749D01*
X93244846Y-56526767D01*
X93244849Y-56526762D01*
X93260805Y-56492543D01*
X93307722Y-56439258D01*
X93375999Y-56419797D01*
X93443959Y-56440339D01*
X93489195Y-56492543D01*
X93505151Y-56526762D01*
X93505154Y-56526767D01*
X93507477Y-56531749D01*
X93638802Y-56719300D01*
X93800700Y-56881198D01*
X93805208Y-56884355D01*
X93805211Y-56884357D01*
X93846542Y-56913297D01*
X93988251Y-57012523D01*
X93993233Y-57014846D01*
X93993238Y-57014849D01*
X94189765Y-57106490D01*
X94195757Y-57109284D01*
X94201065Y-57110706D01*
X94201067Y-57110707D01*
X94411598Y-57167119D01*
X94411600Y-57167119D01*
X94416913Y-57168543D01*
X94645000Y-57188498D01*
X94873087Y-57168543D01*
X94878400Y-57167119D01*
X94878402Y-57167119D01*
X95088933Y-57110707D01*
X95088935Y-57110706D01*
X95094243Y-57109284D01*
X95100235Y-57106490D01*
X95296762Y-57014849D01*
X95296767Y-57014846D01*
X95301749Y-57012523D01*
X95443458Y-56913297D01*
X95484789Y-56884357D01*
X95484792Y-56884355D01*
X95489300Y-56881198D01*
X95651198Y-56719300D01*
X95782523Y-56531749D01*
X95784846Y-56526767D01*
X95784849Y-56526762D01*
X95800805Y-56492543D01*
X95847722Y-56439258D01*
X95915999Y-56419797D01*
X95983959Y-56440339D01*
X96029195Y-56492543D01*
X96045151Y-56526762D01*
X96045154Y-56526767D01*
X96047477Y-56531749D01*
X96178802Y-56719300D01*
X96340700Y-56881198D01*
X96345208Y-56884355D01*
X96345211Y-56884357D01*
X96386542Y-56913297D01*
X96528251Y-57012523D01*
X96533233Y-57014846D01*
X96533238Y-57014849D01*
X96729765Y-57106490D01*
X96735757Y-57109284D01*
X96741065Y-57110706D01*
X96741067Y-57110707D01*
X96951598Y-57167119D01*
X96951600Y-57167119D01*
X96956913Y-57168543D01*
X97185000Y-57188498D01*
X97413087Y-57168543D01*
X97418400Y-57167119D01*
X97418402Y-57167119D01*
X97628933Y-57110707D01*
X97628935Y-57110706D01*
X97634243Y-57109284D01*
X97640235Y-57106490D01*
X97836762Y-57014849D01*
X97836767Y-57014846D01*
X97841749Y-57012523D01*
X97983458Y-56913297D01*
X98024789Y-56884357D01*
X98024792Y-56884355D01*
X98029300Y-56881198D01*
X98191198Y-56719300D01*
X98322523Y-56531749D01*
X98324846Y-56526767D01*
X98324849Y-56526762D01*
X98340805Y-56492543D01*
X98387722Y-56439258D01*
X98455999Y-56419797D01*
X98523959Y-56440339D01*
X98569195Y-56492543D01*
X98585151Y-56526762D01*
X98585154Y-56526767D01*
X98587477Y-56531749D01*
X98718802Y-56719300D01*
X98880700Y-56881198D01*
X98885208Y-56884355D01*
X98885211Y-56884357D01*
X98926542Y-56913297D01*
X99068251Y-57012523D01*
X99073233Y-57014846D01*
X99073238Y-57014849D01*
X99269765Y-57106490D01*
X99275757Y-57109284D01*
X99281065Y-57110706D01*
X99281067Y-57110707D01*
X99491598Y-57167119D01*
X99491600Y-57167119D01*
X99496913Y-57168543D01*
X99725000Y-57188498D01*
X99953087Y-57168543D01*
X99958400Y-57167119D01*
X99958402Y-57167119D01*
X100168933Y-57110707D01*
X100168935Y-57110706D01*
X100174243Y-57109284D01*
X100180235Y-57106490D01*
X100376762Y-57014849D01*
X100376767Y-57014846D01*
X100381749Y-57012523D01*
X100523458Y-56913297D01*
X100564789Y-56884357D01*
X100564792Y-56884355D01*
X100569300Y-56881198D01*
X100731198Y-56719300D01*
X100862523Y-56531749D01*
X100864846Y-56526767D01*
X100864849Y-56526762D01*
X100880805Y-56492543D01*
X100927722Y-56439258D01*
X100995999Y-56419797D01*
X101063959Y-56440339D01*
X101109195Y-56492543D01*
X101125151Y-56526762D01*
X101125154Y-56526767D01*
X101127477Y-56531749D01*
X101258802Y-56719300D01*
X101420700Y-56881198D01*
X101425208Y-56884355D01*
X101425211Y-56884357D01*
X101466542Y-56913297D01*
X101608251Y-57012523D01*
X101613233Y-57014846D01*
X101613238Y-57014849D01*
X101809765Y-57106490D01*
X101815757Y-57109284D01*
X101821065Y-57110706D01*
X101821067Y-57110707D01*
X102031598Y-57167119D01*
X102031600Y-57167119D01*
X102036913Y-57168543D01*
X102265000Y-57188498D01*
X102493087Y-57168543D01*
X102498400Y-57167119D01*
X102498402Y-57167119D01*
X102708933Y-57110707D01*
X102708935Y-57110706D01*
X102714243Y-57109284D01*
X102720235Y-57106490D01*
X102916762Y-57014849D01*
X102916767Y-57014846D01*
X102921749Y-57012523D01*
X103063458Y-56913297D01*
X103104789Y-56884357D01*
X103104792Y-56884355D01*
X103109300Y-56881198D01*
X103271198Y-56719300D01*
X103402523Y-56531749D01*
X103404846Y-56526767D01*
X103404849Y-56526762D01*
X103420805Y-56492543D01*
X103467722Y-56439258D01*
X103535999Y-56419797D01*
X103603959Y-56440339D01*
X103649195Y-56492543D01*
X103665151Y-56526762D01*
X103665154Y-56526767D01*
X103667477Y-56531749D01*
X103798802Y-56719300D01*
X103960700Y-56881198D01*
X103965208Y-56884355D01*
X103965211Y-56884357D01*
X104006542Y-56913297D01*
X104148251Y-57012523D01*
X104153233Y-57014846D01*
X104153238Y-57014849D01*
X104349765Y-57106490D01*
X104355757Y-57109284D01*
X104361065Y-57110706D01*
X104361067Y-57110707D01*
X104571598Y-57167119D01*
X104571600Y-57167119D01*
X104576913Y-57168543D01*
X104805000Y-57188498D01*
X105033087Y-57168543D01*
X105038400Y-57167119D01*
X105038402Y-57167119D01*
X105248933Y-57110707D01*
X105248935Y-57110706D01*
X105254243Y-57109284D01*
X105260235Y-57106490D01*
X105456762Y-57014849D01*
X105456767Y-57014846D01*
X105461749Y-57012523D01*
X105603458Y-56913297D01*
X105644789Y-56884357D01*
X105644792Y-56884355D01*
X105649300Y-56881198D01*
X105811198Y-56719300D01*
X105942523Y-56531749D01*
X105944846Y-56526767D01*
X105944849Y-56526762D01*
X105961081Y-56491951D01*
X106007998Y-56438666D01*
X106076275Y-56419205D01*
X106144235Y-56439747D01*
X106189471Y-56491951D01*
X106205586Y-56526511D01*
X106211069Y-56536007D01*
X106336028Y-56714467D01*
X106343084Y-56722875D01*
X106497125Y-56876916D01*
X106505533Y-56883972D01*
X106683993Y-57008931D01*
X106693489Y-57014414D01*
X106890947Y-57106490D01*
X106901239Y-57110236D01*
X107073503Y-57156394D01*
X107087599Y-57156058D01*
X107091000Y-57148116D01*
X107091000Y-53807033D01*
X107087027Y-53793502D01*
X107078478Y-53792273D01*
X106901239Y-53839764D01*
X106890947Y-53843510D01*
X106693489Y-53935586D01*
X106683993Y-53941069D01*
X106505533Y-54066028D01*
X106497125Y-54073084D01*
X106343084Y-54227125D01*
X106336028Y-54235533D01*
X106211069Y-54413993D01*
X106205586Y-54423489D01*
X106189471Y-54458049D01*
X106142554Y-54511334D01*
X106074277Y-54530795D01*
X106006317Y-54510253D01*
X105961081Y-54458049D01*
X105944849Y-54423238D01*
X105944846Y-54423233D01*
X105942523Y-54418251D01*
X105811198Y-54230700D01*
X105649300Y-54068802D01*
X105644792Y-54065645D01*
X105644789Y-54065643D01*
X105484519Y-53953421D01*
X105461749Y-53937477D01*
X105456767Y-53935154D01*
X105456762Y-53935151D01*
X105259225Y-53843039D01*
X105259224Y-53843039D01*
X105254243Y-53840716D01*
X105248935Y-53839294D01*
X105248933Y-53839293D01*
X105038402Y-53782881D01*
X105038400Y-53782881D01*
X105033087Y-53781457D01*
X104805000Y-53761502D01*
X104576913Y-53781457D01*
X104571600Y-53782881D01*
X104571598Y-53782881D01*
X104361067Y-53839293D01*
X104361065Y-53839294D01*
X104355757Y-53840716D01*
X104350776Y-53843039D01*
X104350775Y-53843039D01*
X104153238Y-53935151D01*
X104153233Y-53935154D01*
X104148251Y-53937477D01*
X104125481Y-53953421D01*
X103965211Y-54065643D01*
X103965208Y-54065645D01*
X103960700Y-54068802D01*
X103798802Y-54230700D01*
X103667477Y-54418251D01*
X103665154Y-54423233D01*
X103665151Y-54423238D01*
X103649195Y-54457457D01*
X103602278Y-54510742D01*
X103534001Y-54530203D01*
X103466041Y-54509661D01*
X103420805Y-54457457D01*
X103404849Y-54423238D01*
X103404846Y-54423233D01*
X103402523Y-54418251D01*
X103271198Y-54230700D01*
X103109300Y-54068802D01*
X103104792Y-54065645D01*
X103104789Y-54065643D01*
X102944519Y-53953421D01*
X102921749Y-53937477D01*
X102916767Y-53935154D01*
X102916762Y-53935151D01*
X102719225Y-53843039D01*
X102719224Y-53843039D01*
X102714243Y-53840716D01*
X102708935Y-53839294D01*
X102708933Y-53839293D01*
X102498402Y-53782881D01*
X102498400Y-53782881D01*
X102493087Y-53781457D01*
X102265000Y-53761502D01*
X102036913Y-53781457D01*
X102031600Y-53782881D01*
X102031598Y-53782881D01*
X101821067Y-53839293D01*
X101821065Y-53839294D01*
X101815757Y-53840716D01*
X101810776Y-53843039D01*
X101810775Y-53843039D01*
X101613238Y-53935151D01*
X101613233Y-53935154D01*
X101608251Y-53937477D01*
X101585481Y-53953421D01*
X101425211Y-54065643D01*
X101425208Y-54065645D01*
X101420700Y-54068802D01*
X101258802Y-54230700D01*
X101127477Y-54418251D01*
X101125154Y-54423233D01*
X101125151Y-54423238D01*
X101109195Y-54457457D01*
X101062278Y-54510742D01*
X100994001Y-54530203D01*
X100926041Y-54509661D01*
X100880805Y-54457457D01*
X100864849Y-54423238D01*
X100864846Y-54423233D01*
X100862523Y-54418251D01*
X100731198Y-54230700D01*
X100569300Y-54068802D01*
X100564792Y-54065645D01*
X100564789Y-54065643D01*
X100404519Y-53953421D01*
X100381749Y-53937477D01*
X100376767Y-53935154D01*
X100376762Y-53935151D01*
X100179225Y-53843039D01*
X100179224Y-53843039D01*
X100174243Y-53840716D01*
X100168935Y-53839294D01*
X100168933Y-53839293D01*
X99958402Y-53782881D01*
X99958400Y-53782881D01*
X99953087Y-53781457D01*
X99725000Y-53761502D01*
X99496913Y-53781457D01*
X99491600Y-53782881D01*
X99491598Y-53782881D01*
X99281067Y-53839293D01*
X99281065Y-53839294D01*
X99275757Y-53840716D01*
X99270776Y-53843039D01*
X99270775Y-53843039D01*
X99073238Y-53935151D01*
X99073233Y-53935154D01*
X99068251Y-53937477D01*
X99063744Y-53940633D01*
X99063742Y-53940634D01*
X98943195Y-54025042D01*
X98875921Y-54047730D01*
X98807060Y-54030445D01*
X98781829Y-54010924D01*
X92743238Y-47972333D01*
X92709212Y-47910021D01*
X92714277Y-47839206D01*
X92756824Y-47782370D01*
X92796125Y-47762553D01*
X92813309Y-47757397D01*
X92857384Y-47744174D01*
X92862036Y-47741895D01*
X92862039Y-47741894D01*
X93053346Y-47648173D01*
X93057994Y-47645896D01*
X93239860Y-47516173D01*
X93398096Y-47358489D01*
X93448714Y-47288047D01*
X93528453Y-47177077D01*
X93529776Y-47178028D01*
X93576645Y-47134857D01*
X93646580Y-47122625D01*
X93712026Y-47150144D01*
X93739875Y-47181994D01*
X93799987Y-47280088D01*
X93946250Y-47448938D01*
X94118126Y-47591632D01*
X94311000Y-47704338D01*
X94519692Y-47784030D01*
X94524760Y-47785061D01*
X94524763Y-47785062D01*
X94617075Y-47803843D01*
X94738597Y-47828567D01*
X94743772Y-47828757D01*
X94743774Y-47828757D01*
X94956673Y-47836564D01*
X94956677Y-47836564D01*
X94961837Y-47836753D01*
X94966957Y-47836097D01*
X94966959Y-47836097D01*
X95178288Y-47809025D01*
X95178289Y-47809025D01*
X95183416Y-47808368D01*
X95188367Y-47806883D01*
X95188370Y-47806882D01*
X95229829Y-47794444D01*
X95300825Y-47794028D01*
X95355131Y-47826035D01*
X96395274Y-48866179D01*
X97421348Y-49892253D01*
X97428888Y-49900539D01*
X97433000Y-49907018D01*
X97438777Y-49912443D01*
X97482651Y-49953643D01*
X97485493Y-49956398D01*
X97505230Y-49976135D01*
X97508427Y-49978615D01*
X97517447Y-49986318D01*
X97549679Y-50016586D01*
X97556625Y-50020405D01*
X97556628Y-50020407D01*
X97567434Y-50026348D01*
X97583953Y-50037199D01*
X97599959Y-50049614D01*
X97607228Y-50052759D01*
X97607232Y-50052762D01*
X97640537Y-50067174D01*
X97651187Y-50072391D01*
X97689940Y-50093695D01*
X97697615Y-50095666D01*
X97697616Y-50095666D01*
X97709562Y-50098733D01*
X97728267Y-50105137D01*
X97746855Y-50113181D01*
X97754678Y-50114420D01*
X97754688Y-50114423D01*
X97790524Y-50120099D01*
X97802144Y-50122505D01*
X97837289Y-50131528D01*
X97844970Y-50133500D01*
X97865224Y-50133500D01*
X97884934Y-50135051D01*
X97904943Y-50138220D01*
X97912835Y-50137474D01*
X97948961Y-50134059D01*
X97960819Y-50133500D01*
X109485406Y-50133500D01*
X109553527Y-50153502D01*
X109574501Y-50170405D01*
X111754595Y-52350499D01*
X111788621Y-52412811D01*
X111791500Y-52439594D01*
X111791500Y-53855606D01*
X111771498Y-53923727D01*
X111737771Y-53958819D01*
X111585211Y-54065643D01*
X111585208Y-54065645D01*
X111580700Y-54068802D01*
X111418802Y-54230700D01*
X111287477Y-54418251D01*
X111285154Y-54423233D01*
X111285151Y-54423238D01*
X111269195Y-54457457D01*
X111222278Y-54510742D01*
X111154001Y-54530203D01*
X111086041Y-54509661D01*
X111040805Y-54457457D01*
X111024849Y-54423238D01*
X111024846Y-54423233D01*
X111022523Y-54418251D01*
X110891198Y-54230700D01*
X110729300Y-54068802D01*
X110724792Y-54065645D01*
X110724789Y-54065643D01*
X110564519Y-53953421D01*
X110541749Y-53937477D01*
X110536767Y-53935154D01*
X110536762Y-53935151D01*
X110339225Y-53843039D01*
X110339224Y-53843039D01*
X110334243Y-53840716D01*
X110328935Y-53839294D01*
X110328933Y-53839293D01*
X110118402Y-53782881D01*
X110118400Y-53782881D01*
X110113087Y-53781457D01*
X109885000Y-53761502D01*
X109656913Y-53781457D01*
X109651600Y-53782881D01*
X109651598Y-53782881D01*
X109441067Y-53839293D01*
X109441065Y-53839294D01*
X109435757Y-53840716D01*
X109430776Y-53843039D01*
X109430775Y-53843039D01*
X109233238Y-53935151D01*
X109233233Y-53935154D01*
X109228251Y-53937477D01*
X109205481Y-53953421D01*
X109045211Y-54065643D01*
X109045208Y-54065645D01*
X109040700Y-54068802D01*
X108878802Y-54230700D01*
X108747477Y-54418251D01*
X108745154Y-54423233D01*
X108745151Y-54423238D01*
X108728919Y-54458049D01*
X108682002Y-54511334D01*
X108613725Y-54530795D01*
X108545765Y-54510253D01*
X108500529Y-54458049D01*
X108484414Y-54423489D01*
X108478931Y-54413993D01*
X108353972Y-54235533D01*
X108346916Y-54227125D01*
X108192875Y-54073084D01*
X108184467Y-54066028D01*
X108006007Y-53941069D01*
X107996511Y-53935586D01*
X107799053Y-53843510D01*
X107788761Y-53839764D01*
X107616497Y-53793606D01*
X107602401Y-53793942D01*
X107599000Y-53801884D01*
X107599000Y-57142967D01*
X107602973Y-57156498D01*
X107611522Y-57157727D01*
X107788761Y-57110236D01*
X107799053Y-57106490D01*
X107996511Y-57014414D01*
X108006007Y-57008931D01*
X108184467Y-56883972D01*
X108192875Y-56876916D01*
X108346916Y-56722875D01*
X108353972Y-56714467D01*
X108478931Y-56536007D01*
X108484414Y-56526511D01*
X108500529Y-56491951D01*
X108547446Y-56438666D01*
X108615723Y-56419205D01*
X108683683Y-56439747D01*
X108728919Y-56491951D01*
X108745151Y-56526762D01*
X108745154Y-56526767D01*
X108747477Y-56531749D01*
X108878802Y-56719300D01*
X109040700Y-56881198D01*
X109045208Y-56884355D01*
X109045211Y-56884357D01*
X109086542Y-56913297D01*
X109228251Y-57012523D01*
X109233233Y-57014846D01*
X109233238Y-57014849D01*
X109429765Y-57106490D01*
X109435757Y-57109284D01*
X109441065Y-57110706D01*
X109441067Y-57110707D01*
X109651598Y-57167119D01*
X109651600Y-57167119D01*
X109656913Y-57168543D01*
X109885000Y-57188498D01*
X110113087Y-57168543D01*
X110118400Y-57167119D01*
X110118402Y-57167119D01*
X110328933Y-57110707D01*
X110328935Y-57110706D01*
X110334243Y-57109284D01*
X110340235Y-57106490D01*
X110536762Y-57014849D01*
X110536767Y-57014846D01*
X110541749Y-57012523D01*
X110683458Y-56913297D01*
X110724789Y-56884357D01*
X110724792Y-56884355D01*
X110729300Y-56881198D01*
X110891198Y-56719300D01*
X111022523Y-56531749D01*
X111024846Y-56526767D01*
X111024849Y-56526762D01*
X111040805Y-56492543D01*
X111087722Y-56439258D01*
X111155999Y-56419797D01*
X111223959Y-56440339D01*
X111269195Y-56492543D01*
X111285151Y-56526762D01*
X111285154Y-56526767D01*
X111287477Y-56531749D01*
X111418802Y-56719300D01*
X111580700Y-56881198D01*
X111585208Y-56884355D01*
X111585211Y-56884357D01*
X111626542Y-56913297D01*
X111768251Y-57012523D01*
X111773233Y-57014846D01*
X111773238Y-57014849D01*
X111969765Y-57106490D01*
X111975757Y-57109284D01*
X111981065Y-57110706D01*
X111981067Y-57110707D01*
X112191598Y-57167119D01*
X112191600Y-57167119D01*
X112196913Y-57168543D01*
X112425000Y-57188498D01*
X112653087Y-57168543D01*
X112658400Y-57167119D01*
X112658402Y-57167119D01*
X112868933Y-57110707D01*
X112868935Y-57110706D01*
X112874243Y-57109284D01*
X112880235Y-57106490D01*
X113076762Y-57014849D01*
X113076767Y-57014846D01*
X113081749Y-57012523D01*
X113223458Y-56913297D01*
X113264789Y-56884357D01*
X113264792Y-56884355D01*
X113269300Y-56881198D01*
X113431198Y-56719300D01*
X113562523Y-56531749D01*
X113564846Y-56526767D01*
X113564849Y-56526762D01*
X113580805Y-56492543D01*
X113627722Y-56439258D01*
X113695999Y-56419797D01*
X113763959Y-56440339D01*
X113809195Y-56492543D01*
X113825151Y-56526762D01*
X113825154Y-56526767D01*
X113827477Y-56531749D01*
X113958802Y-56719300D01*
X114120700Y-56881198D01*
X114125208Y-56884355D01*
X114125211Y-56884357D01*
X114166542Y-56913297D01*
X114308251Y-57012523D01*
X114313233Y-57014846D01*
X114313238Y-57014849D01*
X114509765Y-57106490D01*
X114515757Y-57109284D01*
X114521065Y-57110706D01*
X114521067Y-57110707D01*
X114731598Y-57167119D01*
X114731600Y-57167119D01*
X114736913Y-57168543D01*
X114965000Y-57188498D01*
X115193087Y-57168543D01*
X115198400Y-57167119D01*
X115198402Y-57167119D01*
X115408933Y-57110707D01*
X115408935Y-57110706D01*
X115414243Y-57109284D01*
X115420235Y-57106490D01*
X115616762Y-57014849D01*
X115616767Y-57014846D01*
X115621749Y-57012523D01*
X115763458Y-56913297D01*
X115804789Y-56884357D01*
X115804792Y-56884355D01*
X115809300Y-56881198D01*
X115971198Y-56719300D01*
X116102523Y-56531749D01*
X116104846Y-56526767D01*
X116104849Y-56526762D01*
X116120805Y-56492543D01*
X116167722Y-56439258D01*
X116235999Y-56419797D01*
X116303959Y-56440339D01*
X116349195Y-56492543D01*
X116365151Y-56526762D01*
X116365154Y-56526767D01*
X116367477Y-56531749D01*
X116498802Y-56719300D01*
X116660700Y-56881198D01*
X116665208Y-56884355D01*
X116665211Y-56884357D01*
X116706542Y-56913297D01*
X116848251Y-57012523D01*
X116853233Y-57014846D01*
X116853238Y-57014849D01*
X117049765Y-57106490D01*
X117055757Y-57109284D01*
X117061065Y-57110706D01*
X117061067Y-57110707D01*
X117271598Y-57167119D01*
X117271600Y-57167119D01*
X117276913Y-57168543D01*
X117505000Y-57188498D01*
X117733087Y-57168543D01*
X117738400Y-57167119D01*
X117738402Y-57167119D01*
X117948933Y-57110707D01*
X117948935Y-57110706D01*
X117954243Y-57109284D01*
X117960235Y-57106490D01*
X118156762Y-57014849D01*
X118156767Y-57014846D01*
X118161749Y-57012523D01*
X118303458Y-56913297D01*
X118344789Y-56884357D01*
X118344792Y-56884355D01*
X118349300Y-56881198D01*
X118511198Y-56719300D01*
X118642523Y-56531749D01*
X118644846Y-56526767D01*
X118644849Y-56526762D01*
X118660805Y-56492543D01*
X118707722Y-56439258D01*
X118775999Y-56419797D01*
X118843959Y-56440339D01*
X118889195Y-56492543D01*
X118905151Y-56526762D01*
X118905154Y-56526767D01*
X118907477Y-56531749D01*
X119038802Y-56719300D01*
X119200700Y-56881198D01*
X119205208Y-56884355D01*
X119205211Y-56884357D01*
X119246542Y-56913297D01*
X119388251Y-57012523D01*
X119393233Y-57014846D01*
X119393238Y-57014849D01*
X119589765Y-57106490D01*
X119595757Y-57109284D01*
X119601065Y-57110706D01*
X119601067Y-57110707D01*
X119811598Y-57167119D01*
X119811600Y-57167119D01*
X119816913Y-57168543D01*
X120045000Y-57188498D01*
X120273087Y-57168543D01*
X120278400Y-57167119D01*
X120278402Y-57167119D01*
X120488933Y-57110707D01*
X120488935Y-57110706D01*
X120494243Y-57109284D01*
X120500235Y-57106490D01*
X120696762Y-57014849D01*
X120696767Y-57014846D01*
X120701749Y-57012523D01*
X120843458Y-56913297D01*
X120884789Y-56884357D01*
X120884792Y-56884355D01*
X120889300Y-56881198D01*
X121051198Y-56719300D01*
X121182523Y-56531749D01*
X121184846Y-56526767D01*
X121184849Y-56526762D01*
X121200805Y-56492543D01*
X121247722Y-56439258D01*
X121315999Y-56419797D01*
X121383959Y-56440339D01*
X121429195Y-56492543D01*
X121445151Y-56526762D01*
X121445154Y-56526767D01*
X121447477Y-56531749D01*
X121578802Y-56719300D01*
X121740700Y-56881198D01*
X121745208Y-56884355D01*
X121745211Y-56884357D01*
X121786542Y-56913297D01*
X121928251Y-57012523D01*
X121933233Y-57014846D01*
X121933238Y-57014849D01*
X122129765Y-57106490D01*
X122135757Y-57109284D01*
X122141065Y-57110706D01*
X122141067Y-57110707D01*
X122351598Y-57167119D01*
X122351600Y-57167119D01*
X122356913Y-57168543D01*
X122585000Y-57188498D01*
X122813087Y-57168543D01*
X122818400Y-57167119D01*
X122818402Y-57167119D01*
X123028933Y-57110707D01*
X123028935Y-57110706D01*
X123034243Y-57109284D01*
X123040235Y-57106490D01*
X123236762Y-57014849D01*
X123236767Y-57014846D01*
X123241749Y-57012523D01*
X123383458Y-56913297D01*
X123424789Y-56884357D01*
X123424792Y-56884355D01*
X123429300Y-56881198D01*
X123591198Y-56719300D01*
X123594357Y-56714789D01*
X123597892Y-56710576D01*
X123599026Y-56711527D01*
X123649071Y-56671529D01*
X123719690Y-56664224D01*
X123783049Y-56696258D01*
X123819030Y-56757462D01*
X123822082Y-56774517D01*
X123823255Y-56785316D01*
X123874385Y-56921705D01*
X123961739Y-57038261D01*
X124078295Y-57125615D01*
X124214684Y-57176745D01*
X124276866Y-57183500D01*
X125973134Y-57183500D01*
X126035316Y-57176745D01*
X126171705Y-57125615D01*
X126288261Y-57038261D01*
X126375615Y-56921705D01*
X126426745Y-56785316D01*
X126433500Y-56723134D01*
X126433500Y-54226866D01*
X126426745Y-54164684D01*
X126375615Y-54028295D01*
X126288261Y-53911739D01*
X126171705Y-53824385D01*
X126035316Y-53773255D01*
X125973134Y-53766500D01*
X124276866Y-53766500D01*
X124214684Y-53773255D01*
X124078295Y-53824385D01*
X123961739Y-53911739D01*
X123874385Y-54028295D01*
X123823255Y-54164684D01*
X123822083Y-54175474D01*
X123821197Y-54177606D01*
X123820575Y-54180222D01*
X123820152Y-54180121D01*
X123794845Y-54241035D01*
X123736483Y-54281463D01*
X123665529Y-54283922D01*
X123604510Y-54247629D01*
X123597511Y-54238969D01*
X123594354Y-54235207D01*
X123591198Y-54230700D01*
X123429300Y-54068802D01*
X123424792Y-54065645D01*
X123424789Y-54065643D01*
X123264519Y-53953421D01*
X123241749Y-53937477D01*
X123236767Y-53935154D01*
X123236762Y-53935151D01*
X123039225Y-53843039D01*
X123039224Y-53843039D01*
X123034243Y-53840716D01*
X123028935Y-53839294D01*
X123028933Y-53839293D01*
X122818402Y-53782881D01*
X122818400Y-53782881D01*
X122813087Y-53781457D01*
X122585000Y-53761502D01*
X122356913Y-53781457D01*
X122351600Y-53782881D01*
X122351598Y-53782881D01*
X122141067Y-53839293D01*
X122141065Y-53839294D01*
X122135757Y-53840716D01*
X122130776Y-53843039D01*
X122130775Y-53843039D01*
X121933238Y-53935151D01*
X121933233Y-53935154D01*
X121928251Y-53937477D01*
X121905481Y-53953421D01*
X121745211Y-54065643D01*
X121745208Y-54065645D01*
X121740700Y-54068802D01*
X121578802Y-54230700D01*
X121447477Y-54418251D01*
X121445154Y-54423233D01*
X121445151Y-54423238D01*
X121429195Y-54457457D01*
X121382278Y-54510742D01*
X121314001Y-54530203D01*
X121246041Y-54509661D01*
X121200805Y-54457457D01*
X121184849Y-54423238D01*
X121184846Y-54423233D01*
X121182523Y-54418251D01*
X121051198Y-54230700D01*
X120889300Y-54068802D01*
X120884792Y-54065645D01*
X120884789Y-54065643D01*
X120724519Y-53953421D01*
X120701749Y-53937477D01*
X120696767Y-53935154D01*
X120696762Y-53935151D01*
X120499225Y-53843039D01*
X120499224Y-53843039D01*
X120494243Y-53840716D01*
X120488935Y-53839294D01*
X120488933Y-53839293D01*
X120278402Y-53782881D01*
X120278400Y-53782881D01*
X120273087Y-53781457D01*
X120045000Y-53761502D01*
X119816913Y-53781457D01*
X119811600Y-53782881D01*
X119811598Y-53782881D01*
X119601067Y-53839293D01*
X119601065Y-53839294D01*
X119595757Y-53840716D01*
X119590776Y-53843039D01*
X119590775Y-53843039D01*
X119393238Y-53935151D01*
X119393233Y-53935154D01*
X119388251Y-53937477D01*
X119365481Y-53953421D01*
X119205211Y-54065643D01*
X119205208Y-54065645D01*
X119200700Y-54068802D01*
X119038802Y-54230700D01*
X118907477Y-54418251D01*
X118905154Y-54423233D01*
X118905151Y-54423238D01*
X118889195Y-54457457D01*
X118842278Y-54510742D01*
X118774001Y-54530203D01*
X118706041Y-54509661D01*
X118660805Y-54457457D01*
X118644849Y-54423238D01*
X118644846Y-54423233D01*
X118642523Y-54418251D01*
X118511198Y-54230700D01*
X118349300Y-54068802D01*
X118344792Y-54065645D01*
X118344789Y-54065643D01*
X118192229Y-53958819D01*
X118147901Y-53903362D01*
X118138500Y-53855606D01*
X118138500Y-51378763D01*
X118139027Y-51367579D01*
X118140701Y-51360091D01*
X118138562Y-51292032D01*
X118138500Y-51288075D01*
X118138500Y-51260144D01*
X118137994Y-51256138D01*
X118137061Y-51244292D01*
X118135922Y-51208037D01*
X118135673Y-51200110D01*
X118130022Y-51180658D01*
X118126014Y-51161306D01*
X118124468Y-51149068D01*
X118124467Y-51149066D01*
X118123474Y-51141203D01*
X118107194Y-51100086D01*
X118103359Y-51088885D01*
X118091018Y-51046406D01*
X118086985Y-51039587D01*
X118086983Y-51039582D01*
X118080707Y-51028971D01*
X118072010Y-51011221D01*
X118064552Y-50992383D01*
X118038571Y-50956623D01*
X118032053Y-50946701D01*
X118013578Y-50915460D01*
X118013574Y-50915455D01*
X118009542Y-50908637D01*
X117995218Y-50894313D01*
X117982376Y-50879278D01*
X117980355Y-50876496D01*
X117970472Y-50862893D01*
X117936406Y-50834711D01*
X117927627Y-50826722D01*
X117773159Y-50672254D01*
X117739133Y-50609942D01*
X117744198Y-50539127D01*
X117786745Y-50482291D01*
X117844173Y-50458463D01*
X117956303Y-50442204D01*
X117967484Y-50439520D01*
X118151048Y-50377208D01*
X118161551Y-50372532D01*
X118275086Y-50308950D01*
X118284948Y-50298875D01*
X118281993Y-50291203D01*
X117341922Y-49351132D01*
X118064408Y-49351132D01*
X118064539Y-49352965D01*
X118068790Y-49359580D01*
X118637288Y-49928078D01*
X118649668Y-49934838D01*
X118656248Y-49929913D01*
X118722532Y-49811551D01*
X118727208Y-49801048D01*
X118789520Y-49617484D01*
X118792205Y-49606302D01*
X118820317Y-49412415D01*
X118820947Y-49405032D01*
X118822291Y-49353704D01*
X118822048Y-49346305D01*
X118804123Y-49151215D01*
X118802026Y-49139901D01*
X118749407Y-48953331D01*
X118745285Y-48942592D01*
X118659755Y-48769154D01*
X118651726Y-48763130D01*
X118639309Y-48769901D01*
X118072022Y-49337188D01*
X118064408Y-49351132D01*
X117341922Y-49351132D01*
X116761434Y-48770644D01*
X116749054Y-48763884D01*
X116743088Y-48768350D01*
X116665738Y-48915369D01*
X116661335Y-48926002D01*
X116603851Y-49111127D01*
X116601461Y-49122371D01*
X116591970Y-49202558D01*
X116564099Y-49267855D01*
X116505351Y-49307719D01*
X116434376Y-49309493D01*
X116377748Y-49276843D01*
X115502576Y-48401671D01*
X117115783Y-48401671D01*
X117119269Y-48410059D01*
X117687188Y-48977978D01*
X117701132Y-48985592D01*
X117702965Y-48985461D01*
X117709580Y-48981210D01*
X118095298Y-48595492D01*
X124070049Y-48595492D01*
X124070067Y-48595745D01*
X124075981Y-48604488D01*
X124095672Y-48622405D01*
X124101304Y-48626966D01*
X124363062Y-48815058D01*
X124369192Y-48818948D01*
X124650831Y-48975706D01*
X124657351Y-48978858D01*
X124955151Y-49102211D01*
X124962002Y-49104597D01*
X125271989Y-49192899D01*
X125279078Y-49194484D01*
X125597171Y-49246574D01*
X125604377Y-49247331D01*
X125926352Y-49262515D01*
X125933602Y-49262439D01*
X126255178Y-49240517D01*
X126262387Y-49239606D01*
X126579319Y-49180866D01*
X126586349Y-49179139D01*
X126894445Y-49084356D01*
X126901222Y-49081836D01*
X127196389Y-48952267D01*
X127202829Y-48948986D01*
X127481143Y-48786352D01*
X127487176Y-48782343D01*
X127721689Y-48606266D01*
X127730143Y-48594939D01*
X127723398Y-48582609D01*
X125912810Y-46772020D01*
X125898869Y-46764408D01*
X125897034Y-46764539D01*
X125890420Y-46768790D01*
X124077663Y-48581548D01*
X124070049Y-48595492D01*
X118095298Y-48595492D01*
X118277241Y-48413549D01*
X118284001Y-48401169D01*
X118277971Y-48393114D01*
X118214433Y-48353024D01*
X118204190Y-48347805D01*
X118024138Y-48275972D01*
X118013112Y-48272705D01*
X117822989Y-48234888D01*
X117811542Y-48233685D01*
X117617720Y-48231148D01*
X117606240Y-48232051D01*
X117415202Y-48264877D01*
X117404082Y-48267857D01*
X117222216Y-48334951D01*
X117211838Y-48339901D01*
X117125381Y-48391338D01*
X117115783Y-48401671D01*
X115502576Y-48401671D01*
X115151318Y-48050413D01*
X115117292Y-47988101D01*
X115122357Y-47917286D01*
X115164904Y-47860450D01*
X115231424Y-47835639D01*
X115245024Y-47835403D01*
X115261698Y-47836015D01*
X115276674Y-47836564D01*
X115276678Y-47836564D01*
X115281837Y-47836753D01*
X115286957Y-47836097D01*
X115286959Y-47836097D01*
X115498288Y-47809025D01*
X115498289Y-47809025D01*
X115503416Y-47808368D01*
X115508369Y-47806882D01*
X115712429Y-47745661D01*
X115712434Y-47745659D01*
X115717384Y-47744174D01*
X115917994Y-47645896D01*
X116099860Y-47516173D01*
X116258096Y-47358489D01*
X116308714Y-47288047D01*
X116388453Y-47177077D01*
X116389776Y-47178028D01*
X116436645Y-47134857D01*
X116506580Y-47122625D01*
X116572026Y-47150144D01*
X116599875Y-47181994D01*
X116659987Y-47280088D01*
X116806250Y-47448938D01*
X116978126Y-47591632D01*
X117171000Y-47704338D01*
X117379692Y-47784030D01*
X117384760Y-47785061D01*
X117384763Y-47785062D01*
X117477075Y-47803843D01*
X117598597Y-47828567D01*
X117603772Y-47828757D01*
X117603774Y-47828757D01*
X117816673Y-47836564D01*
X117816677Y-47836564D01*
X117821837Y-47836753D01*
X117826957Y-47836097D01*
X117826959Y-47836097D01*
X118038288Y-47809025D01*
X118038289Y-47809025D01*
X118043416Y-47808368D01*
X118048369Y-47806882D01*
X118252429Y-47745661D01*
X118252434Y-47745659D01*
X118257384Y-47744174D01*
X118457994Y-47645896D01*
X118639860Y-47516173D01*
X118707331Y-47448938D01*
X118748479Y-47407933D01*
X118810851Y-47374017D01*
X118881658Y-47379205D01*
X118938419Y-47421851D01*
X118955401Y-47452954D01*
X118996676Y-47563054D01*
X119005214Y-47578649D01*
X119081715Y-47680724D01*
X119094276Y-47693285D01*
X119196351Y-47769786D01*
X119211946Y-47778324D01*
X119332394Y-47823478D01*
X119347649Y-47827105D01*
X119398514Y-47832631D01*
X119405328Y-47833000D01*
X120027885Y-47833000D01*
X120043124Y-47828525D01*
X120044329Y-47827135D01*
X120046000Y-47819452D01*
X120046000Y-47814884D01*
X120554000Y-47814884D01*
X120558475Y-47830123D01*
X120559865Y-47831328D01*
X120567548Y-47832999D01*
X121194669Y-47832999D01*
X121201490Y-47832629D01*
X121252352Y-47827105D01*
X121267604Y-47823479D01*
X121388054Y-47778324D01*
X121403649Y-47769786D01*
X121505724Y-47693285D01*
X121518285Y-47680724D01*
X121594786Y-47578649D01*
X121603324Y-47563054D01*
X121648478Y-47442606D01*
X121652105Y-47427351D01*
X121657631Y-47376486D01*
X121658000Y-47369672D01*
X121658000Y-46747115D01*
X121653525Y-46731876D01*
X121652135Y-46730671D01*
X121644452Y-46729000D01*
X120572115Y-46729000D01*
X120556876Y-46733475D01*
X120555671Y-46734865D01*
X120554000Y-46742548D01*
X120554000Y-47814884D01*
X120046000Y-47814884D01*
X120046000Y-46313708D01*
X123038665Y-46313708D01*
X123047102Y-46635932D01*
X123047708Y-46643148D01*
X123093126Y-46962264D01*
X123094560Y-46969375D01*
X123176356Y-47281164D01*
X123178593Y-47288047D01*
X123295679Y-47588358D01*
X123298699Y-47594956D01*
X123449532Y-47879831D01*
X123453278Y-47886016D01*
X123635856Y-48151668D01*
X123640291Y-48157387D01*
X123695061Y-48220170D01*
X123708233Y-48228573D01*
X123718084Y-48222705D01*
X125527980Y-46412810D01*
X125535592Y-46398869D01*
X125535461Y-46397034D01*
X125531210Y-46390420D01*
X123719218Y-44578429D01*
X123706425Y-44571443D01*
X123695671Y-44579308D01*
X123551419Y-44763280D01*
X123547284Y-44769229D01*
X123378856Y-45044078D01*
X123375445Y-45050439D01*
X123239724Y-45342826D01*
X123237056Y-45349564D01*
X123135845Y-45655596D01*
X123133969Y-45662600D01*
X123068604Y-45978237D01*
X123067547Y-45985398D01*
X123038893Y-46306455D01*
X123038665Y-46313708D01*
X120046000Y-46313708D01*
X120046000Y-46202885D01*
X120554000Y-46202885D01*
X120558475Y-46218124D01*
X120559865Y-46219329D01*
X120567548Y-46221000D01*
X121639884Y-46221000D01*
X121655123Y-46216525D01*
X121656328Y-46215135D01*
X121657999Y-46207452D01*
X121657999Y-45580331D01*
X121657629Y-45573510D01*
X121652105Y-45522648D01*
X121648479Y-45507396D01*
X121603324Y-45386946D01*
X121594786Y-45371351D01*
X121518285Y-45269276D01*
X121505724Y-45256715D01*
X121403649Y-45180214D01*
X121388054Y-45171676D01*
X121267606Y-45126522D01*
X121252351Y-45122895D01*
X121201486Y-45117369D01*
X121194672Y-45117000D01*
X120572115Y-45117000D01*
X120556876Y-45121475D01*
X120555671Y-45122865D01*
X120554000Y-45130548D01*
X120554000Y-46202885D01*
X120046000Y-46202885D01*
X120046000Y-45135116D01*
X120041525Y-45119877D01*
X120040135Y-45118672D01*
X120032452Y-45117001D01*
X119405331Y-45117001D01*
X119398510Y-45117371D01*
X119347648Y-45122895D01*
X119332396Y-45126521D01*
X119211946Y-45171676D01*
X119196351Y-45180214D01*
X119094276Y-45256715D01*
X119081715Y-45269276D01*
X119005214Y-45371351D01*
X118996676Y-45386946D01*
X118955297Y-45497322D01*
X118912655Y-45554087D01*
X118846093Y-45578786D01*
X118776744Y-45563578D01*
X118744121Y-45537891D01*
X118693151Y-45481876D01*
X118693145Y-45481870D01*
X118689670Y-45478051D01*
X118685619Y-45474852D01*
X118685615Y-45474848D01*
X118518414Y-45342800D01*
X118518410Y-45342798D01*
X118514359Y-45339598D01*
X118478028Y-45319542D01*
X118386970Y-45269276D01*
X118318789Y-45231638D01*
X118313920Y-45229914D01*
X118313916Y-45229912D01*
X118113087Y-45158795D01*
X118113083Y-45158794D01*
X118108212Y-45157069D01*
X118103119Y-45156162D01*
X118103116Y-45156161D01*
X117893373Y-45118800D01*
X117893367Y-45118799D01*
X117888284Y-45117894D01*
X117814452Y-45116992D01*
X117670081Y-45115228D01*
X117670079Y-45115228D01*
X117664911Y-45115165D01*
X117444091Y-45148955D01*
X117231756Y-45218357D01*
X117033607Y-45321507D01*
X117029474Y-45324610D01*
X117029471Y-45324612D01*
X116859100Y-45452530D01*
X116854965Y-45455635D01*
X116700629Y-45617138D01*
X116593201Y-45774621D01*
X116538293Y-45819621D01*
X116467768Y-45827792D01*
X116404021Y-45796538D01*
X116383324Y-45772054D01*
X116302822Y-45647617D01*
X116302820Y-45647614D01*
X116300014Y-45643277D01*
X116149670Y-45478051D01*
X116145619Y-45474852D01*
X116145615Y-45474848D01*
X115978414Y-45342800D01*
X115978410Y-45342798D01*
X115974359Y-45339598D01*
X115938028Y-45319542D01*
X115846970Y-45269276D01*
X115778789Y-45231638D01*
X115773920Y-45229914D01*
X115773916Y-45229912D01*
X115573087Y-45158795D01*
X115573083Y-45158794D01*
X115568212Y-45157069D01*
X115563119Y-45156162D01*
X115563116Y-45156161D01*
X115353373Y-45118800D01*
X115353367Y-45118799D01*
X115348284Y-45117894D01*
X115274452Y-45116992D01*
X115130081Y-45115228D01*
X115130079Y-45115228D01*
X115124911Y-45115165D01*
X114904091Y-45148955D01*
X114691756Y-45218357D01*
X114493607Y-45321507D01*
X114489474Y-45324610D01*
X114489471Y-45324612D01*
X114319100Y-45452530D01*
X114314965Y-45455635D01*
X114160629Y-45617138D01*
X114053201Y-45774621D01*
X113998293Y-45819621D01*
X113927768Y-45827792D01*
X113864021Y-45796538D01*
X113843324Y-45772054D01*
X113762822Y-45647617D01*
X113762820Y-45647614D01*
X113760014Y-45643277D01*
X113609670Y-45478051D01*
X113605619Y-45474852D01*
X113605615Y-45474848D01*
X113438414Y-45342800D01*
X113438410Y-45342798D01*
X113434359Y-45339598D01*
X113398028Y-45319542D01*
X113306970Y-45269276D01*
X113238789Y-45231638D01*
X113233920Y-45229914D01*
X113233916Y-45229912D01*
X113033087Y-45158795D01*
X113033083Y-45158794D01*
X113028212Y-45157069D01*
X113023119Y-45156162D01*
X113023116Y-45156161D01*
X112813373Y-45118800D01*
X112813367Y-45118799D01*
X112808284Y-45117894D01*
X112734452Y-45116992D01*
X112590081Y-45115228D01*
X112590079Y-45115228D01*
X112584911Y-45115165D01*
X112364091Y-45148955D01*
X112151756Y-45218357D01*
X111953607Y-45321507D01*
X111949474Y-45324610D01*
X111949471Y-45324612D01*
X111779100Y-45452530D01*
X111774965Y-45455635D01*
X111620629Y-45617138D01*
X111617720Y-45621403D01*
X111617714Y-45621411D01*
X111605404Y-45639457D01*
X111513204Y-45774618D01*
X111512898Y-45775066D01*
X111457987Y-45820069D01*
X111387462Y-45828240D01*
X111323715Y-45796986D01*
X111303018Y-45772502D01*
X111222426Y-45647926D01*
X111216136Y-45639757D01*
X111072806Y-45482240D01*
X111065273Y-45475215D01*
X110898139Y-45343222D01*
X110889552Y-45337517D01*
X110703117Y-45234599D01*
X110693705Y-45230369D01*
X110492959Y-45159280D01*
X110482988Y-45156646D01*
X110411837Y-45143972D01*
X110398540Y-45145432D01*
X110394000Y-45159989D01*
X110394000Y-47793517D01*
X110398064Y-47807359D01*
X110411478Y-47809393D01*
X110418184Y-47808534D01*
X110428262Y-47806392D01*
X110632255Y-47745191D01*
X110641842Y-47741433D01*
X110833095Y-47647739D01*
X110841945Y-47642464D01*
X111015328Y-47518792D01*
X111023200Y-47512139D01*
X111174052Y-47361812D01*
X111180730Y-47353965D01*
X111308022Y-47176819D01*
X111309279Y-47177722D01*
X111356373Y-47134362D01*
X111426311Y-47122145D01*
X111491751Y-47149678D01*
X111519579Y-47181511D01*
X111579987Y-47280088D01*
X111726250Y-47448938D01*
X111898126Y-47591632D01*
X112091000Y-47704338D01*
X112299692Y-47784030D01*
X112304760Y-47785061D01*
X112304763Y-47785062D01*
X112397075Y-47803843D01*
X112518597Y-47828567D01*
X112523772Y-47828757D01*
X112523774Y-47828757D01*
X112736673Y-47836564D01*
X112736677Y-47836564D01*
X112741837Y-47836753D01*
X112746957Y-47836097D01*
X112746959Y-47836097D01*
X112958288Y-47809025D01*
X112958289Y-47809025D01*
X112963416Y-47808368D01*
X112968367Y-47806883D01*
X112968370Y-47806882D01*
X113009829Y-47794444D01*
X113080825Y-47794028D01*
X113135131Y-47826035D01*
X116834595Y-51525499D01*
X116868621Y-51587811D01*
X116871500Y-51614594D01*
X116871500Y-53855606D01*
X116851498Y-53923727D01*
X116817771Y-53958819D01*
X116665211Y-54065643D01*
X116665208Y-54065645D01*
X116660700Y-54068802D01*
X116498802Y-54230700D01*
X116367477Y-54418251D01*
X116365154Y-54423233D01*
X116365151Y-54423238D01*
X116349195Y-54457457D01*
X116302278Y-54510742D01*
X116234001Y-54530203D01*
X116166041Y-54509661D01*
X116120805Y-54457457D01*
X116104849Y-54423238D01*
X116104846Y-54423233D01*
X116102523Y-54418251D01*
X115971198Y-54230700D01*
X115809300Y-54068802D01*
X115804792Y-54065645D01*
X115804789Y-54065643D01*
X115653115Y-53959440D01*
X115608787Y-53903983D01*
X115599448Y-53860186D01*
X115598562Y-53832002D01*
X115598500Y-53828043D01*
X115598500Y-53800144D01*
X115597996Y-53796153D01*
X115597063Y-53784311D01*
X115596974Y-53781457D01*
X115595674Y-53740111D01*
X115593462Y-53732497D01*
X115593461Y-53732492D01*
X115590023Y-53720659D01*
X115586012Y-53701295D01*
X115584467Y-53689064D01*
X115583474Y-53681203D01*
X115580557Y-53673836D01*
X115580556Y-53673831D01*
X115567198Y-53640092D01*
X115563354Y-53628865D01*
X115553230Y-53594022D01*
X115551018Y-53586407D01*
X115540707Y-53568972D01*
X115532012Y-53551224D01*
X115524552Y-53532383D01*
X115498564Y-53496613D01*
X115492048Y-53486693D01*
X115473580Y-53455465D01*
X115473578Y-53455462D01*
X115469542Y-53448638D01*
X115455221Y-53434317D01*
X115442380Y-53419283D01*
X115435131Y-53409306D01*
X115430472Y-53402893D01*
X115396395Y-53374702D01*
X115387616Y-53366712D01*
X115233599Y-53212695D01*
X115199573Y-53150383D01*
X115204638Y-53079568D01*
X115247185Y-53022732D01*
X115304613Y-52998904D01*
X115335090Y-52994485D01*
X115422133Y-52981864D01*
X115427597Y-52980009D01*
X115427602Y-52980008D01*
X115611249Y-52917669D01*
X115611254Y-52917667D01*
X115616721Y-52915811D01*
X115796012Y-52815403D01*
X115954003Y-52684003D01*
X116085403Y-52526012D01*
X116185811Y-52346721D01*
X116187667Y-52341254D01*
X116187669Y-52341249D01*
X116250008Y-52157602D01*
X116250009Y-52157597D01*
X116251864Y-52152133D01*
X116281351Y-51948768D01*
X116282890Y-51890000D01*
X116264087Y-51685370D01*
X116241871Y-51606598D01*
X116209878Y-51493157D01*
X116209876Y-51493152D01*
X116208308Y-51487592D01*
X116117421Y-51303292D01*
X116018737Y-51171137D01*
X115997923Y-51143264D01*
X115997922Y-51143263D01*
X115994470Y-51138640D01*
X115877049Y-51030097D01*
X115847812Y-51003070D01*
X115847809Y-51003068D01*
X115843572Y-50999151D01*
X115691230Y-50903031D01*
X115674665Y-50892579D01*
X115674660Y-50892577D01*
X115669781Y-50889498D01*
X115478918Y-50813351D01*
X115277374Y-50773261D01*
X115271599Y-50773185D01*
X115271595Y-50773185D01*
X115170796Y-50771866D01*
X115071899Y-50770571D01*
X114869375Y-50805372D01*
X114863958Y-50807370D01*
X114863952Y-50807372D01*
X114727153Y-50857840D01*
X114676583Y-50876496D01*
X114631982Y-50903031D01*
X114504950Y-50978607D01*
X114504947Y-50978609D01*
X114499982Y-50981563D01*
X114345484Y-51117054D01*
X114341909Y-51121589D01*
X114341908Y-51121590D01*
X114229563Y-51264099D01*
X114218265Y-51278430D01*
X114122585Y-51460289D01*
X114061648Y-51656538D01*
X114060969Y-51662275D01*
X114051520Y-51742109D01*
X114023649Y-51807406D01*
X113964901Y-51847270D01*
X113893927Y-51849044D01*
X113837298Y-51816394D01*
X112693599Y-50672695D01*
X112659573Y-50610383D01*
X112664638Y-50539568D01*
X112707185Y-50482732D01*
X112764613Y-50458904D01*
X112795090Y-50454485D01*
X112882133Y-50441864D01*
X112887597Y-50440009D01*
X112887602Y-50440008D01*
X113071249Y-50377669D01*
X113071254Y-50377667D01*
X113076721Y-50375811D01*
X113099933Y-50362812D01*
X113145687Y-50337188D01*
X113256012Y-50275403D01*
X113414003Y-50144003D01*
X113545403Y-49986012D01*
X113645811Y-49806721D01*
X113647667Y-49801254D01*
X113647669Y-49801249D01*
X113710008Y-49617602D01*
X113710009Y-49617597D01*
X113711864Y-49612133D01*
X113712710Y-49606302D01*
X113740818Y-49412442D01*
X113741351Y-49408768D01*
X113742890Y-49350000D01*
X113724087Y-49145370D01*
X113711840Y-49101946D01*
X113669878Y-48953157D01*
X113669876Y-48953152D01*
X113668308Y-48947592D01*
X113577421Y-48763292D01*
X113454470Y-48598640D01*
X113303572Y-48459151D01*
X113212471Y-48401671D01*
X113134665Y-48352579D01*
X113134660Y-48352577D01*
X113129781Y-48349498D01*
X112938918Y-48273351D01*
X112761801Y-48238120D01*
X112743040Y-48234388D01*
X112743039Y-48234388D01*
X112737374Y-48233261D01*
X112731599Y-48233185D01*
X112731595Y-48233185D01*
X112630796Y-48231866D01*
X112531899Y-48230571D01*
X112329375Y-48265372D01*
X112323958Y-48267370D01*
X112323952Y-48267372D01*
X112177800Y-48321290D01*
X112136583Y-48336496D01*
X112114729Y-48349498D01*
X111964950Y-48438607D01*
X111964947Y-48438609D01*
X111959982Y-48441563D01*
X111805484Y-48577054D01*
X111801909Y-48581589D01*
X111801908Y-48581590D01*
X111790949Y-48595492D01*
X111678265Y-48738430D01*
X111582585Y-48920289D01*
X111580873Y-48925803D01*
X111531858Y-49083658D01*
X111521648Y-49116538D01*
X111520969Y-49122275D01*
X111511520Y-49202108D01*
X111483649Y-49267405D01*
X111424901Y-49307269D01*
X111353926Y-49309043D01*
X111297298Y-49276393D01*
X109922801Y-47901896D01*
X109888775Y-47839584D01*
X109885949Y-47809146D01*
X109886000Y-47807388D01*
X109886000Y-45158102D01*
X109882082Y-45144758D01*
X109867806Y-45142771D01*
X109829324Y-45148660D01*
X109819288Y-45151051D01*
X109616868Y-45217212D01*
X109607359Y-45221209D01*
X109418463Y-45319542D01*
X109409738Y-45325036D01*
X109239433Y-45452905D01*
X109231726Y-45459748D01*
X109084590Y-45613717D01*
X109078109Y-45621722D01*
X108973498Y-45775074D01*
X108918587Y-45820076D01*
X108848062Y-45828247D01*
X108784315Y-45796993D01*
X108763618Y-45772509D01*
X108682822Y-45647617D01*
X108682820Y-45647614D01*
X108680014Y-45643277D01*
X108529670Y-45478051D01*
X108525619Y-45474852D01*
X108525615Y-45474848D01*
X108358414Y-45342800D01*
X108358410Y-45342798D01*
X108354359Y-45339598D01*
X108318028Y-45319542D01*
X108226970Y-45269276D01*
X108158789Y-45231638D01*
X108153920Y-45229914D01*
X108153916Y-45229912D01*
X107953087Y-45158795D01*
X107953083Y-45158794D01*
X107948212Y-45157069D01*
X107943119Y-45156162D01*
X107943116Y-45156161D01*
X107733373Y-45118800D01*
X107733367Y-45118799D01*
X107728284Y-45117894D01*
X107654452Y-45116992D01*
X107510081Y-45115228D01*
X107510079Y-45115228D01*
X107504911Y-45115165D01*
X107284091Y-45148955D01*
X107071756Y-45218357D01*
X106873607Y-45321507D01*
X106869474Y-45324610D01*
X106869471Y-45324612D01*
X106699100Y-45452530D01*
X106694965Y-45455635D01*
X106540629Y-45617138D01*
X106537720Y-45621403D01*
X106537714Y-45621411D01*
X106525404Y-45639457D01*
X106433204Y-45774618D01*
X106432898Y-45775066D01*
X106377987Y-45820069D01*
X106307462Y-45828240D01*
X106243715Y-45796986D01*
X106223018Y-45772502D01*
X106142426Y-45647926D01*
X106136136Y-45639757D01*
X105992806Y-45482240D01*
X105985273Y-45475215D01*
X105818139Y-45343222D01*
X105809552Y-45337517D01*
X105623117Y-45234599D01*
X105613705Y-45230369D01*
X105412959Y-45159280D01*
X105402988Y-45156646D01*
X105331837Y-45143972D01*
X105318540Y-45145432D01*
X105314000Y-45159989D01*
X105314000Y-47793517D01*
X105318064Y-47807359D01*
X105331478Y-47809393D01*
X105338184Y-47808534D01*
X105348262Y-47806392D01*
X105552255Y-47745191D01*
X105561842Y-47741433D01*
X105753095Y-47647739D01*
X105761945Y-47642464D01*
X105935328Y-47518792D01*
X105943200Y-47512139D01*
X106094052Y-47361812D01*
X106100730Y-47353965D01*
X106228022Y-47176819D01*
X106229279Y-47177722D01*
X106276373Y-47134362D01*
X106346311Y-47122145D01*
X106411751Y-47149678D01*
X106439579Y-47181511D01*
X106499987Y-47280088D01*
X106646250Y-47448938D01*
X106818126Y-47591632D01*
X107011000Y-47704338D01*
X107219692Y-47784030D01*
X107224760Y-47785061D01*
X107224763Y-47785062D01*
X107317075Y-47803843D01*
X107438597Y-47828567D01*
X107443772Y-47828757D01*
X107443774Y-47828757D01*
X107656673Y-47836564D01*
X107656677Y-47836564D01*
X107661837Y-47836753D01*
X107666957Y-47836097D01*
X107666959Y-47836097D01*
X107878288Y-47809025D01*
X107878289Y-47809025D01*
X107883416Y-47808368D01*
X107888367Y-47806883D01*
X107888370Y-47806882D01*
X107929829Y-47794444D01*
X108000825Y-47794028D01*
X108055131Y-47826035D01*
X108880501Y-48651405D01*
X108914527Y-48713717D01*
X108909462Y-48784532D01*
X108866915Y-48841368D01*
X108800395Y-48866179D01*
X108791406Y-48866500D01*
X98239594Y-48866500D01*
X98171473Y-48846498D01*
X98150499Y-48829595D01*
X97222801Y-47901897D01*
X97188775Y-47839585D01*
X97185949Y-47809148D01*
X97186000Y-47807390D01*
X97186000Y-47793517D01*
X97694000Y-47793517D01*
X97698064Y-47807359D01*
X97711478Y-47809393D01*
X97718184Y-47808534D01*
X97728262Y-47806392D01*
X97932255Y-47745191D01*
X97941842Y-47741433D01*
X98133095Y-47647739D01*
X98141945Y-47642464D01*
X98315328Y-47518792D01*
X98323200Y-47512139D01*
X98474052Y-47361812D01*
X98480730Y-47353965D01*
X98608022Y-47176819D01*
X98609147Y-47177627D01*
X98656669Y-47133876D01*
X98726607Y-47121661D01*
X98792046Y-47149197D01*
X98819870Y-47181028D01*
X98877690Y-47275383D01*
X98883777Y-47283699D01*
X99023213Y-47444667D01*
X99030580Y-47451883D01*
X99194434Y-47587916D01*
X99202881Y-47593831D01*
X99386756Y-47701279D01*
X99396042Y-47705729D01*
X99595001Y-47781703D01*
X99604899Y-47784579D01*
X99708250Y-47805606D01*
X99722299Y-47804410D01*
X99726000Y-47794065D01*
X99726000Y-47793517D01*
X100234000Y-47793517D01*
X100238064Y-47807359D01*
X100251478Y-47809393D01*
X100258184Y-47808534D01*
X100268262Y-47806392D01*
X100472255Y-47745191D01*
X100481842Y-47741433D01*
X100673095Y-47647739D01*
X100681945Y-47642464D01*
X100855328Y-47518792D01*
X100863200Y-47512139D01*
X101014052Y-47361812D01*
X101020730Y-47353965D01*
X101148022Y-47176819D01*
X101149147Y-47177627D01*
X101196669Y-47133876D01*
X101266607Y-47121661D01*
X101332046Y-47149197D01*
X101359870Y-47181028D01*
X101417690Y-47275383D01*
X101423777Y-47283699D01*
X101563213Y-47444667D01*
X101570580Y-47451883D01*
X101734434Y-47587916D01*
X101742881Y-47593831D01*
X101926756Y-47701279D01*
X101936042Y-47705729D01*
X102135001Y-47781703D01*
X102144899Y-47784579D01*
X102248250Y-47805606D01*
X102262299Y-47804410D01*
X102266000Y-47794065D01*
X102266000Y-47793517D01*
X102774000Y-47793517D01*
X102778064Y-47807359D01*
X102791478Y-47809393D01*
X102798184Y-47808534D01*
X102808262Y-47806392D01*
X103012255Y-47745191D01*
X103021842Y-47741433D01*
X103213095Y-47647739D01*
X103221945Y-47642464D01*
X103395328Y-47518792D01*
X103403200Y-47512139D01*
X103554052Y-47361812D01*
X103560730Y-47353965D01*
X103688022Y-47176819D01*
X103689147Y-47177627D01*
X103736669Y-47133876D01*
X103806607Y-47121661D01*
X103872046Y-47149197D01*
X103899870Y-47181028D01*
X103957690Y-47275383D01*
X103963777Y-47283699D01*
X104103213Y-47444667D01*
X104110580Y-47451883D01*
X104274434Y-47587916D01*
X104282881Y-47593831D01*
X104466756Y-47701279D01*
X104476042Y-47705729D01*
X104675001Y-47781703D01*
X104684899Y-47784579D01*
X104788250Y-47805606D01*
X104802299Y-47804410D01*
X104806000Y-47794065D01*
X104806000Y-46747115D01*
X104801525Y-46731876D01*
X104800135Y-46730671D01*
X104792452Y-46729000D01*
X102792115Y-46729000D01*
X102776876Y-46733475D01*
X102775671Y-46734865D01*
X102774000Y-46742548D01*
X102774000Y-47793517D01*
X102266000Y-47793517D01*
X102266000Y-46747115D01*
X102261525Y-46731876D01*
X102260135Y-46730671D01*
X102252452Y-46729000D01*
X100252115Y-46729000D01*
X100236876Y-46733475D01*
X100235671Y-46734865D01*
X100234000Y-46742548D01*
X100234000Y-47793517D01*
X99726000Y-47793517D01*
X99726000Y-46747115D01*
X99721525Y-46731876D01*
X99720135Y-46730671D01*
X99712452Y-46729000D01*
X97712115Y-46729000D01*
X97696876Y-46733475D01*
X97695671Y-46734865D01*
X97694000Y-46742548D01*
X97694000Y-47793517D01*
X97186000Y-47793517D01*
X97186000Y-46202885D01*
X97694000Y-46202885D01*
X97698475Y-46218124D01*
X97699865Y-46219329D01*
X97707548Y-46221000D01*
X99707885Y-46221000D01*
X99723124Y-46216525D01*
X99724329Y-46215135D01*
X99726000Y-46207452D01*
X99726000Y-46202885D01*
X100234000Y-46202885D01*
X100238475Y-46218124D01*
X100239865Y-46219329D01*
X100247548Y-46221000D01*
X102247885Y-46221000D01*
X102263124Y-46216525D01*
X102264329Y-46215135D01*
X102266000Y-46207452D01*
X102266000Y-46202885D01*
X102774000Y-46202885D01*
X102778475Y-46218124D01*
X102779865Y-46219329D01*
X102787548Y-46221000D01*
X104787885Y-46221000D01*
X104803124Y-46216525D01*
X104804329Y-46215135D01*
X104806000Y-46207452D01*
X104806000Y-45158102D01*
X104802082Y-45144758D01*
X104787806Y-45142771D01*
X104749324Y-45148660D01*
X104739288Y-45151051D01*
X104536868Y-45217212D01*
X104527359Y-45221209D01*
X104338463Y-45319542D01*
X104329738Y-45325036D01*
X104159433Y-45452905D01*
X104151726Y-45459748D01*
X104004590Y-45613717D01*
X103998104Y-45621727D01*
X103893193Y-45775521D01*
X103838282Y-45820524D01*
X103767757Y-45828695D01*
X103704010Y-45797441D01*
X103683313Y-45772957D01*
X103602427Y-45647926D01*
X103596136Y-45639757D01*
X103452806Y-45482240D01*
X103445273Y-45475215D01*
X103278139Y-45343222D01*
X103269552Y-45337517D01*
X103083117Y-45234599D01*
X103073705Y-45230369D01*
X102872959Y-45159280D01*
X102862988Y-45156646D01*
X102791837Y-45143972D01*
X102778540Y-45145432D01*
X102774000Y-45159989D01*
X102774000Y-46202885D01*
X102266000Y-46202885D01*
X102266000Y-45158102D01*
X102262082Y-45144758D01*
X102247806Y-45142771D01*
X102209324Y-45148660D01*
X102199288Y-45151051D01*
X101996868Y-45217212D01*
X101987359Y-45221209D01*
X101798463Y-45319542D01*
X101789738Y-45325036D01*
X101619433Y-45452905D01*
X101611726Y-45459748D01*
X101464590Y-45613717D01*
X101458104Y-45621727D01*
X101353193Y-45775521D01*
X101298282Y-45820524D01*
X101227757Y-45828695D01*
X101164010Y-45797441D01*
X101143313Y-45772957D01*
X101062427Y-45647926D01*
X101056136Y-45639757D01*
X100912806Y-45482240D01*
X100905273Y-45475215D01*
X100738139Y-45343222D01*
X100729552Y-45337517D01*
X100543117Y-45234599D01*
X100533705Y-45230369D01*
X100332959Y-45159280D01*
X100322988Y-45156646D01*
X100251837Y-45143972D01*
X100238540Y-45145432D01*
X100234000Y-45159989D01*
X100234000Y-46202885D01*
X99726000Y-46202885D01*
X99726000Y-45158102D01*
X99722082Y-45144758D01*
X99707806Y-45142771D01*
X99669324Y-45148660D01*
X99659288Y-45151051D01*
X99456868Y-45217212D01*
X99447359Y-45221209D01*
X99258463Y-45319542D01*
X99249738Y-45325036D01*
X99079433Y-45452905D01*
X99071726Y-45459748D01*
X98924590Y-45613717D01*
X98918104Y-45621727D01*
X98813193Y-45775521D01*
X98758282Y-45820524D01*
X98687757Y-45828695D01*
X98624010Y-45797441D01*
X98603313Y-45772957D01*
X98522427Y-45647926D01*
X98516136Y-45639757D01*
X98372806Y-45482240D01*
X98365273Y-45475215D01*
X98198139Y-45343222D01*
X98189552Y-45337517D01*
X98003117Y-45234599D01*
X97993705Y-45230369D01*
X97792959Y-45159280D01*
X97782988Y-45156646D01*
X97711837Y-45143972D01*
X97698540Y-45145432D01*
X97694000Y-45159989D01*
X97694000Y-46202885D01*
X97186000Y-46202885D01*
X97186000Y-45158102D01*
X97182082Y-45144758D01*
X97167806Y-45142771D01*
X97129324Y-45148660D01*
X97119288Y-45151051D01*
X96916868Y-45217212D01*
X96907359Y-45221209D01*
X96718463Y-45319542D01*
X96709738Y-45325036D01*
X96539433Y-45452905D01*
X96531726Y-45459748D01*
X96384590Y-45613717D01*
X96378109Y-45621722D01*
X96273498Y-45775074D01*
X96218587Y-45820076D01*
X96148062Y-45828247D01*
X96084315Y-45796993D01*
X96063618Y-45772509D01*
X95982822Y-45647617D01*
X95982820Y-45647614D01*
X95980014Y-45643277D01*
X95829670Y-45478051D01*
X95825619Y-45474852D01*
X95825615Y-45474848D01*
X95658414Y-45342800D01*
X95658410Y-45342798D01*
X95654359Y-45339598D01*
X95618028Y-45319542D01*
X95526970Y-45269276D01*
X95458789Y-45231638D01*
X95453920Y-45229914D01*
X95453916Y-45229912D01*
X95253087Y-45158795D01*
X95253083Y-45158794D01*
X95248212Y-45157069D01*
X95243119Y-45156162D01*
X95243116Y-45156161D01*
X95033373Y-45118800D01*
X95033367Y-45118799D01*
X95028284Y-45117894D01*
X94954452Y-45116992D01*
X94810081Y-45115228D01*
X94810079Y-45115228D01*
X94804911Y-45115165D01*
X94584091Y-45148955D01*
X94371756Y-45218357D01*
X94173607Y-45321507D01*
X94169474Y-45324610D01*
X94169471Y-45324612D01*
X93999100Y-45452530D01*
X93994965Y-45455635D01*
X93840629Y-45617138D01*
X93733201Y-45774621D01*
X93678293Y-45819621D01*
X93607768Y-45827792D01*
X93544021Y-45796538D01*
X93523324Y-45772054D01*
X93442822Y-45647617D01*
X93442820Y-45647614D01*
X93440014Y-45643277D01*
X93289670Y-45478051D01*
X93285619Y-45474852D01*
X93285615Y-45474848D01*
X93118414Y-45342800D01*
X93118410Y-45342798D01*
X93114359Y-45339598D01*
X93078028Y-45319542D01*
X92986970Y-45269276D01*
X92918789Y-45231638D01*
X92913920Y-45229914D01*
X92913916Y-45229912D01*
X92713087Y-45158795D01*
X92713083Y-45158794D01*
X92708212Y-45157069D01*
X92703119Y-45156162D01*
X92703116Y-45156161D01*
X92493373Y-45118800D01*
X92493367Y-45118799D01*
X92488284Y-45117894D01*
X92414452Y-45116992D01*
X92270081Y-45115228D01*
X92270079Y-45115228D01*
X92264911Y-45115165D01*
X92044091Y-45148955D01*
X91831756Y-45218357D01*
X91633607Y-45321507D01*
X91629474Y-45324610D01*
X91629471Y-45324612D01*
X91459100Y-45452530D01*
X91454965Y-45455635D01*
X91300629Y-45617138D01*
X91193201Y-45774621D01*
X91138293Y-45819621D01*
X91067768Y-45827792D01*
X91004021Y-45796538D01*
X90983324Y-45772054D01*
X90902822Y-45647617D01*
X90902820Y-45647614D01*
X90900014Y-45643277D01*
X90749670Y-45478051D01*
X90745619Y-45474852D01*
X90745615Y-45474848D01*
X90578414Y-45342800D01*
X90578410Y-45342798D01*
X90574359Y-45339598D01*
X90538028Y-45319542D01*
X90446970Y-45269276D01*
X90378789Y-45231638D01*
X90373920Y-45229914D01*
X90373916Y-45229912D01*
X90173087Y-45158795D01*
X90173083Y-45158794D01*
X90168212Y-45157069D01*
X90163119Y-45156162D01*
X90163116Y-45156161D01*
X89953373Y-45118800D01*
X89953367Y-45118799D01*
X89948284Y-45117894D01*
X89874452Y-45116992D01*
X89730081Y-45115228D01*
X89730079Y-45115228D01*
X89724911Y-45115165D01*
X89504091Y-45148955D01*
X89291756Y-45218357D01*
X89093607Y-45321507D01*
X89089474Y-45324610D01*
X89089471Y-45324612D01*
X88919100Y-45452530D01*
X88914965Y-45455635D01*
X88760629Y-45617138D01*
X88653201Y-45774621D01*
X88598293Y-45819621D01*
X88527768Y-45827792D01*
X88464021Y-45796538D01*
X88443324Y-45772054D01*
X88362822Y-45647617D01*
X88362820Y-45647614D01*
X88360014Y-45643277D01*
X88209670Y-45478051D01*
X88205619Y-45474852D01*
X88205615Y-45474848D01*
X88038414Y-45342800D01*
X88038410Y-45342798D01*
X88034359Y-45339598D01*
X87998028Y-45319542D01*
X87906970Y-45269276D01*
X87838789Y-45231638D01*
X87833920Y-45229914D01*
X87833916Y-45229912D01*
X87633087Y-45158795D01*
X87633083Y-45158794D01*
X87628212Y-45157069D01*
X87623119Y-45156162D01*
X87623116Y-45156161D01*
X87413373Y-45118800D01*
X87413367Y-45118799D01*
X87408284Y-45117894D01*
X87334452Y-45116992D01*
X87190081Y-45115228D01*
X87190079Y-45115228D01*
X87184911Y-45115165D01*
X86964091Y-45148955D01*
X86751756Y-45218357D01*
X86553607Y-45321507D01*
X86549474Y-45324610D01*
X86549471Y-45324612D01*
X86379100Y-45452530D01*
X86374965Y-45455635D01*
X86220629Y-45617138D01*
X86113201Y-45774621D01*
X86058293Y-45819621D01*
X85987768Y-45827792D01*
X85924021Y-45796538D01*
X85903324Y-45772054D01*
X85822822Y-45647617D01*
X85822820Y-45647614D01*
X85820014Y-45643277D01*
X85669670Y-45478051D01*
X85665619Y-45474852D01*
X85665615Y-45474848D01*
X85498414Y-45342800D01*
X85498410Y-45342798D01*
X85494359Y-45339598D01*
X85458028Y-45319542D01*
X85366970Y-45269276D01*
X85298789Y-45231638D01*
X85293920Y-45229914D01*
X85293916Y-45229912D01*
X85093087Y-45158795D01*
X85093083Y-45158794D01*
X85088212Y-45157069D01*
X85083119Y-45156162D01*
X85083116Y-45156161D01*
X84873373Y-45118800D01*
X84873367Y-45118799D01*
X84868284Y-45117894D01*
X84794452Y-45116992D01*
X84650081Y-45115228D01*
X84650079Y-45115228D01*
X84644911Y-45115165D01*
X84424091Y-45148955D01*
X84211756Y-45218357D01*
X84013607Y-45321507D01*
X84009474Y-45324610D01*
X84009471Y-45324612D01*
X83839100Y-45452530D01*
X83834965Y-45455635D01*
X83680629Y-45617138D01*
X83677720Y-45621403D01*
X83677714Y-45621411D01*
X83665404Y-45639457D01*
X83573204Y-45774618D01*
X83572898Y-45775066D01*
X83517987Y-45820069D01*
X83447462Y-45828240D01*
X83383715Y-45796986D01*
X83363018Y-45772502D01*
X83282426Y-45647926D01*
X83276136Y-45639757D01*
X83132806Y-45482240D01*
X83125273Y-45475215D01*
X82958139Y-45343222D01*
X82949552Y-45337517D01*
X82763117Y-45234599D01*
X82753705Y-45230369D01*
X82552959Y-45159280D01*
X82542988Y-45156646D01*
X82471837Y-45143972D01*
X82458540Y-45145432D01*
X82454000Y-45159989D01*
X82454000Y-47793517D01*
X81946000Y-47793517D01*
X81946000Y-46747115D01*
X81941525Y-46731876D01*
X81940135Y-46730671D01*
X81932452Y-46729000D01*
X80883225Y-46729000D01*
X80869694Y-46732973D01*
X80868257Y-46742966D01*
X53737444Y-46742966D01*
X53756858Y-46582538D01*
X53757282Y-46576968D01*
X53762755Y-46402797D01*
X53762682Y-46397204D01*
X53751841Y-46209183D01*
X80864389Y-46209183D01*
X80865912Y-46217607D01*
X80878292Y-46221000D01*
X81927885Y-46221000D01*
X81943124Y-46216525D01*
X81944329Y-46215135D01*
X81946000Y-46207452D01*
X81946000Y-45158102D01*
X81942082Y-45144758D01*
X81927806Y-45142771D01*
X81889324Y-45148660D01*
X81879288Y-45151051D01*
X81676868Y-45217212D01*
X81667359Y-45221209D01*
X81478463Y-45319542D01*
X81469738Y-45325036D01*
X81299433Y-45452905D01*
X81291726Y-45459748D01*
X81144590Y-45613717D01*
X81138104Y-45621727D01*
X81018098Y-45797649D01*
X81013000Y-45806623D01*
X80923338Y-45999783D01*
X80919775Y-46009470D01*
X80864389Y-46209183D01*
X53751841Y-46209183D01*
X53744079Y-46074573D01*
X53743247Y-46067383D01*
X53687828Y-45749840D01*
X53686173Y-45742785D01*
X53594627Y-45433733D01*
X53592170Y-45426908D01*
X53465706Y-45130417D01*
X53462485Y-45123928D01*
X53302773Y-44843924D01*
X53298841Y-44837869D01*
X53108003Y-44578075D01*
X53106760Y-44576573D01*
X53094037Y-44569007D01*
X53093431Y-44569028D01*
X53084951Y-44574260D01*
X51272020Y-46387190D01*
X51264408Y-46401131D01*
X50534357Y-46401131D01*
X50535592Y-46398869D01*
X50535461Y-46397034D01*
X50531210Y-46390420D01*
X48719218Y-44578429D01*
X48706425Y-44571443D01*
X48695671Y-44579308D01*
X48551419Y-44763280D01*
X48547281Y-44769234D01*
X48541432Y-44778778D01*
X48488784Y-44826409D01*
X48418742Y-44838015D01*
X48353545Y-44809911D01*
X48313891Y-44751020D01*
X48308000Y-44712942D01*
X48308000Y-43834000D01*
X48328002Y-43765879D01*
X48381658Y-43719386D01*
X48434000Y-43708000D01*
X49375005Y-43708000D01*
X49443126Y-43728002D01*
G37*
G04 #@! TD.AperFunction*
G04 #@! TA.AperFunction,Conductor*
G36*
X72842121Y-56120002D02*
G01*
X72888614Y-56173658D01*
X72900000Y-56226000D01*
X72900000Y-65861851D01*
X72878838Y-65931743D01*
X71510348Y-67984477D01*
X71510347Y-67984479D01*
X71500000Y-68000000D01*
X71500000Y-70630165D01*
X71479998Y-70698286D01*
X71440781Y-70737012D01*
X68300000Y-72700000D01*
X68300000Y-78474000D01*
X68279998Y-78542121D01*
X68226342Y-78588614D01*
X68174000Y-78600000D01*
X59836868Y-78600000D01*
X59768947Y-78580126D01*
X59013429Y-78096594D01*
X54858078Y-75437170D01*
X54811485Y-75383603D01*
X54800000Y-75331045D01*
X54800000Y-73600000D01*
X54789646Y-73597781D01*
X50555195Y-72690399D01*
X48407598Y-72230200D01*
X48345182Y-72196369D01*
X48310963Y-72134163D01*
X48308000Y-72106997D01*
X48308000Y-62100000D01*
X64252677Y-62100000D01*
X64271930Y-62320068D01*
X64329106Y-62533450D01*
X64422466Y-62733661D01*
X64549174Y-62914620D01*
X64705380Y-63070826D01*
X64709888Y-63073983D01*
X64709891Y-63073985D01*
X64881208Y-63193942D01*
X64886338Y-63197534D01*
X64891320Y-63199857D01*
X64891325Y-63199860D01*
X65080556Y-63288099D01*
X65086550Y-63290894D01*
X65091858Y-63292316D01*
X65091860Y-63292317D01*
X65157252Y-63309839D01*
X65299932Y-63348070D01*
X65520000Y-63367323D01*
X65740068Y-63348070D01*
X65882748Y-63309839D01*
X65948140Y-63292317D01*
X65948142Y-63292316D01*
X65953450Y-63290894D01*
X65959444Y-63288099D01*
X66148675Y-63199860D01*
X66148680Y-63199857D01*
X66153662Y-63197534D01*
X66158792Y-63193942D01*
X66217215Y-63153034D01*
X69911521Y-63153034D01*
X69920817Y-63165049D01*
X69962081Y-63193942D01*
X69971576Y-63199425D01*
X70161740Y-63288099D01*
X70172032Y-63291845D01*
X70374704Y-63346151D01*
X70385499Y-63348054D01*
X70594525Y-63366342D01*
X70605475Y-63366342D01*
X70814501Y-63348054D01*
X70825296Y-63346151D01*
X71027968Y-63291845D01*
X71038260Y-63288099D01*
X71228424Y-63199425D01*
X71237919Y-63193942D01*
X71280021Y-63164462D01*
X71288396Y-63153985D01*
X71281328Y-63140538D01*
X70612812Y-62472022D01*
X70598868Y-62464408D01*
X70597035Y-62464539D01*
X70590420Y-62468790D01*
X69917951Y-63141259D01*
X69911521Y-63153034D01*
X66217215Y-63153034D01*
X66330109Y-63073985D01*
X66330112Y-63073983D01*
X66334620Y-63070826D01*
X66490826Y-62914620D01*
X66617534Y-62733661D01*
X66710894Y-62533450D01*
X66768070Y-62320068D01*
X66786844Y-62105475D01*
X69333658Y-62105475D01*
X69351946Y-62314501D01*
X69353849Y-62325296D01*
X69408155Y-62527968D01*
X69411901Y-62538260D01*
X69500577Y-62728425D01*
X69506055Y-62737915D01*
X69535539Y-62780022D01*
X69546015Y-62788396D01*
X69559463Y-62781327D01*
X70227978Y-62112812D01*
X70234356Y-62101132D01*
X70964408Y-62101132D01*
X70964539Y-62102965D01*
X70968790Y-62109580D01*
X71641259Y-62782049D01*
X71653033Y-62788479D01*
X71665049Y-62779183D01*
X71693945Y-62737915D01*
X71699423Y-62728425D01*
X71788099Y-62538260D01*
X71791845Y-62527968D01*
X71846151Y-62325296D01*
X71848054Y-62314501D01*
X71866342Y-62105475D01*
X71866342Y-62094525D01*
X71848054Y-61885499D01*
X71846151Y-61874704D01*
X71791845Y-61672032D01*
X71788099Y-61661740D01*
X71699423Y-61471575D01*
X71693945Y-61462085D01*
X71664461Y-61419978D01*
X71653985Y-61411604D01*
X71640537Y-61418673D01*
X70972022Y-62087188D01*
X70964408Y-62101132D01*
X70234356Y-62101132D01*
X70235592Y-62098868D01*
X70235461Y-62097035D01*
X70231210Y-62090420D01*
X69558741Y-61417951D01*
X69546967Y-61411521D01*
X69534951Y-61420817D01*
X69506055Y-61462085D01*
X69500577Y-61471575D01*
X69411901Y-61661740D01*
X69408155Y-61672032D01*
X69353849Y-61874704D01*
X69351946Y-61885499D01*
X69333658Y-62094525D01*
X69333658Y-62105475D01*
X66786844Y-62105475D01*
X66787323Y-62100000D01*
X66768070Y-61879932D01*
X66710894Y-61666550D01*
X66617534Y-61466339D01*
X66490826Y-61285380D01*
X66334620Y-61129174D01*
X66330112Y-61126017D01*
X66330109Y-61126015D01*
X66215857Y-61046015D01*
X69911604Y-61046015D01*
X69918673Y-61059463D01*
X70587188Y-61727978D01*
X70601132Y-61735592D01*
X70602965Y-61735461D01*
X70609580Y-61731210D01*
X71282049Y-61058741D01*
X71288479Y-61046966D01*
X71279183Y-61034951D01*
X71237919Y-61006058D01*
X71228424Y-61000575D01*
X71038260Y-60911901D01*
X71027968Y-60908155D01*
X70825296Y-60853849D01*
X70814501Y-60851946D01*
X70605475Y-60833658D01*
X70594525Y-60833658D01*
X70385499Y-60851946D01*
X70374704Y-60853849D01*
X70172032Y-60908155D01*
X70161740Y-60911901D01*
X69971575Y-61000577D01*
X69962085Y-61006055D01*
X69919978Y-61035539D01*
X69911604Y-61046015D01*
X66215857Y-61046015D01*
X66158171Y-61005623D01*
X66158168Y-61005621D01*
X66153662Y-61002466D01*
X66148680Y-61000143D01*
X66148675Y-61000140D01*
X65958432Y-60911429D01*
X65958431Y-60911429D01*
X65953450Y-60909106D01*
X65948142Y-60907684D01*
X65948140Y-60907683D01*
X65882748Y-60890161D01*
X65740068Y-60851930D01*
X65520000Y-60832677D01*
X65299932Y-60851930D01*
X65157252Y-60890161D01*
X65091860Y-60907683D01*
X65091858Y-60907684D01*
X65086550Y-60909106D01*
X65081569Y-60911428D01*
X65081568Y-60911429D01*
X64891320Y-61000143D01*
X64891317Y-61000145D01*
X64886339Y-61002466D01*
X64705380Y-61129174D01*
X64549174Y-61285380D01*
X64422466Y-61466339D01*
X64329106Y-61666550D01*
X64271930Y-61879932D01*
X64252677Y-62100000D01*
X48308000Y-62100000D01*
X48308000Y-60402134D01*
X52087500Y-60402134D01*
X52094255Y-60464316D01*
X52145385Y-60600705D01*
X52232739Y-60717261D01*
X52349295Y-60804615D01*
X52485684Y-60855745D01*
X52547866Y-60862500D01*
X54152134Y-60862500D01*
X54214316Y-60855745D01*
X54350705Y-60804615D01*
X54467261Y-60717261D01*
X54554615Y-60600705D01*
X54605745Y-60464316D01*
X54610939Y-60416500D01*
X54638180Y-60350939D01*
X54696543Y-60310512D01*
X54767497Y-60308056D01*
X54828515Y-60344351D01*
X54839415Y-60357838D01*
X54879174Y-60414620D01*
X55035380Y-60570826D01*
X55039888Y-60573983D01*
X55039891Y-60573985D01*
X55088314Y-60607891D01*
X55216338Y-60697534D01*
X55221320Y-60699857D01*
X55221325Y-60699860D01*
X55411568Y-60788571D01*
X55416550Y-60790894D01*
X55421858Y-60792316D01*
X55421860Y-60792317D01*
X55447656Y-60799229D01*
X55629932Y-60848070D01*
X55850000Y-60867323D01*
X56070068Y-60848070D01*
X56252344Y-60799229D01*
X56278140Y-60792317D01*
X56278142Y-60792316D01*
X56283450Y-60790894D01*
X56288432Y-60788571D01*
X56478675Y-60699860D01*
X56478680Y-60699857D01*
X56483662Y-60697534D01*
X56611686Y-60607891D01*
X56660109Y-60573985D01*
X56660112Y-60573983D01*
X56664620Y-60570826D01*
X56820826Y-60414620D01*
X56947534Y-60233661D01*
X57040894Y-60033450D01*
X57098070Y-59820068D01*
X57117323Y-59600000D01*
X57098070Y-59379932D01*
X57040894Y-59166550D01*
X56947534Y-58966339D01*
X56820826Y-58785380D01*
X56664620Y-58629174D01*
X56660112Y-58626017D01*
X56660109Y-58626015D01*
X56488171Y-58505623D01*
X56488168Y-58505621D01*
X56483662Y-58502466D01*
X56478680Y-58500143D01*
X56478675Y-58500140D01*
X56288432Y-58411429D01*
X56288431Y-58411429D01*
X56283450Y-58409106D01*
X56278142Y-58407684D01*
X56278140Y-58407683D01*
X56212748Y-58390161D01*
X56070068Y-58351930D01*
X55850000Y-58332677D01*
X55629932Y-58351930D01*
X55487252Y-58390161D01*
X55421860Y-58407683D01*
X55421858Y-58407684D01*
X55416550Y-58409106D01*
X55411569Y-58411428D01*
X55411568Y-58411429D01*
X55221320Y-58500143D01*
X55221317Y-58500145D01*
X55216339Y-58502466D01*
X55035380Y-58629174D01*
X54879174Y-58785380D01*
X54868039Y-58801283D01*
X54839415Y-58842162D01*
X54783958Y-58886491D01*
X54713339Y-58893800D01*
X54649978Y-58861770D01*
X54613993Y-58800568D01*
X54610939Y-58783499D01*
X54606598Y-58743540D01*
X54605745Y-58735684D01*
X54554615Y-58599295D01*
X54467261Y-58482739D01*
X54350705Y-58395385D01*
X54214316Y-58344255D01*
X54152134Y-58337500D01*
X52547866Y-58337500D01*
X52485684Y-58344255D01*
X52349295Y-58395385D01*
X52232739Y-58482739D01*
X52145385Y-58599295D01*
X52094255Y-58735684D01*
X52087500Y-58797866D01*
X52087500Y-60402134D01*
X48308000Y-60402134D01*
X48308000Y-56226000D01*
X48328002Y-56157879D01*
X48381658Y-56111386D01*
X48434000Y-56100000D01*
X72774000Y-56100000D01*
X72842121Y-56120002D01*
G37*
G04 #@! TD.AperFunction*
M02*
