M48
; DRILL file {KiCad (6.0.0-0)} date Wednesday, 23 February 2022 at 00:42:35
; FORMAT={-:-/ absolute / metric / decimal}
; #@! TF.CreationDate,2022-02-23T00:42:35+01:00
; #@! TF.GenerationSoftware,Kicad,Pcbnew,(6.0.0-0)
; #@! TF.FileFunction,Plated,1,2,PTH
FMAT,2
METRIC
; #@! TA.AperFunction,Plated,PTH,ViaDrill
T1C0.400
; #@! TA.AperFunction,Plated,PTH,ComponentDrill
T2C0.711
; #@! TA.AperFunction,Plated,PTH,ComponentDrill
T3C0.800
; #@! TA.AperFunction,Plated,PTH,ComponentDrill
T4C1.000
; #@! TA.AperFunction,Plated,PTH,ComponentDrill
T5C2.700
%
G90
G05
T1
X54.45Y-72.8
X61.0Y-77.8
X61.05Y-76.55
X68.1Y-71.4
X69.6Y-65.15
X74.5Y-64.85
X76.1Y-77.8
X77.45Y-69.175
X77.5Y-71.45
X81.4Y-63.15
X81.65Y-54.9
X97.325Y-73.3
X98.225Y-68.0
X104.8Y-73.3
X105.95Y-52.7
X106.175Y-71.15
X107.0Y-78.375
X111.825Y-73.975
X114.9Y-78.675
X117.425Y-73.975
X119.25Y-79.45
X119.6Y-71.65
X121.4Y-79.425
X127.2Y-69.675
T2
X112.62Y-49.35
X115.16Y-51.89
X117.7Y-49.35
T3
X87.425Y-56.175
X87.425Y-61.055
X92.105Y-55.475
X92.105Y-63.095
X94.645Y-55.475
X94.645Y-63.095
X97.185Y-55.475
X97.185Y-63.095
X99.725Y-55.475
X99.725Y-63.095
X102.265Y-55.475
X102.265Y-63.095
X104.805Y-55.475
X104.805Y-63.095
X107.345Y-55.475
X107.345Y-63.095
X109.885Y-55.475
X109.885Y-63.095
X112.425Y-55.475
X112.425Y-63.095
X114.965Y-55.475
X114.965Y-63.095
X117.505Y-55.475
X117.505Y-63.095
X120.045Y-55.475
X120.045Y-63.095
X122.585Y-55.475
X122.585Y-63.095
X125.125Y-55.475
X125.125Y-63.095
T4
X53.35Y-59.6
X55.85Y-59.6
X65.52Y-62.1
X70.6Y-62.1
X74.6Y-50.35
X75.68Y-62.1
X77.1Y-50.35
X78.22Y-62.1
X82.2Y-46.475
X84.74Y-46.475
X87.28Y-46.475
X88.255Y-67.85
X89.82Y-46.475
X90.795Y-67.85
X92.36Y-46.475
X93.335Y-67.85
X94.9Y-46.475
X95.875Y-67.85
X97.44Y-46.475
X99.98Y-46.475
X102.52Y-46.475
X105.06Y-46.475
X107.6Y-46.475
X110.14Y-46.475
X112.68Y-46.475
X115.22Y-46.475
X117.76Y-46.475
X120.3Y-46.475
T5
X50.9Y-46.4
X50.9Y-77.4
X125.9Y-46.4
X125.9Y-77.4
T0
M30
