%FSLAX45Y45*%
G04 Gerber Fmt 4.5, Leading zero omitted, Abs format (unit mm)*
G04 Created by KiCad (PCBNEW (6.0.0-0)) date 2022-02-23 00:42:36*
%MOMM*%
%LPD*%
G01*
G04 APERTURE LIST*
%TA.AperFunction,Profile*%
%ADD10C,0.100000*%
%TD*%
%ADD11C,0.200000*%
%ADD12C,0.040000*%
%ADD13C,0.071120*%
%ADD14C,0.080000*%
%ADD15C,0.100000*%
%ADD16C,0.270000*%
G04 APERTURE END LIST*
D10*
X12880000Y-4320000D02*
X4780000Y-4320000D01*
X4780000Y-8060000D02*
X12880000Y-8060000D01*
X12880000Y-8060000D02*
X12880000Y-4320000D01*
X4780000Y-4320000D02*
X4780000Y-8060000D01*
D11*
D12*
X5425000Y-7260000D02*
X5465000Y-7300000D01*
X5465000Y-7260000D02*
X5425000Y-7300000D01*
X6080000Y-7760000D02*
X6120000Y-7800000D01*
X6120000Y-7760000D02*
X6080000Y-7800000D01*
X6085000Y-7635000D02*
X6125000Y-7675000D01*
X6125000Y-7635000D02*
X6085000Y-7675000D01*
X6790000Y-7120000D02*
X6830000Y-7160000D01*
X6830000Y-7120000D02*
X6790000Y-7160000D01*
X6940000Y-6495000D02*
X6980000Y-6535000D01*
X6980000Y-6495000D02*
X6940000Y-6535000D01*
X7430000Y-6465000D02*
X7470000Y-6505000D01*
X7470000Y-6465000D02*
X7430000Y-6505000D01*
X7590000Y-7760000D02*
X7630000Y-7800000D01*
X7630000Y-7760000D02*
X7590000Y-7800000D01*
X7725000Y-6897500D02*
X7765000Y-6937500D01*
X7765000Y-6897500D02*
X7725000Y-6937500D01*
X7730000Y-7125000D02*
X7770000Y-7165000D01*
X7770000Y-7125000D02*
X7730000Y-7165000D01*
X8120000Y-6295000D02*
X8160000Y-6335000D01*
X8160000Y-6295000D02*
X8120000Y-6335000D01*
X8145000Y-5470000D02*
X8185000Y-5510000D01*
X8185000Y-5470000D02*
X8145000Y-5510000D01*
X9712500Y-7310000D02*
X9752500Y-7350000D01*
X9752500Y-7310000D02*
X9712500Y-7350000D01*
X9802500Y-6780000D02*
X9842500Y-6820000D01*
X9842500Y-6780000D02*
X9802500Y-6820000D01*
X10460000Y-7310000D02*
X10500000Y-7350000D01*
X10500000Y-7310000D02*
X10460000Y-7350000D01*
X10575000Y-5250000D02*
X10615000Y-5290000D01*
X10615000Y-5250000D02*
X10575000Y-5290000D01*
X10597500Y-7095000D02*
X10637500Y-7135000D01*
X10637500Y-7095000D02*
X10597500Y-7135000D01*
X10680000Y-7817500D02*
X10720000Y-7857500D01*
X10720000Y-7817500D02*
X10680000Y-7857500D01*
X11162500Y-7377500D02*
X11202500Y-7417500D01*
X11202500Y-7377500D02*
X11162500Y-7417500D01*
X11470000Y-7847500D02*
X11510000Y-7887500D01*
X11510000Y-7847500D02*
X11470000Y-7887500D01*
X11722500Y-7377500D02*
X11762500Y-7417500D01*
X11762500Y-7377500D02*
X11722500Y-7417500D01*
X11905000Y-7925000D02*
X11945000Y-7965000D01*
X11945000Y-7925000D02*
X11905000Y-7965000D01*
X11940000Y-7145000D02*
X11980000Y-7185000D01*
X11980000Y-7145000D02*
X11940000Y-7185000D01*
X12120000Y-7922500D02*
X12160000Y-7962500D01*
X12160000Y-7922500D02*
X12120000Y-7962500D01*
X12700000Y-6947500D02*
X12740000Y-6987500D01*
X12740000Y-6947500D02*
X12700000Y-6987500D01*
D13*
X11297560Y-4935000D02*
G75*
G03*
X11297560Y-4935000I-35560J0D01*
G01*
X11551560Y-5189000D02*
G75*
G03*
X11551560Y-5189000I-35560J0D01*
G01*
X11805560Y-4935000D02*
G75*
G03*
X11805560Y-4935000I-35560J0D01*
G01*
D14*
X8742500Y-5577500D02*
X8742500Y-5657500D01*
X8702500Y-5617500D02*
X8782500Y-5617500D01*
X8742500Y-6065500D02*
X8742500Y-6145500D01*
X8702500Y-6105500D02*
X8782500Y-6105500D01*
X9210500Y-5507500D02*
X9210500Y-5587500D01*
X9170500Y-5547500D02*
X9250500Y-5547500D01*
X9210500Y-6269500D02*
X9210500Y-6349500D01*
X9170500Y-6309500D02*
X9250500Y-6309500D01*
X9464500Y-5507500D02*
X9464500Y-5587500D01*
X9424500Y-5547500D02*
X9504500Y-5547500D01*
X9464500Y-6269500D02*
X9464500Y-6349500D01*
X9424500Y-6309500D02*
X9504500Y-6309500D01*
X9718500Y-5507500D02*
X9718500Y-5587500D01*
X9678500Y-5547500D02*
X9758500Y-5547500D01*
X9718500Y-6269500D02*
X9718500Y-6349500D01*
X9678500Y-6309500D02*
X9758500Y-6309500D01*
X9972500Y-5507500D02*
X9972500Y-5587500D01*
X9932500Y-5547500D02*
X10012500Y-5547500D01*
X9972500Y-6269500D02*
X9972500Y-6349500D01*
X9932500Y-6309500D02*
X10012500Y-6309500D01*
X10226500Y-5507500D02*
X10226500Y-5587500D01*
X10186500Y-5547500D02*
X10266500Y-5547500D01*
X10226500Y-6269500D02*
X10226500Y-6349500D01*
X10186500Y-6309500D02*
X10266500Y-6309500D01*
X10480500Y-5507500D02*
X10480500Y-5587500D01*
X10440500Y-5547500D02*
X10520500Y-5547500D01*
X10480500Y-6269500D02*
X10480500Y-6349500D01*
X10440500Y-6309500D02*
X10520500Y-6309500D01*
X10734500Y-5507500D02*
X10734500Y-5587500D01*
X10694500Y-5547500D02*
X10774500Y-5547500D01*
X10734500Y-6269500D02*
X10734500Y-6349500D01*
X10694500Y-6309500D02*
X10774500Y-6309500D01*
X10988500Y-5507500D02*
X10988500Y-5587500D01*
X10948500Y-5547500D02*
X11028500Y-5547500D01*
X10988500Y-6269500D02*
X10988500Y-6349500D01*
X10948500Y-6309500D02*
X11028500Y-6309500D01*
X11242500Y-5507500D02*
X11242500Y-5587500D01*
X11202500Y-5547500D02*
X11282500Y-5547500D01*
X11242500Y-6269500D02*
X11242500Y-6349500D01*
X11202500Y-6309500D02*
X11282500Y-6309500D01*
X11496500Y-5507500D02*
X11496500Y-5587500D01*
X11456500Y-5547500D02*
X11536500Y-5547500D01*
X11496500Y-6269500D02*
X11496500Y-6349500D01*
X11456500Y-6309500D02*
X11536500Y-6309500D01*
X11750500Y-5507500D02*
X11750500Y-5587500D01*
X11710500Y-5547500D02*
X11790500Y-5547500D01*
X11750500Y-6269500D02*
X11750500Y-6349500D01*
X11710500Y-6309500D02*
X11790500Y-6309500D01*
X12004500Y-5507500D02*
X12004500Y-5587500D01*
X11964500Y-5547500D02*
X12044500Y-5547500D01*
X12004500Y-6269500D02*
X12004500Y-6349500D01*
X11964500Y-6309500D02*
X12044500Y-6309500D01*
X12258500Y-5507500D02*
X12258500Y-5587500D01*
X12218500Y-5547500D02*
X12298500Y-5547500D01*
X12258500Y-6269500D02*
X12258500Y-6349500D01*
X12218500Y-6309500D02*
X12298500Y-6309500D01*
X12512500Y-5507500D02*
X12512500Y-5587500D01*
X12472500Y-5547500D02*
X12552500Y-5547500D01*
X12512500Y-6269500D02*
X12512500Y-6349500D01*
X12472500Y-6309500D02*
X12552500Y-6309500D01*
D15*
X5370356Y-5995356D02*
X5370356Y-5924644D01*
X5299644Y-5924644D01*
X5299644Y-5995356D01*
X5370356Y-5995356D01*
X5620356Y-5995356D02*
X5620356Y-5924644D01*
X5549644Y-5924644D01*
X5549644Y-5995356D01*
X5620356Y-5995356D01*
X6587356Y-6245356D02*
X6587356Y-6174644D01*
X6516644Y-6174644D01*
X6516644Y-6245356D01*
X6587356Y-6245356D01*
X7095356Y-6245356D02*
X7095356Y-6174644D01*
X7024644Y-6174644D01*
X7024644Y-6245356D01*
X7095356Y-6245356D01*
X7495356Y-5070356D02*
X7495356Y-4999644D01*
X7424644Y-4999644D01*
X7424644Y-5070356D01*
X7495356Y-5070356D01*
X7603356Y-6245356D02*
X7603356Y-6174644D01*
X7532644Y-6174644D01*
X7532644Y-6245356D01*
X7603356Y-6245356D01*
X7745356Y-5070356D02*
X7745356Y-4999644D01*
X7674644Y-4999644D01*
X7674644Y-5070356D01*
X7745356Y-5070356D01*
X7857356Y-6245356D02*
X7857356Y-6174644D01*
X7786644Y-6174644D01*
X7786644Y-6245356D01*
X7857356Y-6245356D01*
X8255356Y-4682856D02*
X8255356Y-4612144D01*
X8184644Y-4612144D01*
X8184644Y-4682856D01*
X8255356Y-4682856D01*
X8509356Y-4682856D02*
X8509356Y-4612144D01*
X8438644Y-4612144D01*
X8438644Y-4682856D01*
X8509356Y-4682856D01*
X8763356Y-4682856D02*
X8763356Y-4612144D01*
X8692644Y-4612144D01*
X8692644Y-4682856D01*
X8763356Y-4682856D01*
X8860856Y-6820356D02*
X8860856Y-6749644D01*
X8790144Y-6749644D01*
X8790144Y-6820356D01*
X8860856Y-6820356D01*
X9017356Y-4682856D02*
X9017356Y-4612144D01*
X8946644Y-4612144D01*
X8946644Y-4682856D01*
X9017356Y-4682856D01*
X9114856Y-6820356D02*
X9114856Y-6749644D01*
X9044144Y-6749644D01*
X9044144Y-6820356D01*
X9114856Y-6820356D01*
X9271356Y-4682856D02*
X9271356Y-4612144D01*
X9200644Y-4612144D01*
X9200644Y-4682856D01*
X9271356Y-4682856D01*
X9368856Y-6820356D02*
X9368856Y-6749644D01*
X9298144Y-6749644D01*
X9298144Y-6820356D01*
X9368856Y-6820356D01*
X9525356Y-4682856D02*
X9525356Y-4612144D01*
X9454644Y-4612144D01*
X9454644Y-4682856D01*
X9525356Y-4682856D01*
X9622856Y-6820356D02*
X9622856Y-6749644D01*
X9552144Y-6749644D01*
X9552144Y-6820356D01*
X9622856Y-6820356D01*
X9779356Y-4682856D02*
X9779356Y-4612144D01*
X9708644Y-4612144D01*
X9708644Y-4682856D01*
X9779356Y-4682856D01*
X10033356Y-4682856D02*
X10033356Y-4612144D01*
X9962644Y-4612144D01*
X9962644Y-4682856D01*
X10033356Y-4682856D01*
X10287356Y-4682856D02*
X10287356Y-4612144D01*
X10216644Y-4612144D01*
X10216644Y-4682856D01*
X10287356Y-4682856D01*
X10541356Y-4682856D02*
X10541356Y-4612144D01*
X10470644Y-4612144D01*
X10470644Y-4682856D01*
X10541356Y-4682856D01*
X10795356Y-4682856D02*
X10795356Y-4612144D01*
X10724644Y-4612144D01*
X10724644Y-4682856D01*
X10795356Y-4682856D01*
X11049356Y-4682856D02*
X11049356Y-4612144D01*
X10978644Y-4612144D01*
X10978644Y-4682856D01*
X11049356Y-4682856D01*
X11303356Y-4682856D02*
X11303356Y-4612144D01*
X11232644Y-4612144D01*
X11232644Y-4682856D01*
X11303356Y-4682856D01*
X11557356Y-4682856D02*
X11557356Y-4612144D01*
X11486644Y-4612144D01*
X11486644Y-4682856D01*
X11557356Y-4682856D01*
X11811356Y-4682856D02*
X11811356Y-4612144D01*
X11740644Y-4612144D01*
X11740644Y-4682856D01*
X11811356Y-4682856D01*
X12065356Y-4682856D02*
X12065356Y-4612144D01*
X11994644Y-4612144D01*
X11994644Y-4682856D01*
X12065356Y-4682856D01*
D16*
X5090000Y-4775000D02*
X5225000Y-4640000D01*
X5090000Y-4505000D01*
X4955000Y-4640000D01*
X5090000Y-4775000D01*
X5090000Y-7875000D02*
X5225000Y-7740000D01*
X5090000Y-7605000D01*
X4955000Y-7740000D01*
X5090000Y-7875000D01*
X12590000Y-4775000D02*
X12725000Y-4640000D01*
X12590000Y-4505000D01*
X12455000Y-4640000D01*
X12590000Y-4775000D01*
X12590000Y-7875000D02*
X12725000Y-7740000D01*
X12590000Y-7605000D01*
X12455000Y-7740000D01*
X12590000Y-7875000D01*
D11*
X5032619Y-8375476D02*
X5032619Y-8175476D01*
X5080238Y-8175476D01*
X5108810Y-8185000D01*
X5127857Y-8204048D01*
X5137381Y-8223095D01*
X5146905Y-8261190D01*
X5146905Y-8289762D01*
X5137381Y-8327857D01*
X5127857Y-8346905D01*
X5108810Y-8365952D01*
X5080238Y-8375476D01*
X5032619Y-8375476D01*
X5232619Y-8375476D02*
X5232619Y-8242143D01*
X5232619Y-8280238D02*
X5242143Y-8261190D01*
X5251667Y-8251667D01*
X5270714Y-8242143D01*
X5289762Y-8242143D01*
X5356429Y-8375476D02*
X5356429Y-8242143D01*
X5356429Y-8175476D02*
X5346905Y-8185000D01*
X5356429Y-8194524D01*
X5365952Y-8185000D01*
X5356429Y-8175476D01*
X5356429Y-8194524D01*
X5480238Y-8375476D02*
X5461190Y-8365952D01*
X5451667Y-8346905D01*
X5451667Y-8175476D01*
X5585000Y-8375476D02*
X5565952Y-8365952D01*
X5556429Y-8346905D01*
X5556429Y-8175476D01*
X5813571Y-8375476D02*
X5813571Y-8175476D01*
X5880238Y-8318333D01*
X5946905Y-8175476D01*
X5946905Y-8375476D01*
X6127857Y-8375476D02*
X6127857Y-8270714D01*
X6118333Y-8251667D01*
X6099286Y-8242143D01*
X6061190Y-8242143D01*
X6042143Y-8251667D01*
X6127857Y-8365952D02*
X6108809Y-8375476D01*
X6061190Y-8375476D01*
X6042143Y-8365952D01*
X6032619Y-8346905D01*
X6032619Y-8327857D01*
X6042143Y-8308809D01*
X6061190Y-8299286D01*
X6108809Y-8299286D01*
X6127857Y-8289762D01*
X6223095Y-8242143D02*
X6223095Y-8442143D01*
X6223095Y-8251667D02*
X6242143Y-8242143D01*
X6280238Y-8242143D01*
X6299286Y-8251667D01*
X6308809Y-8261190D01*
X6318333Y-8280238D01*
X6318333Y-8337381D01*
X6308809Y-8356428D01*
X6299286Y-8365952D01*
X6280238Y-8375476D01*
X6242143Y-8375476D01*
X6223095Y-8365952D01*
X6404048Y-8356428D02*
X6413571Y-8365952D01*
X6404048Y-8375476D01*
X6394524Y-8365952D01*
X6404048Y-8356428D01*
X6404048Y-8375476D01*
X6404048Y-8251667D02*
X6413571Y-8261190D01*
X6404048Y-8270714D01*
X6394524Y-8261190D01*
X6404048Y-8251667D01*
X6404048Y-8270714D01*
D12*
X4735000Y-8685000D02*
X4775000Y-8725000D01*
X4775000Y-8685000D02*
X4735000Y-8725000D01*
D11*
X5070714Y-8595476D02*
X5089762Y-8595476D01*
X5108810Y-8605000D01*
X5118333Y-8614524D01*
X5127857Y-8633571D01*
X5137381Y-8671667D01*
X5137381Y-8719286D01*
X5127857Y-8757381D01*
X5118333Y-8776429D01*
X5108810Y-8785952D01*
X5089762Y-8795476D01*
X5070714Y-8795476D01*
X5051667Y-8785952D01*
X5042143Y-8776429D01*
X5032619Y-8757381D01*
X5023095Y-8719286D01*
X5023095Y-8671667D01*
X5032619Y-8633571D01*
X5042143Y-8614524D01*
X5051667Y-8605000D01*
X5070714Y-8595476D01*
X5223095Y-8776429D02*
X5232619Y-8785952D01*
X5223095Y-8795476D01*
X5213571Y-8785952D01*
X5223095Y-8776429D01*
X5223095Y-8795476D01*
X5404048Y-8662143D02*
X5404048Y-8795476D01*
X5356429Y-8585952D02*
X5308810Y-8728810D01*
X5432619Y-8728810D01*
X5546905Y-8595476D02*
X5565952Y-8595476D01*
X5585000Y-8605000D01*
X5594524Y-8614524D01*
X5604048Y-8633571D01*
X5613571Y-8671667D01*
X5613571Y-8719286D01*
X5604048Y-8757381D01*
X5594524Y-8776429D01*
X5585000Y-8785952D01*
X5565952Y-8795476D01*
X5546905Y-8795476D01*
X5527857Y-8785952D01*
X5518333Y-8776429D01*
X5508810Y-8757381D01*
X5499286Y-8719286D01*
X5499286Y-8671667D01*
X5508810Y-8633571D01*
X5518333Y-8614524D01*
X5527857Y-8605000D01*
X5546905Y-8595476D01*
X5737381Y-8595476D02*
X5756428Y-8595476D01*
X5775476Y-8605000D01*
X5785000Y-8614524D01*
X5794524Y-8633571D01*
X5804048Y-8671667D01*
X5804048Y-8719286D01*
X5794524Y-8757381D01*
X5785000Y-8776429D01*
X5775476Y-8785952D01*
X5756428Y-8795476D01*
X5737381Y-8795476D01*
X5718333Y-8785952D01*
X5708809Y-8776429D01*
X5699286Y-8757381D01*
X5689762Y-8719286D01*
X5689762Y-8671667D01*
X5699286Y-8633571D01*
X5708809Y-8614524D01*
X5718333Y-8605000D01*
X5737381Y-8595476D01*
X5889762Y-8795476D02*
X5889762Y-8662143D01*
X5889762Y-8681190D02*
X5899286Y-8671667D01*
X5918333Y-8662143D01*
X5946905Y-8662143D01*
X5965952Y-8671667D01*
X5975476Y-8690714D01*
X5975476Y-8795476D01*
X5975476Y-8690714D02*
X5985000Y-8671667D01*
X6004048Y-8662143D01*
X6032619Y-8662143D01*
X6051667Y-8671667D01*
X6061190Y-8690714D01*
X6061190Y-8795476D01*
X6156428Y-8795476D02*
X6156428Y-8662143D01*
X6156428Y-8681190D02*
X6165952Y-8671667D01*
X6185000Y-8662143D01*
X6213571Y-8662143D01*
X6232619Y-8671667D01*
X6242143Y-8690714D01*
X6242143Y-8795476D01*
X6242143Y-8690714D02*
X6251667Y-8671667D01*
X6270714Y-8662143D01*
X6299286Y-8662143D01*
X6318333Y-8671667D01*
X6327857Y-8690714D01*
X6327857Y-8795476D01*
X6718333Y-8585952D02*
X6546905Y-8843095D01*
X6975476Y-8595476D02*
X6994524Y-8595476D01*
X7013571Y-8605000D01*
X7023095Y-8614524D01*
X7032619Y-8633571D01*
X7042143Y-8671667D01*
X7042143Y-8719286D01*
X7032619Y-8757381D01*
X7023095Y-8776429D01*
X7013571Y-8785952D01*
X6994524Y-8795476D01*
X6975476Y-8795476D01*
X6956428Y-8785952D01*
X6946905Y-8776429D01*
X6937381Y-8757381D01*
X6927857Y-8719286D01*
X6927857Y-8671667D01*
X6937381Y-8633571D01*
X6946905Y-8614524D01*
X6956428Y-8605000D01*
X6975476Y-8595476D01*
X7127857Y-8776429D02*
X7137381Y-8785952D01*
X7127857Y-8795476D01*
X7118333Y-8785952D01*
X7127857Y-8776429D01*
X7127857Y-8795476D01*
X7261190Y-8595476D02*
X7280238Y-8595476D01*
X7299286Y-8605000D01*
X7308809Y-8614524D01*
X7318333Y-8633571D01*
X7327857Y-8671667D01*
X7327857Y-8719286D01*
X7318333Y-8757381D01*
X7308809Y-8776429D01*
X7299286Y-8785952D01*
X7280238Y-8795476D01*
X7261190Y-8795476D01*
X7242143Y-8785952D01*
X7232619Y-8776429D01*
X7223095Y-8757381D01*
X7213571Y-8719286D01*
X7213571Y-8671667D01*
X7223095Y-8633571D01*
X7232619Y-8614524D01*
X7242143Y-8605000D01*
X7261190Y-8595476D01*
X7518333Y-8795476D02*
X7404048Y-8795476D01*
X7461190Y-8795476D02*
X7461190Y-8595476D01*
X7442143Y-8624048D01*
X7423095Y-8643095D01*
X7404048Y-8652619D01*
X7699286Y-8595476D02*
X7604048Y-8595476D01*
X7594524Y-8690714D01*
X7604048Y-8681190D01*
X7623095Y-8671667D01*
X7670714Y-8671667D01*
X7689762Y-8681190D01*
X7699286Y-8690714D01*
X7708809Y-8709762D01*
X7708809Y-8757381D01*
X7699286Y-8776429D01*
X7689762Y-8785952D01*
X7670714Y-8795476D01*
X7623095Y-8795476D01*
X7604048Y-8785952D01*
X7594524Y-8776429D01*
X7775476Y-8595476D02*
X7908809Y-8595476D01*
X7823095Y-8795476D01*
X7975476Y-8595476D02*
X7975476Y-8633571D01*
X8051667Y-8595476D02*
X8051667Y-8633571D01*
X8346905Y-8871667D02*
X8337381Y-8862143D01*
X8318333Y-8833571D01*
X8308809Y-8814524D01*
X8299286Y-8785952D01*
X8289762Y-8738333D01*
X8289762Y-8700238D01*
X8299286Y-8652619D01*
X8308809Y-8624048D01*
X8318333Y-8605000D01*
X8337381Y-8576429D01*
X8346905Y-8566905D01*
X8413571Y-8614524D02*
X8423095Y-8605000D01*
X8442143Y-8595476D01*
X8489762Y-8595476D01*
X8508810Y-8605000D01*
X8518333Y-8614524D01*
X8527857Y-8633571D01*
X8527857Y-8652619D01*
X8518333Y-8681190D01*
X8404048Y-8795476D01*
X8527857Y-8795476D01*
X8699286Y-8662143D02*
X8699286Y-8795476D01*
X8651667Y-8585952D02*
X8604048Y-8728810D01*
X8727857Y-8728810D01*
X8956429Y-8795476D02*
X8956429Y-8595476D01*
X9042143Y-8795476D02*
X9042143Y-8690714D01*
X9032619Y-8671667D01*
X9013571Y-8662143D01*
X8985000Y-8662143D01*
X8965952Y-8671667D01*
X8956429Y-8681190D01*
X9165952Y-8795476D02*
X9146905Y-8785952D01*
X9137381Y-8776429D01*
X9127857Y-8757381D01*
X9127857Y-8700238D01*
X9137381Y-8681190D01*
X9146905Y-8671667D01*
X9165952Y-8662143D01*
X9194524Y-8662143D01*
X9213571Y-8671667D01*
X9223095Y-8681190D01*
X9232619Y-8700238D01*
X9232619Y-8757381D01*
X9223095Y-8776429D01*
X9213571Y-8785952D01*
X9194524Y-8795476D01*
X9165952Y-8795476D01*
X9346905Y-8795476D02*
X9327857Y-8785952D01*
X9318333Y-8766905D01*
X9318333Y-8595476D01*
X9499286Y-8785952D02*
X9480238Y-8795476D01*
X9442143Y-8795476D01*
X9423095Y-8785952D01*
X9413571Y-8766905D01*
X9413571Y-8690714D01*
X9423095Y-8671667D01*
X9442143Y-8662143D01*
X9480238Y-8662143D01*
X9499286Y-8671667D01*
X9508810Y-8690714D01*
X9508810Y-8709762D01*
X9413571Y-8728810D01*
X9585000Y-8785952D02*
X9604048Y-8795476D01*
X9642143Y-8795476D01*
X9661190Y-8785952D01*
X9670714Y-8766905D01*
X9670714Y-8757381D01*
X9661190Y-8738333D01*
X9642143Y-8728810D01*
X9613571Y-8728810D01*
X9594524Y-8719286D01*
X9585000Y-8700238D01*
X9585000Y-8690714D01*
X9594524Y-8671667D01*
X9613571Y-8662143D01*
X9642143Y-8662143D01*
X9661190Y-8671667D01*
X9737381Y-8871667D02*
X9746905Y-8862143D01*
X9765952Y-8833571D01*
X9775476Y-8814524D01*
X9785000Y-8785952D01*
X9794524Y-8738333D01*
X9794524Y-8700238D01*
X9785000Y-8652619D01*
X9775476Y-8624048D01*
X9765952Y-8605000D01*
X9746905Y-8576429D01*
X9737381Y-8566905D01*
D13*
X4775000Y-8969000D02*
G75*
G03*
X4775000Y-8969000I-35560J0D01*
G01*
D11*
X5070714Y-8859476D02*
X5089762Y-8859476D01*
X5108810Y-8869000D01*
X5118333Y-8878524D01*
X5127857Y-8897571D01*
X5137381Y-8935667D01*
X5137381Y-8983286D01*
X5127857Y-9021381D01*
X5118333Y-9040429D01*
X5108810Y-9049952D01*
X5089762Y-9059476D01*
X5070714Y-9059476D01*
X5051667Y-9049952D01*
X5042143Y-9040429D01*
X5032619Y-9021381D01*
X5023095Y-8983286D01*
X5023095Y-8935667D01*
X5032619Y-8897571D01*
X5042143Y-8878524D01*
X5051667Y-8869000D01*
X5070714Y-8859476D01*
X5223095Y-9040429D02*
X5232619Y-9049952D01*
X5223095Y-9059476D01*
X5213571Y-9049952D01*
X5223095Y-9040429D01*
X5223095Y-9059476D01*
X5299286Y-8859476D02*
X5432619Y-8859476D01*
X5346905Y-9059476D01*
X5613571Y-9059476D02*
X5499286Y-9059476D01*
X5556429Y-9059476D02*
X5556429Y-8859476D01*
X5537381Y-8888048D01*
X5518333Y-8907095D01*
X5499286Y-8916619D01*
X5804048Y-9059476D02*
X5689762Y-9059476D01*
X5746905Y-9059476D02*
X5746905Y-8859476D01*
X5727857Y-8888048D01*
X5708809Y-8907095D01*
X5689762Y-8916619D01*
X5889762Y-9059476D02*
X5889762Y-8926143D01*
X5889762Y-8945190D02*
X5899286Y-8935667D01*
X5918333Y-8926143D01*
X5946905Y-8926143D01*
X5965952Y-8935667D01*
X5975476Y-8954714D01*
X5975476Y-9059476D01*
X5975476Y-8954714D02*
X5985000Y-8935667D01*
X6004048Y-8926143D01*
X6032619Y-8926143D01*
X6051667Y-8935667D01*
X6061190Y-8954714D01*
X6061190Y-9059476D01*
X6156428Y-9059476D02*
X6156428Y-8926143D01*
X6156428Y-8945190D02*
X6165952Y-8935667D01*
X6185000Y-8926143D01*
X6213571Y-8926143D01*
X6232619Y-8935667D01*
X6242143Y-8954714D01*
X6242143Y-9059476D01*
X6242143Y-8954714D02*
X6251667Y-8935667D01*
X6270714Y-8926143D01*
X6299286Y-8926143D01*
X6318333Y-8935667D01*
X6327857Y-8954714D01*
X6327857Y-9059476D01*
X6718333Y-8849952D02*
X6546905Y-9107095D01*
X6975476Y-8859476D02*
X6994524Y-8859476D01*
X7013571Y-8869000D01*
X7023095Y-8878524D01*
X7032619Y-8897571D01*
X7042143Y-8935667D01*
X7042143Y-8983286D01*
X7032619Y-9021381D01*
X7023095Y-9040429D01*
X7013571Y-9049952D01*
X6994524Y-9059476D01*
X6975476Y-9059476D01*
X6956428Y-9049952D01*
X6946905Y-9040429D01*
X6937381Y-9021381D01*
X6927857Y-8983286D01*
X6927857Y-8935667D01*
X6937381Y-8897571D01*
X6946905Y-8878524D01*
X6956428Y-8869000D01*
X6975476Y-8859476D01*
X7127857Y-9040429D02*
X7137381Y-9049952D01*
X7127857Y-9059476D01*
X7118333Y-9049952D01*
X7127857Y-9040429D01*
X7127857Y-9059476D01*
X7261190Y-8859476D02*
X7280238Y-8859476D01*
X7299286Y-8869000D01*
X7308809Y-8878524D01*
X7318333Y-8897571D01*
X7327857Y-8935667D01*
X7327857Y-8983286D01*
X7318333Y-9021381D01*
X7308809Y-9040429D01*
X7299286Y-9049952D01*
X7280238Y-9059476D01*
X7261190Y-9059476D01*
X7242143Y-9049952D01*
X7232619Y-9040429D01*
X7223095Y-9021381D01*
X7213571Y-8983286D01*
X7213571Y-8935667D01*
X7223095Y-8897571D01*
X7232619Y-8878524D01*
X7242143Y-8869000D01*
X7261190Y-8859476D01*
X7404048Y-8878524D02*
X7413571Y-8869000D01*
X7432619Y-8859476D01*
X7480238Y-8859476D01*
X7499286Y-8869000D01*
X7508809Y-8878524D01*
X7518333Y-8897571D01*
X7518333Y-8916619D01*
X7508809Y-8945190D01*
X7394524Y-9059476D01*
X7518333Y-9059476D01*
X7632619Y-8945190D02*
X7613571Y-8935667D01*
X7604048Y-8926143D01*
X7594524Y-8907095D01*
X7594524Y-8897571D01*
X7604048Y-8878524D01*
X7613571Y-8869000D01*
X7632619Y-8859476D01*
X7670714Y-8859476D01*
X7689762Y-8869000D01*
X7699286Y-8878524D01*
X7708809Y-8897571D01*
X7708809Y-8907095D01*
X7699286Y-8926143D01*
X7689762Y-8935667D01*
X7670714Y-8945190D01*
X7632619Y-8945190D01*
X7613571Y-8954714D01*
X7604048Y-8964238D01*
X7594524Y-8983286D01*
X7594524Y-9021381D01*
X7604048Y-9040429D01*
X7613571Y-9049952D01*
X7632619Y-9059476D01*
X7670714Y-9059476D01*
X7689762Y-9049952D01*
X7699286Y-9040429D01*
X7708809Y-9021381D01*
X7708809Y-8983286D01*
X7699286Y-8964238D01*
X7689762Y-8954714D01*
X7670714Y-8945190D01*
X7832619Y-8859476D02*
X7851667Y-8859476D01*
X7870714Y-8869000D01*
X7880238Y-8878524D01*
X7889762Y-8897571D01*
X7899286Y-8935667D01*
X7899286Y-8983286D01*
X7889762Y-9021381D01*
X7880238Y-9040429D01*
X7870714Y-9049952D01*
X7851667Y-9059476D01*
X7832619Y-9059476D01*
X7813571Y-9049952D01*
X7804048Y-9040429D01*
X7794524Y-9021381D01*
X7785000Y-8983286D01*
X7785000Y-8935667D01*
X7794524Y-8897571D01*
X7804048Y-8878524D01*
X7813571Y-8869000D01*
X7832619Y-8859476D01*
X7975476Y-8859476D02*
X7975476Y-8897571D01*
X8051667Y-8859476D02*
X8051667Y-8897571D01*
X8346905Y-9135667D02*
X8337381Y-9126143D01*
X8318333Y-9097571D01*
X8308809Y-9078524D01*
X8299286Y-9049952D01*
X8289762Y-9002333D01*
X8289762Y-8964238D01*
X8299286Y-8916619D01*
X8308809Y-8888048D01*
X8318333Y-8869000D01*
X8337381Y-8840429D01*
X8346905Y-8830905D01*
X8404048Y-8859476D02*
X8527857Y-8859476D01*
X8461190Y-8935667D01*
X8489762Y-8935667D01*
X8508810Y-8945190D01*
X8518333Y-8954714D01*
X8527857Y-8973762D01*
X8527857Y-9021381D01*
X8518333Y-9040429D01*
X8508810Y-9049952D01*
X8489762Y-9059476D01*
X8432619Y-9059476D01*
X8413571Y-9049952D01*
X8404048Y-9040429D01*
X8765952Y-9059476D02*
X8765952Y-8859476D01*
X8851667Y-9059476D02*
X8851667Y-8954714D01*
X8842143Y-8935667D01*
X8823095Y-8926143D01*
X8794524Y-8926143D01*
X8775476Y-8935667D01*
X8765952Y-8945190D01*
X8975476Y-9059476D02*
X8956429Y-9049952D01*
X8946905Y-9040429D01*
X8937381Y-9021381D01*
X8937381Y-8964238D01*
X8946905Y-8945190D01*
X8956429Y-8935667D01*
X8975476Y-8926143D01*
X9004048Y-8926143D01*
X9023095Y-8935667D01*
X9032619Y-8945190D01*
X9042143Y-8964238D01*
X9042143Y-9021381D01*
X9032619Y-9040429D01*
X9023095Y-9049952D01*
X9004048Y-9059476D01*
X8975476Y-9059476D01*
X9156429Y-9059476D02*
X9137381Y-9049952D01*
X9127857Y-9030905D01*
X9127857Y-8859476D01*
X9308810Y-9049952D02*
X9289762Y-9059476D01*
X9251667Y-9059476D01*
X9232619Y-9049952D01*
X9223095Y-9030905D01*
X9223095Y-8954714D01*
X9232619Y-8935667D01*
X9251667Y-8926143D01*
X9289762Y-8926143D01*
X9308810Y-8935667D01*
X9318333Y-8954714D01*
X9318333Y-8973762D01*
X9223095Y-8992810D01*
X9394524Y-9049952D02*
X9413571Y-9059476D01*
X9451667Y-9059476D01*
X9470714Y-9049952D01*
X9480238Y-9030905D01*
X9480238Y-9021381D01*
X9470714Y-9002333D01*
X9451667Y-8992810D01*
X9423095Y-8992810D01*
X9404048Y-8983286D01*
X9394524Y-8964238D01*
X9394524Y-8954714D01*
X9404048Y-8935667D01*
X9423095Y-8926143D01*
X9451667Y-8926143D01*
X9470714Y-8935667D01*
X9546905Y-9135667D02*
X9556429Y-9126143D01*
X9575476Y-9097571D01*
X9585000Y-9078524D01*
X9594524Y-9049952D01*
X9604048Y-9002333D01*
X9604048Y-8964238D01*
X9594524Y-8916619D01*
X9585000Y-8888048D01*
X9575476Y-8869000D01*
X9556429Y-8840429D01*
X9546905Y-8830905D01*
D14*
X4735000Y-9193000D02*
X4735000Y-9273000D01*
X4695000Y-9233000D02*
X4775000Y-9233000D01*
D11*
X5070714Y-9123476D02*
X5089762Y-9123476D01*
X5108810Y-9133000D01*
X5118333Y-9142524D01*
X5127857Y-9161571D01*
X5137381Y-9199667D01*
X5137381Y-9247286D01*
X5127857Y-9285381D01*
X5118333Y-9304429D01*
X5108810Y-9313952D01*
X5089762Y-9323476D01*
X5070714Y-9323476D01*
X5051667Y-9313952D01*
X5042143Y-9304429D01*
X5032619Y-9285381D01*
X5023095Y-9247286D01*
X5023095Y-9199667D01*
X5032619Y-9161571D01*
X5042143Y-9142524D01*
X5051667Y-9133000D01*
X5070714Y-9123476D01*
X5223095Y-9304429D02*
X5232619Y-9313952D01*
X5223095Y-9323476D01*
X5213571Y-9313952D01*
X5223095Y-9304429D01*
X5223095Y-9323476D01*
X5346905Y-9209190D02*
X5327857Y-9199667D01*
X5318333Y-9190143D01*
X5308810Y-9171095D01*
X5308810Y-9161571D01*
X5318333Y-9142524D01*
X5327857Y-9133000D01*
X5346905Y-9123476D01*
X5385000Y-9123476D01*
X5404048Y-9133000D01*
X5413571Y-9142524D01*
X5423095Y-9161571D01*
X5423095Y-9171095D01*
X5413571Y-9190143D01*
X5404048Y-9199667D01*
X5385000Y-9209190D01*
X5346905Y-9209190D01*
X5327857Y-9218714D01*
X5318333Y-9228238D01*
X5308810Y-9247286D01*
X5308810Y-9285381D01*
X5318333Y-9304429D01*
X5327857Y-9313952D01*
X5346905Y-9323476D01*
X5385000Y-9323476D01*
X5404048Y-9313952D01*
X5413571Y-9304429D01*
X5423095Y-9285381D01*
X5423095Y-9247286D01*
X5413571Y-9228238D01*
X5404048Y-9218714D01*
X5385000Y-9209190D01*
X5546905Y-9123476D02*
X5565952Y-9123476D01*
X5585000Y-9133000D01*
X5594524Y-9142524D01*
X5604048Y-9161571D01*
X5613571Y-9199667D01*
X5613571Y-9247286D01*
X5604048Y-9285381D01*
X5594524Y-9304429D01*
X5585000Y-9313952D01*
X5565952Y-9323476D01*
X5546905Y-9323476D01*
X5527857Y-9313952D01*
X5518333Y-9304429D01*
X5508810Y-9285381D01*
X5499286Y-9247286D01*
X5499286Y-9199667D01*
X5508810Y-9161571D01*
X5518333Y-9142524D01*
X5527857Y-9133000D01*
X5546905Y-9123476D01*
X5737381Y-9123476D02*
X5756428Y-9123476D01*
X5775476Y-9133000D01*
X5785000Y-9142524D01*
X5794524Y-9161571D01*
X5804048Y-9199667D01*
X5804048Y-9247286D01*
X5794524Y-9285381D01*
X5785000Y-9304429D01*
X5775476Y-9313952D01*
X5756428Y-9323476D01*
X5737381Y-9323476D01*
X5718333Y-9313952D01*
X5708809Y-9304429D01*
X5699286Y-9285381D01*
X5689762Y-9247286D01*
X5689762Y-9199667D01*
X5699286Y-9161571D01*
X5708809Y-9142524D01*
X5718333Y-9133000D01*
X5737381Y-9123476D01*
X5889762Y-9323476D02*
X5889762Y-9190143D01*
X5889762Y-9209190D02*
X5899286Y-9199667D01*
X5918333Y-9190143D01*
X5946905Y-9190143D01*
X5965952Y-9199667D01*
X5975476Y-9218714D01*
X5975476Y-9323476D01*
X5975476Y-9218714D02*
X5985000Y-9199667D01*
X6004048Y-9190143D01*
X6032619Y-9190143D01*
X6051667Y-9199667D01*
X6061190Y-9218714D01*
X6061190Y-9323476D01*
X6156428Y-9323476D02*
X6156428Y-9190143D01*
X6156428Y-9209190D02*
X6165952Y-9199667D01*
X6185000Y-9190143D01*
X6213571Y-9190143D01*
X6232619Y-9199667D01*
X6242143Y-9218714D01*
X6242143Y-9323476D01*
X6242143Y-9218714D02*
X6251667Y-9199667D01*
X6270714Y-9190143D01*
X6299286Y-9190143D01*
X6318333Y-9199667D01*
X6327857Y-9218714D01*
X6327857Y-9323476D01*
X6718333Y-9113952D02*
X6546905Y-9371095D01*
X6975476Y-9123476D02*
X6994524Y-9123476D01*
X7013571Y-9133000D01*
X7023095Y-9142524D01*
X7032619Y-9161571D01*
X7042143Y-9199667D01*
X7042143Y-9247286D01*
X7032619Y-9285381D01*
X7023095Y-9304429D01*
X7013571Y-9313952D01*
X6994524Y-9323476D01*
X6975476Y-9323476D01*
X6956428Y-9313952D01*
X6946905Y-9304429D01*
X6937381Y-9285381D01*
X6927857Y-9247286D01*
X6927857Y-9199667D01*
X6937381Y-9161571D01*
X6946905Y-9142524D01*
X6956428Y-9133000D01*
X6975476Y-9123476D01*
X7127857Y-9304429D02*
X7137381Y-9313952D01*
X7127857Y-9323476D01*
X7118333Y-9313952D01*
X7127857Y-9304429D01*
X7127857Y-9323476D01*
X7261190Y-9123476D02*
X7280238Y-9123476D01*
X7299286Y-9133000D01*
X7308809Y-9142524D01*
X7318333Y-9161571D01*
X7327857Y-9199667D01*
X7327857Y-9247286D01*
X7318333Y-9285381D01*
X7308809Y-9304429D01*
X7299286Y-9313952D01*
X7280238Y-9323476D01*
X7261190Y-9323476D01*
X7242143Y-9313952D01*
X7232619Y-9304429D01*
X7223095Y-9285381D01*
X7213571Y-9247286D01*
X7213571Y-9199667D01*
X7223095Y-9161571D01*
X7232619Y-9142524D01*
X7242143Y-9133000D01*
X7261190Y-9123476D01*
X7394524Y-9123476D02*
X7518333Y-9123476D01*
X7451667Y-9199667D01*
X7480238Y-9199667D01*
X7499286Y-9209190D01*
X7508809Y-9218714D01*
X7518333Y-9237762D01*
X7518333Y-9285381D01*
X7508809Y-9304429D01*
X7499286Y-9313952D01*
X7480238Y-9323476D01*
X7423095Y-9323476D01*
X7404048Y-9313952D01*
X7394524Y-9304429D01*
X7708809Y-9323476D02*
X7594524Y-9323476D01*
X7651667Y-9323476D02*
X7651667Y-9123476D01*
X7632619Y-9152048D01*
X7613571Y-9171095D01*
X7594524Y-9180619D01*
X7889762Y-9123476D02*
X7794524Y-9123476D01*
X7785000Y-9218714D01*
X7794524Y-9209190D01*
X7813571Y-9199667D01*
X7861190Y-9199667D01*
X7880238Y-9209190D01*
X7889762Y-9218714D01*
X7899286Y-9237762D01*
X7899286Y-9285381D01*
X7889762Y-9304429D01*
X7880238Y-9313952D01*
X7861190Y-9323476D01*
X7813571Y-9323476D01*
X7794524Y-9313952D01*
X7785000Y-9304429D01*
X7975476Y-9123476D02*
X7975476Y-9161571D01*
X8051667Y-9123476D02*
X8051667Y-9161571D01*
X8346905Y-9399667D02*
X8337381Y-9390143D01*
X8318333Y-9361571D01*
X8308809Y-9342524D01*
X8299286Y-9313952D01*
X8289762Y-9266333D01*
X8289762Y-9228238D01*
X8299286Y-9180619D01*
X8308809Y-9152048D01*
X8318333Y-9133000D01*
X8337381Y-9104429D01*
X8346905Y-9094905D01*
X8404048Y-9123476D02*
X8527857Y-9123476D01*
X8461190Y-9199667D01*
X8489762Y-9199667D01*
X8508810Y-9209190D01*
X8518333Y-9218714D01*
X8527857Y-9237762D01*
X8527857Y-9285381D01*
X8518333Y-9304429D01*
X8508810Y-9313952D01*
X8489762Y-9323476D01*
X8432619Y-9323476D01*
X8413571Y-9313952D01*
X8404048Y-9304429D01*
X8651667Y-9123476D02*
X8670714Y-9123476D01*
X8689762Y-9133000D01*
X8699286Y-9142524D01*
X8708810Y-9161571D01*
X8718333Y-9199667D01*
X8718333Y-9247286D01*
X8708810Y-9285381D01*
X8699286Y-9304429D01*
X8689762Y-9313952D01*
X8670714Y-9323476D01*
X8651667Y-9323476D01*
X8632619Y-9313952D01*
X8623095Y-9304429D01*
X8613571Y-9285381D01*
X8604048Y-9247286D01*
X8604048Y-9199667D01*
X8613571Y-9161571D01*
X8623095Y-9142524D01*
X8632619Y-9133000D01*
X8651667Y-9123476D01*
X8956429Y-9323476D02*
X8956429Y-9123476D01*
X9042143Y-9323476D02*
X9042143Y-9218714D01*
X9032619Y-9199667D01*
X9013571Y-9190143D01*
X8985000Y-9190143D01*
X8965952Y-9199667D01*
X8956429Y-9209190D01*
X9165952Y-9323476D02*
X9146905Y-9313952D01*
X9137381Y-9304429D01*
X9127857Y-9285381D01*
X9127857Y-9228238D01*
X9137381Y-9209190D01*
X9146905Y-9199667D01*
X9165952Y-9190143D01*
X9194524Y-9190143D01*
X9213571Y-9199667D01*
X9223095Y-9209190D01*
X9232619Y-9228238D01*
X9232619Y-9285381D01*
X9223095Y-9304429D01*
X9213571Y-9313952D01*
X9194524Y-9323476D01*
X9165952Y-9323476D01*
X9346905Y-9323476D02*
X9327857Y-9313952D01*
X9318333Y-9294905D01*
X9318333Y-9123476D01*
X9499286Y-9313952D02*
X9480238Y-9323476D01*
X9442143Y-9323476D01*
X9423095Y-9313952D01*
X9413571Y-9294905D01*
X9413571Y-9218714D01*
X9423095Y-9199667D01*
X9442143Y-9190143D01*
X9480238Y-9190143D01*
X9499286Y-9199667D01*
X9508810Y-9218714D01*
X9508810Y-9237762D01*
X9413571Y-9256810D01*
X9585000Y-9313952D02*
X9604048Y-9323476D01*
X9642143Y-9323476D01*
X9661190Y-9313952D01*
X9670714Y-9294905D01*
X9670714Y-9285381D01*
X9661190Y-9266333D01*
X9642143Y-9256810D01*
X9613571Y-9256810D01*
X9594524Y-9247286D01*
X9585000Y-9228238D01*
X9585000Y-9218714D01*
X9594524Y-9199667D01*
X9613571Y-9190143D01*
X9642143Y-9190143D01*
X9661190Y-9199667D01*
X9737381Y-9399667D02*
X9746905Y-9390143D01*
X9765952Y-9361571D01*
X9775476Y-9342524D01*
X9785000Y-9313952D01*
X9794524Y-9266333D01*
X9794524Y-9228238D01*
X9785000Y-9180619D01*
X9775476Y-9152048D01*
X9765952Y-9133000D01*
X9746905Y-9104429D01*
X9737381Y-9094905D01*
D15*
X4760356Y-9532356D02*
X4760356Y-9461644D01*
X4689644Y-9461644D01*
X4689644Y-9532356D01*
X4760356Y-9532356D01*
D11*
X5137381Y-9587476D02*
X5023095Y-9587476D01*
X5080238Y-9587476D02*
X5080238Y-9387476D01*
X5061190Y-9416048D01*
X5042143Y-9435095D01*
X5023095Y-9444619D01*
X5223095Y-9568429D02*
X5232619Y-9577952D01*
X5223095Y-9587476D01*
X5213571Y-9577952D01*
X5223095Y-9568429D01*
X5223095Y-9587476D01*
X5356429Y-9387476D02*
X5375476Y-9387476D01*
X5394524Y-9397000D01*
X5404048Y-9406524D01*
X5413571Y-9425571D01*
X5423095Y-9463667D01*
X5423095Y-9511286D01*
X5413571Y-9549381D01*
X5404048Y-9568429D01*
X5394524Y-9577952D01*
X5375476Y-9587476D01*
X5356429Y-9587476D01*
X5337381Y-9577952D01*
X5327857Y-9568429D01*
X5318333Y-9549381D01*
X5308810Y-9511286D01*
X5308810Y-9463667D01*
X5318333Y-9425571D01*
X5327857Y-9406524D01*
X5337381Y-9397000D01*
X5356429Y-9387476D01*
X5546905Y-9387476D02*
X5565952Y-9387476D01*
X5585000Y-9397000D01*
X5594524Y-9406524D01*
X5604048Y-9425571D01*
X5613571Y-9463667D01*
X5613571Y-9511286D01*
X5604048Y-9549381D01*
X5594524Y-9568429D01*
X5585000Y-9577952D01*
X5565952Y-9587476D01*
X5546905Y-9587476D01*
X5527857Y-9577952D01*
X5518333Y-9568429D01*
X5508810Y-9549381D01*
X5499286Y-9511286D01*
X5499286Y-9463667D01*
X5508810Y-9425571D01*
X5518333Y-9406524D01*
X5527857Y-9397000D01*
X5546905Y-9387476D01*
X5737381Y-9387476D02*
X5756428Y-9387476D01*
X5775476Y-9397000D01*
X5785000Y-9406524D01*
X5794524Y-9425571D01*
X5804048Y-9463667D01*
X5804048Y-9511286D01*
X5794524Y-9549381D01*
X5785000Y-9568429D01*
X5775476Y-9577952D01*
X5756428Y-9587476D01*
X5737381Y-9587476D01*
X5718333Y-9577952D01*
X5708809Y-9568429D01*
X5699286Y-9549381D01*
X5689762Y-9511286D01*
X5689762Y-9463667D01*
X5699286Y-9425571D01*
X5708809Y-9406524D01*
X5718333Y-9397000D01*
X5737381Y-9387476D01*
X5889762Y-9587476D02*
X5889762Y-9454143D01*
X5889762Y-9473190D02*
X5899286Y-9463667D01*
X5918333Y-9454143D01*
X5946905Y-9454143D01*
X5965952Y-9463667D01*
X5975476Y-9482714D01*
X5975476Y-9587476D01*
X5975476Y-9482714D02*
X5985000Y-9463667D01*
X6004048Y-9454143D01*
X6032619Y-9454143D01*
X6051667Y-9463667D01*
X6061190Y-9482714D01*
X6061190Y-9587476D01*
X6156428Y-9587476D02*
X6156428Y-9454143D01*
X6156428Y-9473190D02*
X6165952Y-9463667D01*
X6185000Y-9454143D01*
X6213571Y-9454143D01*
X6232619Y-9463667D01*
X6242143Y-9482714D01*
X6242143Y-9587476D01*
X6242143Y-9482714D02*
X6251667Y-9463667D01*
X6270714Y-9454143D01*
X6299286Y-9454143D01*
X6318333Y-9463667D01*
X6327857Y-9482714D01*
X6327857Y-9587476D01*
X6718333Y-9377952D02*
X6546905Y-9635095D01*
X6975476Y-9387476D02*
X6994524Y-9387476D01*
X7013571Y-9397000D01*
X7023095Y-9406524D01*
X7032619Y-9425571D01*
X7042143Y-9463667D01*
X7042143Y-9511286D01*
X7032619Y-9549381D01*
X7023095Y-9568429D01*
X7013571Y-9577952D01*
X6994524Y-9587476D01*
X6975476Y-9587476D01*
X6956428Y-9577952D01*
X6946905Y-9568429D01*
X6937381Y-9549381D01*
X6927857Y-9511286D01*
X6927857Y-9463667D01*
X6937381Y-9425571D01*
X6946905Y-9406524D01*
X6956428Y-9397000D01*
X6975476Y-9387476D01*
X7127857Y-9568429D02*
X7137381Y-9577952D01*
X7127857Y-9587476D01*
X7118333Y-9577952D01*
X7127857Y-9568429D01*
X7127857Y-9587476D01*
X7261190Y-9387476D02*
X7280238Y-9387476D01*
X7299286Y-9397000D01*
X7308809Y-9406524D01*
X7318333Y-9425571D01*
X7327857Y-9463667D01*
X7327857Y-9511286D01*
X7318333Y-9549381D01*
X7308809Y-9568429D01*
X7299286Y-9577952D01*
X7280238Y-9587476D01*
X7261190Y-9587476D01*
X7242143Y-9577952D01*
X7232619Y-9568429D01*
X7223095Y-9549381D01*
X7213571Y-9511286D01*
X7213571Y-9463667D01*
X7223095Y-9425571D01*
X7232619Y-9406524D01*
X7242143Y-9397000D01*
X7261190Y-9387476D01*
X7394524Y-9387476D02*
X7518333Y-9387476D01*
X7451667Y-9463667D01*
X7480238Y-9463667D01*
X7499286Y-9473190D01*
X7508809Y-9482714D01*
X7518333Y-9501762D01*
X7518333Y-9549381D01*
X7508809Y-9568429D01*
X7499286Y-9577952D01*
X7480238Y-9587476D01*
X7423095Y-9587476D01*
X7404048Y-9577952D01*
X7394524Y-9568429D01*
X7613571Y-9587476D02*
X7651667Y-9587476D01*
X7670714Y-9577952D01*
X7680238Y-9568429D01*
X7699286Y-9539857D01*
X7708809Y-9501762D01*
X7708809Y-9425571D01*
X7699286Y-9406524D01*
X7689762Y-9397000D01*
X7670714Y-9387476D01*
X7632619Y-9387476D01*
X7613571Y-9397000D01*
X7604048Y-9406524D01*
X7594524Y-9425571D01*
X7594524Y-9473190D01*
X7604048Y-9492238D01*
X7613571Y-9501762D01*
X7632619Y-9511286D01*
X7670714Y-9511286D01*
X7689762Y-9501762D01*
X7699286Y-9492238D01*
X7708809Y-9473190D01*
X7880238Y-9454143D02*
X7880238Y-9587476D01*
X7832619Y-9377952D02*
X7785000Y-9520810D01*
X7908809Y-9520810D01*
X7975476Y-9387476D02*
X7975476Y-9425571D01*
X8051667Y-9387476D02*
X8051667Y-9425571D01*
X8346905Y-9663667D02*
X8337381Y-9654143D01*
X8318333Y-9625571D01*
X8308809Y-9606524D01*
X8299286Y-9577952D01*
X8289762Y-9530333D01*
X8289762Y-9492238D01*
X8299286Y-9444619D01*
X8308809Y-9416048D01*
X8318333Y-9397000D01*
X8337381Y-9368429D01*
X8346905Y-9358905D01*
X8413571Y-9406524D02*
X8423095Y-9397000D01*
X8442143Y-9387476D01*
X8489762Y-9387476D01*
X8508810Y-9397000D01*
X8518333Y-9406524D01*
X8527857Y-9425571D01*
X8527857Y-9444619D01*
X8518333Y-9473190D01*
X8404048Y-9587476D01*
X8527857Y-9587476D01*
X8642143Y-9473190D02*
X8623095Y-9463667D01*
X8613571Y-9454143D01*
X8604048Y-9435095D01*
X8604048Y-9425571D01*
X8613571Y-9406524D01*
X8623095Y-9397000D01*
X8642143Y-9387476D01*
X8680238Y-9387476D01*
X8699286Y-9397000D01*
X8708810Y-9406524D01*
X8718333Y-9425571D01*
X8718333Y-9435095D01*
X8708810Y-9454143D01*
X8699286Y-9463667D01*
X8680238Y-9473190D01*
X8642143Y-9473190D01*
X8623095Y-9482714D01*
X8613571Y-9492238D01*
X8604048Y-9511286D01*
X8604048Y-9549381D01*
X8613571Y-9568429D01*
X8623095Y-9577952D01*
X8642143Y-9587476D01*
X8680238Y-9587476D01*
X8699286Y-9577952D01*
X8708810Y-9568429D01*
X8718333Y-9549381D01*
X8718333Y-9511286D01*
X8708810Y-9492238D01*
X8699286Y-9482714D01*
X8680238Y-9473190D01*
X8956429Y-9587476D02*
X8956429Y-9387476D01*
X9042143Y-9587476D02*
X9042143Y-9482714D01*
X9032619Y-9463667D01*
X9013571Y-9454143D01*
X8985000Y-9454143D01*
X8965952Y-9463667D01*
X8956429Y-9473190D01*
X9165952Y-9587476D02*
X9146905Y-9577952D01*
X9137381Y-9568429D01*
X9127857Y-9549381D01*
X9127857Y-9492238D01*
X9137381Y-9473190D01*
X9146905Y-9463667D01*
X9165952Y-9454143D01*
X9194524Y-9454143D01*
X9213571Y-9463667D01*
X9223095Y-9473190D01*
X9232619Y-9492238D01*
X9232619Y-9549381D01*
X9223095Y-9568429D01*
X9213571Y-9577952D01*
X9194524Y-9587476D01*
X9165952Y-9587476D01*
X9346905Y-9587476D02*
X9327857Y-9577952D01*
X9318333Y-9558905D01*
X9318333Y-9387476D01*
X9499286Y-9577952D02*
X9480238Y-9587476D01*
X9442143Y-9587476D01*
X9423095Y-9577952D01*
X9413571Y-9558905D01*
X9413571Y-9482714D01*
X9423095Y-9463667D01*
X9442143Y-9454143D01*
X9480238Y-9454143D01*
X9499286Y-9463667D01*
X9508810Y-9482714D01*
X9508810Y-9501762D01*
X9413571Y-9520810D01*
X9585000Y-9577952D02*
X9604048Y-9587476D01*
X9642143Y-9587476D01*
X9661190Y-9577952D01*
X9670714Y-9558905D01*
X9670714Y-9549381D01*
X9661190Y-9530333D01*
X9642143Y-9520810D01*
X9613571Y-9520810D01*
X9594524Y-9511286D01*
X9585000Y-9492238D01*
X9585000Y-9482714D01*
X9594524Y-9463667D01*
X9613571Y-9454143D01*
X9642143Y-9454143D01*
X9661190Y-9463667D01*
X9737381Y-9663667D02*
X9746905Y-9654143D01*
X9765952Y-9625571D01*
X9775476Y-9606524D01*
X9785000Y-9577952D01*
X9794524Y-9530333D01*
X9794524Y-9492238D01*
X9785000Y-9444619D01*
X9775476Y-9416048D01*
X9765952Y-9397000D01*
X9746905Y-9368429D01*
X9737381Y-9358905D01*
X4675000Y-9861000D02*
X4775000Y-9761000D01*
X4675000Y-9661000D01*
X4575000Y-9761000D01*
X4675000Y-9861000D01*
X5023095Y-9670524D02*
X5032619Y-9661000D01*
X5051667Y-9651476D01*
X5099286Y-9651476D01*
X5118333Y-9661000D01*
X5127857Y-9670524D01*
X5137381Y-9689571D01*
X5137381Y-9708619D01*
X5127857Y-9737190D01*
X5013571Y-9851476D01*
X5137381Y-9851476D01*
X5223095Y-9832429D02*
X5232619Y-9841952D01*
X5223095Y-9851476D01*
X5213571Y-9841952D01*
X5223095Y-9832429D01*
X5223095Y-9851476D01*
X5299286Y-9651476D02*
X5432619Y-9651476D01*
X5346905Y-9851476D01*
X5546905Y-9651476D02*
X5565952Y-9651476D01*
X5585000Y-9661000D01*
X5594524Y-9670524D01*
X5604048Y-9689571D01*
X5613571Y-9727667D01*
X5613571Y-9775286D01*
X5604048Y-9813381D01*
X5594524Y-9832429D01*
X5585000Y-9841952D01*
X5565952Y-9851476D01*
X5546905Y-9851476D01*
X5527857Y-9841952D01*
X5518333Y-9832429D01*
X5508810Y-9813381D01*
X5499286Y-9775286D01*
X5499286Y-9727667D01*
X5508810Y-9689571D01*
X5518333Y-9670524D01*
X5527857Y-9661000D01*
X5546905Y-9651476D01*
X5737381Y-9651476D02*
X5756428Y-9651476D01*
X5775476Y-9661000D01*
X5785000Y-9670524D01*
X5794524Y-9689571D01*
X5804048Y-9727667D01*
X5804048Y-9775286D01*
X5794524Y-9813381D01*
X5785000Y-9832429D01*
X5775476Y-9841952D01*
X5756428Y-9851476D01*
X5737381Y-9851476D01*
X5718333Y-9841952D01*
X5708809Y-9832429D01*
X5699286Y-9813381D01*
X5689762Y-9775286D01*
X5689762Y-9727667D01*
X5699286Y-9689571D01*
X5708809Y-9670524D01*
X5718333Y-9661000D01*
X5737381Y-9651476D01*
X5889762Y-9851476D02*
X5889762Y-9718143D01*
X5889762Y-9737190D02*
X5899286Y-9727667D01*
X5918333Y-9718143D01*
X5946905Y-9718143D01*
X5965952Y-9727667D01*
X5975476Y-9746714D01*
X5975476Y-9851476D01*
X5975476Y-9746714D02*
X5985000Y-9727667D01*
X6004048Y-9718143D01*
X6032619Y-9718143D01*
X6051667Y-9727667D01*
X6061190Y-9746714D01*
X6061190Y-9851476D01*
X6156428Y-9851476D02*
X6156428Y-9718143D01*
X6156428Y-9737190D02*
X6165952Y-9727667D01*
X6185000Y-9718143D01*
X6213571Y-9718143D01*
X6232619Y-9727667D01*
X6242143Y-9746714D01*
X6242143Y-9851476D01*
X6242143Y-9746714D02*
X6251667Y-9727667D01*
X6270714Y-9718143D01*
X6299286Y-9718143D01*
X6318333Y-9727667D01*
X6327857Y-9746714D01*
X6327857Y-9851476D01*
X6718333Y-9641952D02*
X6546905Y-9899095D01*
X6975476Y-9651476D02*
X6994524Y-9651476D01*
X7013571Y-9661000D01*
X7023095Y-9670524D01*
X7032619Y-9689571D01*
X7042143Y-9727667D01*
X7042143Y-9775286D01*
X7032619Y-9813381D01*
X7023095Y-9832429D01*
X7013571Y-9841952D01*
X6994524Y-9851476D01*
X6975476Y-9851476D01*
X6956428Y-9841952D01*
X6946905Y-9832429D01*
X6937381Y-9813381D01*
X6927857Y-9775286D01*
X6927857Y-9727667D01*
X6937381Y-9689571D01*
X6946905Y-9670524D01*
X6956428Y-9661000D01*
X6975476Y-9651476D01*
X7127857Y-9832429D02*
X7137381Y-9841952D01*
X7127857Y-9851476D01*
X7118333Y-9841952D01*
X7127857Y-9832429D01*
X7127857Y-9851476D01*
X7327857Y-9851476D02*
X7213571Y-9851476D01*
X7270714Y-9851476D02*
X7270714Y-9651476D01*
X7251667Y-9680048D01*
X7232619Y-9699095D01*
X7213571Y-9708619D01*
X7451667Y-9651476D02*
X7470714Y-9651476D01*
X7489762Y-9661000D01*
X7499286Y-9670524D01*
X7508809Y-9689571D01*
X7518333Y-9727667D01*
X7518333Y-9775286D01*
X7508809Y-9813381D01*
X7499286Y-9832429D01*
X7489762Y-9841952D01*
X7470714Y-9851476D01*
X7451667Y-9851476D01*
X7432619Y-9841952D01*
X7423095Y-9832429D01*
X7413571Y-9813381D01*
X7404048Y-9775286D01*
X7404048Y-9727667D01*
X7413571Y-9689571D01*
X7423095Y-9670524D01*
X7432619Y-9661000D01*
X7451667Y-9651476D01*
X7689762Y-9651476D02*
X7651667Y-9651476D01*
X7632619Y-9661000D01*
X7623095Y-9670524D01*
X7604048Y-9699095D01*
X7594524Y-9737190D01*
X7594524Y-9813381D01*
X7604048Y-9832429D01*
X7613571Y-9841952D01*
X7632619Y-9851476D01*
X7670714Y-9851476D01*
X7689762Y-9841952D01*
X7699286Y-9832429D01*
X7708809Y-9813381D01*
X7708809Y-9765762D01*
X7699286Y-9746714D01*
X7689762Y-9737190D01*
X7670714Y-9727667D01*
X7632619Y-9727667D01*
X7613571Y-9737190D01*
X7604048Y-9746714D01*
X7594524Y-9765762D01*
X7775476Y-9651476D02*
X7899286Y-9651476D01*
X7832619Y-9727667D01*
X7861190Y-9727667D01*
X7880238Y-9737190D01*
X7889762Y-9746714D01*
X7899286Y-9765762D01*
X7899286Y-9813381D01*
X7889762Y-9832429D01*
X7880238Y-9841952D01*
X7861190Y-9851476D01*
X7804048Y-9851476D01*
X7785000Y-9841952D01*
X7775476Y-9832429D01*
X7975476Y-9651476D02*
X7975476Y-9689571D01*
X8051667Y-9651476D02*
X8051667Y-9689571D01*
X8346905Y-9927667D02*
X8337381Y-9918143D01*
X8318333Y-9889571D01*
X8308809Y-9870524D01*
X8299286Y-9841952D01*
X8289762Y-9794333D01*
X8289762Y-9756238D01*
X8299286Y-9708619D01*
X8308809Y-9680048D01*
X8318333Y-9661000D01*
X8337381Y-9632429D01*
X8346905Y-9622905D01*
X8508810Y-9718143D02*
X8508810Y-9851476D01*
X8461190Y-9641952D02*
X8413571Y-9784810D01*
X8537381Y-9784810D01*
X8765952Y-9851476D02*
X8765952Y-9651476D01*
X8851667Y-9851476D02*
X8851667Y-9746714D01*
X8842143Y-9727667D01*
X8823095Y-9718143D01*
X8794524Y-9718143D01*
X8775476Y-9727667D01*
X8765952Y-9737190D01*
X8975476Y-9851476D02*
X8956429Y-9841952D01*
X8946905Y-9832429D01*
X8937381Y-9813381D01*
X8937381Y-9756238D01*
X8946905Y-9737190D01*
X8956429Y-9727667D01*
X8975476Y-9718143D01*
X9004048Y-9718143D01*
X9023095Y-9727667D01*
X9032619Y-9737190D01*
X9042143Y-9756238D01*
X9042143Y-9813381D01*
X9032619Y-9832429D01*
X9023095Y-9841952D01*
X9004048Y-9851476D01*
X8975476Y-9851476D01*
X9156429Y-9851476D02*
X9137381Y-9841952D01*
X9127857Y-9822905D01*
X9127857Y-9651476D01*
X9308810Y-9841952D02*
X9289762Y-9851476D01*
X9251667Y-9851476D01*
X9232619Y-9841952D01*
X9223095Y-9822905D01*
X9223095Y-9746714D01*
X9232619Y-9727667D01*
X9251667Y-9718143D01*
X9289762Y-9718143D01*
X9308810Y-9727667D01*
X9318333Y-9746714D01*
X9318333Y-9765762D01*
X9223095Y-9784810D01*
X9394524Y-9841952D02*
X9413571Y-9851476D01*
X9451667Y-9851476D01*
X9470714Y-9841952D01*
X9480238Y-9822905D01*
X9480238Y-9813381D01*
X9470714Y-9794333D01*
X9451667Y-9784810D01*
X9423095Y-9784810D01*
X9404048Y-9775286D01*
X9394524Y-9756238D01*
X9394524Y-9746714D01*
X9404048Y-9727667D01*
X9423095Y-9718143D01*
X9451667Y-9718143D01*
X9470714Y-9727667D01*
X9546905Y-9927667D02*
X9556429Y-9918143D01*
X9575476Y-9889571D01*
X9585000Y-9870524D01*
X9594524Y-9841952D01*
X9604048Y-9794333D01*
X9604048Y-9756238D01*
X9594524Y-9708619D01*
X9585000Y-9680048D01*
X9575476Y-9661000D01*
X9556429Y-9632429D01*
X9546905Y-9622905D01*
M02*
