G04 #@! TF.GenerationSoftware,KiCad,Pcbnew,(6.0.0-0)*
G04 #@! TF.CreationDate,2022-02-23T00:42:31+01:00*
G04 #@! TF.ProjectId,AC Power Supply,41432050-6f77-4657-9220-537570706c79,rev?*
G04 #@! TF.SameCoordinates,Original*
G04 #@! TF.FileFunction,Paste,Top*
G04 #@! TF.FilePolarity,Positive*
%FSLAX46Y46*%
G04 Gerber Fmt 4.6, Leading zero omitted, Abs format (unit mm)*
G04 Created by KiCad (PCBNEW (6.0.0-0)) date 2022-02-23 00:42:31*
%MOMM*%
%LPD*%
G01*
G04 APERTURE LIST*
G04 Aperture macros list*
%AMRoundRect*
0 Rectangle with rounded corners*
0 $1 Rounding radius*
0 $2 $3 $4 $5 $6 $7 $8 $9 X,Y pos of 4 corners*
0 Add a 4 corners polygon primitive as box body*
4,1,4,$2,$3,$4,$5,$6,$7,$8,$9,$2,$3,0*
0 Add four circle primitives for the rounded corners*
1,1,$1+$1,$2,$3*
1,1,$1+$1,$4,$5*
1,1,$1+$1,$6,$7*
1,1,$1+$1,$8,$9*
0 Add four rect primitives between the rounded corners*
20,1,$1+$1,$2,$3,$4,$5,0*
20,1,$1+$1,$4,$5,$6,$7,0*
20,1,$1+$1,$6,$7,$8,$9,0*
20,1,$1+$1,$8,$9,$2,$3,0*%
G04 Aperture macros list end*
%ADD10RoundRect,0.250000X0.450000X-0.350000X0.450000X0.350000X-0.450000X0.350000X-0.450000X-0.350000X0*%
%ADD11RoundRect,0.250000X-0.450000X0.350000X-0.450000X-0.350000X0.450000X-0.350000X0.450000X0.350000X0*%
%ADD12RoundRect,0.250000X-0.400000X-0.625000X0.400000X-0.625000X0.400000X0.625000X-0.400000X0.625000X0*%
%ADD13RoundRect,0.250000X-0.475000X0.337500X-0.475000X-0.337500X0.475000X-0.337500X0.475000X0.337500X0*%
%ADD14RoundRect,0.250000X0.475000X-0.337500X0.475000X0.337500X-0.475000X0.337500X-0.475000X-0.337500X0*%
%ADD15RoundRect,0.250000X-0.350000X-0.450000X0.350000X-0.450000X0.350000X0.450000X-0.350000X0.450000X0*%
%ADD16RoundRect,0.250000X0.350000X0.450000X-0.350000X0.450000X-0.350000X-0.450000X0.350000X-0.450000X0*%
%ADD17RoundRect,0.250000X-0.400000X-1.450000X0.400000X-1.450000X0.400000X1.450000X-0.400000X1.450000X0*%
%ADD18RoundRect,0.250000X-0.337500X-0.475000X0.337500X-0.475000X0.337500X0.475000X-0.337500X0.475000X0*%
%ADD19RoundRect,0.250000X0.400000X0.625000X-0.400000X0.625000X-0.400000X-0.625000X0.400000X-0.625000X0*%
%ADD20RoundRect,0.250000X0.450000X-0.325000X0.450000X0.325000X-0.450000X0.325000X-0.450000X-0.325000X0*%
%ADD21R,1.799999X0.599999*%
%ADD22RoundRect,0.150000X-0.825000X-0.150000X0.825000X-0.150000X0.825000X0.150000X-0.825000X0.150000X0*%
%ADD23RoundRect,0.250000X0.337500X0.475000X-0.337500X0.475000X-0.337500X-0.475000X0.337500X-0.475000X0*%
%ADD24R,1.560000X0.650000*%
G04 APERTURE END LIST*
D10*
X114550000Y-69800000D03*
X114550000Y-67800000D03*
D11*
X121400000Y-75800000D03*
X121400000Y-77800000D03*
D12*
X58750000Y-68500000D03*
X61850000Y-68500000D03*
D13*
X83375000Y-61062500D03*
X83375000Y-63137500D03*
D14*
X112400000Y-69887500D03*
X112400000Y-67812500D03*
D15*
X103075000Y-76375000D03*
X105075000Y-76375000D03*
D16*
X114625000Y-76750000D03*
X112625000Y-76750000D03*
D17*
X65575000Y-68100000D03*
X70025000Y-68100000D03*
D16*
X110300000Y-72200000D03*
X108300000Y-72200000D03*
X110300000Y-70100000D03*
X108300000Y-70100000D03*
D18*
X64212500Y-71400000D03*
X66287500Y-71400000D03*
D12*
X53350000Y-66000000D03*
X56450000Y-66000000D03*
D13*
X100775000Y-76437500D03*
X100775000Y-78512500D03*
D15*
X103075000Y-78575000D03*
X105075000Y-78575000D03*
D18*
X125112500Y-67950000D03*
X127187500Y-67950000D03*
D14*
X106200000Y-69837500D03*
X106200000Y-67762500D03*
D12*
X53350000Y-71000000D03*
X56450000Y-71000000D03*
D19*
X61850000Y-66000000D03*
X58750000Y-66000000D03*
D18*
X76262500Y-64900000D03*
X78337500Y-64900000D03*
D16*
X127075000Y-71400000D03*
X125075000Y-71400000D03*
D20*
X104000000Y-69825000D03*
X104000000Y-67775000D03*
D15*
X84750000Y-49250000D03*
X86750000Y-49250000D03*
D21*
X63034557Y-73990000D03*
X63034557Y-75260000D03*
X63034557Y-76530000D03*
X63034557Y-77800000D03*
X73934555Y-77800000D03*
X73934555Y-76530000D03*
X73934555Y-75260000D03*
X73934555Y-73990000D03*
D19*
X56450000Y-68500000D03*
X53350000Y-68500000D03*
D18*
X108637500Y-78375000D03*
X110712500Y-78375000D03*
D22*
X117875000Y-67745000D03*
X117875000Y-69015000D03*
X117875000Y-70285000D03*
X117875000Y-71555000D03*
X122825000Y-71555000D03*
X122825000Y-70285000D03*
X122825000Y-69015000D03*
X122825000Y-67745000D03*
D15*
X96325000Y-76375000D03*
X98325000Y-76375000D03*
D23*
X101937500Y-68000000D03*
X99862500Y-68000000D03*
D18*
X65522500Y-64900000D03*
X67597500Y-64900000D03*
D13*
X119250000Y-75762500D03*
X119250000Y-77837500D03*
D18*
X98962500Y-73300000D03*
X101037500Y-73300000D03*
D23*
X115487500Y-72000000D03*
X113412500Y-72000000D03*
D16*
X115450000Y-74250000D03*
X113450000Y-74250000D03*
D18*
X107862500Y-52700000D03*
X109937500Y-52700000D03*
X108262500Y-67900000D03*
X110337500Y-67900000D03*
D24*
X106150000Y-74250000D03*
X106150000Y-73300000D03*
X106150000Y-72350000D03*
X103450000Y-72350000D03*
X103450000Y-73300000D03*
X103450000Y-74250000D03*
D23*
X75837500Y-71434556D03*
X73762500Y-71434556D03*
D19*
X61850000Y-71000000D03*
X58750000Y-71000000D03*
D15*
X119500000Y-73700000D03*
X121500000Y-73700000D03*
D23*
X75837500Y-69200000D03*
X73762500Y-69200000D03*
D14*
X83375000Y-56187500D03*
X83375000Y-54112500D03*
D15*
X96325000Y-78575000D03*
X98325000Y-78575000D03*
D12*
X56250000Y-73500000D03*
X59350000Y-73500000D03*
D13*
X116650000Y-76612500D03*
X116650000Y-78687500D03*
M02*
