G04 #@! TF.GenerationSoftware,KiCad,Pcbnew,(6.0.0-0)*
G04 #@! TF.CreationDate,2022-02-23T00:42:31+01:00*
G04 #@! TF.ProjectId,AC Power Supply,41432050-6f77-4657-9220-537570706c79,rev?*
G04 #@! TF.SameCoordinates,Original*
G04 #@! TF.FileFunction,Legend,Bot*
G04 #@! TF.FilePolarity,Positive*
%FSLAX46Y46*%
G04 Gerber Fmt 4.6, Leading zero omitted, Abs format (unit mm)*
G04 Created by KiCad (PCBNEW (6.0.0-0)) date 2022-02-23 00:42:31*
%MOMM*%
%LPD*%
G01*
G04 APERTURE LIST*
%ADD10C,0.150000*%
%ADD11C,0.120000*%
%ADD12C,1.219200*%
%ADD13C,4.700000*%
%ADD14R,1.508000X1.508000*%
%ADD15C,1.508000*%
%ADD16R,1.700000X1.700000*%
%ADD17O,1.700000X1.700000*%
%ADD18C,1.500000*%
%ADD19R,1.600000X2.400000*%
%ADD20O,1.600000X2.400000*%
G04 APERTURE END LIST*
D10*
X120666666Y-48961904D02*
X120666666Y-49533333D01*
X120704761Y-49647619D01*
X120780952Y-49723809D01*
X120895238Y-49761904D01*
X120971428Y-49761904D01*
X119866666Y-49761904D02*
X120323809Y-49761904D01*
X120095238Y-49761904D02*
X120095238Y-48961904D01*
X120171428Y-49076190D01*
X120247619Y-49152380D01*
X120323809Y-49190476D01*
D11*
X119030000Y-45145000D02*
X80870000Y-45145000D01*
X80870000Y-47805000D02*
X80870000Y-45145000D01*
X119030000Y-47805000D02*
X80870000Y-47805000D01*
X121630000Y-45145000D02*
X120300000Y-45145000D01*
X121630000Y-46475000D02*
X121630000Y-45145000D01*
X119030000Y-47805000D02*
X119030000Y-45145000D01*
%LPC*%
D12*
X112620000Y-49350000D03*
X115160000Y-51890000D03*
X117700000Y-49350000D03*
D13*
X125900000Y-46400000D03*
X50900000Y-77400000D03*
D14*
X78220000Y-62100000D03*
D15*
X75680000Y-62100000D03*
X70600000Y-62100000D03*
X65520000Y-62100000D03*
D16*
X95875000Y-67850000D03*
D17*
X93335000Y-67850000D03*
X90795000Y-67850000D03*
X88255000Y-67850000D03*
D14*
X53350000Y-59600000D03*
D15*
X55850000Y-59600000D03*
D13*
X125900000Y-77400000D03*
D18*
X87425000Y-56175000D03*
X87425000Y-61055000D03*
D13*
X50900000Y-46400000D03*
D19*
X125125000Y-55475000D03*
D20*
X122585000Y-55475000D03*
X120045000Y-55475000D03*
X117505000Y-55475000D03*
X114965000Y-55475000D03*
X112425000Y-55475000D03*
X109885000Y-55475000D03*
X107345000Y-55475000D03*
X104805000Y-55475000D03*
X102265000Y-55475000D03*
X99725000Y-55475000D03*
X97185000Y-55475000D03*
X94645000Y-55475000D03*
X92105000Y-55475000D03*
X92105000Y-63095000D03*
X94645000Y-63095000D03*
X97185000Y-63095000D03*
X99725000Y-63095000D03*
X102265000Y-63095000D03*
X104805000Y-63095000D03*
X107345000Y-63095000D03*
X109885000Y-63095000D03*
X112425000Y-63095000D03*
X114965000Y-63095000D03*
X117505000Y-63095000D03*
X120045000Y-63095000D03*
X122585000Y-63095000D03*
X125125000Y-63095000D03*
D14*
X74600000Y-50350000D03*
D15*
X77100000Y-50350000D03*
D16*
X120300000Y-46475000D03*
D17*
X117760000Y-46475000D03*
X115220000Y-46475000D03*
X112680000Y-46475000D03*
X110140000Y-46475000D03*
X107600000Y-46475000D03*
X105060000Y-46475000D03*
X102520000Y-46475000D03*
X99980000Y-46475000D03*
X97440000Y-46475000D03*
X94900000Y-46475000D03*
X92360000Y-46475000D03*
X89820000Y-46475000D03*
X87280000Y-46475000D03*
X84740000Y-46475000D03*
X82200000Y-46475000D03*
M02*
